G04 #@! TF.GenerationSoftware,KiCad,Pcbnew,(5.1.6)-1*
G04 #@! TF.CreationDate,2021-02-05T21:35:54+00:00*
G04 #@! TF.ProjectId,ibmps1,69626d70-7331-42e6-9b69-6361645f7063,rev?*
G04 #@! TF.SameCoordinates,Original*
G04 #@! TF.FileFunction,Soldermask,Bot*
G04 #@! TF.FilePolarity,Negative*
%FSLAX46Y46*%
G04 Gerber Fmt 4.6, Leading zero omitted, Abs format (unit mm)*
G04 Created by KiCad (PCBNEW (5.1.6)-1) date 2021-02-05 21:35:54*
%MOMM*%
%LPD*%
G01*
G04 APERTURE LIST*
%ADD10C,1.497000*%
%ADD11R,1.497000X1.497000*%
%ADD12R,1.878000X1.878000*%
%ADD13C,1.878000*%
%ADD14R,1.800000X1.800000*%
%ADD15O,1.800000X1.800000*%
%ADD16R,0.610000X0.860000*%
%ADD17R,1.120000X4.670000*%
%ADD18C,1.624000*%
%ADD19C,0.254000*%
G04 APERTURE END LIST*
D10*
X178181000Y-57658000D03*
D11*
X178181000Y-62738000D03*
D10*
X178181000Y-83947000D03*
D11*
X178181000Y-89027000D03*
D10*
X178118000Y-49911000D03*
D11*
X178118000Y-54991000D03*
D10*
X178181000Y-75755500D03*
D11*
X178181000Y-80835500D03*
D10*
X71882000Y-66865500D03*
D11*
X76962000Y-66865500D03*
D10*
X68643500Y-66738500D03*
D11*
X63563500Y-66738500D03*
D12*
X180404000Y-72136000D03*
D13*
X180404000Y-67056000D03*
X180404000Y-69596000D03*
D14*
X158178000Y-82359500D03*
D15*
X158178000Y-84899500D03*
X158178000Y-87439500D03*
D16*
X156515000Y-97097200D03*
X155255000Y-97097200D03*
X153985000Y-97097200D03*
X152715000Y-97097200D03*
X151445000Y-97097200D03*
X150175000Y-97097200D03*
X148905000Y-97097200D03*
X147635000Y-97097200D03*
X146365000Y-97097200D03*
X145095000Y-97097200D03*
X143825000Y-97097200D03*
X140015000Y-97097200D03*
X138745000Y-97097200D03*
X137475000Y-97097200D03*
X136205000Y-97097200D03*
X134935000Y-97097200D03*
X133665000Y-97097200D03*
X132395000Y-97097200D03*
X131125000Y-97097200D03*
X129855000Y-97097200D03*
X128585000Y-97097200D03*
X127315000Y-97097200D03*
X126045000Y-97097200D03*
X124775000Y-97097200D03*
X123505000Y-97097200D03*
X122235000Y-97097200D03*
X120965000Y-97097200D03*
X119695000Y-97097200D03*
X118425000Y-97097200D03*
X117155000Y-97097200D03*
X115885000Y-97097200D03*
X114615000Y-97097200D03*
X113345000Y-97097200D03*
X112075000Y-97097200D03*
X110805000Y-97097200D03*
X109535000Y-97097200D03*
X108265000Y-97097200D03*
X106995000Y-97097200D03*
X105725000Y-97097200D03*
X104445000Y-97097200D03*
X103185000Y-97097200D03*
X101905000Y-97097200D03*
X100645000Y-97097200D03*
X99375000Y-97097200D03*
X98105000Y-97097200D03*
X96835000Y-97097200D03*
X95565000Y-97097200D03*
X94295000Y-97097200D03*
X93015000Y-97097200D03*
X91755000Y-97097200D03*
X90485000Y-97097200D03*
X89215000Y-97097200D03*
X87945000Y-97097200D03*
X86675000Y-97097200D03*
X85405000Y-97097200D03*
X84135000Y-97097200D03*
D17*
X156515000Y-94437200D03*
X155255000Y-94437200D03*
X153985000Y-94437200D03*
X152715000Y-94437200D03*
X151445000Y-94437200D03*
X150175000Y-94437200D03*
X148905000Y-94437200D03*
X147635000Y-94437200D03*
X146365000Y-94437200D03*
X145095000Y-94437200D03*
X143825000Y-94437200D03*
X140015000Y-94437200D03*
X138745000Y-94437200D03*
X137475000Y-94437200D03*
X136205000Y-94437200D03*
X134935000Y-94437200D03*
X133665000Y-94437200D03*
X132395000Y-94437200D03*
X131125000Y-94437200D03*
X129855000Y-94437200D03*
X128585000Y-94437200D03*
X127315000Y-94437200D03*
X126045000Y-94437200D03*
X124775000Y-94437200D03*
X123505000Y-94437200D03*
X122235000Y-94437200D03*
X120965000Y-94437200D03*
X119695000Y-94437200D03*
X118425000Y-94437200D03*
X117155000Y-94437200D03*
X115885000Y-94437200D03*
X114615000Y-94437200D03*
X113345000Y-94437200D03*
X112075000Y-94437200D03*
X110805000Y-94437200D03*
X109535000Y-94437200D03*
X108265000Y-94437200D03*
X106995000Y-94437200D03*
X105725000Y-94437200D03*
X104445000Y-94437200D03*
X103185000Y-94437200D03*
X101905000Y-94437200D03*
X100645000Y-94437200D03*
X99375000Y-94437200D03*
X98105000Y-94437200D03*
X96835000Y-94437200D03*
X95565000Y-94437200D03*
X94295000Y-94437200D03*
X93015000Y-94437200D03*
X91755000Y-94437200D03*
X90485000Y-94437200D03*
X89215000Y-94437200D03*
X87945000Y-94437200D03*
X86675000Y-94437200D03*
X85405000Y-94437200D03*
X84135000Y-94437200D03*
D18*
X34671000Y-53975000D03*
X37211000Y-53975000D03*
X39751000Y-53975000D03*
X42291000Y-53975000D03*
X44831000Y-53975000D03*
X47371000Y-53975000D03*
X49911000Y-53975000D03*
X52451000Y-53975000D03*
X54991000Y-53975000D03*
X57531000Y-53975000D03*
X60071000Y-53975000D03*
X62611000Y-53975000D03*
X65151000Y-53975000D03*
X67691000Y-53975000D03*
X70231000Y-53975000D03*
X72771000Y-53975000D03*
X75311000Y-53975000D03*
X77851000Y-53975000D03*
X34671000Y-59055000D03*
X37211000Y-59055000D03*
X39751000Y-59055000D03*
X42291000Y-59055000D03*
X44831000Y-59055000D03*
X47371000Y-59055000D03*
X49911000Y-59055000D03*
X52451000Y-59055000D03*
X54991000Y-59055000D03*
X57531000Y-59055000D03*
X60071000Y-59055000D03*
X62611000Y-59055000D03*
X65151000Y-59055000D03*
X67691000Y-59055000D03*
X70231000Y-59055000D03*
X72771000Y-59055000D03*
X75311000Y-59055000D03*
X77851000Y-59055000D03*
X88011000Y-53975000D03*
X90551000Y-53975000D03*
X93091000Y-53975000D03*
X95631000Y-53975000D03*
X98171000Y-53975000D03*
X100711000Y-53975000D03*
X103251000Y-53975000D03*
X105791000Y-53975000D03*
X108331000Y-53975000D03*
X110871000Y-53975000D03*
X113411000Y-53975000D03*
X115951000Y-53975000D03*
X118491000Y-53975000D03*
X121031000Y-53975000D03*
X123571000Y-53975000D03*
X126111000Y-53975000D03*
X128651000Y-53975000D03*
X131191000Y-53975000D03*
X133731000Y-53975000D03*
X136271000Y-53975000D03*
X138811000Y-53975000D03*
X141351000Y-53975000D03*
X143891000Y-53975000D03*
X146431000Y-53975000D03*
X148971000Y-53975000D03*
X151511000Y-53975000D03*
X154051000Y-53975000D03*
X156591000Y-53975000D03*
X159131000Y-53975000D03*
X161671000Y-53975000D03*
X164211000Y-53975000D03*
X88011000Y-59055000D03*
X90551000Y-59055000D03*
X93091000Y-59055000D03*
X95631000Y-59055000D03*
X98171000Y-59055000D03*
X100711000Y-59055000D03*
X103251000Y-59055000D03*
X105791000Y-59055000D03*
X108331000Y-59055000D03*
X110871000Y-59055000D03*
X113411000Y-59055000D03*
X115951000Y-59055000D03*
X118491000Y-59055000D03*
X121031000Y-59055000D03*
X123571000Y-59055000D03*
X126111000Y-59055000D03*
X128651000Y-59055000D03*
X131191000Y-59055000D03*
X133731000Y-59055000D03*
X136271000Y-59055000D03*
X138811000Y-59055000D03*
X141351000Y-59055000D03*
X143891000Y-59055000D03*
X146431000Y-59055000D03*
X148971000Y-59055000D03*
X151511000Y-59055000D03*
X154051000Y-59055000D03*
X156591000Y-59055000D03*
X159131000Y-59055000D03*
X161671000Y-59055000D03*
X164211000Y-59055000D03*
X88011000Y-71501000D03*
X90551000Y-71501000D03*
X93091000Y-71501000D03*
X95631000Y-71501000D03*
X98171000Y-71501000D03*
X100711000Y-71501000D03*
X103251000Y-71501000D03*
X105791000Y-71501000D03*
X108331000Y-71501000D03*
X110871000Y-71501000D03*
X113411000Y-71501000D03*
X115951000Y-71501000D03*
X118491000Y-71501000D03*
X121031000Y-71501000D03*
X123571000Y-71501000D03*
X126111000Y-71501000D03*
X128651000Y-71501000D03*
X131191000Y-71501000D03*
X133731000Y-71501000D03*
X136271000Y-71501000D03*
X138811000Y-71501000D03*
X141351000Y-71501000D03*
X143891000Y-71501000D03*
X146431000Y-71501000D03*
X148971000Y-71501000D03*
X151511000Y-71501000D03*
X154051000Y-71501000D03*
X156591000Y-71501000D03*
X159131000Y-71501000D03*
X161671000Y-71501000D03*
X164211000Y-71501000D03*
X88011000Y-76581000D03*
X90551000Y-76581000D03*
X93091000Y-76581000D03*
X95631000Y-76581000D03*
X98171000Y-76581000D03*
X100711000Y-76581000D03*
X103251000Y-76581000D03*
X105791000Y-76581000D03*
X108331000Y-76581000D03*
X110871000Y-76581000D03*
X113411000Y-76581000D03*
X115951000Y-76581000D03*
X118491000Y-76581000D03*
X121031000Y-76581000D03*
X123571000Y-76581000D03*
X126111000Y-76581000D03*
X128651000Y-76581000D03*
X131191000Y-76581000D03*
X133731000Y-76581000D03*
X136271000Y-76581000D03*
X138811000Y-76581000D03*
X141351000Y-76581000D03*
X143891000Y-76581000D03*
X146431000Y-76581000D03*
X148971000Y-76581000D03*
X151511000Y-76581000D03*
X154051000Y-76581000D03*
X156591000Y-76581000D03*
X159131000Y-76581000D03*
X161671000Y-76581000D03*
X164211000Y-76581000D03*
D19*
G36*
X140970000Y-97536000D02*
G01*
X83566000Y-97536000D01*
X83566000Y-92202000D01*
X140970000Y-92202000D01*
X140970000Y-97536000D01*
G37*
X140970000Y-97536000D02*
X83566000Y-97536000D01*
X83566000Y-92202000D01*
X140970000Y-92202000D01*
X140970000Y-97536000D01*
G36*
X157035500Y-97536000D02*
G01*
X142875000Y-97536000D01*
X142875000Y-92202000D01*
X157035500Y-92202000D01*
X157035500Y-97536000D01*
G37*
X157035500Y-97536000D02*
X142875000Y-97536000D01*
X142875000Y-92202000D01*
X157035500Y-92202000D01*
X157035500Y-97536000D01*
M02*
