G04 #@! TF.GenerationSoftware,KiCad,Pcbnew,(5.1.6)-1*
G04 #@! TF.CreationDate,2021-02-05T21:35:54+00:00*
G04 #@! TF.ProjectId,ibmps1,69626d70-7331-42e6-9b69-6361645f7063,rev?*
G04 #@! TF.SameCoordinates,Original*
G04 #@! TF.FileFunction,Profile,NP*
%FSLAX46Y46*%
G04 Gerber Fmt 4.6, Leading zero omitted, Abs format (unit mm)*
G04 Created by KiCad (PCBNEW (5.1.6)-1) date 2021-02-05 21:35:54*
%MOMM*%
%LPD*%
G01*
G04 APERTURE LIST*
G04 #@! TA.AperFunction,Profile*
%ADD10C,0.050000*%
G04 #@! TD*
G04 APERTURE END LIST*
D10*
X181864000Y-47625000D02*
G75*
G03*
X181864000Y-47625000I-863693J0D01*
G01*
X23063386Y-69215000D02*
G75*
G03*
X23063386Y-69215000I-863693J0D01*
G01*
X23088693Y-47625000D02*
G75*
G03*
X23088693Y-47625000I-863693J0D01*
G01*
X140970000Y-91059000D02*
G75*
G02*
X141224000Y-90805000I254000J0D01*
G01*
X142621000Y-90805000D02*
G75*
G02*
X142875000Y-91059000I0J-254000D01*
G01*
X141224000Y-90805000D02*
X142621000Y-90805000D01*
X75692000Y-91059000D02*
G75*
G02*
X75184000Y-90805000I0J635000D01*
G01*
X75692000Y-91059000D02*
X83439000Y-91059000D01*
X182245000Y-46212366D02*
G75*
G02*
X182753000Y-46720366I0J-508000D01*
G01*
X182753000Y-90551000D02*
G75*
G02*
X182499000Y-90805000I-254000J0D01*
G01*
X20066000Y-71120000D02*
G75*
G02*
X19939000Y-70993000I0J127000D01*
G01*
X19939000Y-46736000D02*
G75*
G02*
X20447000Y-46228000I508000J0D01*
G01*
X142875000Y-91059000D02*
X142875000Y-97663000D01*
X83439000Y-97663000D02*
X140970000Y-97663000D01*
X140970000Y-97663000D02*
X140970000Y-91059000D01*
X83439000Y-91059000D02*
X83439000Y-97663000D01*
X157226000Y-90805000D02*
X157226000Y-97663000D01*
X182499000Y-90805000D02*
X157226000Y-90805000D01*
X182753000Y-46720366D02*
X182753000Y-90551000D01*
X20447000Y-46228000D02*
X182245000Y-46212366D01*
X19939000Y-46736000D02*
X19939000Y-70993000D01*
X20066000Y-71120000D02*
X55626000Y-71120000D01*
X55626000Y-71120000D02*
X75184000Y-90805000D01*
X142875000Y-97663000D02*
X157226000Y-97663000D01*
M02*
