G04 #@! TF.GenerationSoftware,KiCad,Pcbnew,(5.1.6)-1*
G04 #@! TF.CreationDate,2021-02-05T21:35:54+00:00*
G04 #@! TF.ProjectId,ibmps1,69626d70-7331-42e6-9b69-6361645f7063,rev?*
G04 #@! TF.SameCoordinates,Original*
G04 #@! TF.FileFunction,Copper,L2,Bot*
G04 #@! TF.FilePolarity,Positive*
%FSLAX46Y46*%
G04 Gerber Fmt 4.6, Leading zero omitted, Abs format (unit mm)*
G04 Created by KiCad (PCBNEW (5.1.6)-1) date 2021-02-05 21:35:54*
%MOMM*%
%LPD*%
G01*
G04 APERTURE LIST*
G04 #@! TA.AperFunction,ComponentPad*
%ADD10C,1.397000*%
G04 #@! TD*
G04 #@! TA.AperFunction,ComponentPad*
%ADD11R,1.397000X1.397000*%
G04 #@! TD*
G04 #@! TA.AperFunction,ComponentPad*
%ADD12R,1.778000X1.778000*%
G04 #@! TD*
G04 #@! TA.AperFunction,ComponentPad*
%ADD13C,1.778000*%
G04 #@! TD*
G04 #@! TA.AperFunction,ComponentPad*
%ADD14R,1.700000X1.700000*%
G04 #@! TD*
G04 #@! TA.AperFunction,ComponentPad*
%ADD15O,1.700000X1.700000*%
G04 #@! TD*
G04 #@! TA.AperFunction,ConnectorPad*
%ADD16R,0.510000X0.760000*%
G04 #@! TD*
G04 #@! TA.AperFunction,ConnectorPad*
%ADD17R,1.020000X4.570000*%
G04 #@! TD*
G04 #@! TA.AperFunction,ComponentPad*
%ADD18C,1.524000*%
G04 #@! TD*
G04 #@! TA.AperFunction,ViaPad*
%ADD19C,0.800000*%
G04 #@! TD*
G04 #@! TA.AperFunction,Conductor*
%ADD20C,0.250000*%
G04 #@! TD*
G04 #@! TA.AperFunction,Conductor*
%ADD21C,0.600000*%
G04 #@! TD*
G04 #@! TA.AperFunction,Conductor*
%ADD22C,0.254000*%
G04 #@! TD*
G04 APERTURE END LIST*
D10*
X178181000Y-57658000D03*
D11*
X178181000Y-62738000D03*
D10*
X178181000Y-83947000D03*
D11*
X178181000Y-89027000D03*
D10*
X178118000Y-49911000D03*
D11*
X178118000Y-54991000D03*
D10*
X178181000Y-75755500D03*
D11*
X178181000Y-80835500D03*
D10*
X71882000Y-66865500D03*
D11*
X76962000Y-66865500D03*
D10*
X68643500Y-66738500D03*
D11*
X63563500Y-66738500D03*
D12*
X180404000Y-72136000D03*
D13*
X180404000Y-67056000D03*
X180404000Y-69596000D03*
D14*
X158178000Y-82359500D03*
D15*
X158178000Y-84899500D03*
X158178000Y-87439500D03*
D16*
X156515000Y-97097200D03*
X155255000Y-97097200D03*
X153985000Y-97097200D03*
X152715000Y-97097200D03*
X151445000Y-97097200D03*
X150175000Y-97097200D03*
X148905000Y-97097200D03*
X147635000Y-97097200D03*
X146365000Y-97097200D03*
X145095000Y-97097200D03*
X143825000Y-97097200D03*
X140015000Y-97097200D03*
X138745000Y-97097200D03*
X137475000Y-97097200D03*
X136205000Y-97097200D03*
X134935000Y-97097200D03*
X133665000Y-97097200D03*
X132395000Y-97097200D03*
X131125000Y-97097200D03*
X129855000Y-97097200D03*
X128585000Y-97097200D03*
X127315000Y-97097200D03*
X126045000Y-97097200D03*
X124775000Y-97097200D03*
X123505000Y-97097200D03*
X122235000Y-97097200D03*
X120965000Y-97097200D03*
X119695000Y-97097200D03*
X118425000Y-97097200D03*
X117155000Y-97097200D03*
X115885000Y-97097200D03*
X114615000Y-97097200D03*
X113345000Y-97097200D03*
X112075000Y-97097200D03*
X110805000Y-97097200D03*
X109535000Y-97097200D03*
X108265000Y-97097200D03*
X106995000Y-97097200D03*
X105725000Y-97097200D03*
X104445000Y-97097200D03*
X103185000Y-97097200D03*
X101905000Y-97097200D03*
X100645000Y-97097200D03*
X99375000Y-97097200D03*
X98105000Y-97097200D03*
X96835000Y-97097200D03*
X95565000Y-97097200D03*
X94295000Y-97097200D03*
X93015000Y-97097200D03*
X91755000Y-97097200D03*
X90485000Y-97097200D03*
X89215000Y-97097200D03*
X87945000Y-97097200D03*
X86675000Y-97097200D03*
X85405000Y-97097200D03*
X84135000Y-97097200D03*
D17*
X156515000Y-94437200D03*
X155255000Y-94437200D03*
X153985000Y-94437200D03*
X152715000Y-94437200D03*
X151445000Y-94437200D03*
X150175000Y-94437200D03*
X148905000Y-94437200D03*
X147635000Y-94437200D03*
X146365000Y-94437200D03*
X145095000Y-94437200D03*
X143825000Y-94437200D03*
X140015000Y-94437200D03*
X138745000Y-94437200D03*
X137475000Y-94437200D03*
X136205000Y-94437200D03*
X134935000Y-94437200D03*
X133665000Y-94437200D03*
X132395000Y-94437200D03*
X131125000Y-94437200D03*
X129855000Y-94437200D03*
X128585000Y-94437200D03*
X127315000Y-94437200D03*
X126045000Y-94437200D03*
X124775000Y-94437200D03*
X123505000Y-94437200D03*
X122235000Y-94437200D03*
X120965000Y-94437200D03*
X119695000Y-94437200D03*
X118425000Y-94437200D03*
X117155000Y-94437200D03*
X115885000Y-94437200D03*
X114615000Y-94437200D03*
X113345000Y-94437200D03*
X112075000Y-94437200D03*
X110805000Y-94437200D03*
X109535000Y-94437200D03*
X108265000Y-94437200D03*
X106995000Y-94437200D03*
X105725000Y-94437200D03*
X104445000Y-94437200D03*
X103185000Y-94437200D03*
X101905000Y-94437200D03*
X100645000Y-94437200D03*
X99375000Y-94437200D03*
X98105000Y-94437200D03*
X96835000Y-94437200D03*
X95565000Y-94437200D03*
X94295000Y-94437200D03*
X93015000Y-94437200D03*
X91755000Y-94437200D03*
X90485000Y-94437200D03*
X89215000Y-94437200D03*
X87945000Y-94437200D03*
X86675000Y-94437200D03*
X85405000Y-94437200D03*
X84135000Y-94437200D03*
D18*
X34671000Y-53975000D03*
X37211000Y-53975000D03*
X39751000Y-53975000D03*
X42291000Y-53975000D03*
X44831000Y-53975000D03*
X47371000Y-53975000D03*
X49911000Y-53975000D03*
X52451000Y-53975000D03*
X54991000Y-53975000D03*
X57531000Y-53975000D03*
X60071000Y-53975000D03*
X62611000Y-53975000D03*
X65151000Y-53975000D03*
X67691000Y-53975000D03*
X70231000Y-53975000D03*
X72771000Y-53975000D03*
X75311000Y-53975000D03*
X77851000Y-53975000D03*
X34671000Y-59055000D03*
X37211000Y-59055000D03*
X39751000Y-59055000D03*
X42291000Y-59055000D03*
X44831000Y-59055000D03*
X47371000Y-59055000D03*
X49911000Y-59055000D03*
X52451000Y-59055000D03*
X54991000Y-59055000D03*
X57531000Y-59055000D03*
X60071000Y-59055000D03*
X62611000Y-59055000D03*
X65151000Y-59055000D03*
X67691000Y-59055000D03*
X70231000Y-59055000D03*
X72771000Y-59055000D03*
X75311000Y-59055000D03*
X77851000Y-59055000D03*
X88011000Y-53975000D03*
X90551000Y-53975000D03*
X93091000Y-53975000D03*
X95631000Y-53975000D03*
X98171000Y-53975000D03*
X100711000Y-53975000D03*
X103251000Y-53975000D03*
X105791000Y-53975000D03*
X108331000Y-53975000D03*
X110871000Y-53975000D03*
X113411000Y-53975000D03*
X115951000Y-53975000D03*
X118491000Y-53975000D03*
X121031000Y-53975000D03*
X123571000Y-53975000D03*
X126111000Y-53975000D03*
X128651000Y-53975000D03*
X131191000Y-53975000D03*
X133731000Y-53975000D03*
X136271000Y-53975000D03*
X138811000Y-53975000D03*
X141351000Y-53975000D03*
X143891000Y-53975000D03*
X146431000Y-53975000D03*
X148971000Y-53975000D03*
X151511000Y-53975000D03*
X154051000Y-53975000D03*
X156591000Y-53975000D03*
X159131000Y-53975000D03*
X161671000Y-53975000D03*
X164211000Y-53975000D03*
X88011000Y-59055000D03*
X90551000Y-59055000D03*
X93091000Y-59055000D03*
X95631000Y-59055000D03*
X98171000Y-59055000D03*
X100711000Y-59055000D03*
X103251000Y-59055000D03*
X105791000Y-59055000D03*
X108331000Y-59055000D03*
X110871000Y-59055000D03*
X113411000Y-59055000D03*
X115951000Y-59055000D03*
X118491000Y-59055000D03*
X121031000Y-59055000D03*
X123571000Y-59055000D03*
X126111000Y-59055000D03*
X128651000Y-59055000D03*
X131191000Y-59055000D03*
X133731000Y-59055000D03*
X136271000Y-59055000D03*
X138811000Y-59055000D03*
X141351000Y-59055000D03*
X143891000Y-59055000D03*
X146431000Y-59055000D03*
X148971000Y-59055000D03*
X151511000Y-59055000D03*
X154051000Y-59055000D03*
X156591000Y-59055000D03*
X159131000Y-59055000D03*
X161671000Y-59055000D03*
X164211000Y-59055000D03*
X88011000Y-71501000D03*
X90551000Y-71501000D03*
X93091000Y-71501000D03*
X95631000Y-71501000D03*
X98171000Y-71501000D03*
X100711000Y-71501000D03*
X103251000Y-71501000D03*
X105791000Y-71501000D03*
X108331000Y-71501000D03*
X110871000Y-71501000D03*
X113411000Y-71501000D03*
X115951000Y-71501000D03*
X118491000Y-71501000D03*
X121031000Y-71501000D03*
X123571000Y-71501000D03*
X126111000Y-71501000D03*
X128651000Y-71501000D03*
X131191000Y-71501000D03*
X133731000Y-71501000D03*
X136271000Y-71501000D03*
X138811000Y-71501000D03*
X141351000Y-71501000D03*
X143891000Y-71501000D03*
X146431000Y-71501000D03*
X148971000Y-71501000D03*
X151511000Y-71501000D03*
X154051000Y-71501000D03*
X156591000Y-71501000D03*
X159131000Y-71501000D03*
X161671000Y-71501000D03*
X164211000Y-71501000D03*
X88011000Y-76581000D03*
X90551000Y-76581000D03*
X93091000Y-76581000D03*
X95631000Y-76581000D03*
X98171000Y-76581000D03*
X100711000Y-76581000D03*
X103251000Y-76581000D03*
X105791000Y-76581000D03*
X108331000Y-76581000D03*
X110871000Y-76581000D03*
X113411000Y-76581000D03*
X115951000Y-76581000D03*
X118491000Y-76581000D03*
X121031000Y-76581000D03*
X123571000Y-76581000D03*
X126111000Y-76581000D03*
X128651000Y-76581000D03*
X131191000Y-76581000D03*
X133731000Y-76581000D03*
X136271000Y-76581000D03*
X138811000Y-76581000D03*
X141351000Y-76581000D03*
X143891000Y-76581000D03*
X146431000Y-76581000D03*
X148971000Y-76581000D03*
X151511000Y-76581000D03*
X154051000Y-76581000D03*
X156591000Y-76581000D03*
X159131000Y-76581000D03*
X161671000Y-76581000D03*
X164211000Y-76581000D03*
D19*
X113244800Y-84955000D03*
X114733700Y-86514700D03*
X116473900Y-85453300D03*
X116508800Y-89214600D03*
X112323600Y-78257500D03*
X118774700Y-88155100D03*
X122968600Y-90687400D03*
X122338300Y-89265900D03*
X119405700Y-91089400D03*
X113790500Y-72881400D03*
X119010700Y-90067500D03*
X115424100Y-78293200D03*
X123689200Y-87178700D03*
X125590200Y-87321300D03*
X126221400Y-88104900D03*
X129508600Y-78232700D03*
X127140200Y-87597600D03*
X131948200Y-78400100D03*
X137986300Y-78259900D03*
X144541400Y-89554900D03*
X146120400Y-88375100D03*
X148599200Y-89224700D03*
X150248400Y-88610700D03*
X152240100Y-88139500D03*
X80846900Y-86942800D03*
X119370200Y-79657800D03*
X119536700Y-88808000D03*
X87893700Y-86942800D03*
X156261600Y-87252800D03*
X84755400Y-91485700D03*
X132953200Y-89548200D03*
X129855000Y-91551100D03*
X110184900Y-91414700D03*
X151377700Y-91515200D03*
X118002900Y-78536800D03*
X119163700Y-77841100D03*
X166425500Y-78439900D03*
X86163600Y-76163400D03*
X85292600Y-75300000D03*
X104325300Y-91070200D03*
X69760000Y-62815900D03*
X146919800Y-77955200D03*
D20*
X88011000Y-53975000D02*
X85995200Y-55990800D01*
X85995200Y-55990800D02*
X85995200Y-69485200D01*
X85995200Y-69485200D02*
X88011000Y-71501000D01*
X90551000Y-71501000D02*
X86895900Y-67845900D01*
X86895900Y-67845900D02*
X86895900Y-57630100D01*
X86895900Y-57630100D02*
X90551000Y-53975000D01*
X93091000Y-71501000D02*
X92003600Y-70413600D01*
X92003600Y-70413600D02*
X92003600Y-55062400D01*
X92003600Y-55062400D02*
X93091000Y-53975000D01*
X95631000Y-53975000D02*
X96742200Y-55086200D01*
X96742200Y-55086200D02*
X96742200Y-69752900D01*
X96742200Y-69752900D02*
X95631000Y-70864100D01*
X95631000Y-70864100D02*
X95631000Y-71501000D01*
X98171000Y-71501000D02*
X98171000Y-60958100D01*
X98171000Y-60958100D02*
X99282200Y-59846900D01*
X99282200Y-59846900D02*
X99282200Y-55086200D01*
X99282200Y-55086200D02*
X98171000Y-53975000D01*
X100711000Y-53975000D02*
X101801900Y-55065900D01*
X101801900Y-55065900D02*
X101801900Y-59867200D01*
X101801900Y-59867200D02*
X100711000Y-60958100D01*
X100711000Y-60958100D02*
X100711000Y-71501000D01*
X105791000Y-71501000D02*
X105791000Y-74677900D01*
X105791000Y-74677900D02*
X107061000Y-75947900D01*
X107061000Y-75947900D02*
X107061000Y-78771200D01*
X107061000Y-78771200D02*
X113244800Y-84955000D01*
X108331000Y-71501000D02*
X108331000Y-74677900D01*
X108331000Y-74677900D02*
X109733100Y-76080000D01*
X109733100Y-76080000D02*
X109733100Y-79585200D01*
X109733100Y-79585200D02*
X114610900Y-84463000D01*
X114610900Y-84463000D02*
X114610900Y-86391900D01*
X114610900Y-86391900D02*
X114733700Y-86514700D01*
X108331000Y-53975000D02*
X109442200Y-55086200D01*
X109442200Y-55086200D02*
X109442200Y-70071200D01*
X109442200Y-70071200D02*
X108331000Y-71182400D01*
X108331000Y-71182400D02*
X108331000Y-71501000D01*
X110871000Y-71501000D02*
X110871000Y-74359300D01*
X110871000Y-74359300D02*
X112090000Y-75578300D01*
X112090000Y-75578300D02*
X112090000Y-76998200D01*
X112090000Y-76998200D02*
X112090100Y-76998200D01*
X112090100Y-76998200D02*
X113068000Y-77976100D01*
X113068000Y-77976100D02*
X113068000Y-80641800D01*
X113068000Y-80641800D02*
X116473900Y-84047700D01*
X116473900Y-84047700D02*
X116473900Y-85453300D01*
X112323600Y-78257500D02*
X112323600Y-80901900D01*
X112323600Y-80901900D02*
X115511500Y-84089800D01*
X115511500Y-84089800D02*
X115511500Y-85528400D01*
X115511500Y-85528400D02*
X116508800Y-86525700D01*
X116508800Y-86525700D02*
X116508800Y-89214600D01*
X113411000Y-71501000D02*
X113411000Y-60958100D01*
X113411000Y-60958100D02*
X114522200Y-59846900D01*
X114522200Y-59846900D02*
X114522200Y-55086200D01*
X114522200Y-55086200D02*
X113411000Y-53975000D01*
X115951000Y-71501000D02*
X117277600Y-72827600D01*
X117277600Y-72827600D02*
X117277600Y-79509800D01*
X117277600Y-79509800D02*
X118774700Y-81006900D01*
X118774700Y-81006900D02*
X118774700Y-88155100D01*
X115951000Y-53975000D02*
X117062200Y-55086200D01*
X117062200Y-55086200D02*
X117062200Y-70389800D01*
X117062200Y-70389800D02*
X115951000Y-71501000D01*
X122968600Y-90687400D02*
X122722700Y-90441500D01*
X122722700Y-90441500D02*
X121775600Y-90441500D01*
X121775600Y-90441500D02*
X121162600Y-89828500D01*
X121162600Y-89828500D02*
X121162600Y-78443600D01*
X121162600Y-78443600D02*
X119761000Y-77042000D01*
X119761000Y-77042000D02*
X119761000Y-74943800D01*
X119761000Y-74943800D02*
X118491000Y-73673800D01*
X118491000Y-73673800D02*
X118491000Y-71501000D01*
X118491000Y-71501000D02*
X118491000Y-60958100D01*
X118491000Y-60958100D02*
X119602200Y-59846900D01*
X119602200Y-59846900D02*
X119602200Y-55086200D01*
X119602200Y-55086200D02*
X118491000Y-53975000D01*
X122338300Y-89265900D02*
X122063200Y-88990800D01*
X122063200Y-88990800D02*
X122063200Y-86334000D01*
X122063200Y-86334000D02*
X122119000Y-86278200D01*
X122119000Y-86278200D02*
X122119000Y-75765900D01*
X122119000Y-75765900D02*
X121983900Y-75630800D01*
X121983900Y-75630800D02*
X121983900Y-72453900D01*
X121983900Y-72453900D02*
X121031000Y-71501000D01*
X121031000Y-53975000D02*
X122142200Y-55086200D01*
X122142200Y-55086200D02*
X122142200Y-59846900D01*
X122142200Y-59846900D02*
X121031000Y-60958100D01*
X121031000Y-60958100D02*
X121031000Y-71501000D01*
X113790500Y-72881400D02*
X113790500Y-75057400D01*
X113790500Y-75057400D02*
X114681000Y-75947900D01*
X114681000Y-75947900D02*
X114681000Y-79649300D01*
X114681000Y-79649300D02*
X117649500Y-82617800D01*
X117649500Y-82617800D02*
X117649500Y-85940400D01*
X117649500Y-85940400D02*
X117599100Y-85990800D01*
X117599100Y-85990800D02*
X117599100Y-88642100D01*
X117599100Y-88642100D02*
X118285400Y-89328400D01*
X118285400Y-89328400D02*
X118285400Y-90367900D01*
X118285400Y-90367900D02*
X119006900Y-91089400D01*
X119006900Y-91089400D02*
X119405700Y-91089400D01*
X123571000Y-71501000D02*
X123571000Y-60958100D01*
X123571000Y-60958100D02*
X124682200Y-59846900D01*
X124682200Y-59846900D02*
X124682200Y-55086200D01*
X124682200Y-55086200D02*
X123571000Y-53975000D01*
X115424100Y-78293200D02*
X118099800Y-80968900D01*
X118099800Y-80968900D02*
X118099800Y-86127000D01*
X118099800Y-86127000D02*
X118049400Y-86177400D01*
X118049400Y-86177400D02*
X118049400Y-88455500D01*
X118049400Y-88455500D02*
X119010700Y-89416800D01*
X119010700Y-89416800D02*
X119010700Y-90067500D01*
X128651000Y-71501000D02*
X127521800Y-72630200D01*
X127521800Y-72630200D02*
X127521800Y-82864800D01*
X127521800Y-82864800D02*
X123689200Y-86697400D01*
X123689200Y-86697400D02*
X123689200Y-87178700D01*
X128651000Y-53975000D02*
X127539700Y-55086300D01*
X127539700Y-55086300D02*
X127539700Y-70389700D01*
X127539700Y-70389700D02*
X128651000Y-71501000D01*
X131191000Y-71501000D02*
X130077400Y-72614600D01*
X130077400Y-72614600D02*
X130077400Y-77775700D01*
X130077400Y-77775700D02*
X130233900Y-77932200D01*
X130233900Y-77932200D02*
X130233900Y-82677600D01*
X130233900Y-82677600D02*
X125590200Y-87321300D01*
X131191000Y-71501000D02*
X130093300Y-70403300D01*
X130093300Y-70403300D02*
X130093300Y-55072700D01*
X130093300Y-55072700D02*
X131191000Y-53975000D01*
X126221400Y-88104900D02*
X125348100Y-88104900D01*
X125348100Y-88104900D02*
X124864800Y-87621600D01*
X124864800Y-87621600D02*
X124864800Y-86795600D01*
X124864800Y-86795600D02*
X129508600Y-82151800D01*
X129508600Y-82151800D02*
X129508600Y-78232700D01*
X133731000Y-53975000D02*
X132619700Y-55086300D01*
X132619700Y-55086300D02*
X132619700Y-69752800D01*
X132619700Y-69752800D02*
X133731000Y-70864100D01*
X133731000Y-70864100D02*
X133731000Y-71501000D01*
X127140200Y-87597600D02*
X131948200Y-82789600D01*
X131948200Y-82789600D02*
X131948200Y-78400100D01*
X136271000Y-71501000D02*
X135317700Y-70547700D01*
X135317700Y-70547700D02*
X135317700Y-60004800D01*
X135317700Y-60004800D02*
X135159300Y-59846400D01*
X135159300Y-59846400D02*
X135159300Y-55086700D01*
X135159300Y-55086700D02*
X136271000Y-53975000D01*
X136205000Y-91826900D02*
X137986300Y-90045600D01*
X137986300Y-90045600D02*
X137986300Y-78259900D01*
X136205000Y-94437200D02*
X136205000Y-91826900D01*
X138811000Y-71501000D02*
X137699700Y-70389700D01*
X137699700Y-70389700D02*
X137699700Y-55086300D01*
X137699700Y-55086300D02*
X138811000Y-53975000D01*
X136205000Y-94437200D02*
X136205000Y-97097200D01*
X141351000Y-71501000D02*
X140234200Y-70384200D01*
X140234200Y-70384200D02*
X140234200Y-55091800D01*
X140234200Y-55091800D02*
X141351000Y-53975000D01*
X141351000Y-71501000D02*
X140203500Y-72648500D01*
X140203500Y-72648500D02*
X140203500Y-89098400D01*
X140203500Y-89098400D02*
X137475000Y-91826900D01*
X137475000Y-94437200D02*
X137475000Y-97097200D01*
X137475000Y-93132000D02*
X137475000Y-94437200D01*
X137475000Y-93132000D02*
X137475000Y-91826900D01*
X143891000Y-71501000D02*
X142788000Y-72604000D01*
X142788000Y-72604000D02*
X142788000Y-87801500D01*
X142788000Y-87801500D02*
X144541400Y-89554900D01*
X143891000Y-53975000D02*
X142784000Y-55082000D01*
X142784000Y-55082000D02*
X142784000Y-70394000D01*
X142784000Y-70394000D02*
X143891000Y-71501000D01*
X146431000Y-71501000D02*
X145314600Y-72617400D01*
X145314600Y-72617400D02*
X145314600Y-87569300D01*
X145314600Y-87569300D02*
X146120400Y-88375100D01*
X148971000Y-71501000D02*
X147870800Y-72601200D01*
X147870800Y-72601200D02*
X147870800Y-77442800D01*
X147870800Y-77442800D02*
X148599200Y-78171200D01*
X148599200Y-78171200D02*
X148599200Y-89224700D01*
X151511000Y-71501000D02*
X151511000Y-74925400D01*
X151511000Y-74925400D02*
X152604100Y-76018500D01*
X152604100Y-76018500D02*
X152604100Y-78410500D01*
X152604100Y-78410500D02*
X150248400Y-80766200D01*
X150248400Y-80766200D02*
X150248400Y-88610700D01*
X154051000Y-71501000D02*
X154051000Y-74677900D01*
X154051000Y-74677900D02*
X155162200Y-75789100D01*
X155162200Y-75789100D02*
X155162200Y-77827200D01*
X155162200Y-77827200D02*
X152240100Y-80749300D01*
X152240100Y-80749300D02*
X152240100Y-88139500D01*
X154051000Y-53975000D02*
X155162200Y-55086200D01*
X155162200Y-55086200D02*
X155162200Y-59846900D01*
X155162200Y-59846900D02*
X154051000Y-60958100D01*
X154051000Y-60958100D02*
X154051000Y-71501000D01*
X156591000Y-53975000D02*
X157724700Y-55108700D01*
X157724700Y-55108700D02*
X157724700Y-59518000D01*
X157724700Y-59518000D02*
X156591000Y-60651700D01*
X156591000Y-60651700D02*
X156591000Y-71501000D01*
X159131000Y-71501000D02*
X159131000Y-60958100D01*
X159131000Y-60958100D02*
X160242200Y-59846900D01*
X160242200Y-59846900D02*
X160242200Y-55086200D01*
X160242200Y-55086200D02*
X159131000Y-53975000D01*
X161671000Y-53975000D02*
X162782200Y-55086200D01*
X162782200Y-55086200D02*
X162782200Y-70389800D01*
X162782200Y-70389800D02*
X161671000Y-71501000D01*
X164211000Y-53975000D02*
X165358800Y-55122800D01*
X165358800Y-55122800D02*
X165358800Y-70353200D01*
X165358800Y-70353200D02*
X164211000Y-71501000D01*
X153985000Y-94437200D02*
X153985000Y-91826900D01*
X164211000Y-71501000D02*
X162941000Y-72771000D01*
X162941000Y-72771000D02*
X162941000Y-79825300D01*
X162941000Y-79825300D02*
X159231400Y-83534900D01*
X159231400Y-83534900D02*
X157843800Y-83534900D01*
X157843800Y-83534900D02*
X154419600Y-86959100D01*
X154419600Y-86959100D02*
X154419600Y-91392300D01*
X154419600Y-91392300D02*
X153985000Y-91826900D01*
X153985000Y-94437200D02*
X153985000Y-97097200D01*
X119536700Y-88808000D02*
X119736100Y-89007400D01*
X119736100Y-89007400D02*
X119736100Y-90312700D01*
X119736100Y-90312700D02*
X120965000Y-91541600D01*
X120965000Y-91541600D02*
X120965000Y-91826900D01*
X119370200Y-79657800D02*
X119536700Y-79824300D01*
X119536700Y-79824300D02*
X119536700Y-88808000D01*
X129855000Y-91551100D02*
X131857900Y-89548200D01*
X131857900Y-89548200D02*
X132953200Y-89548200D01*
X84755400Y-91485700D02*
X84755400Y-90851300D01*
X84755400Y-90851300D02*
X80846900Y-86942800D01*
X34671000Y-59055000D02*
X35758400Y-57967600D01*
X35758400Y-57967600D02*
X50400600Y-57967600D01*
X50400600Y-57967600D02*
X51181000Y-58748000D01*
X51181000Y-58748000D02*
X51181000Y-59355000D01*
X51181000Y-59355000D02*
X55454500Y-63628500D01*
X55454500Y-63628500D02*
X64923800Y-63628500D01*
X64923800Y-63628500D02*
X68033800Y-66738500D01*
X68033800Y-66738500D02*
X68643500Y-66738500D01*
X141351000Y-76581000D02*
X141351000Y-88733700D01*
X141351000Y-88733700D02*
X138745000Y-91339700D01*
X138745000Y-91339700D02*
X138745000Y-94437200D01*
X141509100Y-59055000D02*
X141509100Y-69770100D01*
X141509100Y-69770100D02*
X142445300Y-70706300D01*
X142445300Y-70706300D02*
X142445300Y-72309800D01*
X142445300Y-72309800D02*
X141351000Y-73404100D01*
X141351000Y-73404100D02*
X141351000Y-76581000D01*
X120965000Y-94437200D02*
X120965000Y-91826900D01*
X141509100Y-59055000D02*
X141509100Y-55541100D01*
X141509100Y-55541100D02*
X142440400Y-54609800D01*
X142440400Y-54609800D02*
X142440400Y-53477700D01*
X142440400Y-53477700D02*
X141839500Y-52876800D01*
X141839500Y-52876800D02*
X91648100Y-52876800D01*
X87893700Y-86942800D02*
X88130900Y-86942800D01*
X88130900Y-86942800D02*
X93015000Y-91826900D01*
X68643500Y-66738500D02*
X68643500Y-67692600D01*
X68643500Y-67692600D02*
X87893700Y-86942800D01*
X93015000Y-94437200D02*
X93015000Y-91826900D01*
X156261600Y-91826900D02*
X156515000Y-91826900D01*
X155255000Y-91939500D02*
X155367600Y-91826900D01*
X155367600Y-91826900D02*
X156261600Y-91826900D01*
X156261600Y-87252800D02*
X156261600Y-91826900D01*
X155255000Y-94437200D02*
X155255000Y-91939500D01*
X156515000Y-94437200D02*
X156515000Y-91826900D01*
X155255000Y-94437200D02*
X155255000Y-96391900D01*
X151445000Y-91826900D02*
X151377700Y-91759600D01*
X151377700Y-91759600D02*
X151377700Y-91515200D01*
X129855000Y-94437200D02*
X129855000Y-91551100D01*
X85405000Y-91826900D02*
X85096600Y-91826900D01*
X85096600Y-91826900D02*
X84755400Y-91485700D01*
X85405000Y-94437200D02*
X85405000Y-91826900D01*
X91648100Y-52876800D02*
X91648100Y-54742100D01*
X91648100Y-54742100D02*
X88011000Y-58379200D01*
X88011000Y-58379200D02*
X88011000Y-59055000D01*
X91648100Y-52876800D02*
X90102300Y-52876800D01*
X90102300Y-52876800D02*
X89281000Y-53698100D01*
X89281000Y-53698100D02*
X89281000Y-54291400D01*
X89281000Y-54291400D02*
X86445500Y-57126900D01*
X86445500Y-57126900D02*
X86445500Y-68032400D01*
X86445500Y-68032400D02*
X89122200Y-70709100D01*
X89122200Y-70709100D02*
X89122200Y-75469800D01*
X89122200Y-75469800D02*
X88011000Y-76581000D01*
X109535000Y-91826900D02*
X109772700Y-91826900D01*
X109772700Y-91826900D02*
X110184900Y-91414700D01*
X109535000Y-94437200D02*
X109535000Y-91826900D01*
X138745000Y-94437200D02*
X138745000Y-97097200D01*
X141351000Y-59055000D02*
X141509100Y-59055000D01*
X151445000Y-94437200D02*
X151445000Y-91826900D01*
X129855000Y-94437200D02*
X129855000Y-97097200D01*
X109535000Y-94437200D02*
X109535000Y-97097200D01*
X178181000Y-80835500D02*
X178181000Y-79811700D01*
X178181000Y-79811700D02*
X180404000Y-77588700D01*
X180404000Y-77588700D02*
X180404000Y-72136000D01*
X178181000Y-83947000D02*
X178181000Y-80835500D01*
X155255000Y-96391900D02*
X155255000Y-97097200D01*
X155255000Y-96391900D02*
X156515000Y-96391900D01*
X156515000Y-97097200D02*
X156515000Y-96391900D01*
X178118000Y-54991000D02*
X178118000Y-56014800D01*
X178118000Y-56014800D02*
X178181000Y-56077800D01*
X178181000Y-56077800D02*
X178181000Y-57658000D01*
X120965000Y-97097200D02*
X120965000Y-94437200D01*
X151445000Y-97097200D02*
X151445000Y-94437200D01*
X93015000Y-97097200D02*
X93015000Y-94437200D01*
X85405000Y-94437200D02*
X85405000Y-97097200D01*
X108265000Y-94437200D02*
X108265000Y-91826900D01*
X91052100Y-76079900D02*
X93090900Y-78118700D01*
X93090900Y-78118700D02*
X94556800Y-78118700D01*
X94556800Y-78118700D02*
X108265000Y-91826900D01*
X91052100Y-76079900D02*
X90551000Y-76581000D01*
X90551000Y-59055000D02*
X90551000Y-69604700D01*
X90551000Y-69604700D02*
X91648100Y-70701800D01*
X91648100Y-70701800D02*
X91648100Y-75483900D01*
X91648100Y-75483900D02*
X91052100Y-76079900D01*
X108265000Y-97097200D02*
X108265000Y-94437200D01*
X95631000Y-76581000D02*
X96389200Y-76581000D01*
X96389200Y-76581000D02*
X110937500Y-91129300D01*
X110937500Y-91129300D02*
X110937500Y-91694400D01*
X110937500Y-91694400D02*
X110805000Y-91826900D01*
X110805000Y-94437200D02*
X110805000Y-91826900D01*
X110805000Y-97097200D02*
X110805000Y-94437200D01*
X95631000Y-76581000D02*
X94541700Y-75491700D01*
X94541700Y-75491700D02*
X94541700Y-60144300D01*
X94541700Y-60144300D02*
X95631000Y-59055000D01*
X98171000Y-76581000D02*
X98171000Y-77673600D01*
X98171000Y-77673600D02*
X111585600Y-91088200D01*
X111585600Y-91088200D02*
X111585600Y-91337600D01*
X111585600Y-91337600D02*
X111585700Y-91337600D01*
X111585700Y-91337600D02*
X112075000Y-91826900D01*
X98171000Y-76581000D02*
X97079900Y-75489900D01*
X97079900Y-75489900D02*
X97079900Y-70370400D01*
X97079900Y-70370400D02*
X97297300Y-70153000D01*
X97297300Y-70153000D02*
X97297300Y-59928700D01*
X97297300Y-59928700D02*
X98171000Y-59055000D01*
X112075000Y-94437200D02*
X112075000Y-91826900D01*
X112075000Y-94437200D02*
X112075000Y-97097200D01*
X100711000Y-76581000D02*
X100711000Y-79192900D01*
X100711000Y-79192900D02*
X113345000Y-91826900D01*
X100711000Y-76581000D02*
X99623400Y-75493400D01*
X99623400Y-75493400D02*
X99623400Y-60142600D01*
X99623400Y-60142600D02*
X100711000Y-59055000D01*
X113345000Y-94437200D02*
X113345000Y-91826900D01*
X113345000Y-94437200D02*
X113345000Y-97097200D01*
X114615000Y-91826900D02*
X103525600Y-80737500D01*
X103525600Y-80737500D02*
X103525600Y-76855600D01*
X103525600Y-76855600D02*
X103251000Y-76581000D01*
X114615000Y-94437200D02*
X114615000Y-91826900D01*
X114615000Y-97097200D02*
X114615000Y-94437200D01*
X103251000Y-59055000D02*
X102146400Y-60159600D01*
X102146400Y-60159600D02*
X102146400Y-75476400D01*
X102146400Y-75476400D02*
X103251000Y-76581000D01*
X115885000Y-91826900D02*
X105791000Y-81732900D01*
X105791000Y-81732900D02*
X105791000Y-76581000D01*
X115885000Y-94437200D02*
X115885000Y-91826900D01*
X115885000Y-97097200D02*
X115885000Y-94437200D01*
X105791000Y-76581000D02*
X104703600Y-75493600D01*
X104703600Y-75493600D02*
X104703600Y-60142400D01*
X104703600Y-60142400D02*
X105791000Y-59055000D01*
X117155000Y-94437200D02*
X117155000Y-91826900D01*
X117155000Y-91826900D02*
X113994600Y-88666500D01*
X113994600Y-88666500D02*
X113994600Y-84483600D01*
X113994600Y-84483600D02*
X108331000Y-78820000D01*
X108331000Y-78820000D02*
X108331000Y-76581000D01*
X117155000Y-97097200D02*
X117155000Y-94437200D01*
X108331000Y-59055000D02*
X107238700Y-60147300D01*
X107238700Y-60147300D02*
X107238700Y-75488700D01*
X107238700Y-75488700D02*
X108331000Y-76581000D01*
X110871000Y-76581000D02*
X110871000Y-80086200D01*
X110871000Y-80086200D02*
X115061200Y-84276400D01*
X115061200Y-84276400D02*
X115061200Y-85792400D01*
X115061200Y-85792400D02*
X115783500Y-86514700D01*
X115783500Y-86514700D02*
X115783500Y-89515000D01*
X115783500Y-89515000D02*
X118095400Y-91826900D01*
X118095400Y-91826900D02*
X118425000Y-91826900D01*
X118425000Y-94437200D02*
X118425000Y-91826900D01*
X110871000Y-76581000D02*
X109779900Y-75489900D01*
X109779900Y-75489900D02*
X109779900Y-70370400D01*
X109779900Y-70370400D02*
X110871000Y-69279300D01*
X110871000Y-69279300D02*
X110871000Y-59055000D01*
X118425000Y-97097200D02*
X118425000Y-94437200D01*
X113411000Y-76581000D02*
X113518400Y-76688400D01*
X113518400Y-76688400D02*
X113518400Y-79760400D01*
X113518400Y-79760400D02*
X117199200Y-83441200D01*
X117199200Y-83441200D02*
X117199200Y-85753800D01*
X117199200Y-85753800D02*
X117105500Y-85847500D01*
X117105500Y-85847500D02*
X117105500Y-88785400D01*
X117105500Y-88785400D02*
X117408300Y-89088200D01*
X117408300Y-89088200D02*
X117408300Y-90130400D01*
X117408300Y-90130400D02*
X119104800Y-91826900D01*
X119104800Y-91826900D02*
X119695000Y-91826900D01*
X113411000Y-76581000D02*
X113411000Y-75944200D01*
X113411000Y-75944200D02*
X112315100Y-74848300D01*
X112315100Y-74848300D02*
X112315100Y-60150900D01*
X112315100Y-60150900D02*
X113411000Y-59055000D01*
X119695000Y-94437200D02*
X119695000Y-91826900D01*
X119695000Y-97097200D02*
X119695000Y-94437200D01*
X122235000Y-91826900D02*
X121887200Y-91826900D01*
X121887200Y-91826900D02*
X120262000Y-90201700D01*
X120262000Y-90201700D02*
X120262000Y-79523800D01*
X120262000Y-79523800D02*
X119512300Y-78774100D01*
X119512300Y-78774100D02*
X118240200Y-78774100D01*
X118240200Y-78774100D02*
X118002900Y-78536800D01*
X115951000Y-76581000D02*
X114841900Y-75471900D01*
X114841900Y-75471900D02*
X114841900Y-60164100D01*
X114841900Y-60164100D02*
X115951000Y-59055000D01*
X122235000Y-94437200D02*
X122235000Y-91826900D01*
X122235000Y-97097200D02*
X122235000Y-94437200D01*
X123505000Y-91826900D02*
X123082400Y-91826900D01*
X123082400Y-91826900D02*
X122147300Y-90891800D01*
X122147300Y-90891800D02*
X121589000Y-90891800D01*
X121589000Y-90891800D02*
X120712300Y-90015100D01*
X120712300Y-90015100D02*
X120712300Y-79337200D01*
X120712300Y-79337200D02*
X119423800Y-78048700D01*
X119423800Y-78048700D02*
X119371200Y-78048700D01*
X119371200Y-78048700D02*
X119371200Y-78048600D01*
X119371200Y-78048600D02*
X119163700Y-77841100D01*
X123505000Y-94437200D02*
X123505000Y-91826900D01*
X123505000Y-94437200D02*
X123505000Y-97097200D01*
X124775000Y-91826900D02*
X124775000Y-91468000D01*
X124775000Y-91468000D02*
X123231100Y-89924100D01*
X123231100Y-89924100D02*
X122705900Y-89924100D01*
X122705900Y-89924100D02*
X122638800Y-89991200D01*
X122638800Y-89991200D02*
X121962200Y-89991200D01*
X121962200Y-89991200D02*
X121612900Y-89641900D01*
X121612900Y-89641900D02*
X121612900Y-77162900D01*
X121612900Y-77162900D02*
X121031000Y-76581000D01*
X121031000Y-76581000D02*
X121031000Y-74658300D01*
X121031000Y-74658300D02*
X119943000Y-73570300D01*
X119943000Y-73570300D02*
X119943000Y-60143000D01*
X119943000Y-60143000D02*
X121031000Y-59055000D01*
X124775000Y-94437200D02*
X124775000Y-91826900D01*
X124775000Y-97097200D02*
X124775000Y-94437200D01*
X126045000Y-91826900D02*
X126045000Y-91385500D01*
X126045000Y-91385500D02*
X122513500Y-87854000D01*
X122513500Y-87854000D02*
X122513500Y-86520600D01*
X122513500Y-86520600D02*
X123571000Y-85463100D01*
X123571000Y-85463100D02*
X123571000Y-76581000D01*
X123571000Y-76581000D02*
X122483700Y-75493700D01*
X122483700Y-75493700D02*
X122483700Y-60142300D01*
X122483700Y-60142300D02*
X123571000Y-59055000D01*
X126045000Y-94437200D02*
X126045000Y-91826900D01*
X126045000Y-97097200D02*
X126045000Y-94437200D01*
X127315000Y-91826900D02*
X123467900Y-87979800D01*
X123467900Y-87979800D02*
X123372000Y-87979800D01*
X123372000Y-87979800D02*
X122963800Y-87571600D01*
X122963800Y-87571600D02*
X122963800Y-86707200D01*
X122963800Y-86707200D02*
X126111000Y-83560000D01*
X126111000Y-83560000D02*
X126111000Y-76581000D01*
X126111000Y-76581000D02*
X125013900Y-75483900D01*
X125013900Y-75483900D02*
X125013900Y-60152100D01*
X125013900Y-60152100D02*
X126111000Y-59055000D01*
X127315000Y-94437200D02*
X127315000Y-91826900D01*
X127315000Y-97097200D02*
X127315000Y-94437200D01*
X128585000Y-91826900D02*
X128433200Y-91826900D01*
X128433200Y-91826900D02*
X124414500Y-87808200D01*
X124414500Y-87808200D02*
X124414500Y-86609000D01*
X124414500Y-86609000D02*
X128651000Y-82372500D01*
X128651000Y-82372500D02*
X128651000Y-76581000D01*
X128585000Y-94437200D02*
X128585000Y-91826900D01*
X128585000Y-94437200D02*
X128585000Y-97097200D01*
X131125000Y-91826900D02*
X131700300Y-91826900D01*
X131700300Y-91826900D02*
X133678500Y-89848700D01*
X133678500Y-89848700D02*
X133678500Y-79068500D01*
X133678500Y-79068500D02*
X131191000Y-76581000D01*
X131191000Y-59055000D02*
X131191000Y-69279300D01*
X131191000Y-69279300D02*
X132282000Y-70370300D01*
X132282000Y-70370300D02*
X132282000Y-75490000D01*
X132282000Y-75490000D02*
X131191000Y-76581000D01*
X131125000Y-94437200D02*
X131125000Y-91826900D01*
X131125000Y-97097200D02*
X131125000Y-94437200D01*
X132395000Y-91826900D02*
X134128800Y-90093100D01*
X134128800Y-90093100D02*
X134128800Y-76978800D01*
X134128800Y-76978800D02*
X133731000Y-76581000D01*
X133731000Y-76581000D02*
X134819000Y-75493000D01*
X134819000Y-75493000D02*
X134819000Y-60143000D01*
X134819000Y-60143000D02*
X133731000Y-59055000D01*
X132395000Y-94437200D02*
X132395000Y-91826900D01*
X132395000Y-94437200D02*
X132395000Y-97097200D01*
X136271000Y-76581000D02*
X137364700Y-75487300D01*
X137364700Y-75487300D02*
X137364700Y-70707400D01*
X137364700Y-70707400D02*
X136271000Y-69613700D01*
X136271000Y-69613700D02*
X136271000Y-59055000D01*
X133665000Y-91826900D02*
X136271000Y-89220900D01*
X136271000Y-89220900D02*
X136271000Y-76581000D01*
X133665000Y-94437200D02*
X133665000Y-91826900D01*
X133665000Y-94437200D02*
X133665000Y-97097200D01*
X134935000Y-94437200D02*
X134935000Y-91826900D01*
X134935000Y-91826900D02*
X136916300Y-89845600D01*
X136916300Y-89845600D02*
X136916300Y-78304200D01*
X136916300Y-78304200D02*
X138639500Y-76581000D01*
X138639500Y-76581000D02*
X138811000Y-76581000D01*
X134935000Y-94437200D02*
X134935000Y-97097200D01*
D21*
X178181000Y-62738000D02*
X176982200Y-62738000D01*
X143891000Y-59055000D02*
X146438600Y-56507400D01*
X146438600Y-56507400D02*
X150777600Y-56507400D01*
X150777600Y-56507400D02*
X152780900Y-54504100D01*
X152780900Y-54504100D02*
X152780900Y-53394200D01*
X152780900Y-53394200D02*
X153465600Y-52709500D01*
X153465600Y-52709500D02*
X166953700Y-52709500D01*
X166953700Y-52709500D02*
X176982200Y-62738000D01*
X140015000Y-91651900D02*
X140015000Y-91100000D01*
X140015000Y-91100000D02*
X140825000Y-90290000D01*
X140825000Y-90290000D02*
X143629600Y-90290000D01*
X143629600Y-90290000D02*
X143825000Y-90485400D01*
X143825000Y-90485400D02*
X144884200Y-90485400D01*
X144884200Y-90485400D02*
X145441700Y-89927900D01*
X145441700Y-89927900D02*
X145441700Y-89181900D01*
X145441700Y-89181900D02*
X143891000Y-87631200D01*
X143891000Y-87631200D02*
X143891000Y-76581000D01*
X143825000Y-90485400D02*
X143825000Y-91651900D01*
X143825000Y-94437200D02*
X143825000Y-91651900D01*
X140015000Y-94437200D02*
X140015000Y-91651900D01*
X140015000Y-97097200D02*
X140015000Y-94437200D01*
X143825000Y-94437200D02*
X143825000Y-97097200D01*
D20*
X145095000Y-91826900D02*
X146845700Y-90076200D01*
X146845700Y-90076200D02*
X146845700Y-84383900D01*
X146845700Y-84383900D02*
X146191400Y-83729600D01*
X146191400Y-83729600D02*
X146191400Y-76820600D01*
X146191400Y-76820600D02*
X146431000Y-76581000D01*
X145095000Y-94437200D02*
X145095000Y-91826900D01*
X145095000Y-94437200D02*
X145095000Y-97097200D01*
X150376600Y-76581000D02*
X150376600Y-60189400D01*
X150376600Y-60189400D02*
X151511000Y-59055000D01*
X147635000Y-94437200D02*
X147635000Y-91266300D01*
X147635000Y-91266300D02*
X149324700Y-89576600D01*
X149324700Y-89576600D02*
X149324700Y-78222600D01*
X149324700Y-78222600D02*
X150376600Y-77170700D01*
X150376600Y-77170700D02*
X150376600Y-76581000D01*
X150376600Y-76581000D02*
X151511000Y-76581000D01*
X147635000Y-94437200D02*
X147635000Y-97097200D01*
D21*
X180404000Y-67056000D02*
X180404000Y-52197000D01*
X180404000Y-52197000D02*
X178118000Y-49911000D01*
X154051000Y-76581000D02*
X152781000Y-75311000D01*
X152781000Y-75311000D02*
X152781000Y-60325000D01*
X152781000Y-60325000D02*
X154051000Y-59055000D01*
D20*
X156591000Y-76581000D02*
X155499200Y-75489200D01*
X155499200Y-75489200D02*
X155499200Y-60146800D01*
X155499200Y-60146800D02*
X156591000Y-59055000D01*
D21*
X150175000Y-91651900D02*
X150175000Y-91392000D01*
X150175000Y-91392000D02*
X152527200Y-89039800D01*
X152527200Y-89039800D02*
X152613100Y-89039800D01*
X152613100Y-89039800D02*
X153140400Y-88512500D01*
X153140400Y-88512500D02*
X153140400Y-82571600D01*
X153140400Y-82571600D02*
X159131000Y-76581000D01*
X150175000Y-94437200D02*
X150175000Y-91651900D01*
X150175000Y-94437200D02*
X150175000Y-97097200D01*
X39751000Y-59055000D02*
X46751000Y-66055000D01*
X46751000Y-66055000D02*
X61681200Y-66055000D01*
X61681200Y-66055000D02*
X62364700Y-66738500D01*
X63563500Y-66738500D02*
X62364700Y-66738500D01*
X178181000Y-89027000D02*
X176982200Y-89027000D01*
X166425500Y-78439900D02*
X176982200Y-88996600D01*
X176982200Y-88996600D02*
X176982200Y-89027000D01*
X159131000Y-76581000D02*
X157853400Y-75303400D01*
X157853400Y-75303400D02*
X157853400Y-60332600D01*
X157853400Y-60332600D02*
X159131000Y-59055000D01*
D20*
X152715000Y-91826900D02*
X153765700Y-90776200D01*
X153765700Y-90776200D02*
X153765700Y-84073300D01*
X153765700Y-84073300D02*
X161258000Y-76581000D01*
X152715000Y-94437200D02*
X152715000Y-91826900D01*
X161258000Y-76581000D02*
X160575100Y-75898100D01*
X160575100Y-75898100D02*
X160575100Y-60150900D01*
X160575100Y-60150900D02*
X161671000Y-59055000D01*
X161671000Y-76581000D02*
X161258000Y-76581000D01*
X152715000Y-94437200D02*
X152715000Y-97097200D01*
X75311000Y-53975000D02*
X85544900Y-64208900D01*
X85544900Y-64208900D02*
X85544900Y-74457100D01*
X85544900Y-74457100D02*
X86163600Y-75075800D01*
X86163600Y-75075800D02*
X86163600Y-76163400D01*
X72771000Y-53975000D02*
X73858400Y-55062400D01*
X73858400Y-55062400D02*
X75405100Y-55062400D01*
X75405100Y-55062400D02*
X84914900Y-64572200D01*
X84914900Y-64572200D02*
X84914900Y-74922300D01*
X84914900Y-74922300D02*
X85292600Y-75300000D01*
X104325300Y-91070200D02*
X94672600Y-81417500D01*
X94672600Y-81417500D02*
X89100300Y-81417500D01*
X89100300Y-81417500D02*
X75832800Y-68150000D01*
X75832800Y-68150000D02*
X75832800Y-64513800D01*
X75832800Y-64513800D02*
X71501000Y-60182000D01*
X71501000Y-60182000D02*
X71501000Y-57785000D01*
X71501000Y-57785000D02*
X67691000Y-53975000D01*
X84135000Y-94437200D02*
X84135000Y-97097200D01*
X86675000Y-91826900D02*
X86675000Y-91745100D01*
X86675000Y-91745100D02*
X80570600Y-85640700D01*
X80570600Y-85640700D02*
X80227100Y-85640700D01*
X80227100Y-85640700D02*
X61266700Y-66680300D01*
X61266700Y-66680300D02*
X44836300Y-66680300D01*
X44836300Y-66680300D02*
X37211000Y-59055000D01*
X86675000Y-94437200D02*
X86675000Y-91826900D01*
X86675000Y-97097200D02*
X86675000Y-94437200D01*
X42291000Y-59055000D02*
X48665700Y-65429700D01*
X48665700Y-65429700D02*
X64137900Y-65429700D01*
X64137900Y-65429700D02*
X64812700Y-66104500D01*
X64812700Y-66104500D02*
X64812700Y-68084300D01*
X64812700Y-68084300D02*
X87945000Y-91216600D01*
X87945000Y-91216600D02*
X87945000Y-94437200D01*
X87945000Y-97097200D02*
X87945000Y-94437200D01*
X44831000Y-59055000D02*
X50755400Y-64979400D01*
X50755400Y-64979400D02*
X64324500Y-64979400D01*
X64324500Y-64979400D02*
X65488100Y-66143000D01*
X65488100Y-66143000D02*
X65488100Y-68100000D01*
X65488100Y-68100000D02*
X89215000Y-91826900D01*
X89215000Y-94437200D02*
X89215000Y-91826900D01*
X89215000Y-97097200D02*
X89215000Y-94437200D01*
X47371000Y-59055000D02*
X52845100Y-64529100D01*
X52845100Y-64529100D02*
X64511100Y-64529100D01*
X64511100Y-64529100D02*
X65938400Y-65956400D01*
X65938400Y-65956400D02*
X65938400Y-67280300D01*
X65938400Y-67280300D02*
X90485000Y-91826900D01*
X90485000Y-94437200D02*
X90485000Y-91826900D01*
X90485000Y-94437200D02*
X90485000Y-97097200D01*
X49911000Y-59055000D02*
X54934800Y-64078800D01*
X54934800Y-64078800D02*
X64697700Y-64078800D01*
X64697700Y-64078800D02*
X66388700Y-65769800D01*
X66388700Y-65769800D02*
X66388700Y-66463500D01*
X66388700Y-66463500D02*
X91752100Y-91826900D01*
X91752100Y-91826900D02*
X91755000Y-91826900D01*
X91755000Y-94437200D02*
X91755000Y-91826900D01*
X91755000Y-97097200D02*
X91755000Y-94437200D01*
X52451000Y-59055000D02*
X56574200Y-63178200D01*
X56574200Y-63178200D02*
X65389300Y-63178200D01*
X65389300Y-63178200D02*
X67756900Y-65545800D01*
X67756900Y-65545800D02*
X68916400Y-65545800D01*
X68916400Y-65545800D02*
X69667400Y-66296800D01*
X69667400Y-66296800D02*
X69667400Y-67405600D01*
X69667400Y-67405600D02*
X94088700Y-91826900D01*
X94088700Y-91826900D02*
X94295000Y-91826900D01*
X94295000Y-94437200D02*
X94295000Y-91826900D01*
X94295000Y-97097200D02*
X94295000Y-94437200D01*
X95565000Y-94437200D02*
X95565000Y-91826900D01*
X54991000Y-59055000D02*
X58279400Y-62343400D01*
X58279400Y-62343400D02*
X65191500Y-62343400D01*
X65191500Y-62343400D02*
X67718400Y-64870300D01*
X67718400Y-64870300D02*
X68877800Y-64870300D01*
X68877800Y-64870300D02*
X70117800Y-66110300D01*
X70117800Y-66110300D02*
X70117800Y-67200600D01*
X70117800Y-67200600D02*
X94133800Y-91216600D01*
X94133800Y-91216600D02*
X94954700Y-91216600D01*
X94954700Y-91216600D02*
X95565000Y-91826900D01*
X95565000Y-97097200D02*
X95565000Y-94437200D01*
X96835000Y-94437200D02*
X96835000Y-91826900D01*
X57531000Y-59055000D02*
X60078300Y-61602300D01*
X60078300Y-61602300D02*
X65087300Y-61602300D01*
X65087300Y-61602300D02*
X67905000Y-64420000D01*
X67905000Y-64420000D02*
X69127200Y-64420000D01*
X69127200Y-64420000D02*
X70568200Y-65861000D01*
X70568200Y-65861000D02*
X70568200Y-67014100D01*
X70568200Y-67014100D02*
X91357000Y-87802900D01*
X91357000Y-87802900D02*
X92811000Y-87802900D01*
X92811000Y-87802900D02*
X96835000Y-91826900D01*
X96835000Y-97097200D02*
X96835000Y-94437200D01*
X98105000Y-91826900D02*
X90986100Y-84708000D01*
X90986100Y-84708000D02*
X89467600Y-84708000D01*
X89467600Y-84708000D02*
X88835700Y-84076100D01*
X88835700Y-84076100D02*
X88716100Y-84076100D01*
X88716100Y-84076100D02*
X88716000Y-84076000D01*
X88716000Y-84076000D02*
X88477200Y-84076000D01*
X88477200Y-84076000D02*
X73138100Y-68736900D01*
X73138100Y-68736900D02*
X73138100Y-66650200D01*
X73138100Y-66650200D02*
X71300400Y-64812500D01*
X71300400Y-64812500D02*
X70730700Y-64812500D01*
X70730700Y-64812500D02*
X69212500Y-63294300D01*
X69212500Y-63294300D02*
X68916000Y-63294300D01*
X68916000Y-63294300D02*
X68140200Y-62518500D01*
X68140200Y-62518500D02*
X67503300Y-62518500D01*
X67503300Y-62518500D02*
X67386400Y-62401600D01*
X67386400Y-62401600D02*
X67120300Y-62401600D01*
X67120300Y-62401600D02*
X66771300Y-62052600D01*
X66771300Y-62052600D02*
X66400500Y-62052600D01*
X66400500Y-62052600D02*
X65499800Y-61151900D01*
X65499800Y-61151900D02*
X62515700Y-61151900D01*
X62515700Y-61151900D02*
X60370700Y-59006800D01*
X60370700Y-59006800D02*
X63522800Y-55854700D01*
X63522800Y-55854700D02*
X64820000Y-55854700D01*
X64820000Y-55854700D02*
X66421000Y-54253700D01*
X66421000Y-54253700D02*
X66421000Y-53656000D01*
X66421000Y-53656000D02*
X68005300Y-52071700D01*
X68005300Y-52071700D02*
X169413600Y-52071700D01*
X169413600Y-52071700D02*
X179204900Y-61863000D01*
X179204900Y-61863000D02*
X179204900Y-64198300D01*
X179204900Y-64198300D02*
X159353300Y-84049900D01*
X159353300Y-84049900D02*
X159353300Y-85456300D01*
X159353300Y-85456300D02*
X158545400Y-86264200D01*
X158545400Y-86264200D02*
X158178000Y-86264200D01*
X60071000Y-59055000D02*
X60322500Y-59055000D01*
X60322500Y-59055000D02*
X60370700Y-59006800D01*
X98105000Y-94437200D02*
X98105000Y-91826900D01*
X98105000Y-97097200D02*
X98105000Y-94437200D01*
X158178000Y-87439500D02*
X158178000Y-86264200D01*
X69760000Y-62815900D02*
X69940900Y-62815900D01*
X69940900Y-62815900D02*
X73747400Y-66622400D01*
X73747400Y-66622400D02*
X73747400Y-68653500D01*
X73747400Y-68653500D02*
X88560300Y-83466400D01*
X88560300Y-83466400D02*
X91014500Y-83466400D01*
X91014500Y-83466400D02*
X99375000Y-91826900D01*
X99375000Y-94437200D02*
X99375000Y-91826900D01*
X99375000Y-94437200D02*
X99375000Y-97097200D01*
X100645000Y-91826900D02*
X91811800Y-82993700D01*
X91811800Y-82993700D02*
X88737500Y-82993700D01*
X88737500Y-82993700D02*
X74316000Y-68572200D01*
X74316000Y-68572200D02*
X74316000Y-66346100D01*
X74316000Y-66346100D02*
X69572100Y-61602200D01*
X69572100Y-61602200D02*
X66718900Y-61602200D01*
X66718900Y-61602200D02*
X65818200Y-60701500D01*
X65818200Y-60701500D02*
X62715100Y-60701500D01*
X62715100Y-60701500D02*
X61495400Y-59481800D01*
X61495400Y-59481800D02*
X61495400Y-58591300D01*
X61495400Y-58591300D02*
X62119200Y-57967500D01*
X62119200Y-57967500D02*
X69143500Y-57967500D01*
X69143500Y-57967500D02*
X70231000Y-59055000D01*
X100645000Y-94437200D02*
X100645000Y-91826900D01*
X100645000Y-97097200D02*
X100645000Y-94437200D01*
X101905000Y-94437200D02*
X101905000Y-97097200D01*
X103185000Y-91826900D02*
X93901400Y-82543300D01*
X93901400Y-82543300D02*
X88939200Y-82543300D01*
X88939200Y-82543300D02*
X74766300Y-68370400D01*
X74766300Y-68370400D02*
X74766300Y-66159500D01*
X74766300Y-66159500D02*
X69758700Y-61151900D01*
X69758700Y-61151900D02*
X66905500Y-61151900D01*
X66905500Y-61151900D02*
X66004800Y-60251200D01*
X66004800Y-60251200D02*
X63807200Y-60251200D01*
X63807200Y-60251200D02*
X62611000Y-59055000D01*
X103185000Y-94437200D02*
X103185000Y-91826900D01*
X103185000Y-97097200D02*
X103185000Y-94437200D01*
X104445000Y-91826900D02*
X103876800Y-91826900D01*
X103876800Y-91826900D02*
X93917800Y-81867900D01*
X93917800Y-81867900D02*
X88900700Y-81867900D01*
X88900700Y-81867900D02*
X75319800Y-68287000D01*
X75319800Y-68287000D02*
X75319800Y-66076100D01*
X75319800Y-66076100D02*
X69720200Y-60476500D01*
X69720200Y-60476500D02*
X66867000Y-60476500D01*
X66867000Y-60476500D02*
X65445500Y-59055000D01*
X65445500Y-59055000D02*
X65151000Y-59055000D01*
X104445000Y-94437200D02*
X104445000Y-91826900D01*
X104445000Y-97097200D02*
X104445000Y-94437200D01*
X105725000Y-91826900D02*
X105725000Y-91401900D01*
X105725000Y-91401900D02*
X95290300Y-80967200D01*
X95290300Y-80967200D02*
X89286900Y-80967200D01*
X89286900Y-80967200D02*
X82005900Y-73686200D01*
X82005900Y-73686200D02*
X82005900Y-65749800D01*
X82005900Y-65749800D02*
X82005800Y-65749800D01*
X82005800Y-65749800D02*
X75311000Y-59055000D01*
X105725000Y-94437200D02*
X105725000Y-91826900D01*
X105725000Y-97097200D02*
X105725000Y-94437200D01*
X106995000Y-91826900D02*
X94260700Y-79092600D01*
X94260700Y-79092600D02*
X88049200Y-79092600D01*
X88049200Y-79092600D02*
X83379700Y-74423100D01*
X83379700Y-74423100D02*
X83379700Y-64583700D01*
X83379700Y-64583700D02*
X77851000Y-59055000D01*
X106995000Y-94437200D02*
X106995000Y-91826900D01*
X106995000Y-97097200D02*
X106995000Y-94437200D01*
D21*
X146919800Y-77955200D02*
X147471000Y-78506400D01*
X147471000Y-78506400D02*
X147471000Y-90545900D01*
X147471000Y-90545900D02*
X146365000Y-91651900D01*
X178181000Y-75755500D02*
X178181000Y-71819000D01*
X178181000Y-71819000D02*
X180404000Y-69596000D01*
X146365000Y-94437200D02*
X146365000Y-91651900D01*
X146365000Y-97097200D02*
X146365000Y-94437200D01*
D20*
X148905000Y-94437200D02*
X148905000Y-97097200D01*
D22*
G36*
X92055498Y-90868500D02*
G01*
X91868502Y-90868500D01*
X69020474Y-68020473D01*
X69157446Y-67970447D01*
X92055498Y-90868500D01*
G37*
X92055498Y-90868500D02*
X91868502Y-90868500D01*
X69020474Y-68020473D01*
X69157446Y-67970447D01*
X92055498Y-90868500D01*
G36*
X132918501Y-79383303D02*
G01*
X132918500Y-89533898D01*
X131583899Y-90868500D01*
X128549602Y-90868500D01*
X126705681Y-89024580D01*
X126711656Y-89022105D01*
X126881174Y-88908837D01*
X127025337Y-88764674D01*
X127113586Y-88632600D01*
X127242139Y-88632600D01*
X127442098Y-88592826D01*
X127630456Y-88514805D01*
X127799974Y-88401537D01*
X127944137Y-88257374D01*
X128057405Y-88087856D01*
X128135426Y-87899498D01*
X128175200Y-87699539D01*
X128175200Y-87637401D01*
X132459204Y-83353398D01*
X132488201Y-83329601D01*
X132583174Y-83213876D01*
X132653746Y-83081847D01*
X132697203Y-82938586D01*
X132708200Y-82826933D01*
X132708200Y-82826923D01*
X132711876Y-82789600D01*
X132708200Y-82752277D01*
X132708200Y-79173002D01*
X132918501Y-79383303D01*
G37*
X132918501Y-79383303D02*
X132918500Y-89533898D01*
X131583899Y-90868500D01*
X128549602Y-90868500D01*
X126705681Y-89024580D01*
X126711656Y-89022105D01*
X126881174Y-88908837D01*
X127025337Y-88764674D01*
X127113586Y-88632600D01*
X127242139Y-88632600D01*
X127442098Y-88592826D01*
X127630456Y-88514805D01*
X127799974Y-88401537D01*
X127944137Y-88257374D01*
X128057405Y-88087856D01*
X128135426Y-87899498D01*
X128175200Y-87699539D01*
X128175200Y-87637401D01*
X132459204Y-83353398D01*
X132488201Y-83329601D01*
X132583174Y-83213876D01*
X132653746Y-83081847D01*
X132697203Y-82938586D01*
X132708200Y-82826933D01*
X132708200Y-82826923D01*
X132711876Y-82789600D01*
X132708200Y-82752277D01*
X132708200Y-79173002D01*
X132918501Y-79383303D01*
G36*
X165621563Y-79099674D02*
G01*
X165765726Y-79243837D01*
X165935244Y-79357105D01*
X166080642Y-79417331D01*
X176188075Y-89524765D01*
X176201014Y-89548972D01*
X176317856Y-89691344D01*
X176460228Y-89808186D01*
X176622660Y-89895007D01*
X176798908Y-89948471D01*
X176889264Y-89957370D01*
X176892998Y-89969680D01*
X176951963Y-90079994D01*
X177005312Y-90145000D01*
X157258419Y-90145000D01*
X157226000Y-90141807D01*
X157156806Y-90148622D01*
X157096617Y-90154550D01*
X156972207Y-90192290D01*
X156857550Y-90253575D01*
X156757052Y-90336052D01*
X156674575Y-90436550D01*
X156613290Y-90551207D01*
X156575550Y-90675617D01*
X156562807Y-90805000D01*
X156566000Y-90837419D01*
X156566000Y-90868500D01*
X155179600Y-90868500D01*
X155179600Y-87273901D01*
X156858665Y-85594836D01*
X156862010Y-85602911D01*
X157024525Y-85846132D01*
X157231368Y-86052975D01*
X157405760Y-86169500D01*
X157231368Y-86286025D01*
X157024525Y-86492868D01*
X156862010Y-86736089D01*
X156750068Y-87006342D01*
X156693000Y-87293240D01*
X156693000Y-87585760D01*
X156750068Y-87872658D01*
X156862010Y-88142911D01*
X157024525Y-88386132D01*
X157231368Y-88592975D01*
X157474589Y-88755490D01*
X157744842Y-88867432D01*
X158031740Y-88924500D01*
X158324260Y-88924500D01*
X158611158Y-88867432D01*
X158881411Y-88755490D01*
X159124632Y-88592975D01*
X159331475Y-88386132D01*
X159493990Y-88142911D01*
X159605932Y-87872658D01*
X159663000Y-87585760D01*
X159663000Y-87293240D01*
X159605932Y-87006342D01*
X159493990Y-86736089D01*
X159355531Y-86528870D01*
X159864302Y-86020099D01*
X159893301Y-85996301D01*
X159938369Y-85941386D01*
X159988274Y-85880577D01*
X160058846Y-85748547D01*
X160072358Y-85704002D01*
X160102303Y-85605286D01*
X160113300Y-85493633D01*
X160113300Y-85493624D01*
X160116976Y-85456301D01*
X160113300Y-85418978D01*
X160113300Y-84364701D01*
X165524137Y-78953865D01*
X165621563Y-79099674D01*
G37*
X165621563Y-79099674D02*
X165765726Y-79243837D01*
X165935244Y-79357105D01*
X166080642Y-79417331D01*
X176188075Y-89524765D01*
X176201014Y-89548972D01*
X176317856Y-89691344D01*
X176460228Y-89808186D01*
X176622660Y-89895007D01*
X176798908Y-89948471D01*
X176889264Y-89957370D01*
X176892998Y-89969680D01*
X176951963Y-90079994D01*
X177005312Y-90145000D01*
X157258419Y-90145000D01*
X157226000Y-90141807D01*
X157156806Y-90148622D01*
X157096617Y-90154550D01*
X156972207Y-90192290D01*
X156857550Y-90253575D01*
X156757052Y-90336052D01*
X156674575Y-90436550D01*
X156613290Y-90551207D01*
X156575550Y-90675617D01*
X156562807Y-90805000D01*
X156566000Y-90837419D01*
X156566000Y-90868500D01*
X155179600Y-90868500D01*
X155179600Y-87273901D01*
X156858665Y-85594836D01*
X156862010Y-85602911D01*
X157024525Y-85846132D01*
X157231368Y-86052975D01*
X157405760Y-86169500D01*
X157231368Y-86286025D01*
X157024525Y-86492868D01*
X156862010Y-86736089D01*
X156750068Y-87006342D01*
X156693000Y-87293240D01*
X156693000Y-87585760D01*
X156750068Y-87872658D01*
X156862010Y-88142911D01*
X157024525Y-88386132D01*
X157231368Y-88592975D01*
X157474589Y-88755490D01*
X157744842Y-88867432D01*
X158031740Y-88924500D01*
X158324260Y-88924500D01*
X158611158Y-88867432D01*
X158881411Y-88755490D01*
X159124632Y-88592975D01*
X159331475Y-88386132D01*
X159493990Y-88142911D01*
X159605932Y-87872658D01*
X159663000Y-87585760D01*
X159663000Y-87293240D01*
X159605932Y-87006342D01*
X159493990Y-86736089D01*
X159355531Y-86528870D01*
X159864302Y-86020099D01*
X159893301Y-85996301D01*
X159938369Y-85941386D01*
X159988274Y-85880577D01*
X160058846Y-85748547D01*
X160072358Y-85704002D01*
X160102303Y-85605286D01*
X160113300Y-85493633D01*
X160113300Y-85493624D01*
X160116976Y-85456301D01*
X160113300Y-85418978D01*
X160113300Y-84364701D01*
X165524137Y-78953865D01*
X165621563Y-79099674D01*
G36*
X179638891Y-46897308D02*
G01*
X179523085Y-47176890D01*
X179464047Y-47473692D01*
X179464047Y-47776308D01*
X179523085Y-48073110D01*
X179638891Y-48352692D01*
X179807016Y-48604308D01*
X180020999Y-48818291D01*
X180272615Y-48986416D01*
X180552197Y-49102222D01*
X180848999Y-49161260D01*
X181151615Y-49161260D01*
X181448417Y-49102222D01*
X181727999Y-48986416D01*
X181979615Y-48818291D01*
X182093000Y-48704906D01*
X182093001Y-90145000D01*
X179356688Y-90145000D01*
X179410037Y-90079994D01*
X179469002Y-89969680D01*
X179505312Y-89849982D01*
X179517572Y-89725500D01*
X179517572Y-88328500D01*
X179505312Y-88204018D01*
X179469002Y-88084320D01*
X179410037Y-87974006D01*
X179330685Y-87877315D01*
X179233994Y-87797963D01*
X179123680Y-87738998D01*
X179003982Y-87702688D01*
X178879500Y-87690428D01*
X177482500Y-87690428D01*
X177358018Y-87702688D01*
X177238320Y-87738998D01*
X177128006Y-87797963D01*
X177115839Y-87807949D01*
X174175087Y-84867197D01*
X177440408Y-84867197D01*
X177499686Y-85100812D01*
X177737875Y-85211559D01*
X177993093Y-85273711D01*
X178255533Y-85284876D01*
X178515107Y-85244629D01*
X178761842Y-85154514D01*
X178862314Y-85100812D01*
X178921592Y-84867197D01*
X178181000Y-84126605D01*
X177440408Y-84867197D01*
X174175087Y-84867197D01*
X173329423Y-84021533D01*
X176843124Y-84021533D01*
X176883371Y-84281107D01*
X176973486Y-84527842D01*
X177027188Y-84628314D01*
X177260803Y-84687592D01*
X178001395Y-83947000D01*
X178360605Y-83947000D01*
X179101197Y-84687592D01*
X179334812Y-84628314D01*
X179445559Y-84390125D01*
X179507711Y-84134907D01*
X179518876Y-83872467D01*
X179478629Y-83612893D01*
X179388514Y-83366158D01*
X179334812Y-83265686D01*
X179101197Y-83206408D01*
X178360605Y-83947000D01*
X178001395Y-83947000D01*
X177260803Y-83206408D01*
X177027188Y-83265686D01*
X176916441Y-83503875D01*
X176854289Y-83759093D01*
X176843124Y-84021533D01*
X173329423Y-84021533D01*
X172334693Y-83026803D01*
X177440408Y-83026803D01*
X178181000Y-83767395D01*
X178921592Y-83026803D01*
X178862314Y-82793188D01*
X178624125Y-82682441D01*
X178368907Y-82620289D01*
X178106467Y-82609124D01*
X177846893Y-82649371D01*
X177600158Y-82739486D01*
X177499686Y-82793188D01*
X177440408Y-83026803D01*
X172334693Y-83026803D01*
X170841890Y-81534000D01*
X176844428Y-81534000D01*
X176856688Y-81658482D01*
X176892998Y-81778180D01*
X176951963Y-81888494D01*
X177031315Y-81985185D01*
X177128006Y-82064537D01*
X177238320Y-82123502D01*
X177358018Y-82159812D01*
X177482500Y-82172072D01*
X177895250Y-82169000D01*
X178054000Y-82010250D01*
X178054000Y-80962500D01*
X178308000Y-80962500D01*
X178308000Y-82010250D01*
X178466750Y-82169000D01*
X178879500Y-82172072D01*
X179003982Y-82159812D01*
X179123680Y-82123502D01*
X179233994Y-82064537D01*
X179330685Y-81985185D01*
X179410037Y-81888494D01*
X179469002Y-81778180D01*
X179505312Y-81658482D01*
X179517572Y-81534000D01*
X179514500Y-81121250D01*
X179355750Y-80962500D01*
X178308000Y-80962500D01*
X178054000Y-80962500D01*
X177006250Y-80962500D01*
X176847500Y-81121250D01*
X176844428Y-81534000D01*
X170841890Y-81534000D01*
X169444890Y-80137000D01*
X176844428Y-80137000D01*
X176847500Y-80549750D01*
X177006250Y-80708500D01*
X178054000Y-80708500D01*
X178054000Y-79660750D01*
X178308000Y-79660750D01*
X178308000Y-80708500D01*
X179355750Y-80708500D01*
X179514500Y-80549750D01*
X179517572Y-80137000D01*
X179505312Y-80012518D01*
X179469002Y-79892820D01*
X179410037Y-79782506D01*
X179330685Y-79685815D01*
X179233994Y-79606463D01*
X179123680Y-79547498D01*
X179003982Y-79511188D01*
X178879500Y-79498928D01*
X178466750Y-79502000D01*
X178308000Y-79660750D01*
X178054000Y-79660750D01*
X177895250Y-79502000D01*
X177482500Y-79498928D01*
X177358018Y-79511188D01*
X177238320Y-79547498D01*
X177128006Y-79606463D01*
X177031315Y-79685815D01*
X176951963Y-79782506D01*
X176892998Y-79892820D01*
X176856688Y-80012518D01*
X176844428Y-80137000D01*
X169444890Y-80137000D01*
X167402931Y-78095042D01*
X167342705Y-77949644D01*
X167229437Y-77780126D01*
X167085274Y-77635963D01*
X166939465Y-77538537D01*
X179469000Y-65009002D01*
X179469000Y-65847848D01*
X179432507Y-65872232D01*
X179220232Y-66084507D01*
X179053449Y-66334115D01*
X178938566Y-66611466D01*
X178880000Y-66905899D01*
X178880000Y-67206101D01*
X178938566Y-67500534D01*
X179053449Y-67777885D01*
X179220232Y-68027493D01*
X179432507Y-68239768D01*
X179561562Y-68326000D01*
X179432507Y-68412232D01*
X179220232Y-68624507D01*
X179053449Y-68874115D01*
X178938566Y-69151466D01*
X178880000Y-69445899D01*
X178880000Y-69746101D01*
X178888563Y-69789148D01*
X177552336Y-71125375D01*
X177516657Y-71154656D01*
X177399815Y-71297028D01*
X177323802Y-71439240D01*
X177312994Y-71459460D01*
X177259529Y-71635709D01*
X177241476Y-71819000D01*
X177246001Y-71864942D01*
X177246000Y-74804646D01*
X177145203Y-74905443D01*
X176999268Y-75123851D01*
X176898746Y-75366532D01*
X176847500Y-75624162D01*
X176847500Y-75886838D01*
X176898746Y-76144468D01*
X176999268Y-76387149D01*
X177145203Y-76605557D01*
X177330943Y-76791297D01*
X177549351Y-76937232D01*
X177792032Y-77037754D01*
X178049662Y-77089000D01*
X178312338Y-77089000D01*
X178569968Y-77037754D01*
X178812649Y-76937232D01*
X179031057Y-76791297D01*
X179216797Y-76605557D01*
X179362732Y-76387149D01*
X179463254Y-76144468D01*
X179514500Y-75886838D01*
X179514500Y-75624162D01*
X179463254Y-75366532D01*
X179362732Y-75123851D01*
X179216797Y-74905443D01*
X179116000Y-74804646D01*
X179116000Y-73519012D01*
X179160506Y-73555537D01*
X179270820Y-73614502D01*
X179390518Y-73650812D01*
X179515000Y-73663072D01*
X180118250Y-73660000D01*
X180277000Y-73501250D01*
X180277000Y-72263000D01*
X180531000Y-72263000D01*
X180531000Y-73501250D01*
X180689750Y-73660000D01*
X181293000Y-73663072D01*
X181417482Y-73650812D01*
X181537180Y-73614502D01*
X181647494Y-73555537D01*
X181744185Y-73476185D01*
X181823537Y-73379494D01*
X181882502Y-73269180D01*
X181918812Y-73149482D01*
X181931072Y-73025000D01*
X181928000Y-72421750D01*
X181769250Y-72263000D01*
X180531000Y-72263000D01*
X180277000Y-72263000D01*
X180257000Y-72263000D01*
X180257000Y-72009000D01*
X180277000Y-72009000D01*
X180277000Y-71989000D01*
X180531000Y-71989000D01*
X180531000Y-72009000D01*
X181769250Y-72009000D01*
X181928000Y-71850250D01*
X181931072Y-71247000D01*
X181918812Y-71122518D01*
X181882502Y-71002820D01*
X181823537Y-70892506D01*
X181744185Y-70795815D01*
X181647494Y-70716463D01*
X181537180Y-70657498D01*
X181506937Y-70648324D01*
X181587768Y-70567493D01*
X181754551Y-70317885D01*
X181869434Y-70040534D01*
X181928000Y-69746101D01*
X181928000Y-69445899D01*
X181869434Y-69151466D01*
X181754551Y-68874115D01*
X181587768Y-68624507D01*
X181375493Y-68412232D01*
X181246438Y-68326000D01*
X181375493Y-68239768D01*
X181587768Y-68027493D01*
X181754551Y-67777885D01*
X181869434Y-67500534D01*
X181928000Y-67206101D01*
X181928000Y-66905899D01*
X181869434Y-66611466D01*
X181754551Y-66334115D01*
X181587768Y-66084507D01*
X181375493Y-65872232D01*
X181339000Y-65847848D01*
X181339000Y-52242931D01*
X181343524Y-52196999D01*
X181325471Y-52013707D01*
X181299567Y-51928314D01*
X181272007Y-51837460D01*
X181185186Y-51675028D01*
X181068344Y-51532656D01*
X181032664Y-51503374D01*
X179451500Y-49922211D01*
X179451500Y-49779662D01*
X179400254Y-49522032D01*
X179299732Y-49279351D01*
X179153797Y-49060943D01*
X178968057Y-48875203D01*
X178749649Y-48729268D01*
X178506968Y-48628746D01*
X178249338Y-48577500D01*
X177986662Y-48577500D01*
X177729032Y-48628746D01*
X177486351Y-48729268D01*
X177267943Y-48875203D01*
X177082203Y-49060943D01*
X176936268Y-49279351D01*
X176835746Y-49522032D01*
X176784500Y-49779662D01*
X176784500Y-50042338D01*
X176835746Y-50299968D01*
X176936268Y-50542649D01*
X177082203Y-50761057D01*
X177267943Y-50946797D01*
X177486351Y-51092732D01*
X177729032Y-51193254D01*
X177986662Y-51244500D01*
X178129211Y-51244500D01*
X179469001Y-52584291D01*
X179469001Y-57297531D01*
X179388514Y-57077158D01*
X179334812Y-56976686D01*
X179101197Y-56917408D01*
X178360605Y-57658000D01*
X179101197Y-58398592D01*
X179334812Y-58339314D01*
X179445559Y-58101125D01*
X179469001Y-58004866D01*
X179469000Y-61052298D01*
X176994899Y-58578197D01*
X177440408Y-58578197D01*
X177499686Y-58811812D01*
X177737875Y-58922559D01*
X177993093Y-58984711D01*
X178255533Y-58995876D01*
X178515107Y-58955629D01*
X178761842Y-58865514D01*
X178862314Y-58811812D01*
X178921592Y-58578197D01*
X178181000Y-57837605D01*
X177440408Y-58578197D01*
X176994899Y-58578197D01*
X176149235Y-57732533D01*
X176843124Y-57732533D01*
X176883371Y-57992107D01*
X176973486Y-58238842D01*
X177027188Y-58339314D01*
X177260803Y-58398592D01*
X178001395Y-57658000D01*
X177260803Y-56917408D01*
X177027188Y-56976686D01*
X176916441Y-57214875D01*
X176854289Y-57470093D01*
X176843124Y-57732533D01*
X176149235Y-57732533D01*
X174106202Y-55689500D01*
X176781428Y-55689500D01*
X176793688Y-55813982D01*
X176829998Y-55933680D01*
X176888963Y-56043994D01*
X176968315Y-56140685D01*
X177065006Y-56220037D01*
X177175320Y-56279002D01*
X177295018Y-56315312D01*
X177419500Y-56327572D01*
X177832250Y-56324500D01*
X177990998Y-56165752D01*
X177990998Y-56324500D01*
X178078244Y-56324500D01*
X177846893Y-56360371D01*
X177600158Y-56450486D01*
X177499686Y-56504188D01*
X177440408Y-56737803D01*
X178181000Y-57478395D01*
X178921592Y-56737803D01*
X178862314Y-56504188D01*
X178624125Y-56393441D01*
X178368907Y-56331289D01*
X178209327Y-56324500D01*
X178245002Y-56324500D01*
X178245002Y-56165752D01*
X178403750Y-56324500D01*
X178816500Y-56327572D01*
X178940982Y-56315312D01*
X179060680Y-56279002D01*
X179170994Y-56220037D01*
X179267685Y-56140685D01*
X179347037Y-56043994D01*
X179406002Y-55933680D01*
X179442312Y-55813982D01*
X179454572Y-55689500D01*
X179451500Y-55276750D01*
X179292750Y-55118000D01*
X178245000Y-55118000D01*
X178245000Y-55138000D01*
X177991000Y-55138000D01*
X177991000Y-55118000D01*
X176943250Y-55118000D01*
X176784500Y-55276750D01*
X176781428Y-55689500D01*
X174106202Y-55689500D01*
X172709202Y-54292500D01*
X176781428Y-54292500D01*
X176784500Y-54705250D01*
X176943250Y-54864000D01*
X177991000Y-54864000D01*
X177991000Y-53816250D01*
X178245000Y-53816250D01*
X178245000Y-54864000D01*
X179292750Y-54864000D01*
X179451500Y-54705250D01*
X179454572Y-54292500D01*
X179442312Y-54168018D01*
X179406002Y-54048320D01*
X179347037Y-53938006D01*
X179267685Y-53841315D01*
X179170994Y-53761963D01*
X179060680Y-53702998D01*
X178940982Y-53666688D01*
X178816500Y-53654428D01*
X178403750Y-53657500D01*
X178245000Y-53816250D01*
X177991000Y-53816250D01*
X177832250Y-53657500D01*
X177419500Y-53654428D01*
X177295018Y-53666688D01*
X177175320Y-53702998D01*
X177065006Y-53761963D01*
X176968315Y-53841315D01*
X176888963Y-53938006D01*
X176829998Y-54048320D01*
X176793688Y-54168018D01*
X176781428Y-54292500D01*
X172709202Y-54292500D01*
X169977404Y-51560703D01*
X169953601Y-51531699D01*
X169837876Y-51436726D01*
X169705847Y-51366154D01*
X169562586Y-51322697D01*
X169450933Y-51311700D01*
X169450922Y-51311700D01*
X169413600Y-51308024D01*
X169376278Y-51311700D01*
X68042633Y-51311700D01*
X68005300Y-51308023D01*
X67967967Y-51311700D01*
X67856314Y-51322697D01*
X67713053Y-51366154D01*
X67581024Y-51436726D01*
X67465299Y-51531699D01*
X67441501Y-51560697D01*
X66076927Y-52925272D01*
X66041535Y-52889880D01*
X65812727Y-52736995D01*
X65558490Y-52631686D01*
X65288592Y-52578000D01*
X65013408Y-52578000D01*
X64743510Y-52631686D01*
X64489273Y-52736995D01*
X64260465Y-52889880D01*
X64065880Y-53084465D01*
X63912995Y-53313273D01*
X63881000Y-53390515D01*
X63849005Y-53313273D01*
X63696120Y-53084465D01*
X63501535Y-52889880D01*
X63272727Y-52736995D01*
X63018490Y-52631686D01*
X62748592Y-52578000D01*
X62473408Y-52578000D01*
X62203510Y-52631686D01*
X61949273Y-52736995D01*
X61720465Y-52889880D01*
X61525880Y-53084465D01*
X61372995Y-53313273D01*
X61341000Y-53390515D01*
X61309005Y-53313273D01*
X61156120Y-53084465D01*
X60961535Y-52889880D01*
X60732727Y-52736995D01*
X60478490Y-52631686D01*
X60208592Y-52578000D01*
X59933408Y-52578000D01*
X59663510Y-52631686D01*
X59409273Y-52736995D01*
X59180465Y-52889880D01*
X58985880Y-53084465D01*
X58832995Y-53313273D01*
X58801000Y-53390515D01*
X58769005Y-53313273D01*
X58616120Y-53084465D01*
X58421535Y-52889880D01*
X58192727Y-52736995D01*
X57938490Y-52631686D01*
X57668592Y-52578000D01*
X57393408Y-52578000D01*
X57123510Y-52631686D01*
X56869273Y-52736995D01*
X56640465Y-52889880D01*
X56445880Y-53084465D01*
X56292995Y-53313273D01*
X56261000Y-53390515D01*
X56229005Y-53313273D01*
X56076120Y-53084465D01*
X55881535Y-52889880D01*
X55652727Y-52736995D01*
X55398490Y-52631686D01*
X55128592Y-52578000D01*
X54853408Y-52578000D01*
X54583510Y-52631686D01*
X54329273Y-52736995D01*
X54100465Y-52889880D01*
X53905880Y-53084465D01*
X53752995Y-53313273D01*
X53721000Y-53390515D01*
X53689005Y-53313273D01*
X53536120Y-53084465D01*
X53341535Y-52889880D01*
X53112727Y-52736995D01*
X52858490Y-52631686D01*
X52588592Y-52578000D01*
X52313408Y-52578000D01*
X52043510Y-52631686D01*
X51789273Y-52736995D01*
X51560465Y-52889880D01*
X51365880Y-53084465D01*
X51212995Y-53313273D01*
X51181000Y-53390515D01*
X51149005Y-53313273D01*
X50996120Y-53084465D01*
X50801535Y-52889880D01*
X50572727Y-52736995D01*
X50318490Y-52631686D01*
X50048592Y-52578000D01*
X49773408Y-52578000D01*
X49503510Y-52631686D01*
X49249273Y-52736995D01*
X49020465Y-52889880D01*
X48825880Y-53084465D01*
X48672995Y-53313273D01*
X48641000Y-53390515D01*
X48609005Y-53313273D01*
X48456120Y-53084465D01*
X48261535Y-52889880D01*
X48032727Y-52736995D01*
X47778490Y-52631686D01*
X47508592Y-52578000D01*
X47233408Y-52578000D01*
X46963510Y-52631686D01*
X46709273Y-52736995D01*
X46480465Y-52889880D01*
X46285880Y-53084465D01*
X46132995Y-53313273D01*
X46101000Y-53390515D01*
X46069005Y-53313273D01*
X45916120Y-53084465D01*
X45721535Y-52889880D01*
X45492727Y-52736995D01*
X45238490Y-52631686D01*
X44968592Y-52578000D01*
X44693408Y-52578000D01*
X44423510Y-52631686D01*
X44169273Y-52736995D01*
X43940465Y-52889880D01*
X43745880Y-53084465D01*
X43592995Y-53313273D01*
X43561000Y-53390515D01*
X43529005Y-53313273D01*
X43376120Y-53084465D01*
X43181535Y-52889880D01*
X42952727Y-52736995D01*
X42698490Y-52631686D01*
X42428592Y-52578000D01*
X42153408Y-52578000D01*
X41883510Y-52631686D01*
X41629273Y-52736995D01*
X41400465Y-52889880D01*
X41205880Y-53084465D01*
X41052995Y-53313273D01*
X41021000Y-53390515D01*
X40989005Y-53313273D01*
X40836120Y-53084465D01*
X40641535Y-52889880D01*
X40412727Y-52736995D01*
X40158490Y-52631686D01*
X39888592Y-52578000D01*
X39613408Y-52578000D01*
X39343510Y-52631686D01*
X39089273Y-52736995D01*
X38860465Y-52889880D01*
X38665880Y-53084465D01*
X38512995Y-53313273D01*
X38481000Y-53390515D01*
X38449005Y-53313273D01*
X38296120Y-53084465D01*
X38101535Y-52889880D01*
X37872727Y-52736995D01*
X37618490Y-52631686D01*
X37348592Y-52578000D01*
X37073408Y-52578000D01*
X36803510Y-52631686D01*
X36549273Y-52736995D01*
X36320465Y-52889880D01*
X36125880Y-53084465D01*
X35972995Y-53313273D01*
X35941000Y-53390515D01*
X35909005Y-53313273D01*
X35756120Y-53084465D01*
X35561535Y-52889880D01*
X35332727Y-52736995D01*
X35078490Y-52631686D01*
X34808592Y-52578000D01*
X34533408Y-52578000D01*
X34263510Y-52631686D01*
X34009273Y-52736995D01*
X33780465Y-52889880D01*
X33585880Y-53084465D01*
X33432995Y-53313273D01*
X33327686Y-53567510D01*
X33274000Y-53837408D01*
X33274000Y-54112592D01*
X33327686Y-54382490D01*
X33432995Y-54636727D01*
X33585880Y-54865535D01*
X33780465Y-55060120D01*
X34009273Y-55213005D01*
X34263510Y-55318314D01*
X34533408Y-55372000D01*
X34808592Y-55372000D01*
X35078490Y-55318314D01*
X35332727Y-55213005D01*
X35561535Y-55060120D01*
X35756120Y-54865535D01*
X35909005Y-54636727D01*
X35941000Y-54559485D01*
X35972995Y-54636727D01*
X36125880Y-54865535D01*
X36320465Y-55060120D01*
X36549273Y-55213005D01*
X36803510Y-55318314D01*
X37073408Y-55372000D01*
X37348592Y-55372000D01*
X37618490Y-55318314D01*
X37872727Y-55213005D01*
X38101535Y-55060120D01*
X38296120Y-54865535D01*
X38449005Y-54636727D01*
X38481000Y-54559485D01*
X38512995Y-54636727D01*
X38665880Y-54865535D01*
X38860465Y-55060120D01*
X39089273Y-55213005D01*
X39343510Y-55318314D01*
X39613408Y-55372000D01*
X39888592Y-55372000D01*
X40158490Y-55318314D01*
X40412727Y-55213005D01*
X40641535Y-55060120D01*
X40836120Y-54865535D01*
X40989005Y-54636727D01*
X41021000Y-54559485D01*
X41052995Y-54636727D01*
X41205880Y-54865535D01*
X41400465Y-55060120D01*
X41629273Y-55213005D01*
X41883510Y-55318314D01*
X42153408Y-55372000D01*
X42428592Y-55372000D01*
X42698490Y-55318314D01*
X42952727Y-55213005D01*
X43181535Y-55060120D01*
X43376120Y-54865535D01*
X43529005Y-54636727D01*
X43561000Y-54559485D01*
X43592995Y-54636727D01*
X43745880Y-54865535D01*
X43940465Y-55060120D01*
X44169273Y-55213005D01*
X44423510Y-55318314D01*
X44693408Y-55372000D01*
X44968592Y-55372000D01*
X45238490Y-55318314D01*
X45492727Y-55213005D01*
X45721535Y-55060120D01*
X45916120Y-54865535D01*
X46069005Y-54636727D01*
X46101000Y-54559485D01*
X46132995Y-54636727D01*
X46285880Y-54865535D01*
X46480465Y-55060120D01*
X46709273Y-55213005D01*
X46963510Y-55318314D01*
X47233408Y-55372000D01*
X47508592Y-55372000D01*
X47778490Y-55318314D01*
X48032727Y-55213005D01*
X48261535Y-55060120D01*
X48456120Y-54865535D01*
X48609005Y-54636727D01*
X48641000Y-54559485D01*
X48672995Y-54636727D01*
X48825880Y-54865535D01*
X49020465Y-55060120D01*
X49249273Y-55213005D01*
X49503510Y-55318314D01*
X49773408Y-55372000D01*
X50048592Y-55372000D01*
X50318490Y-55318314D01*
X50572727Y-55213005D01*
X50801535Y-55060120D01*
X50996120Y-54865535D01*
X51149005Y-54636727D01*
X51181000Y-54559485D01*
X51212995Y-54636727D01*
X51365880Y-54865535D01*
X51560465Y-55060120D01*
X51789273Y-55213005D01*
X52043510Y-55318314D01*
X52313408Y-55372000D01*
X52588592Y-55372000D01*
X52858490Y-55318314D01*
X53112727Y-55213005D01*
X53341535Y-55060120D01*
X53536120Y-54865535D01*
X53689005Y-54636727D01*
X53721000Y-54559485D01*
X53752995Y-54636727D01*
X53905880Y-54865535D01*
X54100465Y-55060120D01*
X54329273Y-55213005D01*
X54583510Y-55318314D01*
X54853408Y-55372000D01*
X55128592Y-55372000D01*
X55398490Y-55318314D01*
X55652727Y-55213005D01*
X55881535Y-55060120D01*
X56076120Y-54865535D01*
X56229005Y-54636727D01*
X56261000Y-54559485D01*
X56292995Y-54636727D01*
X56445880Y-54865535D01*
X56640465Y-55060120D01*
X56869273Y-55213005D01*
X57123510Y-55318314D01*
X57393408Y-55372000D01*
X57668592Y-55372000D01*
X57938490Y-55318314D01*
X58192727Y-55213005D01*
X58421535Y-55060120D01*
X58616120Y-54865535D01*
X58769005Y-54636727D01*
X58801000Y-54559485D01*
X58832995Y-54636727D01*
X58985880Y-54865535D01*
X59180465Y-55060120D01*
X59409273Y-55213005D01*
X59663510Y-55318314D01*
X59933408Y-55372000D01*
X60208592Y-55372000D01*
X60478490Y-55318314D01*
X60732727Y-55213005D01*
X60961535Y-55060120D01*
X61156120Y-54865535D01*
X61309005Y-54636727D01*
X61341000Y-54559485D01*
X61372995Y-54636727D01*
X61525880Y-54865535D01*
X61720465Y-55060120D01*
X61949273Y-55213005D01*
X62203510Y-55318314D01*
X62473408Y-55372000D01*
X62748592Y-55372000D01*
X62972291Y-55327504D01*
X62959001Y-55343697D01*
X60558055Y-57744643D01*
X60478490Y-57711686D01*
X60208592Y-57658000D01*
X59933408Y-57658000D01*
X59663510Y-57711686D01*
X59409273Y-57816995D01*
X59180465Y-57969880D01*
X58985880Y-58164465D01*
X58832995Y-58393273D01*
X58801000Y-58470515D01*
X58769005Y-58393273D01*
X58616120Y-58164465D01*
X58421535Y-57969880D01*
X58192727Y-57816995D01*
X57938490Y-57711686D01*
X57668592Y-57658000D01*
X57393408Y-57658000D01*
X57123510Y-57711686D01*
X56869273Y-57816995D01*
X56640465Y-57969880D01*
X56445880Y-58164465D01*
X56292995Y-58393273D01*
X56261000Y-58470515D01*
X56229005Y-58393273D01*
X56076120Y-58164465D01*
X55881535Y-57969880D01*
X55652727Y-57816995D01*
X55398490Y-57711686D01*
X55128592Y-57658000D01*
X54853408Y-57658000D01*
X54583510Y-57711686D01*
X54329273Y-57816995D01*
X54100465Y-57969880D01*
X53905880Y-58164465D01*
X53752995Y-58393273D01*
X53721000Y-58470515D01*
X53689005Y-58393273D01*
X53536120Y-58164465D01*
X53341535Y-57969880D01*
X53112727Y-57816995D01*
X52858490Y-57711686D01*
X52588592Y-57658000D01*
X52313408Y-57658000D01*
X52043510Y-57711686D01*
X51789273Y-57816995D01*
X51560465Y-57969880D01*
X51365880Y-58164465D01*
X51212995Y-58393273D01*
X51181000Y-58470515D01*
X51149005Y-58393273D01*
X50996120Y-58164465D01*
X50801535Y-57969880D01*
X50572727Y-57816995D01*
X50318490Y-57711686D01*
X50048592Y-57658000D01*
X49773408Y-57658000D01*
X49503510Y-57711686D01*
X49249273Y-57816995D01*
X49020465Y-57969880D01*
X48825880Y-58164465D01*
X48672995Y-58393273D01*
X48641000Y-58470515D01*
X48609005Y-58393273D01*
X48456120Y-58164465D01*
X48261535Y-57969880D01*
X48032727Y-57816995D01*
X47778490Y-57711686D01*
X47508592Y-57658000D01*
X47233408Y-57658000D01*
X46963510Y-57711686D01*
X46709273Y-57816995D01*
X46480465Y-57969880D01*
X46285880Y-58164465D01*
X46132995Y-58393273D01*
X46101000Y-58470515D01*
X46069005Y-58393273D01*
X45916120Y-58164465D01*
X45721535Y-57969880D01*
X45492727Y-57816995D01*
X45238490Y-57711686D01*
X44968592Y-57658000D01*
X44693408Y-57658000D01*
X44423510Y-57711686D01*
X44169273Y-57816995D01*
X43940465Y-57969880D01*
X43745880Y-58164465D01*
X43592995Y-58393273D01*
X43561000Y-58470515D01*
X43529005Y-58393273D01*
X43376120Y-58164465D01*
X43181535Y-57969880D01*
X42952727Y-57816995D01*
X42698490Y-57711686D01*
X42428592Y-57658000D01*
X42153408Y-57658000D01*
X41883510Y-57711686D01*
X41629273Y-57816995D01*
X41400465Y-57969880D01*
X41205880Y-58164465D01*
X41052995Y-58393273D01*
X41021000Y-58470515D01*
X40989005Y-58393273D01*
X40836120Y-58164465D01*
X40641535Y-57969880D01*
X40412727Y-57816995D01*
X40158490Y-57711686D01*
X39888592Y-57658000D01*
X39613408Y-57658000D01*
X39343510Y-57711686D01*
X39089273Y-57816995D01*
X38860465Y-57969880D01*
X38665880Y-58164465D01*
X38512995Y-58393273D01*
X38481000Y-58470515D01*
X38449005Y-58393273D01*
X38296120Y-58164465D01*
X38101535Y-57969880D01*
X37872727Y-57816995D01*
X37618490Y-57711686D01*
X37348592Y-57658000D01*
X37073408Y-57658000D01*
X36803510Y-57711686D01*
X36549273Y-57816995D01*
X36320465Y-57969880D01*
X36125880Y-58164465D01*
X35972995Y-58393273D01*
X35943308Y-58464943D01*
X35938636Y-58451977D01*
X35876656Y-58336020D01*
X35636565Y-58269040D01*
X34850605Y-59055000D01*
X35636565Y-59840960D01*
X35876656Y-59773980D01*
X35940485Y-59638240D01*
X35972995Y-59716727D01*
X36125880Y-59945535D01*
X36320465Y-60140120D01*
X36549273Y-60293005D01*
X36803510Y-60398314D01*
X37073408Y-60452000D01*
X37348592Y-60452000D01*
X37502571Y-60421372D01*
X44272500Y-67191302D01*
X44296299Y-67220301D01*
X44412024Y-67315274D01*
X44544053Y-67385846D01*
X44687314Y-67429303D01*
X44798967Y-67440300D01*
X44798975Y-67440300D01*
X44836300Y-67443976D01*
X44873625Y-67440300D01*
X60951899Y-67440300D01*
X79663300Y-86151702D01*
X79687099Y-86180701D01*
X79802824Y-86275674D01*
X79934853Y-86346246D01*
X80078114Y-86389703D01*
X80189767Y-86400700D01*
X80189777Y-86400700D01*
X80227100Y-86404376D01*
X80256572Y-86401473D01*
X84723598Y-90868500D01*
X84070910Y-90868500D01*
X84051710Y-90805207D01*
X83990425Y-90690550D01*
X83907948Y-90590052D01*
X83807450Y-90507575D01*
X83692793Y-90446290D01*
X83568383Y-90408550D01*
X83471419Y-90399000D01*
X83439000Y-90395807D01*
X83406581Y-90399000D01*
X75724275Y-90399000D01*
X75703866Y-90396999D01*
X75688802Y-90379691D01*
X75675047Y-90362820D01*
X56116298Y-70677067D01*
X56094948Y-70651052D01*
X56045340Y-70610339D01*
X55996232Y-70569771D01*
X55995287Y-70569262D01*
X55994450Y-70568575D01*
X55937846Y-70538320D01*
X55881774Y-70508115D01*
X55880747Y-70507800D01*
X55879793Y-70507290D01*
X55818385Y-70488662D01*
X55757487Y-70469973D01*
X55756419Y-70469864D01*
X55755383Y-70469550D01*
X55691538Y-70463262D01*
X55628146Y-70456811D01*
X55594656Y-70460000D01*
X23101613Y-70460000D01*
X23179001Y-70408291D01*
X23392984Y-70194308D01*
X23561109Y-69942692D01*
X23676915Y-69663110D01*
X23735953Y-69366308D01*
X23735953Y-69063692D01*
X23676915Y-68766890D01*
X23561109Y-68487308D01*
X23392984Y-68235692D01*
X23179001Y-68021709D01*
X22927385Y-67853584D01*
X22647803Y-67737778D01*
X22351001Y-67678740D01*
X22048385Y-67678740D01*
X21751583Y-67737778D01*
X21472001Y-67853584D01*
X21220385Y-68021709D01*
X21006402Y-68235692D01*
X20838277Y-68487308D01*
X20722471Y-68766890D01*
X20663433Y-69063692D01*
X20663433Y-69366308D01*
X20722471Y-69663110D01*
X20838277Y-69942692D01*
X21006402Y-70194308D01*
X21220385Y-70408291D01*
X21297773Y-70460000D01*
X20599000Y-70460000D01*
X20599000Y-60020565D01*
X33885040Y-60020565D01*
X33952020Y-60260656D01*
X34201048Y-60377756D01*
X34468135Y-60444023D01*
X34743017Y-60456910D01*
X35015133Y-60415922D01*
X35274023Y-60322636D01*
X35389980Y-60260656D01*
X35456960Y-60020565D01*
X34671000Y-59234605D01*
X33885040Y-60020565D01*
X20599000Y-60020565D01*
X20599000Y-59127017D01*
X33269090Y-59127017D01*
X33310078Y-59399133D01*
X33403364Y-59658023D01*
X33465344Y-59773980D01*
X33705435Y-59840960D01*
X34491395Y-59055000D01*
X33705435Y-58269040D01*
X33465344Y-58336020D01*
X33348244Y-58585048D01*
X33281977Y-58852135D01*
X33269090Y-59127017D01*
X20599000Y-59127017D01*
X20599000Y-58089435D01*
X33885040Y-58089435D01*
X34671000Y-58875395D01*
X35456960Y-58089435D01*
X35389980Y-57849344D01*
X35140952Y-57732244D01*
X34873865Y-57665977D01*
X34598983Y-57653090D01*
X34326867Y-57694078D01*
X34067977Y-57787364D01*
X33952020Y-57849344D01*
X33885040Y-58089435D01*
X20599000Y-58089435D01*
X20599000Y-46887985D01*
X20869831Y-46887959D01*
X20863584Y-46897308D01*
X20747778Y-47176890D01*
X20688740Y-47473692D01*
X20688740Y-47776308D01*
X20747778Y-48073110D01*
X20863584Y-48352692D01*
X21031709Y-48604308D01*
X21245692Y-48818291D01*
X21497308Y-48986416D01*
X21776890Y-49102222D01*
X22073692Y-49161260D01*
X22376308Y-49161260D01*
X22673110Y-49102222D01*
X22952692Y-48986416D01*
X23204308Y-48818291D01*
X23418291Y-48604308D01*
X23586416Y-48352692D01*
X23702222Y-48073110D01*
X23761260Y-47776308D01*
X23761260Y-47473692D01*
X23702222Y-47176890D01*
X23586416Y-46897308D01*
X23579994Y-46887697D01*
X179655390Y-46872615D01*
X179638891Y-46897308D01*
G37*
X179638891Y-46897308D02*
X179523085Y-47176890D01*
X179464047Y-47473692D01*
X179464047Y-47776308D01*
X179523085Y-48073110D01*
X179638891Y-48352692D01*
X179807016Y-48604308D01*
X180020999Y-48818291D01*
X180272615Y-48986416D01*
X180552197Y-49102222D01*
X180848999Y-49161260D01*
X181151615Y-49161260D01*
X181448417Y-49102222D01*
X181727999Y-48986416D01*
X181979615Y-48818291D01*
X182093000Y-48704906D01*
X182093001Y-90145000D01*
X179356688Y-90145000D01*
X179410037Y-90079994D01*
X179469002Y-89969680D01*
X179505312Y-89849982D01*
X179517572Y-89725500D01*
X179517572Y-88328500D01*
X179505312Y-88204018D01*
X179469002Y-88084320D01*
X179410037Y-87974006D01*
X179330685Y-87877315D01*
X179233994Y-87797963D01*
X179123680Y-87738998D01*
X179003982Y-87702688D01*
X178879500Y-87690428D01*
X177482500Y-87690428D01*
X177358018Y-87702688D01*
X177238320Y-87738998D01*
X177128006Y-87797963D01*
X177115839Y-87807949D01*
X174175087Y-84867197D01*
X177440408Y-84867197D01*
X177499686Y-85100812D01*
X177737875Y-85211559D01*
X177993093Y-85273711D01*
X178255533Y-85284876D01*
X178515107Y-85244629D01*
X178761842Y-85154514D01*
X178862314Y-85100812D01*
X178921592Y-84867197D01*
X178181000Y-84126605D01*
X177440408Y-84867197D01*
X174175087Y-84867197D01*
X173329423Y-84021533D01*
X176843124Y-84021533D01*
X176883371Y-84281107D01*
X176973486Y-84527842D01*
X177027188Y-84628314D01*
X177260803Y-84687592D01*
X178001395Y-83947000D01*
X178360605Y-83947000D01*
X179101197Y-84687592D01*
X179334812Y-84628314D01*
X179445559Y-84390125D01*
X179507711Y-84134907D01*
X179518876Y-83872467D01*
X179478629Y-83612893D01*
X179388514Y-83366158D01*
X179334812Y-83265686D01*
X179101197Y-83206408D01*
X178360605Y-83947000D01*
X178001395Y-83947000D01*
X177260803Y-83206408D01*
X177027188Y-83265686D01*
X176916441Y-83503875D01*
X176854289Y-83759093D01*
X176843124Y-84021533D01*
X173329423Y-84021533D01*
X172334693Y-83026803D01*
X177440408Y-83026803D01*
X178181000Y-83767395D01*
X178921592Y-83026803D01*
X178862314Y-82793188D01*
X178624125Y-82682441D01*
X178368907Y-82620289D01*
X178106467Y-82609124D01*
X177846893Y-82649371D01*
X177600158Y-82739486D01*
X177499686Y-82793188D01*
X177440408Y-83026803D01*
X172334693Y-83026803D01*
X170841890Y-81534000D01*
X176844428Y-81534000D01*
X176856688Y-81658482D01*
X176892998Y-81778180D01*
X176951963Y-81888494D01*
X177031315Y-81985185D01*
X177128006Y-82064537D01*
X177238320Y-82123502D01*
X177358018Y-82159812D01*
X177482500Y-82172072D01*
X177895250Y-82169000D01*
X178054000Y-82010250D01*
X178054000Y-80962500D01*
X178308000Y-80962500D01*
X178308000Y-82010250D01*
X178466750Y-82169000D01*
X178879500Y-82172072D01*
X179003982Y-82159812D01*
X179123680Y-82123502D01*
X179233994Y-82064537D01*
X179330685Y-81985185D01*
X179410037Y-81888494D01*
X179469002Y-81778180D01*
X179505312Y-81658482D01*
X179517572Y-81534000D01*
X179514500Y-81121250D01*
X179355750Y-80962500D01*
X178308000Y-80962500D01*
X178054000Y-80962500D01*
X177006250Y-80962500D01*
X176847500Y-81121250D01*
X176844428Y-81534000D01*
X170841890Y-81534000D01*
X169444890Y-80137000D01*
X176844428Y-80137000D01*
X176847500Y-80549750D01*
X177006250Y-80708500D01*
X178054000Y-80708500D01*
X178054000Y-79660750D01*
X178308000Y-79660750D01*
X178308000Y-80708500D01*
X179355750Y-80708500D01*
X179514500Y-80549750D01*
X179517572Y-80137000D01*
X179505312Y-80012518D01*
X179469002Y-79892820D01*
X179410037Y-79782506D01*
X179330685Y-79685815D01*
X179233994Y-79606463D01*
X179123680Y-79547498D01*
X179003982Y-79511188D01*
X178879500Y-79498928D01*
X178466750Y-79502000D01*
X178308000Y-79660750D01*
X178054000Y-79660750D01*
X177895250Y-79502000D01*
X177482500Y-79498928D01*
X177358018Y-79511188D01*
X177238320Y-79547498D01*
X177128006Y-79606463D01*
X177031315Y-79685815D01*
X176951963Y-79782506D01*
X176892998Y-79892820D01*
X176856688Y-80012518D01*
X176844428Y-80137000D01*
X169444890Y-80137000D01*
X167402931Y-78095042D01*
X167342705Y-77949644D01*
X167229437Y-77780126D01*
X167085274Y-77635963D01*
X166939465Y-77538537D01*
X179469000Y-65009002D01*
X179469000Y-65847848D01*
X179432507Y-65872232D01*
X179220232Y-66084507D01*
X179053449Y-66334115D01*
X178938566Y-66611466D01*
X178880000Y-66905899D01*
X178880000Y-67206101D01*
X178938566Y-67500534D01*
X179053449Y-67777885D01*
X179220232Y-68027493D01*
X179432507Y-68239768D01*
X179561562Y-68326000D01*
X179432507Y-68412232D01*
X179220232Y-68624507D01*
X179053449Y-68874115D01*
X178938566Y-69151466D01*
X178880000Y-69445899D01*
X178880000Y-69746101D01*
X178888563Y-69789148D01*
X177552336Y-71125375D01*
X177516657Y-71154656D01*
X177399815Y-71297028D01*
X177323802Y-71439240D01*
X177312994Y-71459460D01*
X177259529Y-71635709D01*
X177241476Y-71819000D01*
X177246001Y-71864942D01*
X177246000Y-74804646D01*
X177145203Y-74905443D01*
X176999268Y-75123851D01*
X176898746Y-75366532D01*
X176847500Y-75624162D01*
X176847500Y-75886838D01*
X176898746Y-76144468D01*
X176999268Y-76387149D01*
X177145203Y-76605557D01*
X177330943Y-76791297D01*
X177549351Y-76937232D01*
X177792032Y-77037754D01*
X178049662Y-77089000D01*
X178312338Y-77089000D01*
X178569968Y-77037754D01*
X178812649Y-76937232D01*
X179031057Y-76791297D01*
X179216797Y-76605557D01*
X179362732Y-76387149D01*
X179463254Y-76144468D01*
X179514500Y-75886838D01*
X179514500Y-75624162D01*
X179463254Y-75366532D01*
X179362732Y-75123851D01*
X179216797Y-74905443D01*
X179116000Y-74804646D01*
X179116000Y-73519012D01*
X179160506Y-73555537D01*
X179270820Y-73614502D01*
X179390518Y-73650812D01*
X179515000Y-73663072D01*
X180118250Y-73660000D01*
X180277000Y-73501250D01*
X180277000Y-72263000D01*
X180531000Y-72263000D01*
X180531000Y-73501250D01*
X180689750Y-73660000D01*
X181293000Y-73663072D01*
X181417482Y-73650812D01*
X181537180Y-73614502D01*
X181647494Y-73555537D01*
X181744185Y-73476185D01*
X181823537Y-73379494D01*
X181882502Y-73269180D01*
X181918812Y-73149482D01*
X181931072Y-73025000D01*
X181928000Y-72421750D01*
X181769250Y-72263000D01*
X180531000Y-72263000D01*
X180277000Y-72263000D01*
X180257000Y-72263000D01*
X180257000Y-72009000D01*
X180277000Y-72009000D01*
X180277000Y-71989000D01*
X180531000Y-71989000D01*
X180531000Y-72009000D01*
X181769250Y-72009000D01*
X181928000Y-71850250D01*
X181931072Y-71247000D01*
X181918812Y-71122518D01*
X181882502Y-71002820D01*
X181823537Y-70892506D01*
X181744185Y-70795815D01*
X181647494Y-70716463D01*
X181537180Y-70657498D01*
X181506937Y-70648324D01*
X181587768Y-70567493D01*
X181754551Y-70317885D01*
X181869434Y-70040534D01*
X181928000Y-69746101D01*
X181928000Y-69445899D01*
X181869434Y-69151466D01*
X181754551Y-68874115D01*
X181587768Y-68624507D01*
X181375493Y-68412232D01*
X181246438Y-68326000D01*
X181375493Y-68239768D01*
X181587768Y-68027493D01*
X181754551Y-67777885D01*
X181869434Y-67500534D01*
X181928000Y-67206101D01*
X181928000Y-66905899D01*
X181869434Y-66611466D01*
X181754551Y-66334115D01*
X181587768Y-66084507D01*
X181375493Y-65872232D01*
X181339000Y-65847848D01*
X181339000Y-52242931D01*
X181343524Y-52196999D01*
X181325471Y-52013707D01*
X181299567Y-51928314D01*
X181272007Y-51837460D01*
X181185186Y-51675028D01*
X181068344Y-51532656D01*
X181032664Y-51503374D01*
X179451500Y-49922211D01*
X179451500Y-49779662D01*
X179400254Y-49522032D01*
X179299732Y-49279351D01*
X179153797Y-49060943D01*
X178968057Y-48875203D01*
X178749649Y-48729268D01*
X178506968Y-48628746D01*
X178249338Y-48577500D01*
X177986662Y-48577500D01*
X177729032Y-48628746D01*
X177486351Y-48729268D01*
X177267943Y-48875203D01*
X177082203Y-49060943D01*
X176936268Y-49279351D01*
X176835746Y-49522032D01*
X176784500Y-49779662D01*
X176784500Y-50042338D01*
X176835746Y-50299968D01*
X176936268Y-50542649D01*
X177082203Y-50761057D01*
X177267943Y-50946797D01*
X177486351Y-51092732D01*
X177729032Y-51193254D01*
X177986662Y-51244500D01*
X178129211Y-51244500D01*
X179469001Y-52584291D01*
X179469001Y-57297531D01*
X179388514Y-57077158D01*
X179334812Y-56976686D01*
X179101197Y-56917408D01*
X178360605Y-57658000D01*
X179101197Y-58398592D01*
X179334812Y-58339314D01*
X179445559Y-58101125D01*
X179469001Y-58004866D01*
X179469000Y-61052298D01*
X176994899Y-58578197D01*
X177440408Y-58578197D01*
X177499686Y-58811812D01*
X177737875Y-58922559D01*
X177993093Y-58984711D01*
X178255533Y-58995876D01*
X178515107Y-58955629D01*
X178761842Y-58865514D01*
X178862314Y-58811812D01*
X178921592Y-58578197D01*
X178181000Y-57837605D01*
X177440408Y-58578197D01*
X176994899Y-58578197D01*
X176149235Y-57732533D01*
X176843124Y-57732533D01*
X176883371Y-57992107D01*
X176973486Y-58238842D01*
X177027188Y-58339314D01*
X177260803Y-58398592D01*
X178001395Y-57658000D01*
X177260803Y-56917408D01*
X177027188Y-56976686D01*
X176916441Y-57214875D01*
X176854289Y-57470093D01*
X176843124Y-57732533D01*
X176149235Y-57732533D01*
X174106202Y-55689500D01*
X176781428Y-55689500D01*
X176793688Y-55813982D01*
X176829998Y-55933680D01*
X176888963Y-56043994D01*
X176968315Y-56140685D01*
X177065006Y-56220037D01*
X177175320Y-56279002D01*
X177295018Y-56315312D01*
X177419500Y-56327572D01*
X177832250Y-56324500D01*
X177990998Y-56165752D01*
X177990998Y-56324500D01*
X178078244Y-56324500D01*
X177846893Y-56360371D01*
X177600158Y-56450486D01*
X177499686Y-56504188D01*
X177440408Y-56737803D01*
X178181000Y-57478395D01*
X178921592Y-56737803D01*
X178862314Y-56504188D01*
X178624125Y-56393441D01*
X178368907Y-56331289D01*
X178209327Y-56324500D01*
X178245002Y-56324500D01*
X178245002Y-56165752D01*
X178403750Y-56324500D01*
X178816500Y-56327572D01*
X178940982Y-56315312D01*
X179060680Y-56279002D01*
X179170994Y-56220037D01*
X179267685Y-56140685D01*
X179347037Y-56043994D01*
X179406002Y-55933680D01*
X179442312Y-55813982D01*
X179454572Y-55689500D01*
X179451500Y-55276750D01*
X179292750Y-55118000D01*
X178245000Y-55118000D01*
X178245000Y-55138000D01*
X177991000Y-55138000D01*
X177991000Y-55118000D01*
X176943250Y-55118000D01*
X176784500Y-55276750D01*
X176781428Y-55689500D01*
X174106202Y-55689500D01*
X172709202Y-54292500D01*
X176781428Y-54292500D01*
X176784500Y-54705250D01*
X176943250Y-54864000D01*
X177991000Y-54864000D01*
X177991000Y-53816250D01*
X178245000Y-53816250D01*
X178245000Y-54864000D01*
X179292750Y-54864000D01*
X179451500Y-54705250D01*
X179454572Y-54292500D01*
X179442312Y-54168018D01*
X179406002Y-54048320D01*
X179347037Y-53938006D01*
X179267685Y-53841315D01*
X179170994Y-53761963D01*
X179060680Y-53702998D01*
X178940982Y-53666688D01*
X178816500Y-53654428D01*
X178403750Y-53657500D01*
X178245000Y-53816250D01*
X177991000Y-53816250D01*
X177832250Y-53657500D01*
X177419500Y-53654428D01*
X177295018Y-53666688D01*
X177175320Y-53702998D01*
X177065006Y-53761963D01*
X176968315Y-53841315D01*
X176888963Y-53938006D01*
X176829998Y-54048320D01*
X176793688Y-54168018D01*
X176781428Y-54292500D01*
X172709202Y-54292500D01*
X169977404Y-51560703D01*
X169953601Y-51531699D01*
X169837876Y-51436726D01*
X169705847Y-51366154D01*
X169562586Y-51322697D01*
X169450933Y-51311700D01*
X169450922Y-51311700D01*
X169413600Y-51308024D01*
X169376278Y-51311700D01*
X68042633Y-51311700D01*
X68005300Y-51308023D01*
X67967967Y-51311700D01*
X67856314Y-51322697D01*
X67713053Y-51366154D01*
X67581024Y-51436726D01*
X67465299Y-51531699D01*
X67441501Y-51560697D01*
X66076927Y-52925272D01*
X66041535Y-52889880D01*
X65812727Y-52736995D01*
X65558490Y-52631686D01*
X65288592Y-52578000D01*
X65013408Y-52578000D01*
X64743510Y-52631686D01*
X64489273Y-52736995D01*
X64260465Y-52889880D01*
X64065880Y-53084465D01*
X63912995Y-53313273D01*
X63881000Y-53390515D01*
X63849005Y-53313273D01*
X63696120Y-53084465D01*
X63501535Y-52889880D01*
X63272727Y-52736995D01*
X63018490Y-52631686D01*
X62748592Y-52578000D01*
X62473408Y-52578000D01*
X62203510Y-52631686D01*
X61949273Y-52736995D01*
X61720465Y-52889880D01*
X61525880Y-53084465D01*
X61372995Y-53313273D01*
X61341000Y-53390515D01*
X61309005Y-53313273D01*
X61156120Y-53084465D01*
X60961535Y-52889880D01*
X60732727Y-52736995D01*
X60478490Y-52631686D01*
X60208592Y-52578000D01*
X59933408Y-52578000D01*
X59663510Y-52631686D01*
X59409273Y-52736995D01*
X59180465Y-52889880D01*
X58985880Y-53084465D01*
X58832995Y-53313273D01*
X58801000Y-53390515D01*
X58769005Y-53313273D01*
X58616120Y-53084465D01*
X58421535Y-52889880D01*
X58192727Y-52736995D01*
X57938490Y-52631686D01*
X57668592Y-52578000D01*
X57393408Y-52578000D01*
X57123510Y-52631686D01*
X56869273Y-52736995D01*
X56640465Y-52889880D01*
X56445880Y-53084465D01*
X56292995Y-53313273D01*
X56261000Y-53390515D01*
X56229005Y-53313273D01*
X56076120Y-53084465D01*
X55881535Y-52889880D01*
X55652727Y-52736995D01*
X55398490Y-52631686D01*
X55128592Y-52578000D01*
X54853408Y-52578000D01*
X54583510Y-52631686D01*
X54329273Y-52736995D01*
X54100465Y-52889880D01*
X53905880Y-53084465D01*
X53752995Y-53313273D01*
X53721000Y-53390515D01*
X53689005Y-53313273D01*
X53536120Y-53084465D01*
X53341535Y-52889880D01*
X53112727Y-52736995D01*
X52858490Y-52631686D01*
X52588592Y-52578000D01*
X52313408Y-52578000D01*
X52043510Y-52631686D01*
X51789273Y-52736995D01*
X51560465Y-52889880D01*
X51365880Y-53084465D01*
X51212995Y-53313273D01*
X51181000Y-53390515D01*
X51149005Y-53313273D01*
X50996120Y-53084465D01*
X50801535Y-52889880D01*
X50572727Y-52736995D01*
X50318490Y-52631686D01*
X50048592Y-52578000D01*
X49773408Y-52578000D01*
X49503510Y-52631686D01*
X49249273Y-52736995D01*
X49020465Y-52889880D01*
X48825880Y-53084465D01*
X48672995Y-53313273D01*
X48641000Y-53390515D01*
X48609005Y-53313273D01*
X48456120Y-53084465D01*
X48261535Y-52889880D01*
X48032727Y-52736995D01*
X47778490Y-52631686D01*
X47508592Y-52578000D01*
X47233408Y-52578000D01*
X46963510Y-52631686D01*
X46709273Y-52736995D01*
X46480465Y-52889880D01*
X46285880Y-53084465D01*
X46132995Y-53313273D01*
X46101000Y-53390515D01*
X46069005Y-53313273D01*
X45916120Y-53084465D01*
X45721535Y-52889880D01*
X45492727Y-52736995D01*
X45238490Y-52631686D01*
X44968592Y-52578000D01*
X44693408Y-52578000D01*
X44423510Y-52631686D01*
X44169273Y-52736995D01*
X43940465Y-52889880D01*
X43745880Y-53084465D01*
X43592995Y-53313273D01*
X43561000Y-53390515D01*
X43529005Y-53313273D01*
X43376120Y-53084465D01*
X43181535Y-52889880D01*
X42952727Y-52736995D01*
X42698490Y-52631686D01*
X42428592Y-52578000D01*
X42153408Y-52578000D01*
X41883510Y-52631686D01*
X41629273Y-52736995D01*
X41400465Y-52889880D01*
X41205880Y-53084465D01*
X41052995Y-53313273D01*
X41021000Y-53390515D01*
X40989005Y-53313273D01*
X40836120Y-53084465D01*
X40641535Y-52889880D01*
X40412727Y-52736995D01*
X40158490Y-52631686D01*
X39888592Y-52578000D01*
X39613408Y-52578000D01*
X39343510Y-52631686D01*
X39089273Y-52736995D01*
X38860465Y-52889880D01*
X38665880Y-53084465D01*
X38512995Y-53313273D01*
X38481000Y-53390515D01*
X38449005Y-53313273D01*
X38296120Y-53084465D01*
X38101535Y-52889880D01*
X37872727Y-52736995D01*
X37618490Y-52631686D01*
X37348592Y-52578000D01*
X37073408Y-52578000D01*
X36803510Y-52631686D01*
X36549273Y-52736995D01*
X36320465Y-52889880D01*
X36125880Y-53084465D01*
X35972995Y-53313273D01*
X35941000Y-53390515D01*
X35909005Y-53313273D01*
X35756120Y-53084465D01*
X35561535Y-52889880D01*
X35332727Y-52736995D01*
X35078490Y-52631686D01*
X34808592Y-52578000D01*
X34533408Y-52578000D01*
X34263510Y-52631686D01*
X34009273Y-52736995D01*
X33780465Y-52889880D01*
X33585880Y-53084465D01*
X33432995Y-53313273D01*
X33327686Y-53567510D01*
X33274000Y-53837408D01*
X33274000Y-54112592D01*
X33327686Y-54382490D01*
X33432995Y-54636727D01*
X33585880Y-54865535D01*
X33780465Y-55060120D01*
X34009273Y-55213005D01*
X34263510Y-55318314D01*
X34533408Y-55372000D01*
X34808592Y-55372000D01*
X35078490Y-55318314D01*
X35332727Y-55213005D01*
X35561535Y-55060120D01*
X35756120Y-54865535D01*
X35909005Y-54636727D01*
X35941000Y-54559485D01*
X35972995Y-54636727D01*
X36125880Y-54865535D01*
X36320465Y-55060120D01*
X36549273Y-55213005D01*
X36803510Y-55318314D01*
X37073408Y-55372000D01*
X37348592Y-55372000D01*
X37618490Y-55318314D01*
X37872727Y-55213005D01*
X38101535Y-55060120D01*
X38296120Y-54865535D01*
X38449005Y-54636727D01*
X38481000Y-54559485D01*
X38512995Y-54636727D01*
X38665880Y-54865535D01*
X38860465Y-55060120D01*
X39089273Y-55213005D01*
X39343510Y-55318314D01*
X39613408Y-55372000D01*
X39888592Y-55372000D01*
X40158490Y-55318314D01*
X40412727Y-55213005D01*
X40641535Y-55060120D01*
X40836120Y-54865535D01*
X40989005Y-54636727D01*
X41021000Y-54559485D01*
X41052995Y-54636727D01*
X41205880Y-54865535D01*
X41400465Y-55060120D01*
X41629273Y-55213005D01*
X41883510Y-55318314D01*
X42153408Y-55372000D01*
X42428592Y-55372000D01*
X42698490Y-55318314D01*
X42952727Y-55213005D01*
X43181535Y-55060120D01*
X43376120Y-54865535D01*
X43529005Y-54636727D01*
X43561000Y-54559485D01*
X43592995Y-54636727D01*
X43745880Y-54865535D01*
X43940465Y-55060120D01*
X44169273Y-55213005D01*
X44423510Y-55318314D01*
X44693408Y-55372000D01*
X44968592Y-55372000D01*
X45238490Y-55318314D01*
X45492727Y-55213005D01*
X45721535Y-55060120D01*
X45916120Y-54865535D01*
X46069005Y-54636727D01*
X46101000Y-54559485D01*
X46132995Y-54636727D01*
X46285880Y-54865535D01*
X46480465Y-55060120D01*
X46709273Y-55213005D01*
X46963510Y-55318314D01*
X47233408Y-55372000D01*
X47508592Y-55372000D01*
X47778490Y-55318314D01*
X48032727Y-55213005D01*
X48261535Y-55060120D01*
X48456120Y-54865535D01*
X48609005Y-54636727D01*
X48641000Y-54559485D01*
X48672995Y-54636727D01*
X48825880Y-54865535D01*
X49020465Y-55060120D01*
X49249273Y-55213005D01*
X49503510Y-55318314D01*
X49773408Y-55372000D01*
X50048592Y-55372000D01*
X50318490Y-55318314D01*
X50572727Y-55213005D01*
X50801535Y-55060120D01*
X50996120Y-54865535D01*
X51149005Y-54636727D01*
X51181000Y-54559485D01*
X51212995Y-54636727D01*
X51365880Y-54865535D01*
X51560465Y-55060120D01*
X51789273Y-55213005D01*
X52043510Y-55318314D01*
X52313408Y-55372000D01*
X52588592Y-55372000D01*
X52858490Y-55318314D01*
X53112727Y-55213005D01*
X53341535Y-55060120D01*
X53536120Y-54865535D01*
X53689005Y-54636727D01*
X53721000Y-54559485D01*
X53752995Y-54636727D01*
X53905880Y-54865535D01*
X54100465Y-55060120D01*
X54329273Y-55213005D01*
X54583510Y-55318314D01*
X54853408Y-55372000D01*
X55128592Y-55372000D01*
X55398490Y-55318314D01*
X55652727Y-55213005D01*
X55881535Y-55060120D01*
X56076120Y-54865535D01*
X56229005Y-54636727D01*
X56261000Y-54559485D01*
X56292995Y-54636727D01*
X56445880Y-54865535D01*
X56640465Y-55060120D01*
X56869273Y-55213005D01*
X57123510Y-55318314D01*
X57393408Y-55372000D01*
X57668592Y-55372000D01*
X57938490Y-55318314D01*
X58192727Y-55213005D01*
X58421535Y-55060120D01*
X58616120Y-54865535D01*
X58769005Y-54636727D01*
X58801000Y-54559485D01*
X58832995Y-54636727D01*
X58985880Y-54865535D01*
X59180465Y-55060120D01*
X59409273Y-55213005D01*
X59663510Y-55318314D01*
X59933408Y-55372000D01*
X60208592Y-55372000D01*
X60478490Y-55318314D01*
X60732727Y-55213005D01*
X60961535Y-55060120D01*
X61156120Y-54865535D01*
X61309005Y-54636727D01*
X61341000Y-54559485D01*
X61372995Y-54636727D01*
X61525880Y-54865535D01*
X61720465Y-55060120D01*
X61949273Y-55213005D01*
X62203510Y-55318314D01*
X62473408Y-55372000D01*
X62748592Y-55372000D01*
X62972291Y-55327504D01*
X62959001Y-55343697D01*
X60558055Y-57744643D01*
X60478490Y-57711686D01*
X60208592Y-57658000D01*
X59933408Y-57658000D01*
X59663510Y-57711686D01*
X59409273Y-57816995D01*
X59180465Y-57969880D01*
X58985880Y-58164465D01*
X58832995Y-58393273D01*
X58801000Y-58470515D01*
X58769005Y-58393273D01*
X58616120Y-58164465D01*
X58421535Y-57969880D01*
X58192727Y-57816995D01*
X57938490Y-57711686D01*
X57668592Y-57658000D01*
X57393408Y-57658000D01*
X57123510Y-57711686D01*
X56869273Y-57816995D01*
X56640465Y-57969880D01*
X56445880Y-58164465D01*
X56292995Y-58393273D01*
X56261000Y-58470515D01*
X56229005Y-58393273D01*
X56076120Y-58164465D01*
X55881535Y-57969880D01*
X55652727Y-57816995D01*
X55398490Y-57711686D01*
X55128592Y-57658000D01*
X54853408Y-57658000D01*
X54583510Y-57711686D01*
X54329273Y-57816995D01*
X54100465Y-57969880D01*
X53905880Y-58164465D01*
X53752995Y-58393273D01*
X53721000Y-58470515D01*
X53689005Y-58393273D01*
X53536120Y-58164465D01*
X53341535Y-57969880D01*
X53112727Y-57816995D01*
X52858490Y-57711686D01*
X52588592Y-57658000D01*
X52313408Y-57658000D01*
X52043510Y-57711686D01*
X51789273Y-57816995D01*
X51560465Y-57969880D01*
X51365880Y-58164465D01*
X51212995Y-58393273D01*
X51181000Y-58470515D01*
X51149005Y-58393273D01*
X50996120Y-58164465D01*
X50801535Y-57969880D01*
X50572727Y-57816995D01*
X50318490Y-57711686D01*
X50048592Y-57658000D01*
X49773408Y-57658000D01*
X49503510Y-57711686D01*
X49249273Y-57816995D01*
X49020465Y-57969880D01*
X48825880Y-58164465D01*
X48672995Y-58393273D01*
X48641000Y-58470515D01*
X48609005Y-58393273D01*
X48456120Y-58164465D01*
X48261535Y-57969880D01*
X48032727Y-57816995D01*
X47778490Y-57711686D01*
X47508592Y-57658000D01*
X47233408Y-57658000D01*
X46963510Y-57711686D01*
X46709273Y-57816995D01*
X46480465Y-57969880D01*
X46285880Y-58164465D01*
X46132995Y-58393273D01*
X46101000Y-58470515D01*
X46069005Y-58393273D01*
X45916120Y-58164465D01*
X45721535Y-57969880D01*
X45492727Y-57816995D01*
X45238490Y-57711686D01*
X44968592Y-57658000D01*
X44693408Y-57658000D01*
X44423510Y-57711686D01*
X44169273Y-57816995D01*
X43940465Y-57969880D01*
X43745880Y-58164465D01*
X43592995Y-58393273D01*
X43561000Y-58470515D01*
X43529005Y-58393273D01*
X43376120Y-58164465D01*
X43181535Y-57969880D01*
X42952727Y-57816995D01*
X42698490Y-57711686D01*
X42428592Y-57658000D01*
X42153408Y-57658000D01*
X41883510Y-57711686D01*
X41629273Y-57816995D01*
X41400465Y-57969880D01*
X41205880Y-58164465D01*
X41052995Y-58393273D01*
X41021000Y-58470515D01*
X40989005Y-58393273D01*
X40836120Y-58164465D01*
X40641535Y-57969880D01*
X40412727Y-57816995D01*
X40158490Y-57711686D01*
X39888592Y-57658000D01*
X39613408Y-57658000D01*
X39343510Y-57711686D01*
X39089273Y-57816995D01*
X38860465Y-57969880D01*
X38665880Y-58164465D01*
X38512995Y-58393273D01*
X38481000Y-58470515D01*
X38449005Y-58393273D01*
X38296120Y-58164465D01*
X38101535Y-57969880D01*
X37872727Y-57816995D01*
X37618490Y-57711686D01*
X37348592Y-57658000D01*
X37073408Y-57658000D01*
X36803510Y-57711686D01*
X36549273Y-57816995D01*
X36320465Y-57969880D01*
X36125880Y-58164465D01*
X35972995Y-58393273D01*
X35943308Y-58464943D01*
X35938636Y-58451977D01*
X35876656Y-58336020D01*
X35636565Y-58269040D01*
X34850605Y-59055000D01*
X35636565Y-59840960D01*
X35876656Y-59773980D01*
X35940485Y-59638240D01*
X35972995Y-59716727D01*
X36125880Y-59945535D01*
X36320465Y-60140120D01*
X36549273Y-60293005D01*
X36803510Y-60398314D01*
X37073408Y-60452000D01*
X37348592Y-60452000D01*
X37502571Y-60421372D01*
X44272500Y-67191302D01*
X44296299Y-67220301D01*
X44412024Y-67315274D01*
X44544053Y-67385846D01*
X44687314Y-67429303D01*
X44798967Y-67440300D01*
X44798975Y-67440300D01*
X44836300Y-67443976D01*
X44873625Y-67440300D01*
X60951899Y-67440300D01*
X79663300Y-86151702D01*
X79687099Y-86180701D01*
X79802824Y-86275674D01*
X79934853Y-86346246D01*
X80078114Y-86389703D01*
X80189767Y-86400700D01*
X80189777Y-86400700D01*
X80227100Y-86404376D01*
X80256572Y-86401473D01*
X84723598Y-90868500D01*
X84070910Y-90868500D01*
X84051710Y-90805207D01*
X83990425Y-90690550D01*
X83907948Y-90590052D01*
X83807450Y-90507575D01*
X83692793Y-90446290D01*
X83568383Y-90408550D01*
X83471419Y-90399000D01*
X83439000Y-90395807D01*
X83406581Y-90399000D01*
X75724275Y-90399000D01*
X75703866Y-90396999D01*
X75688802Y-90379691D01*
X75675047Y-90362820D01*
X56116298Y-70677067D01*
X56094948Y-70651052D01*
X56045340Y-70610339D01*
X55996232Y-70569771D01*
X55995287Y-70569262D01*
X55994450Y-70568575D01*
X55937846Y-70538320D01*
X55881774Y-70508115D01*
X55880747Y-70507800D01*
X55879793Y-70507290D01*
X55818385Y-70488662D01*
X55757487Y-70469973D01*
X55756419Y-70469864D01*
X55755383Y-70469550D01*
X55691538Y-70463262D01*
X55628146Y-70456811D01*
X55594656Y-70460000D01*
X23101613Y-70460000D01*
X23179001Y-70408291D01*
X23392984Y-70194308D01*
X23561109Y-69942692D01*
X23676915Y-69663110D01*
X23735953Y-69366308D01*
X23735953Y-69063692D01*
X23676915Y-68766890D01*
X23561109Y-68487308D01*
X23392984Y-68235692D01*
X23179001Y-68021709D01*
X22927385Y-67853584D01*
X22647803Y-67737778D01*
X22351001Y-67678740D01*
X22048385Y-67678740D01*
X21751583Y-67737778D01*
X21472001Y-67853584D01*
X21220385Y-68021709D01*
X21006402Y-68235692D01*
X20838277Y-68487308D01*
X20722471Y-68766890D01*
X20663433Y-69063692D01*
X20663433Y-69366308D01*
X20722471Y-69663110D01*
X20838277Y-69942692D01*
X21006402Y-70194308D01*
X21220385Y-70408291D01*
X21297773Y-70460000D01*
X20599000Y-70460000D01*
X20599000Y-60020565D01*
X33885040Y-60020565D01*
X33952020Y-60260656D01*
X34201048Y-60377756D01*
X34468135Y-60444023D01*
X34743017Y-60456910D01*
X35015133Y-60415922D01*
X35274023Y-60322636D01*
X35389980Y-60260656D01*
X35456960Y-60020565D01*
X34671000Y-59234605D01*
X33885040Y-60020565D01*
X20599000Y-60020565D01*
X20599000Y-59127017D01*
X33269090Y-59127017D01*
X33310078Y-59399133D01*
X33403364Y-59658023D01*
X33465344Y-59773980D01*
X33705435Y-59840960D01*
X34491395Y-59055000D01*
X33705435Y-58269040D01*
X33465344Y-58336020D01*
X33348244Y-58585048D01*
X33281977Y-58852135D01*
X33269090Y-59127017D01*
X20599000Y-59127017D01*
X20599000Y-58089435D01*
X33885040Y-58089435D01*
X34671000Y-58875395D01*
X35456960Y-58089435D01*
X35389980Y-57849344D01*
X35140952Y-57732244D01*
X34873865Y-57665977D01*
X34598983Y-57653090D01*
X34326867Y-57694078D01*
X34067977Y-57787364D01*
X33952020Y-57849344D01*
X33885040Y-58089435D01*
X20599000Y-58089435D01*
X20599000Y-46887985D01*
X20869831Y-46887959D01*
X20863584Y-46897308D01*
X20747778Y-47176890D01*
X20688740Y-47473692D01*
X20688740Y-47776308D01*
X20747778Y-48073110D01*
X20863584Y-48352692D01*
X21031709Y-48604308D01*
X21245692Y-48818291D01*
X21497308Y-48986416D01*
X21776890Y-49102222D01*
X22073692Y-49161260D01*
X22376308Y-49161260D01*
X22673110Y-49102222D01*
X22952692Y-48986416D01*
X23204308Y-48818291D01*
X23418291Y-48604308D01*
X23586416Y-48352692D01*
X23702222Y-48073110D01*
X23761260Y-47776308D01*
X23761260Y-47473692D01*
X23702222Y-47176890D01*
X23586416Y-46897308D01*
X23579994Y-46887697D01*
X179655390Y-46872615D01*
X179638891Y-46897308D01*
G36*
X142028001Y-87764167D02*
G01*
X142024324Y-87801500D01*
X142028001Y-87838833D01*
X142038998Y-87950486D01*
X142047890Y-87979800D01*
X142082454Y-88093746D01*
X142153026Y-88225776D01*
X142224201Y-88312502D01*
X142248000Y-88341501D01*
X142276998Y-88365299D01*
X143266698Y-89355000D01*
X140919859Y-89355000D01*
X140952503Y-89247386D01*
X140963500Y-89135733D01*
X140963500Y-89135725D01*
X140967176Y-89098400D01*
X140963500Y-89061075D01*
X140963500Y-77924213D01*
X141148135Y-77970023D01*
X141423017Y-77982910D01*
X141695133Y-77941922D01*
X141954023Y-77848636D01*
X142028000Y-77809094D01*
X142028001Y-87764167D01*
G37*
X142028001Y-87764167D02*
X142024324Y-87801500D01*
X142028001Y-87838833D01*
X142038998Y-87950486D01*
X142047890Y-87979800D01*
X142082454Y-88093746D01*
X142153026Y-88225776D01*
X142224201Y-88312502D01*
X142248000Y-88341501D01*
X142276998Y-88365299D01*
X143266698Y-89355000D01*
X140919859Y-89355000D01*
X140952503Y-89247386D01*
X140963500Y-89135733D01*
X140963500Y-89135725D01*
X140967176Y-89098400D01*
X140963500Y-89061075D01*
X140963500Y-77924213D01*
X141148135Y-77970023D01*
X141423017Y-77982910D01*
X141695133Y-77941922D01*
X141954023Y-77848636D01*
X142028000Y-77809094D01*
X142028001Y-87764167D01*
G36*
X119502001Y-79838603D02*
G01*
X119502001Y-80786370D01*
X119480246Y-80714653D01*
X119424122Y-80609654D01*
X119409674Y-80582623D01*
X119338499Y-80495897D01*
X119314701Y-80466899D01*
X119285704Y-80443102D01*
X118376701Y-79534100D01*
X119197499Y-79534100D01*
X119502001Y-79838603D01*
G37*
X119502001Y-79838603D02*
X119502001Y-80786370D01*
X119480246Y-80714653D01*
X119424122Y-80609654D01*
X119409674Y-80582623D01*
X119338499Y-80495897D01*
X119314701Y-80466899D01*
X119285704Y-80443102D01*
X118376701Y-79534100D01*
X119197499Y-79534100D01*
X119502001Y-79838603D01*
G36*
X86644628Y-71209430D02*
G01*
X86614000Y-71363408D01*
X86614000Y-71638592D01*
X86667686Y-71908490D01*
X86772995Y-72162727D01*
X86925880Y-72391535D01*
X87120465Y-72586120D01*
X87349273Y-72739005D01*
X87603510Y-72844314D01*
X87873408Y-72898000D01*
X88148592Y-72898000D01*
X88418490Y-72844314D01*
X88672727Y-72739005D01*
X88901535Y-72586120D01*
X89096120Y-72391535D01*
X89249005Y-72162727D01*
X89281000Y-72085485D01*
X89312995Y-72162727D01*
X89465880Y-72391535D01*
X89660465Y-72586120D01*
X89889273Y-72739005D01*
X90143510Y-72844314D01*
X90413408Y-72898000D01*
X90688592Y-72898000D01*
X90888100Y-72858315D01*
X90888101Y-75169097D01*
X90842570Y-75214628D01*
X90688592Y-75184000D01*
X90413408Y-75184000D01*
X90143510Y-75237686D01*
X89889273Y-75342995D01*
X89660465Y-75495880D01*
X89465880Y-75690465D01*
X89312995Y-75919273D01*
X89283308Y-75990943D01*
X89278636Y-75977977D01*
X89216656Y-75862020D01*
X88976565Y-75795040D01*
X88190605Y-76581000D01*
X88976565Y-77366960D01*
X89216656Y-77299980D01*
X89280485Y-77164240D01*
X89312995Y-77242727D01*
X89465880Y-77471535D01*
X89660465Y-77666120D01*
X89889273Y-77819005D01*
X90143510Y-77924314D01*
X90413408Y-77978000D01*
X90688592Y-77978000D01*
X90958490Y-77924314D01*
X91212727Y-77819005D01*
X91441535Y-77666120D01*
X91502527Y-77605128D01*
X92229998Y-78332600D01*
X88364002Y-78332600D01*
X88010932Y-77979531D01*
X88083017Y-77982910D01*
X88355133Y-77941922D01*
X88614023Y-77848636D01*
X88729980Y-77786656D01*
X88796960Y-77546565D01*
X88011000Y-76760605D01*
X87996858Y-76774748D01*
X87817253Y-76595143D01*
X87831395Y-76581000D01*
X87817253Y-76566858D01*
X87996858Y-76387253D01*
X88011000Y-76401395D01*
X88796960Y-75615435D01*
X88729980Y-75375344D01*
X88480952Y-75258244D01*
X88213865Y-75191977D01*
X87938983Y-75179090D01*
X87666867Y-75220078D01*
X87407977Y-75313364D01*
X87292020Y-75375344D01*
X87225041Y-75615433D01*
X87108631Y-75499023D01*
X87022208Y-75585446D01*
X86967537Y-75503626D01*
X86923600Y-75459689D01*
X86923600Y-75113123D01*
X86927276Y-75075800D01*
X86923600Y-75038477D01*
X86923600Y-75038467D01*
X86912603Y-74926814D01*
X86869146Y-74783553D01*
X86845705Y-74739698D01*
X86798574Y-74651523D01*
X86727399Y-74564797D01*
X86703601Y-74535799D01*
X86674604Y-74512002D01*
X86304900Y-74142299D01*
X86304900Y-70869701D01*
X86644628Y-71209430D01*
G37*
X86644628Y-71209430D02*
X86614000Y-71363408D01*
X86614000Y-71638592D01*
X86667686Y-71908490D01*
X86772995Y-72162727D01*
X86925880Y-72391535D01*
X87120465Y-72586120D01*
X87349273Y-72739005D01*
X87603510Y-72844314D01*
X87873408Y-72898000D01*
X88148592Y-72898000D01*
X88418490Y-72844314D01*
X88672727Y-72739005D01*
X88901535Y-72586120D01*
X89096120Y-72391535D01*
X89249005Y-72162727D01*
X89281000Y-72085485D01*
X89312995Y-72162727D01*
X89465880Y-72391535D01*
X89660465Y-72586120D01*
X89889273Y-72739005D01*
X90143510Y-72844314D01*
X90413408Y-72898000D01*
X90688592Y-72898000D01*
X90888100Y-72858315D01*
X90888101Y-75169097D01*
X90842570Y-75214628D01*
X90688592Y-75184000D01*
X90413408Y-75184000D01*
X90143510Y-75237686D01*
X89889273Y-75342995D01*
X89660465Y-75495880D01*
X89465880Y-75690465D01*
X89312995Y-75919273D01*
X89283308Y-75990943D01*
X89278636Y-75977977D01*
X89216656Y-75862020D01*
X88976565Y-75795040D01*
X88190605Y-76581000D01*
X88976565Y-77366960D01*
X89216656Y-77299980D01*
X89280485Y-77164240D01*
X89312995Y-77242727D01*
X89465880Y-77471535D01*
X89660465Y-77666120D01*
X89889273Y-77819005D01*
X90143510Y-77924314D01*
X90413408Y-77978000D01*
X90688592Y-77978000D01*
X90958490Y-77924314D01*
X91212727Y-77819005D01*
X91441535Y-77666120D01*
X91502527Y-77605128D01*
X92229998Y-78332600D01*
X88364002Y-78332600D01*
X88010932Y-77979531D01*
X88083017Y-77982910D01*
X88355133Y-77941922D01*
X88614023Y-77848636D01*
X88729980Y-77786656D01*
X88796960Y-77546565D01*
X88011000Y-76760605D01*
X87996858Y-76774748D01*
X87817253Y-76595143D01*
X87831395Y-76581000D01*
X87817253Y-76566858D01*
X87996858Y-76387253D01*
X88011000Y-76401395D01*
X88796960Y-75615435D01*
X88729980Y-75375344D01*
X88480952Y-75258244D01*
X88213865Y-75191977D01*
X87938983Y-75179090D01*
X87666867Y-75220078D01*
X87407977Y-75313364D01*
X87292020Y-75375344D01*
X87225041Y-75615433D01*
X87108631Y-75499023D01*
X87022208Y-75585446D01*
X86967537Y-75503626D01*
X86923600Y-75459689D01*
X86923600Y-75113123D01*
X86927276Y-75075800D01*
X86923600Y-75038477D01*
X86923600Y-75038467D01*
X86912603Y-74926814D01*
X86869146Y-74783553D01*
X86845705Y-74739698D01*
X86798574Y-74651523D01*
X86727399Y-74564797D01*
X86703601Y-74535799D01*
X86674604Y-74512002D01*
X86304900Y-74142299D01*
X86304900Y-70869701D01*
X86644628Y-71209430D01*
G36*
X176288570Y-63366659D02*
G01*
X176317856Y-63402344D01*
X176460228Y-63519186D01*
X176551174Y-63567797D01*
X176622659Y-63606007D01*
X176798908Y-63659472D01*
X176889264Y-63668371D01*
X176892998Y-63680680D01*
X176951963Y-63790994D01*
X177031315Y-63887685D01*
X177128006Y-63967037D01*
X177238320Y-64026002D01*
X177358018Y-64062312D01*
X177482500Y-64074572D01*
X178253826Y-64074572D01*
X165602752Y-76725646D01*
X165612910Y-76508983D01*
X165571922Y-76236867D01*
X165478636Y-75977977D01*
X165416656Y-75862020D01*
X165176565Y-75795040D01*
X164390605Y-76581000D01*
X164404748Y-76595143D01*
X164225143Y-76774748D01*
X164211000Y-76760605D01*
X164196858Y-76774748D01*
X164017253Y-76595143D01*
X164031395Y-76581000D01*
X164017253Y-76566858D01*
X164196858Y-76387253D01*
X164211000Y-76401395D01*
X164996960Y-75615435D01*
X164929980Y-75375344D01*
X164680952Y-75258244D01*
X164413865Y-75191977D01*
X164138983Y-75179090D01*
X163866867Y-75220078D01*
X163701000Y-75279845D01*
X163701000Y-73085801D01*
X163919430Y-72867372D01*
X164073408Y-72898000D01*
X164348592Y-72898000D01*
X164618490Y-72844314D01*
X164872727Y-72739005D01*
X165101535Y-72586120D01*
X165296120Y-72391535D01*
X165449005Y-72162727D01*
X165554314Y-71908490D01*
X165608000Y-71638592D01*
X165608000Y-71363408D01*
X165577372Y-71209430D01*
X165869803Y-70916999D01*
X165898801Y-70893201D01*
X165993774Y-70777476D01*
X166064346Y-70645447D01*
X166107803Y-70502186D01*
X166118800Y-70390533D01*
X166118800Y-70390524D01*
X166122476Y-70353201D01*
X166118800Y-70315878D01*
X166118800Y-55160122D01*
X166122476Y-55122799D01*
X166118800Y-55085476D01*
X166118800Y-55085467D01*
X166107803Y-54973814D01*
X166064346Y-54830553D01*
X165993774Y-54698524D01*
X165898801Y-54582799D01*
X165869804Y-54559002D01*
X165577372Y-54266570D01*
X165608000Y-54112592D01*
X165608000Y-53837408D01*
X165569628Y-53644500D01*
X166566411Y-53644500D01*
X176288570Y-63366659D01*
G37*
X176288570Y-63366659D02*
X176317856Y-63402344D01*
X176460228Y-63519186D01*
X176551174Y-63567797D01*
X176622659Y-63606007D01*
X176798908Y-63659472D01*
X176889264Y-63668371D01*
X176892998Y-63680680D01*
X176951963Y-63790994D01*
X177031315Y-63887685D01*
X177128006Y-63967037D01*
X177238320Y-64026002D01*
X177358018Y-64062312D01*
X177482500Y-64074572D01*
X178253826Y-64074572D01*
X165602752Y-76725646D01*
X165612910Y-76508983D01*
X165571922Y-76236867D01*
X165478636Y-75977977D01*
X165416656Y-75862020D01*
X165176565Y-75795040D01*
X164390605Y-76581000D01*
X164404748Y-76595143D01*
X164225143Y-76774748D01*
X164211000Y-76760605D01*
X164196858Y-76774748D01*
X164017253Y-76595143D01*
X164031395Y-76581000D01*
X164017253Y-76566858D01*
X164196858Y-76387253D01*
X164211000Y-76401395D01*
X164996960Y-75615435D01*
X164929980Y-75375344D01*
X164680952Y-75258244D01*
X164413865Y-75191977D01*
X164138983Y-75179090D01*
X163866867Y-75220078D01*
X163701000Y-75279845D01*
X163701000Y-73085801D01*
X163919430Y-72867372D01*
X164073408Y-72898000D01*
X164348592Y-72898000D01*
X164618490Y-72844314D01*
X164872727Y-72739005D01*
X165101535Y-72586120D01*
X165296120Y-72391535D01*
X165449005Y-72162727D01*
X165554314Y-71908490D01*
X165608000Y-71638592D01*
X165608000Y-71363408D01*
X165577372Y-71209430D01*
X165869803Y-70916999D01*
X165898801Y-70893201D01*
X165993774Y-70777476D01*
X166064346Y-70645447D01*
X166107803Y-70502186D01*
X166118800Y-70390533D01*
X166118800Y-70390524D01*
X166122476Y-70353201D01*
X166118800Y-70315878D01*
X166118800Y-55160122D01*
X166122476Y-55122799D01*
X166118800Y-55085476D01*
X166118800Y-55085467D01*
X166107803Y-54973814D01*
X166064346Y-54830553D01*
X165993774Y-54698524D01*
X165898801Y-54582799D01*
X165869804Y-54559002D01*
X165577372Y-54266570D01*
X165608000Y-54112592D01*
X165608000Y-53837408D01*
X165569628Y-53644500D01*
X166566411Y-53644500D01*
X176288570Y-63366659D01*
G36*
X141544748Y-76566858D02*
G01*
X141530605Y-76581000D01*
X141544748Y-76595143D01*
X141365143Y-76774748D01*
X141351000Y-76760605D01*
X141336858Y-76774748D01*
X141157253Y-76595143D01*
X141171395Y-76581000D01*
X141157253Y-76566858D01*
X141336858Y-76387253D01*
X141351000Y-76401395D01*
X141365143Y-76387253D01*
X141544748Y-76566858D01*
G37*
X141544748Y-76566858D02*
X141530605Y-76581000D01*
X141544748Y-76595143D01*
X141365143Y-76774748D01*
X141351000Y-76760605D01*
X141336858Y-76774748D01*
X141157253Y-76595143D01*
X141171395Y-76581000D01*
X141157253Y-76566858D01*
X141336858Y-76387253D01*
X141351000Y-76401395D01*
X141365143Y-76387253D01*
X141544748Y-76566858D01*
G36*
X142028000Y-75355604D02*
G01*
X141820952Y-75258244D01*
X141553865Y-75191977D01*
X141278983Y-75179090D01*
X141006867Y-75220078D01*
X140963500Y-75235704D01*
X140963500Y-72963301D01*
X141059429Y-72867372D01*
X141213408Y-72898000D01*
X141488592Y-72898000D01*
X141758490Y-72844314D01*
X142012727Y-72739005D01*
X142028000Y-72728800D01*
X142028000Y-75355604D01*
G37*
X142028000Y-75355604D02*
X141820952Y-75258244D01*
X141553865Y-75191977D01*
X141278983Y-75179090D01*
X141006867Y-75220078D01*
X140963500Y-75235704D01*
X140963500Y-72963301D01*
X141059429Y-72867372D01*
X141213408Y-72898000D01*
X141488592Y-72898000D01*
X141758490Y-72844314D01*
X142012727Y-72739005D01*
X142028000Y-72728800D01*
X142028000Y-75355604D01*
G36*
X142024001Y-70270528D02*
G01*
X142012727Y-70262995D01*
X141758490Y-70157686D01*
X141488592Y-70104000D01*
X141213408Y-70104000D01*
X141059429Y-70134628D01*
X140994200Y-70069399D01*
X140994200Y-60405830D01*
X141148135Y-60444023D01*
X141423017Y-60456910D01*
X141695133Y-60415922D01*
X141954023Y-60322636D01*
X142024000Y-60285233D01*
X142024001Y-70270528D01*
G37*
X142024001Y-70270528D02*
X142012727Y-70262995D01*
X141758490Y-70157686D01*
X141488592Y-70104000D01*
X141213408Y-70104000D01*
X141059429Y-70134628D01*
X140994200Y-70069399D01*
X140994200Y-60405830D01*
X141148135Y-60444023D01*
X141423017Y-60456910D01*
X141695133Y-60415922D01*
X141954023Y-60322636D01*
X142024000Y-60285233D01*
X142024001Y-70270528D01*
G36*
X91243601Y-57837624D02*
G01*
X91212727Y-57816995D01*
X90958490Y-57711686D01*
X90688592Y-57658000D01*
X90413408Y-57658000D01*
X90143510Y-57711686D01*
X89889273Y-57816995D01*
X89660465Y-57969880D01*
X89465880Y-58164465D01*
X89312995Y-58393273D01*
X89283308Y-58464943D01*
X89278636Y-58451977D01*
X89216656Y-58336020D01*
X88976565Y-58269040D01*
X88190605Y-59055000D01*
X88976565Y-59840960D01*
X89216656Y-59773980D01*
X89280485Y-59638240D01*
X89312995Y-59716727D01*
X89465880Y-59945535D01*
X89660465Y-60140120D01*
X89791000Y-60227341D01*
X89791001Y-69567368D01*
X89787324Y-69604700D01*
X89791001Y-69642033D01*
X89793641Y-69668840D01*
X87655900Y-67531099D01*
X87655900Y-60406252D01*
X87808135Y-60444023D01*
X88083017Y-60456910D01*
X88355133Y-60415922D01*
X88614023Y-60322636D01*
X88729980Y-60260656D01*
X88796960Y-60020565D01*
X88011000Y-59234605D01*
X87996858Y-59248748D01*
X87817253Y-59069143D01*
X87831395Y-59055000D01*
X87817253Y-59040858D01*
X87996858Y-58861253D01*
X88011000Y-58875395D01*
X88796960Y-58089435D01*
X88729980Y-57849344D01*
X88480952Y-57732244D01*
X88213865Y-57665977D01*
X87947320Y-57653481D01*
X90259430Y-55341372D01*
X90413408Y-55372000D01*
X90688592Y-55372000D01*
X90958490Y-55318314D01*
X91212727Y-55213005D01*
X91243601Y-55192376D01*
X91243601Y-57837624D01*
G37*
X91243601Y-57837624D02*
X91212727Y-57816995D01*
X90958490Y-57711686D01*
X90688592Y-57658000D01*
X90413408Y-57658000D01*
X90143510Y-57711686D01*
X89889273Y-57816995D01*
X89660465Y-57969880D01*
X89465880Y-58164465D01*
X89312995Y-58393273D01*
X89283308Y-58464943D01*
X89278636Y-58451977D01*
X89216656Y-58336020D01*
X88976565Y-58269040D01*
X88190605Y-59055000D01*
X88976565Y-59840960D01*
X89216656Y-59773980D01*
X89280485Y-59638240D01*
X89312995Y-59716727D01*
X89465880Y-59945535D01*
X89660465Y-60140120D01*
X89791000Y-60227341D01*
X89791001Y-69567368D01*
X89787324Y-69604700D01*
X89791001Y-69642033D01*
X89793641Y-69668840D01*
X87655900Y-67531099D01*
X87655900Y-60406252D01*
X87808135Y-60444023D01*
X88083017Y-60456910D01*
X88355133Y-60415922D01*
X88614023Y-60322636D01*
X88729980Y-60260656D01*
X88796960Y-60020565D01*
X88011000Y-59234605D01*
X87996858Y-59248748D01*
X87817253Y-59069143D01*
X87831395Y-59055000D01*
X87817253Y-59040858D01*
X87996858Y-58861253D01*
X88011000Y-58875395D01*
X88796960Y-58089435D01*
X88729980Y-57849344D01*
X88480952Y-57732244D01*
X88213865Y-57665977D01*
X87947320Y-57653481D01*
X90259430Y-55341372D01*
X90413408Y-55372000D01*
X90688592Y-55372000D01*
X90958490Y-55318314D01*
X91212727Y-55213005D01*
X91243601Y-55192376D01*
X91243601Y-57837624D01*
G36*
X72075748Y-66851358D02*
G01*
X72061605Y-66865500D01*
X72075748Y-66879643D01*
X71896143Y-67059248D01*
X71882000Y-67045105D01*
X71867858Y-67059248D01*
X71688253Y-66879643D01*
X71702395Y-66865500D01*
X71688253Y-66851358D01*
X71867858Y-66671753D01*
X71882000Y-66685895D01*
X71896143Y-66671753D01*
X72075748Y-66851358D01*
G37*
X72075748Y-66851358D02*
X72061605Y-66865500D01*
X72075748Y-66879643D01*
X71896143Y-67059248D01*
X71882000Y-67045105D01*
X71867858Y-67059248D01*
X71688253Y-66879643D01*
X71702395Y-66865500D01*
X71688253Y-66851358D01*
X71867858Y-66671753D01*
X71882000Y-66685895D01*
X71896143Y-66671753D01*
X72075748Y-66851358D01*
G36*
X68837248Y-66724358D02*
G01*
X68823105Y-66738500D01*
X68837248Y-66752643D01*
X68657643Y-66932248D01*
X68643500Y-66918105D01*
X68629358Y-66932248D01*
X68449753Y-66752643D01*
X68463895Y-66738500D01*
X68449753Y-66724358D01*
X68629358Y-66544753D01*
X68643500Y-66558895D01*
X68657643Y-66544753D01*
X68837248Y-66724358D01*
G37*
X68837248Y-66724358D02*
X68823105Y-66738500D01*
X68837248Y-66752643D01*
X68657643Y-66932248D01*
X68643500Y-66918105D01*
X68629358Y-66932248D01*
X68449753Y-66752643D01*
X68463895Y-66738500D01*
X68449753Y-66724358D01*
X68629358Y-66544753D01*
X68643500Y-66558895D01*
X68657643Y-66544753D01*
X68837248Y-66724358D01*
G36*
X141544748Y-59040858D02*
G01*
X141530605Y-59055000D01*
X141544748Y-59069143D01*
X141365143Y-59248748D01*
X141351000Y-59234605D01*
X141336858Y-59248748D01*
X141157253Y-59069143D01*
X141171395Y-59055000D01*
X141157253Y-59040858D01*
X141336858Y-58861253D01*
X141351000Y-58875395D01*
X141365143Y-58861253D01*
X141544748Y-59040858D01*
G37*
X141544748Y-59040858D02*
X141530605Y-59055000D01*
X141544748Y-59069143D01*
X141365143Y-59248748D01*
X141351000Y-59234605D01*
X141336858Y-59248748D01*
X141157253Y-59069143D01*
X141171395Y-59055000D01*
X141157253Y-59040858D01*
X141336858Y-58861253D01*
X141351000Y-58875395D01*
X141365143Y-58861253D01*
X141544748Y-59040858D01*
G36*
X164404748Y-59040858D02*
G01*
X164390605Y-59055000D01*
X164404748Y-59069143D01*
X164225143Y-59248748D01*
X164211000Y-59234605D01*
X164196858Y-59248748D01*
X164017253Y-59069143D01*
X164031395Y-59055000D01*
X164017253Y-59040858D01*
X164196858Y-58861253D01*
X164211000Y-58875395D01*
X164225143Y-58861253D01*
X164404748Y-59040858D01*
G37*
X164404748Y-59040858D02*
X164390605Y-59055000D01*
X164404748Y-59069143D01*
X164225143Y-59248748D01*
X164211000Y-59234605D01*
X164196858Y-59248748D01*
X164017253Y-59069143D01*
X164031395Y-59055000D01*
X164017253Y-59040858D01*
X164196858Y-58861253D01*
X164211000Y-58875395D01*
X164225143Y-58861253D01*
X164404748Y-59040858D01*
G36*
X142024000Y-57827723D02*
G01*
X141820952Y-57732244D01*
X141553865Y-57665977D01*
X141278983Y-57653090D01*
X141006867Y-57694078D01*
X140994200Y-57698642D01*
X140994200Y-55406601D01*
X141059429Y-55341372D01*
X141213408Y-55372000D01*
X141488592Y-55372000D01*
X141758490Y-55318314D01*
X142012727Y-55213005D01*
X142024000Y-55205473D01*
X142024000Y-57827723D01*
G37*
X142024000Y-57827723D02*
X141820952Y-57732244D01*
X141553865Y-57665977D01*
X141278983Y-57653090D01*
X141006867Y-57694078D01*
X140994200Y-57698642D01*
X140994200Y-55406601D01*
X141059429Y-55341372D01*
X141213408Y-55372000D01*
X141488592Y-55372000D01*
X141758490Y-55318314D01*
X142012727Y-55213005D01*
X142024000Y-55205473D01*
X142024000Y-57827723D01*
G36*
X92200465Y-52889880D02*
G01*
X92005880Y-53084465D01*
X91852995Y-53313273D01*
X91821000Y-53390515D01*
X91789005Y-53313273D01*
X91636120Y-53084465D01*
X91441535Y-52889880D01*
X91354463Y-52831700D01*
X92287537Y-52831700D01*
X92200465Y-52889880D01*
G37*
X92200465Y-52889880D02*
X92005880Y-53084465D01*
X91852995Y-53313273D01*
X91821000Y-53390515D01*
X91789005Y-53313273D01*
X91636120Y-53084465D01*
X91441535Y-52889880D01*
X91354463Y-52831700D01*
X92287537Y-52831700D01*
X92200465Y-52889880D01*
M02*
