G04 #@! TF.GenerationSoftware,KiCad,Pcbnew,(5.1.6)-1*
G04 #@! TF.CreationDate,2021-02-05T21:35:54+00:00*
G04 #@! TF.ProjectId,ibmps1,69626d70-7331-42e6-9b69-6361645f7063,rev?*
G04 #@! TF.SameCoordinates,Original*
G04 #@! TF.FileFunction,Legend,Top*
G04 #@! TF.FilePolarity,Positive*
%FSLAX46Y46*%
G04 Gerber Fmt 4.6, Leading zero omitted, Abs format (unit mm)*
G04 Created by KiCad (PCBNEW (5.1.6)-1) date 2021-02-05 21:35:54*
%MOMM*%
%LPD*%
G01*
G04 APERTURE LIST*
%ADD10C,0.254000*%
%ADD11C,0.381000*%
%ADD12C,0.120000*%
%ADD13C,0.203200*%
%ADD14C,0.150000*%
G04 APERTURE END LIST*
D10*
X180931820Y-60198000D02*
G75*
G03*
X180931820Y-60198000I-2750820J0D01*
G01*
X180931820Y-86487000D02*
G75*
G03*
X180931820Y-86487000I-2750820J0D01*
G01*
X180868820Y-52451000D02*
G75*
G03*
X180868820Y-52451000I-2750820J0D01*
G01*
X180931820Y-78295500D02*
G75*
G03*
X180931820Y-78295500I-2750820J0D01*
G01*
X77172820Y-66865500D02*
G75*
G03*
X77172820Y-66865500I-2750820J0D01*
G01*
X68854320Y-66738500D02*
G75*
G03*
X68854320Y-66738500I-2750820J0D01*
G01*
D11*
X178499000Y-74676000D02*
X177864000Y-74676000D01*
X177864000Y-74676000D02*
X177864000Y-64516000D01*
X177864000Y-64516000D02*
X178499000Y-64516000D01*
X182309000Y-74676000D02*
X178499000Y-74676000D01*
X178499000Y-74676000D02*
X178499000Y-64516000D01*
X178499000Y-64516000D02*
X182309000Y-64516000D01*
X182309000Y-64516000D02*
X182309000Y-74676000D01*
D12*
X156908000Y-81089500D02*
X158178000Y-81089500D01*
X156908000Y-82359500D02*
X156908000Y-81089500D01*
X159220929Y-87819500D02*
X159618000Y-87819500D01*
X159220929Y-87059500D02*
X159618000Y-87059500D01*
X168278000Y-87819500D02*
X162278000Y-87819500D01*
X168278000Y-87059500D02*
X168278000Y-87819500D01*
X162278000Y-87059500D02*
X168278000Y-87059500D01*
X159618000Y-86169500D02*
X162278000Y-86169500D01*
X159220929Y-85279500D02*
X159618000Y-85279500D01*
X159220929Y-84519500D02*
X159618000Y-84519500D01*
X168278000Y-85279500D02*
X162278000Y-85279500D01*
X168278000Y-84519500D02*
X168278000Y-85279500D01*
X162278000Y-84519500D02*
X168278000Y-84519500D01*
X159618000Y-83629500D02*
X162278000Y-83629500D01*
X159288000Y-82739500D02*
X159618000Y-82739500D01*
X159288000Y-81979500D02*
X159618000Y-81979500D01*
X162278000Y-82639500D02*
X168278000Y-82639500D01*
X162278000Y-82519500D02*
X168278000Y-82519500D01*
X162278000Y-82399500D02*
X168278000Y-82399500D01*
X162278000Y-82279500D02*
X168278000Y-82279500D01*
X162278000Y-82159500D02*
X168278000Y-82159500D01*
X162278000Y-82039500D02*
X168278000Y-82039500D01*
X168278000Y-82739500D02*
X162278000Y-82739500D01*
X168278000Y-81979500D02*
X168278000Y-82739500D01*
X162278000Y-81979500D02*
X168278000Y-81979500D01*
X162278000Y-81029500D02*
X159618000Y-81029500D01*
X162278000Y-88769500D02*
X162278000Y-81029500D01*
X159618000Y-88769500D02*
X162278000Y-88769500D01*
X159618000Y-81029500D02*
X159618000Y-88769500D01*
D13*
X174733857Y-60367333D02*
X174782238Y-60415714D01*
X174830619Y-60560857D01*
X174830619Y-60657619D01*
X174782238Y-60802761D01*
X174685476Y-60899523D01*
X174588714Y-60947904D01*
X174395190Y-60996285D01*
X174250047Y-60996285D01*
X174056523Y-60947904D01*
X173959761Y-60899523D01*
X173863000Y-60802761D01*
X173814619Y-60657619D01*
X173814619Y-60560857D01*
X173863000Y-60415714D01*
X173911380Y-60367333D01*
X174250047Y-59786761D02*
X174201666Y-59883523D01*
X174153285Y-59931904D01*
X174056523Y-59980285D01*
X174008142Y-59980285D01*
X173911380Y-59931904D01*
X173863000Y-59883523D01*
X173814619Y-59786761D01*
X173814619Y-59593238D01*
X173863000Y-59496476D01*
X173911380Y-59448095D01*
X174008142Y-59399714D01*
X174056523Y-59399714D01*
X174153285Y-59448095D01*
X174201666Y-59496476D01*
X174250047Y-59593238D01*
X174250047Y-59786761D01*
X174298428Y-59883523D01*
X174346809Y-59931904D01*
X174443571Y-59980285D01*
X174637095Y-59980285D01*
X174733857Y-59931904D01*
X174782238Y-59883523D01*
X174830619Y-59786761D01*
X174830619Y-59593238D01*
X174782238Y-59496476D01*
X174733857Y-59448095D01*
X174637095Y-59399714D01*
X174443571Y-59399714D01*
X174346809Y-59448095D01*
X174298428Y-59496476D01*
X174250047Y-59593238D01*
X182450619Y-61283426D02*
X182450619Y-61805940D01*
X182450619Y-61544683D02*
X181434619Y-61417683D01*
X181579761Y-61522912D01*
X181676523Y-61622093D01*
X181724904Y-61715226D01*
X181434619Y-60590369D02*
X181434619Y-60503283D01*
X181483000Y-60422245D01*
X181531380Y-60384750D01*
X181628142Y-60353302D01*
X181821666Y-60333950D01*
X182063571Y-60364188D01*
X182257095Y-60431921D01*
X182353857Y-60487560D01*
X182402238Y-60537150D01*
X182450619Y-60630283D01*
X182450619Y-60717369D01*
X182402238Y-60798407D01*
X182353857Y-60835902D01*
X182257095Y-60867350D01*
X182063571Y-60886702D01*
X181821666Y-60856464D01*
X181628142Y-60788731D01*
X181531380Y-60733093D01*
X181483000Y-60683502D01*
X181434619Y-60590369D01*
X181773285Y-59544131D02*
X182450619Y-59628798D01*
X181773285Y-59936017D02*
X182305476Y-60002540D01*
X182402238Y-59971093D01*
X182450619Y-59890055D01*
X182450619Y-59759426D01*
X182402238Y-59666293D01*
X182353857Y-59616702D01*
X181918428Y-58822045D02*
X181918428Y-59126845D01*
X182450619Y-59193369D02*
X181434619Y-59066369D01*
X181434619Y-58630940D01*
X175713571Y-63125047D02*
X175713571Y-62350952D01*
X176100619Y-62738000D02*
X175326523Y-62738000D01*
X174733857Y-86656333D02*
X174782238Y-86704714D01*
X174830619Y-86849857D01*
X174830619Y-86946619D01*
X174782238Y-87091761D01*
X174685476Y-87188523D01*
X174588714Y-87236904D01*
X174395190Y-87285285D01*
X174250047Y-87285285D01*
X174056523Y-87236904D01*
X173959761Y-87188523D01*
X173863000Y-87091761D01*
X173814619Y-86946619D01*
X173814619Y-86849857D01*
X173863000Y-86704714D01*
X173911380Y-86656333D01*
X173814619Y-86317666D02*
X173814619Y-85640333D01*
X174830619Y-86075761D01*
X182450619Y-87572426D02*
X182450619Y-88094940D01*
X182450619Y-87833683D02*
X181434619Y-87706683D01*
X181579761Y-87811912D01*
X181676523Y-87911093D01*
X181724904Y-88004226D01*
X181434619Y-86879369D02*
X181434619Y-86792283D01*
X181483000Y-86711245D01*
X181531380Y-86673750D01*
X181628142Y-86642302D01*
X181821666Y-86622950D01*
X182063571Y-86653188D01*
X182257095Y-86720921D01*
X182353857Y-86776560D01*
X182402238Y-86826150D01*
X182450619Y-86919283D01*
X182450619Y-87006369D01*
X182402238Y-87087407D01*
X182353857Y-87124902D01*
X182257095Y-87156350D01*
X182063571Y-87175702D01*
X181821666Y-87145464D01*
X181628142Y-87077731D01*
X181531380Y-87022093D01*
X181483000Y-86972502D01*
X181434619Y-86879369D01*
X181773285Y-85833131D02*
X182450619Y-85917798D01*
X181773285Y-86225017D02*
X182305476Y-86291540D01*
X182402238Y-86260093D01*
X182450619Y-86179055D01*
X182450619Y-86048426D01*
X182402238Y-85955293D01*
X182353857Y-85905702D01*
X181918428Y-85111045D02*
X181918428Y-85415845D01*
X182450619Y-85482369D02*
X181434619Y-85355369D01*
X181434619Y-84919940D01*
X175713571Y-89414047D02*
X175713571Y-88639952D01*
X176100619Y-89027000D02*
X175326523Y-89027000D01*
X174670857Y-52620333D02*
X174719238Y-52668714D01*
X174767619Y-52813857D01*
X174767619Y-52910619D01*
X174719238Y-53055761D01*
X174622476Y-53152523D01*
X174525714Y-53200904D01*
X174332190Y-53249285D01*
X174187047Y-53249285D01*
X173993523Y-53200904D01*
X173896761Y-53152523D01*
X173800000Y-53055761D01*
X173751619Y-52910619D01*
X173751619Y-52813857D01*
X173800000Y-52668714D01*
X173848380Y-52620333D01*
X173751619Y-51749476D02*
X173751619Y-51943000D01*
X173800000Y-52039761D01*
X173848380Y-52088142D01*
X173993523Y-52184904D01*
X174187047Y-52233285D01*
X174574095Y-52233285D01*
X174670857Y-52184904D01*
X174719238Y-52136523D01*
X174767619Y-52039761D01*
X174767619Y-51846238D01*
X174719238Y-51749476D01*
X174670857Y-51701095D01*
X174574095Y-51652714D01*
X174332190Y-51652714D01*
X174235428Y-51701095D01*
X174187047Y-51749476D01*
X174138666Y-51846238D01*
X174138666Y-52039761D01*
X174187047Y-52136523D01*
X174235428Y-52184904D01*
X174332190Y-52233285D01*
X182387619Y-53536426D02*
X182387619Y-54058940D01*
X182387619Y-53797683D02*
X181371619Y-53670683D01*
X181516761Y-53775912D01*
X181613523Y-53875093D01*
X181661904Y-53968226D01*
X181371619Y-52843369D02*
X181371619Y-52756283D01*
X181420000Y-52675245D01*
X181468380Y-52637750D01*
X181565142Y-52606302D01*
X181758666Y-52586950D01*
X182000571Y-52617188D01*
X182194095Y-52684921D01*
X182290857Y-52740560D01*
X182339238Y-52790150D01*
X182387619Y-52883283D01*
X182387619Y-52970369D01*
X182339238Y-53051407D01*
X182290857Y-53088902D01*
X182194095Y-53120350D01*
X182000571Y-53139702D01*
X181758666Y-53109464D01*
X181565142Y-53041731D01*
X181468380Y-52986093D01*
X181420000Y-52936502D01*
X181371619Y-52843369D01*
X181710285Y-51797131D02*
X182387619Y-51881798D01*
X181710285Y-52189017D02*
X182242476Y-52255540D01*
X182339238Y-52224093D01*
X182387619Y-52143055D01*
X182387619Y-52012426D01*
X182339238Y-51919293D01*
X182290857Y-51869702D01*
X181855428Y-51075045D02*
X181855428Y-51379845D01*
X182387619Y-51446369D02*
X181371619Y-51319369D01*
X181371619Y-50883940D01*
X175650571Y-55378047D02*
X175650571Y-54603952D01*
X176037619Y-54991000D02*
X175263523Y-54991000D01*
X174733857Y-78464833D02*
X174782238Y-78513214D01*
X174830619Y-78658357D01*
X174830619Y-78755119D01*
X174782238Y-78900261D01*
X174685476Y-78997023D01*
X174588714Y-79045404D01*
X174395190Y-79093785D01*
X174250047Y-79093785D01*
X174056523Y-79045404D01*
X173959761Y-78997023D01*
X173863000Y-78900261D01*
X173814619Y-78755119D01*
X173814619Y-78658357D01*
X173863000Y-78513214D01*
X173911380Y-78464833D01*
X173814619Y-77545595D02*
X173814619Y-78029404D01*
X174298428Y-78077785D01*
X174250047Y-78029404D01*
X174201666Y-77932642D01*
X174201666Y-77690738D01*
X174250047Y-77593976D01*
X174298428Y-77545595D01*
X174395190Y-77497214D01*
X174637095Y-77497214D01*
X174733857Y-77545595D01*
X174782238Y-77593976D01*
X174830619Y-77690738D01*
X174830619Y-77932642D01*
X174782238Y-78029404D01*
X174733857Y-78077785D01*
X182450619Y-79380926D02*
X182450619Y-79903440D01*
X182450619Y-79642183D02*
X181434619Y-79515183D01*
X181579761Y-79620412D01*
X181676523Y-79719593D01*
X181724904Y-79812726D01*
X181434619Y-78687869D02*
X181434619Y-78600783D01*
X181483000Y-78519745D01*
X181531380Y-78482250D01*
X181628142Y-78450802D01*
X181821666Y-78431450D01*
X182063571Y-78461688D01*
X182257095Y-78529421D01*
X182353857Y-78585060D01*
X182402238Y-78634650D01*
X182450619Y-78727783D01*
X182450619Y-78814869D01*
X182402238Y-78895907D01*
X182353857Y-78933402D01*
X182257095Y-78964850D01*
X182063571Y-78984202D01*
X181821666Y-78953964D01*
X181628142Y-78886231D01*
X181531380Y-78830593D01*
X181483000Y-78781002D01*
X181434619Y-78687869D01*
X181773285Y-77641631D02*
X182450619Y-77726298D01*
X181773285Y-78033517D02*
X182305476Y-78100040D01*
X182402238Y-78068593D01*
X182450619Y-77987555D01*
X182450619Y-77856926D01*
X182402238Y-77763793D01*
X182353857Y-77714202D01*
X181918428Y-76919545D02*
X181918428Y-77224345D01*
X182450619Y-77290869D02*
X181434619Y-77163869D01*
X181434619Y-76728440D01*
X175713571Y-81222547D02*
X175713571Y-80448452D01*
X176100619Y-80835500D02*
X175326523Y-80835500D01*
X74252666Y-71038357D02*
X74204285Y-71086738D01*
X74059142Y-71135119D01*
X73962380Y-71135119D01*
X73817238Y-71086738D01*
X73720476Y-70989976D01*
X73672095Y-70893214D01*
X73623714Y-70699690D01*
X73623714Y-70554547D01*
X73672095Y-70361023D01*
X73720476Y-70264261D01*
X73817238Y-70167500D01*
X73962380Y-70119119D01*
X74059142Y-70119119D01*
X74204285Y-70167500D01*
X74252666Y-70215880D01*
X75123523Y-70457785D02*
X75123523Y-71135119D01*
X74881619Y-70070738D02*
X74639714Y-70796452D01*
X75268666Y-70796452D01*
X73336573Y-63515119D02*
X72814059Y-63515119D01*
X73075316Y-63515119D02*
X73202316Y-62499119D01*
X73097087Y-62644261D01*
X72997906Y-62741023D01*
X72904773Y-62789404D01*
X74029630Y-62499119D02*
X74116716Y-62499119D01*
X74197754Y-62547500D01*
X74235249Y-62595880D01*
X74266697Y-62692642D01*
X74286049Y-62886166D01*
X74255811Y-63128071D01*
X74188078Y-63321595D01*
X74132440Y-63418357D01*
X74082849Y-63466738D01*
X73989716Y-63515119D01*
X73902630Y-63515119D01*
X73821592Y-63466738D01*
X73784097Y-63418357D01*
X73752649Y-63321595D01*
X73733297Y-63128071D01*
X73763535Y-62886166D01*
X73831268Y-62692642D01*
X73886906Y-62595880D01*
X73936497Y-62547500D01*
X74029630Y-62499119D01*
X75075868Y-62837785D02*
X74991201Y-63515119D01*
X74683982Y-62837785D02*
X74617459Y-63369976D01*
X74648906Y-63466738D01*
X74729944Y-63515119D01*
X74860573Y-63515119D01*
X74953706Y-63466738D01*
X75003297Y-63418357D01*
X75797954Y-62982928D02*
X75493154Y-62982928D01*
X75426630Y-63515119D02*
X75553630Y-62499119D01*
X75989059Y-62499119D01*
X76574952Y-69478071D02*
X77349047Y-69478071D01*
X76962000Y-69865119D02*
X76962000Y-69091023D01*
X65014928Y-63388119D02*
X64434357Y-63388119D01*
X64724642Y-63388119D02*
X64724642Y-62372119D01*
X64627880Y-62517261D01*
X64531119Y-62614023D01*
X64434357Y-62662404D01*
X65643880Y-62372119D02*
X65740642Y-62372119D01*
X65837404Y-62420500D01*
X65885785Y-62468880D01*
X65934166Y-62565642D01*
X65982547Y-62759166D01*
X65982547Y-63001071D01*
X65934166Y-63194595D01*
X65885785Y-63291357D01*
X65837404Y-63339738D01*
X65740642Y-63388119D01*
X65643880Y-63388119D01*
X65547119Y-63339738D01*
X65498738Y-63291357D01*
X65450357Y-63194595D01*
X65401976Y-63001071D01*
X65401976Y-62759166D01*
X65450357Y-62565642D01*
X65498738Y-62468880D01*
X65547119Y-62420500D01*
X65643880Y-62372119D01*
X66853404Y-62710785D02*
X66853404Y-63388119D01*
X66417976Y-62710785D02*
X66417976Y-63242976D01*
X66466357Y-63339738D01*
X66563119Y-63388119D01*
X66708261Y-63388119D01*
X66805023Y-63339738D01*
X66853404Y-63291357D01*
X67675880Y-62855928D02*
X67337214Y-62855928D01*
X67337214Y-63388119D02*
X67337214Y-62372119D01*
X67821023Y-62372119D01*
X65857482Y-70911357D02*
X65807892Y-70959738D01*
X65671216Y-71008119D01*
X65584130Y-71008119D01*
X65459549Y-70959738D01*
X65384559Y-70862976D01*
X65353111Y-70766214D01*
X65333759Y-70572690D01*
X65351901Y-70427547D01*
X65419635Y-70234023D01*
X65475273Y-70137261D01*
X65574454Y-70040500D01*
X65711130Y-69992119D01*
X65798216Y-69992119D01*
X65922797Y-70040500D01*
X65960292Y-70088880D01*
X66277187Y-69992119D02*
X66843244Y-69992119D01*
X66490063Y-70379166D01*
X66620692Y-70379166D01*
X66701730Y-70427547D01*
X66739225Y-70475928D01*
X66770673Y-70572690D01*
X66740435Y-70814595D01*
X66684797Y-70911357D01*
X66635206Y-70959738D01*
X66542073Y-71008119D01*
X66280816Y-71008119D01*
X66199778Y-70959738D01*
X66162282Y-70911357D01*
X63176452Y-64271071D02*
X63950547Y-64271071D01*
X63563500Y-64658119D02*
X63563500Y-63884023D01*
X176418619Y-69862095D02*
X177241095Y-69862095D01*
X177337857Y-69813714D01*
X177386238Y-69765333D01*
X177434619Y-69668571D01*
X177434619Y-69475047D01*
X177386238Y-69378285D01*
X177337857Y-69329904D01*
X177241095Y-69281523D01*
X176418619Y-69281523D01*
X177434619Y-68265523D02*
X177434619Y-68846095D01*
X177434619Y-68555809D02*
X176418619Y-68555809D01*
X176563761Y-68652571D01*
X176660523Y-68749333D01*
X176708904Y-68846095D01*
X175847119Y-73910855D02*
X175847119Y-74346283D01*
X174831119Y-74219283D01*
X175847119Y-73606055D02*
X174831119Y-73479055D01*
X175556833Y-73264969D01*
X174831119Y-72869455D01*
X175847119Y-72996455D01*
X174831119Y-72521112D02*
X174831119Y-71911512D01*
X175847119Y-72430398D01*
X175847119Y-71646626D02*
X175847119Y-71472455D01*
X175798738Y-71379321D01*
X175750357Y-71329731D01*
X175605214Y-71224502D01*
X175411690Y-71156769D01*
X175024642Y-71108388D01*
X174927880Y-71139836D01*
X174879500Y-71177331D01*
X174831119Y-71258369D01*
X174831119Y-71432540D01*
X174879500Y-71525674D01*
X174927880Y-71575264D01*
X175024642Y-71630902D01*
X175266547Y-71661140D01*
X175363309Y-71629693D01*
X175411690Y-71592198D01*
X175460071Y-71511160D01*
X175460071Y-71336988D01*
X175411690Y-71243855D01*
X175363309Y-71194264D01*
X175266547Y-71138626D01*
X174831119Y-70518140D02*
X174831119Y-70431055D01*
X174879500Y-70350017D01*
X174927880Y-70312521D01*
X175024642Y-70281074D01*
X175218166Y-70261721D01*
X175460071Y-70291960D01*
X175653595Y-70359693D01*
X175750357Y-70415331D01*
X175798738Y-70464921D01*
X175847119Y-70558055D01*
X175847119Y-70645140D01*
X175798738Y-70726179D01*
X175750357Y-70763674D01*
X175653595Y-70795121D01*
X175460071Y-70814474D01*
X175218166Y-70784236D01*
X175024642Y-70716502D01*
X174927880Y-70660864D01*
X174879500Y-70611274D01*
X174831119Y-70518140D01*
X174831119Y-69386026D02*
X174831119Y-69821455D01*
X175314928Y-69925474D01*
X175266547Y-69875883D01*
X175218166Y-69782750D01*
X175218166Y-69565036D01*
X175266547Y-69483998D01*
X175314928Y-69446502D01*
X175411690Y-69415055D01*
X175653595Y-69445293D01*
X175750357Y-69500931D01*
X175798738Y-69550521D01*
X175847119Y-69643655D01*
X175847119Y-69861369D01*
X175798738Y-69942407D01*
X175750357Y-69979902D01*
X175943880Y-69307407D02*
X175943880Y-68610721D01*
X174831119Y-68384540D02*
X174831119Y-67862026D01*
X175847119Y-68250283D02*
X174831119Y-68123283D01*
X174831119Y-67383055D02*
X174831119Y-67208883D01*
X174879500Y-67127845D01*
X174976261Y-67052855D01*
X175169785Y-67033502D01*
X175508452Y-67075836D01*
X175701976Y-67143569D01*
X175798738Y-67242750D01*
X175847119Y-67335883D01*
X175847119Y-67510055D01*
X175798738Y-67591093D01*
X175701976Y-67666083D01*
X175508452Y-67685436D01*
X175169785Y-67643102D01*
X174976261Y-67575369D01*
X174879500Y-67476188D01*
X174831119Y-67383055D01*
X174927880Y-66654921D02*
X174879500Y-66605331D01*
X174831119Y-66512198D01*
X174831119Y-66294483D01*
X174879500Y-66213445D01*
X174927880Y-66175950D01*
X175024642Y-66144502D01*
X175121404Y-66156598D01*
X175266547Y-66218283D01*
X175847119Y-66813369D01*
X175847119Y-66247312D01*
X174927880Y-65784064D02*
X174879500Y-65734474D01*
X174831119Y-65641340D01*
X174831119Y-65423626D01*
X174879500Y-65342588D01*
X174927880Y-65305093D01*
X175024642Y-65273645D01*
X175121404Y-65285740D01*
X175266547Y-65347426D01*
X175847119Y-65942512D01*
X175847119Y-65376455D01*
X174831119Y-64683398D02*
X174831119Y-64596312D01*
X174879500Y-64515274D01*
X174927880Y-64477779D01*
X175024642Y-64446331D01*
X175218166Y-64426979D01*
X175460071Y-64457217D01*
X175653595Y-64524950D01*
X175750357Y-64580588D01*
X175798738Y-64630179D01*
X175847119Y-64723312D01*
X175847119Y-64810398D01*
X175798738Y-64891436D01*
X175750357Y-64928931D01*
X175653595Y-64960379D01*
X175460071Y-64979731D01*
X175218166Y-64949493D01*
X175024642Y-64881760D01*
X174927880Y-64826121D01*
X174879500Y-64776531D01*
X174831119Y-64683398D01*
D14*
X170171666Y-84351880D02*
X170171666Y-85066166D01*
X170124047Y-85209023D01*
X170028809Y-85304261D01*
X169885952Y-85351880D01*
X169790714Y-85351880D01*
X170647857Y-85351880D02*
X170647857Y-84351880D01*
X171028809Y-84351880D01*
X171124047Y-84399500D01*
X171171666Y-84447119D01*
X171219285Y-84542357D01*
X171219285Y-84685214D01*
X171171666Y-84780452D01*
X171124047Y-84828071D01*
X171028809Y-84875690D01*
X170647857Y-84875690D01*
X172171666Y-85351880D02*
X171600238Y-85351880D01*
X171885952Y-85351880D02*
X171885952Y-84351880D01*
X171790714Y-84494738D01*
X171695476Y-84589976D01*
X171600238Y-84637595D01*
X157107619Y-80144880D02*
X156774285Y-79668690D01*
X156536190Y-80144880D02*
X156536190Y-79144880D01*
X156917142Y-79144880D01*
X157012380Y-79192500D01*
X157060000Y-79240119D01*
X157107619Y-79335357D01*
X157107619Y-79478214D01*
X157060000Y-79573452D01*
X157012380Y-79621071D01*
X156917142Y-79668690D01*
X156536190Y-79668690D01*
X157536190Y-79621071D02*
X157869523Y-79621071D01*
X158012380Y-80144880D02*
X157536190Y-80144880D01*
X157536190Y-79144880D01*
X158012380Y-79144880D01*
X158774285Y-79621071D02*
X158440952Y-79621071D01*
X158440952Y-80144880D02*
X158440952Y-79144880D01*
X158917142Y-79144880D01*
X159869523Y-80144880D02*
X159536190Y-79668690D01*
X159298095Y-80144880D02*
X159298095Y-79144880D01*
X159679047Y-79144880D01*
X159774285Y-79192500D01*
X159821904Y-79240119D01*
X159869523Y-79335357D01*
X159869523Y-79478214D01*
X159821904Y-79573452D01*
X159774285Y-79621071D01*
X159679047Y-79668690D01*
X159298095Y-79668690D01*
X160298095Y-79621071D02*
X160631428Y-79621071D01*
X160774285Y-80144880D02*
X160298095Y-80144880D01*
X160298095Y-79144880D01*
X160774285Y-79144880D01*
X161155238Y-80097261D02*
X161298095Y-80144880D01*
X161536190Y-80144880D01*
X161631428Y-80097261D01*
X161679047Y-80049642D01*
X161726666Y-79954404D01*
X161726666Y-79859166D01*
X161679047Y-79763928D01*
X161631428Y-79716309D01*
X161536190Y-79668690D01*
X161345714Y-79621071D01*
X161250476Y-79573452D01*
X161202857Y-79525833D01*
X161155238Y-79430595D01*
X161155238Y-79335357D01*
X161202857Y-79240119D01*
X161250476Y-79192500D01*
X161345714Y-79144880D01*
X161583809Y-79144880D01*
X161726666Y-79192500D01*
X162155238Y-80144880D02*
X162155238Y-79144880D01*
X162155238Y-79621071D02*
X162726666Y-79621071D01*
X162726666Y-80144880D02*
X162726666Y-79144880D01*
X163917142Y-79097261D02*
X163060000Y-80382976D01*
X164250476Y-80144880D02*
X164250476Y-79144880D01*
X164488571Y-79144880D01*
X164631428Y-79192500D01*
X164726666Y-79287738D01*
X164774285Y-79382976D01*
X164821904Y-79573452D01*
X164821904Y-79716309D01*
X164774285Y-79906785D01*
X164726666Y-80002023D01*
X164631428Y-80097261D01*
X164488571Y-80144880D01*
X164250476Y-80144880D01*
X165202857Y-79859166D02*
X165679047Y-79859166D01*
X165107619Y-80144880D02*
X165440952Y-79144880D01*
X165774285Y-80144880D01*
X166679047Y-80049642D02*
X166631428Y-80097261D01*
X166488571Y-80144880D01*
X166393333Y-80144880D01*
X166250476Y-80097261D01*
X166155238Y-80002023D01*
X166107619Y-79906785D01*
X166059999Y-79716309D01*
X166059999Y-79573452D01*
X166107619Y-79382976D01*
X166155238Y-79287738D01*
X166250476Y-79192500D01*
X166393333Y-79144880D01*
X166488571Y-79144880D01*
X166631428Y-79192500D01*
X166679047Y-79240119D01*
X167107619Y-80144880D02*
X167107619Y-79144880D01*
X167679047Y-80144880D02*
X167250476Y-79573452D01*
X167679047Y-79144880D02*
X167107619Y-79716309D01*
X168298095Y-79144880D02*
X168393333Y-79144880D01*
X168488571Y-79192500D01*
X168536190Y-79240119D01*
X168583809Y-79335357D01*
X168631428Y-79525833D01*
X168631428Y-79763928D01*
X168583809Y-79954404D01*
X168536190Y-80049642D01*
X168488571Y-80097261D01*
X168393333Y-80144880D01*
X168298095Y-80144880D01*
X168202857Y-80097261D01*
X168155238Y-80049642D01*
X168107619Y-79954404D01*
X168059999Y-79763928D01*
X168059999Y-79525833D01*
X168107619Y-79335357D01*
X168155238Y-79240119D01*
X168202857Y-79192500D01*
X168298095Y-79144880D01*
M02*
