M48
; DRILL file {KiCad (5.1.6)-1} date 02/05/21 21:32:13
; FORMAT={2:4/ absolute / inch / suppress leading zeros}
; #@! TF.CreationDate,2021-02-05T21:32:13+00:00
; #@! TF.GenerationSoftware,Kicad,Pcbnew,(5.1.6)-1
FMAT,2
INCH,TZ
T1C0.0157
T2C0.0320
T3C0.0394
T4C0.0400
%
G90
G05
T1
X27465Y-24731
X31829Y-34229
X33368Y-36018
X33580Y-29646
X33923Y-29986
X34604Y-34229
X41073Y-35854
X43380Y-35990
X44222Y-30810
X44585Y-33447
X44799Y-28693
X45171Y-34061
X45443Y-30824
X45856Y-33643
X45870Y-35124
X46458Y-30920
X46762Y-34707
X46855Y-35460
X46915Y-30646
X46996Y-31361
X47010Y-35862
X47062Y-34964
X48165Y-35144
X48413Y-35704
X48697Y-34322
X49445Y-34378
X49693Y-34687
X50055Y-34487
X50988Y-30800
X51124Y-36044
X51948Y-30866
X52344Y-35255
X54325Y-30811
X56906Y-35258
X57528Y-34793
X57842Y-30691
X58504Y-35128
X59153Y-34886
X59598Y-36030
X59937Y-34701
X61520Y-34351
X65522Y-30882
T2
X28300Y-26325
X30300Y-26325
X70150Y-22700
X70150Y-24700
X70150Y-33050
X70150Y-35050
X70150Y-29825
X70150Y-31825
X70125Y-19650
X70125Y-21650
X25025Y-26275
X27025Y-26275
T3
X62275Y-32425
X62275Y-33425
X62275Y-34425
T4
X13650Y-21250
X13650Y-23250
X14650Y-21250
X14650Y-23250
X15650Y-21250
X15650Y-23250
X16650Y-21250
X16650Y-23250
X17650Y-21250
X17650Y-23250
X18650Y-21250
X18650Y-23250
X19650Y-21250
X19650Y-23250
X20650Y-21250
X20650Y-23250
X21650Y-21250
X21650Y-23250
X22650Y-21250
X22650Y-23250
X23650Y-21250
X23650Y-23250
X24650Y-21250
X24650Y-23250
X25650Y-21250
X25650Y-23250
X26650Y-21250
X26650Y-23250
X27650Y-21250
X27650Y-23250
X28650Y-21250
X28650Y-23250
X29650Y-21250
X29650Y-23250
X30650Y-21250
X30650Y-23250
X34650Y-21250
X34650Y-23250
X35650Y-21250
X35650Y-23250
X36650Y-21250
X36650Y-23250
X37650Y-21250
X37650Y-23250
X38650Y-21250
X38650Y-23250
X39650Y-21250
X39650Y-23250
X40650Y-21250
X40650Y-23250
X41650Y-21250
X41650Y-23250
X42650Y-21250
X42650Y-23250
X43650Y-21250
X43650Y-23250
X44650Y-21250
X44650Y-23250
X45650Y-21250
X45650Y-23250
X46650Y-21250
X46650Y-23250
X47650Y-21250
X47650Y-23250
X48650Y-21250
X48650Y-23250
X49650Y-21250
X49650Y-23250
X50650Y-21250
X50650Y-23250
X51650Y-21250
X51650Y-23250
X52650Y-21250
X52650Y-23250
X53650Y-21250
X53650Y-23250
X54650Y-21250
X54650Y-23250
X55650Y-21250
X55650Y-23250
X56650Y-21250
X56650Y-23250
X57650Y-21250
X57650Y-23250
X58650Y-21250
X58650Y-23250
X59650Y-21250
X59650Y-23250
X60650Y-21250
X60650Y-23250
X61650Y-21250
X61650Y-23250
X62650Y-21250
X62650Y-23250
X63650Y-21250
X63650Y-23250
X64650Y-21250
X64650Y-23250
X71025Y-26400
X71025Y-27400
X71025Y-28400
X34650Y-28150
X34650Y-30150
X35650Y-28150
X35650Y-30150
X36650Y-28150
X36650Y-30150
X37650Y-28150
X37650Y-30150
X38650Y-28150
X38650Y-30150
X39650Y-28150
X39650Y-30150
X40650Y-28150
X40650Y-30150
X41650Y-28150
X41650Y-30150
X42650Y-28150
X42650Y-30150
X43650Y-28150
X43650Y-30150
X44650Y-28150
X44650Y-30150
X45650Y-28150
X45650Y-30150
X46650Y-28150
X46650Y-30150
X47650Y-28150
X47650Y-30150
X48650Y-28150
X48650Y-30150
X49650Y-28150
X49650Y-30150
X50650Y-28150
X50650Y-30150
X51650Y-28150
X51650Y-30150
X52650Y-28150
X52650Y-30150
X53650Y-28150
X53650Y-30150
X54650Y-28150
X54650Y-30150
X55650Y-28150
X55650Y-30150
X56650Y-28150
X56650Y-30150
X57650Y-28150
X57650Y-30150
X58650Y-28150
X58650Y-30150
X59650Y-28150
X59650Y-30150
X60650Y-28150
X60650Y-30150
X61650Y-28150
X61650Y-30150
X62650Y-28150
X62650Y-30150
X63650Y-28150
X63650Y-30150
X64650Y-28150
X64650Y-30150
T0
M30
