G04 #@! TF.GenerationSoftware,KiCad,Pcbnew,(5.1.6)-1*
G04 #@! TF.CreationDate,2021-02-05T21:35:54+00:00*
G04 #@! TF.ProjectId,ibmps1,69626d70-7331-42e6-9b69-6361645f7063,rev?*
G04 #@! TF.SameCoordinates,Original*
G04 #@! TF.FileFunction,Copper,L1,Top*
G04 #@! TF.FilePolarity,Positive*
%FSLAX46Y46*%
G04 Gerber Fmt 4.6, Leading zero omitted, Abs format (unit mm)*
G04 Created by KiCad (PCBNEW (5.1.6)-1) date 2021-02-05 21:35:54*
%MOMM*%
%LPD*%
G01*
G04 APERTURE LIST*
G04 #@! TA.AperFunction,ComponentPad*
%ADD10C,1.397000*%
G04 #@! TD*
G04 #@! TA.AperFunction,ComponentPad*
%ADD11R,1.397000X1.397000*%
G04 #@! TD*
G04 #@! TA.AperFunction,ComponentPad*
%ADD12R,1.778000X1.778000*%
G04 #@! TD*
G04 #@! TA.AperFunction,ComponentPad*
%ADD13C,1.778000*%
G04 #@! TD*
G04 #@! TA.AperFunction,ComponentPad*
%ADD14R,1.700000X1.700000*%
G04 #@! TD*
G04 #@! TA.AperFunction,ComponentPad*
%ADD15O,1.700000X1.700000*%
G04 #@! TD*
G04 #@! TA.AperFunction,ConnectorPad*
%ADD16R,0.510000X0.760000*%
G04 #@! TD*
G04 #@! TA.AperFunction,ConnectorPad*
%ADD17R,1.020000X4.570000*%
G04 #@! TD*
G04 #@! TA.AperFunction,ComponentPad*
%ADD18C,1.524000*%
G04 #@! TD*
G04 #@! TA.AperFunction,ViaPad*
%ADD19C,0.800000*%
G04 #@! TD*
G04 #@! TA.AperFunction,Conductor*
%ADD20C,0.250000*%
G04 #@! TD*
G04 #@! TA.AperFunction,Conductor*
%ADD21C,0.600000*%
G04 #@! TD*
G04 #@! TA.AperFunction,Conductor*
%ADD22C,0.254000*%
G04 #@! TD*
G04 APERTURE END LIST*
D10*
X178181000Y-57658000D03*
D11*
X178181000Y-62738000D03*
D10*
X178181000Y-83947000D03*
D11*
X178181000Y-89027000D03*
D10*
X178118000Y-49911000D03*
D11*
X178118000Y-54991000D03*
D10*
X178181000Y-75755500D03*
D11*
X178181000Y-80835500D03*
D10*
X71882000Y-66865500D03*
D11*
X76962000Y-66865500D03*
D10*
X68643500Y-66738500D03*
D11*
X63563500Y-66738500D03*
D12*
X180404000Y-72136000D03*
D13*
X180404000Y-67056000D03*
X180404000Y-69596000D03*
D14*
X158178000Y-82359500D03*
D15*
X158178000Y-84899500D03*
X158178000Y-87439500D03*
D16*
X156515000Y-97097200D03*
X155255000Y-97097200D03*
X153985000Y-97097200D03*
X152715000Y-97097200D03*
X151445000Y-97097200D03*
X150175000Y-97097200D03*
X148905000Y-97097200D03*
X147635000Y-97097200D03*
X146365000Y-97097200D03*
X145095000Y-97097200D03*
X143825000Y-97097200D03*
X140015000Y-97097200D03*
X138745000Y-97097200D03*
X137475000Y-97097200D03*
X136205000Y-97097200D03*
X134935000Y-97097200D03*
X133665000Y-97097200D03*
X132395000Y-97097200D03*
X131125000Y-97097200D03*
X129855000Y-97097200D03*
X128585000Y-97097200D03*
X127315000Y-97097200D03*
X126045000Y-97097200D03*
X124775000Y-97097200D03*
X123505000Y-97097200D03*
X122235000Y-97097200D03*
X120965000Y-97097200D03*
X119695000Y-97097200D03*
X118425000Y-97097200D03*
X117155000Y-97097200D03*
X115885000Y-97097200D03*
X114615000Y-97097200D03*
X113345000Y-97097200D03*
X112075000Y-97097200D03*
X110805000Y-97097200D03*
X109535000Y-97097200D03*
X108265000Y-97097200D03*
X106995000Y-97097200D03*
X105725000Y-97097200D03*
X104445000Y-97097200D03*
X103185000Y-97097200D03*
X101905000Y-97097200D03*
X100645000Y-97097200D03*
X99375000Y-97097200D03*
X98105000Y-97097200D03*
X96835000Y-97097200D03*
X95565000Y-97097200D03*
X94295000Y-97097200D03*
X93015000Y-97097200D03*
X91755000Y-97097200D03*
X90485000Y-97097200D03*
X89215000Y-97097200D03*
X87945000Y-97097200D03*
X86675000Y-97097200D03*
X85405000Y-97097200D03*
X84135000Y-97097200D03*
D17*
X156515000Y-94437200D03*
X155255000Y-94437200D03*
X153985000Y-94437200D03*
X152715000Y-94437200D03*
X151445000Y-94437200D03*
X150175000Y-94437200D03*
X148905000Y-94437200D03*
X147635000Y-94437200D03*
X146365000Y-94437200D03*
X145095000Y-94437200D03*
X143825000Y-94437200D03*
X140015000Y-94437200D03*
X138745000Y-94437200D03*
X137475000Y-94437200D03*
X136205000Y-94437200D03*
X134935000Y-94437200D03*
X133665000Y-94437200D03*
X132395000Y-94437200D03*
X131125000Y-94437200D03*
X129855000Y-94437200D03*
X128585000Y-94437200D03*
X127315000Y-94437200D03*
X126045000Y-94437200D03*
X124775000Y-94437200D03*
X123505000Y-94437200D03*
X122235000Y-94437200D03*
X120965000Y-94437200D03*
X119695000Y-94437200D03*
X118425000Y-94437200D03*
X117155000Y-94437200D03*
X115885000Y-94437200D03*
X114615000Y-94437200D03*
X113345000Y-94437200D03*
X112075000Y-94437200D03*
X110805000Y-94437200D03*
X109535000Y-94437200D03*
X108265000Y-94437200D03*
X106995000Y-94437200D03*
X105725000Y-94437200D03*
X104445000Y-94437200D03*
X103185000Y-94437200D03*
X101905000Y-94437200D03*
X100645000Y-94437200D03*
X99375000Y-94437200D03*
X98105000Y-94437200D03*
X96835000Y-94437200D03*
X95565000Y-94437200D03*
X94295000Y-94437200D03*
X93015000Y-94437200D03*
X91755000Y-94437200D03*
X90485000Y-94437200D03*
X89215000Y-94437200D03*
X87945000Y-94437200D03*
X86675000Y-94437200D03*
X85405000Y-94437200D03*
X84135000Y-94437200D03*
D18*
X34671000Y-53975000D03*
X37211000Y-53975000D03*
X39751000Y-53975000D03*
X42291000Y-53975000D03*
X44831000Y-53975000D03*
X47371000Y-53975000D03*
X49911000Y-53975000D03*
X52451000Y-53975000D03*
X54991000Y-53975000D03*
X57531000Y-53975000D03*
X60071000Y-53975000D03*
X62611000Y-53975000D03*
X65151000Y-53975000D03*
X67691000Y-53975000D03*
X70231000Y-53975000D03*
X72771000Y-53975000D03*
X75311000Y-53975000D03*
X77851000Y-53975000D03*
X34671000Y-59055000D03*
X37211000Y-59055000D03*
X39751000Y-59055000D03*
X42291000Y-59055000D03*
X44831000Y-59055000D03*
X47371000Y-59055000D03*
X49911000Y-59055000D03*
X52451000Y-59055000D03*
X54991000Y-59055000D03*
X57531000Y-59055000D03*
X60071000Y-59055000D03*
X62611000Y-59055000D03*
X65151000Y-59055000D03*
X67691000Y-59055000D03*
X70231000Y-59055000D03*
X72771000Y-59055000D03*
X75311000Y-59055000D03*
X77851000Y-59055000D03*
X88011000Y-53975000D03*
X90551000Y-53975000D03*
X93091000Y-53975000D03*
X95631000Y-53975000D03*
X98171000Y-53975000D03*
X100711000Y-53975000D03*
X103251000Y-53975000D03*
X105791000Y-53975000D03*
X108331000Y-53975000D03*
X110871000Y-53975000D03*
X113411000Y-53975000D03*
X115951000Y-53975000D03*
X118491000Y-53975000D03*
X121031000Y-53975000D03*
X123571000Y-53975000D03*
X126111000Y-53975000D03*
X128651000Y-53975000D03*
X131191000Y-53975000D03*
X133731000Y-53975000D03*
X136271000Y-53975000D03*
X138811000Y-53975000D03*
X141351000Y-53975000D03*
X143891000Y-53975000D03*
X146431000Y-53975000D03*
X148971000Y-53975000D03*
X151511000Y-53975000D03*
X154051000Y-53975000D03*
X156591000Y-53975000D03*
X159131000Y-53975000D03*
X161671000Y-53975000D03*
X164211000Y-53975000D03*
X88011000Y-59055000D03*
X90551000Y-59055000D03*
X93091000Y-59055000D03*
X95631000Y-59055000D03*
X98171000Y-59055000D03*
X100711000Y-59055000D03*
X103251000Y-59055000D03*
X105791000Y-59055000D03*
X108331000Y-59055000D03*
X110871000Y-59055000D03*
X113411000Y-59055000D03*
X115951000Y-59055000D03*
X118491000Y-59055000D03*
X121031000Y-59055000D03*
X123571000Y-59055000D03*
X126111000Y-59055000D03*
X128651000Y-59055000D03*
X131191000Y-59055000D03*
X133731000Y-59055000D03*
X136271000Y-59055000D03*
X138811000Y-59055000D03*
X141351000Y-59055000D03*
X143891000Y-59055000D03*
X146431000Y-59055000D03*
X148971000Y-59055000D03*
X151511000Y-59055000D03*
X154051000Y-59055000D03*
X156591000Y-59055000D03*
X159131000Y-59055000D03*
X161671000Y-59055000D03*
X164211000Y-59055000D03*
X88011000Y-71501000D03*
X90551000Y-71501000D03*
X93091000Y-71501000D03*
X95631000Y-71501000D03*
X98171000Y-71501000D03*
X100711000Y-71501000D03*
X103251000Y-71501000D03*
X105791000Y-71501000D03*
X108331000Y-71501000D03*
X110871000Y-71501000D03*
X113411000Y-71501000D03*
X115951000Y-71501000D03*
X118491000Y-71501000D03*
X121031000Y-71501000D03*
X123571000Y-71501000D03*
X126111000Y-71501000D03*
X128651000Y-71501000D03*
X131191000Y-71501000D03*
X133731000Y-71501000D03*
X136271000Y-71501000D03*
X138811000Y-71501000D03*
X141351000Y-71501000D03*
X143891000Y-71501000D03*
X146431000Y-71501000D03*
X148971000Y-71501000D03*
X151511000Y-71501000D03*
X154051000Y-71501000D03*
X156591000Y-71501000D03*
X159131000Y-71501000D03*
X161671000Y-71501000D03*
X164211000Y-71501000D03*
X88011000Y-76581000D03*
X90551000Y-76581000D03*
X93091000Y-76581000D03*
X95631000Y-76581000D03*
X98171000Y-76581000D03*
X100711000Y-76581000D03*
X103251000Y-76581000D03*
X105791000Y-76581000D03*
X108331000Y-76581000D03*
X110871000Y-76581000D03*
X113411000Y-76581000D03*
X115951000Y-76581000D03*
X118491000Y-76581000D03*
X121031000Y-76581000D03*
X123571000Y-76581000D03*
X126111000Y-76581000D03*
X128651000Y-76581000D03*
X131191000Y-76581000D03*
X133731000Y-76581000D03*
X136271000Y-76581000D03*
X138811000Y-76581000D03*
X141351000Y-76581000D03*
X143891000Y-76581000D03*
X146431000Y-76581000D03*
X148971000Y-76581000D03*
X151511000Y-76581000D03*
X154051000Y-76581000D03*
X156591000Y-76581000D03*
X159131000Y-76581000D03*
X161671000Y-76581000D03*
X164211000Y-76581000D03*
D19*
X113244800Y-84955000D03*
X114733700Y-86514700D03*
X116473900Y-85453300D03*
X116508800Y-89214600D03*
X112323600Y-78257500D03*
X118774700Y-88155100D03*
X122968600Y-90687400D03*
X122338300Y-89265900D03*
X119405700Y-91089400D03*
X113790500Y-72881400D03*
X119010700Y-90067500D03*
X115424100Y-78293200D03*
X123689200Y-87178700D03*
X125590200Y-87321300D03*
X126221400Y-88104900D03*
X129508600Y-78232700D03*
X127140200Y-87597600D03*
X131948200Y-78400100D03*
X137986300Y-78259900D03*
X144541400Y-89554900D03*
X146120400Y-88375100D03*
X148599200Y-89224700D03*
X150248400Y-88610700D03*
X152240100Y-88139500D03*
X80846900Y-86942800D03*
X119370200Y-79657800D03*
X119536700Y-88808000D03*
X87893700Y-86942800D03*
X156261600Y-87252800D03*
X84755400Y-91485700D03*
X132953200Y-89548200D03*
X129855000Y-91551100D03*
X110184900Y-91414700D03*
X151377700Y-91515200D03*
X118002900Y-78536800D03*
X119163700Y-77841100D03*
X166425500Y-78439900D03*
X86163600Y-76163400D03*
X85292600Y-75300000D03*
X104325300Y-91070200D03*
X69760000Y-62815900D03*
X146919800Y-77955200D03*
D20*
X143825000Y-94437200D02*
X143825000Y-91396500D01*
X143825000Y-91396500D02*
X138700000Y-86271500D01*
X138700000Y-86271500D02*
X134149800Y-86271500D01*
X134149800Y-86271500D02*
X128278300Y-80400000D01*
X128278300Y-80400000D02*
X113101600Y-80400000D01*
X113101600Y-80400000D02*
X109775500Y-77073900D01*
X109775500Y-77073900D02*
X109775500Y-76462600D01*
X109775500Y-76462600D02*
X105901300Y-72588400D01*
X105901300Y-72588400D02*
X102761400Y-72588400D01*
X102761400Y-72588400D02*
X101981100Y-71808100D01*
X101981100Y-71808100D02*
X101981100Y-71201100D01*
X101981100Y-71201100D02*
X99386600Y-68606600D01*
X99386600Y-68606600D02*
X90905400Y-68606600D01*
X90905400Y-68606600D02*
X88011000Y-71501000D01*
X143825000Y-97097200D02*
X143825000Y-94437200D01*
X140015000Y-91826900D02*
X138997300Y-90809200D01*
X138997300Y-90809200D02*
X138050500Y-90809200D01*
X138050500Y-90809200D02*
X128091600Y-80850300D01*
X128091600Y-80850300D02*
X111034900Y-80850300D01*
X111034900Y-80850300D02*
X107061000Y-76876400D01*
X107061000Y-76876400D02*
X107061000Y-76301000D01*
X107061000Y-76301000D02*
X103798800Y-73038800D01*
X103798800Y-73038800D02*
X100677400Y-73038800D01*
X100677400Y-73038800D02*
X99441000Y-71802400D01*
X99441000Y-71802400D02*
X99441000Y-71190900D01*
X99441000Y-71190900D02*
X97757300Y-69507200D01*
X97757300Y-69507200D02*
X92544800Y-69507200D01*
X92544800Y-69507200D02*
X90551000Y-71501000D01*
X140015000Y-94437200D02*
X140015000Y-91826900D01*
X140015000Y-97097200D02*
X140015000Y-94437200D01*
X138745000Y-91826900D02*
X138127600Y-91826900D01*
X138127600Y-91826900D02*
X127601300Y-81300600D01*
X127601300Y-81300600D02*
X108968100Y-81300600D01*
X108968100Y-81300600D02*
X104633400Y-76965900D01*
X104633400Y-76965900D02*
X104633400Y-76409700D01*
X104633400Y-76409700D02*
X102702800Y-74479100D01*
X102702800Y-74479100D02*
X99588900Y-74479100D01*
X99588900Y-74479100D02*
X96901000Y-71791200D01*
X96901000Y-71791200D02*
X96901000Y-71219600D01*
X96901000Y-71219600D02*
X96089200Y-70407800D01*
X96089200Y-70407800D02*
X94184200Y-70407800D01*
X94184200Y-70407800D02*
X93091000Y-71501000D01*
X138745000Y-94437200D02*
X138745000Y-91826900D01*
X138745000Y-97097200D02*
X138745000Y-94437200D01*
X137475000Y-91826900D02*
X127399100Y-81751000D01*
X127399100Y-81751000D02*
X106877100Y-81751000D01*
X106877100Y-81751000D02*
X101981000Y-76854900D01*
X101981000Y-76854900D02*
X101981000Y-76310600D01*
X101981000Y-76310600D02*
X100905200Y-75234800D01*
X100905200Y-75234800D02*
X99364800Y-75234800D01*
X99364800Y-75234800D02*
X95631000Y-71501000D01*
X137475000Y-94437200D02*
X137475000Y-91826900D01*
X137475000Y-97097200D02*
X137475000Y-94437200D01*
X134935000Y-91826900D02*
X133742400Y-90634300D01*
X133742400Y-90634300D02*
X133010500Y-90634300D01*
X133010500Y-90634300D02*
X132227800Y-89851600D01*
X132227800Y-89851600D02*
X132227800Y-87790800D01*
X132227800Y-87790800D02*
X126688200Y-82251200D01*
X126688200Y-82251200D02*
X104837200Y-82251200D01*
X104837200Y-82251200D02*
X99441000Y-76855000D01*
X99441000Y-76855000D02*
X99441000Y-76284200D01*
X99441000Y-76284200D02*
X96378100Y-73221300D01*
X96378100Y-73221300D02*
X93196600Y-73221300D01*
X93196600Y-73221300D02*
X91979000Y-72003700D01*
X91979000Y-72003700D02*
X91979000Y-71043000D01*
X91979000Y-71043000D02*
X93064500Y-69957500D01*
X93064500Y-69957500D02*
X96627500Y-69957500D01*
X96627500Y-69957500D02*
X98171000Y-71501000D01*
X134935000Y-94437200D02*
X134935000Y-91826900D01*
X134935000Y-97097200D02*
X134935000Y-94437200D01*
X100711000Y-71501000D02*
X98266900Y-69056900D01*
X98266900Y-69056900D02*
X91374100Y-69056900D01*
X91374100Y-69056900D02*
X89427800Y-71003200D01*
X89427800Y-71003200D02*
X89427800Y-71922200D01*
X89427800Y-71922200D02*
X91667900Y-74162300D01*
X91667900Y-74162300D02*
X94768700Y-74162300D01*
X94768700Y-74162300D02*
X96901000Y-76294600D01*
X96901000Y-76294600D02*
X96901000Y-76917700D01*
X96901000Y-76917700D02*
X102910000Y-82926700D01*
X102910000Y-82926700D02*
X126703300Y-82926700D01*
X126703300Y-82926700D02*
X131777500Y-88000900D01*
X131777500Y-88000900D02*
X131777500Y-90119700D01*
X131777500Y-90119700D02*
X133484700Y-91826900D01*
X133484700Y-91826900D02*
X133665000Y-91826900D01*
X133665000Y-94437200D02*
X133665000Y-91826900D01*
X133665000Y-97097200D02*
X133665000Y-94437200D01*
X102145300Y-68149500D02*
X102145300Y-55080700D01*
X102145300Y-55080700D02*
X103251000Y-53975000D01*
X103251000Y-71501000D02*
X102145300Y-70395300D01*
X102145300Y-70395300D02*
X102145300Y-68149500D01*
X102145300Y-68149500D02*
X89808600Y-68149500D01*
X89808600Y-68149500D02*
X86905800Y-71052300D01*
X86905800Y-71052300D02*
X86905800Y-71980000D01*
X86905800Y-71980000D02*
X89538500Y-74612700D01*
X89538500Y-74612700D02*
X92693600Y-74612700D01*
X92693600Y-74612700D02*
X94361000Y-76280100D01*
X94361000Y-76280100D02*
X94361000Y-76855600D01*
X94361000Y-76855600D02*
X95491900Y-77986500D01*
X95491900Y-77986500D02*
X97095100Y-77986500D01*
X97095100Y-77986500D02*
X102485600Y-83377000D01*
X102485600Y-83377000D02*
X126493200Y-83377000D01*
X126493200Y-83377000D02*
X131102000Y-87985800D01*
X131102000Y-87985800D02*
X131102000Y-90299000D01*
X131102000Y-90299000D02*
X132395000Y-91592000D01*
X132395000Y-91592000D02*
X132395000Y-91826900D01*
X132395000Y-94437200D02*
X132395000Y-91826900D01*
X132395000Y-97097200D02*
X132395000Y-94437200D01*
X113244800Y-84955000D02*
X114372500Y-83827300D01*
X114372500Y-83827300D02*
X126306600Y-83827300D01*
X126306600Y-83827300D02*
X130201400Y-87722100D01*
X130201400Y-87722100D02*
X130201400Y-90089700D01*
X130201400Y-90089700D02*
X131125000Y-91013300D01*
X131125000Y-91013300D02*
X131125000Y-91826900D01*
X131125000Y-94437200D02*
X131125000Y-91826900D01*
X131125000Y-94437200D02*
X131125000Y-97097200D01*
X105791000Y-71501000D02*
X104701500Y-70411500D01*
X104701500Y-70411500D02*
X104701500Y-55064500D01*
X104701500Y-55064500D02*
X105791000Y-53975000D01*
X114733700Y-86514700D02*
X114733800Y-86514700D01*
X114733800Y-86514700D02*
X114733800Y-86160600D01*
X114733800Y-86160600D02*
X116166500Y-84727900D01*
X116166500Y-84727900D02*
X125933400Y-84727900D01*
X125933400Y-84727900D02*
X128585000Y-87379500D01*
X128585000Y-87379500D02*
X128585000Y-91826900D01*
X128585000Y-94437200D02*
X128585000Y-91826900D01*
X128585000Y-97097200D02*
X128585000Y-94437200D01*
X116473900Y-85453300D02*
X116749000Y-85178200D01*
X116749000Y-85178200D02*
X125746800Y-85178200D01*
X125746800Y-85178200D02*
X127913700Y-87345100D01*
X127913700Y-87345100D02*
X127913700Y-91228200D01*
X127913700Y-91228200D02*
X127315000Y-91826900D01*
X127315000Y-94437200D02*
X127315000Y-91826900D01*
X127315000Y-97097200D02*
X127315000Y-94437200D01*
X110871000Y-53975000D02*
X111982200Y-55086200D01*
X111982200Y-55086200D02*
X111982200Y-70389800D01*
X111982200Y-70389800D02*
X110871000Y-71501000D01*
X116508800Y-89214600D02*
X118293700Y-87429700D01*
X118293700Y-87429700D02*
X122884100Y-87429700D01*
X122884100Y-87429700D02*
X126045000Y-90590600D01*
X126045000Y-90590600D02*
X126045000Y-91826900D01*
X113411000Y-71501000D02*
X112323600Y-72588400D01*
X112323600Y-72588400D02*
X112323600Y-78257500D01*
X126045000Y-94437200D02*
X126045000Y-91826900D01*
X126045000Y-97097200D02*
X126045000Y-94437200D01*
X124775000Y-94437200D02*
X124775000Y-89981200D01*
X124775000Y-89981200D02*
X122836300Y-88042500D01*
X122836300Y-88042500D02*
X118887300Y-88042500D01*
X118887300Y-88042500D02*
X118774700Y-88155100D01*
X124775000Y-97097200D02*
X124775000Y-94437200D01*
X122235000Y-94437200D02*
X122235000Y-91421000D01*
X122235000Y-91421000D02*
X122968600Y-90687400D01*
X122235000Y-97097200D02*
X122235000Y-94437200D01*
X120965000Y-94437200D02*
X120965000Y-90639200D01*
X120965000Y-90639200D02*
X122338300Y-89265900D01*
X120965000Y-94437200D02*
X120965000Y-97097200D01*
X119695000Y-94437200D02*
X119695000Y-91378700D01*
X119695000Y-91378700D02*
X119405700Y-91089400D01*
X123571000Y-71501000D02*
X122483600Y-72588400D01*
X122483600Y-72588400D02*
X118013400Y-72588400D01*
X118013400Y-72588400D02*
X117403700Y-71978700D01*
X117403700Y-71978700D02*
X117403700Y-71398700D01*
X117403700Y-71398700D02*
X116415200Y-70410200D01*
X116415200Y-70410200D02*
X115503400Y-70410200D01*
X115503400Y-70410200D02*
X114635800Y-71277800D01*
X114635800Y-71277800D02*
X114635800Y-72036100D01*
X114635800Y-72036100D02*
X113790500Y-72881400D01*
X119695000Y-94437200D02*
X119695000Y-97097200D01*
X118425000Y-94437200D02*
X118425000Y-90653200D01*
X118425000Y-90653200D02*
X119010700Y-90067500D01*
X115424100Y-78293200D02*
X114861700Y-77730800D01*
X114861700Y-77730800D02*
X114861700Y-76084100D01*
X114861700Y-76084100D02*
X117808600Y-73137200D01*
X117808600Y-73137200D02*
X124474800Y-73137200D01*
X124474800Y-73137200D02*
X126111000Y-71501000D01*
X126111000Y-71501000D02*
X117402600Y-62792600D01*
X117402600Y-62792600D02*
X117402600Y-58516400D01*
X117402600Y-58516400D02*
X120856600Y-55062400D01*
X120856600Y-55062400D02*
X125023600Y-55062400D01*
X125023600Y-55062400D02*
X126111000Y-53975000D01*
X118425000Y-94437200D02*
X118425000Y-97097200D01*
X115885000Y-91826900D02*
X115783500Y-91725400D01*
X115783500Y-91725400D02*
X115783500Y-88914000D01*
X115783500Y-88914000D02*
X117168000Y-87529500D01*
X117168000Y-87529500D02*
X117334200Y-87529500D01*
X117334200Y-87529500D02*
X117884300Y-86979400D01*
X117884300Y-86979400D02*
X123489900Y-86979400D01*
X123489900Y-86979400D02*
X123689200Y-87178700D01*
X115885000Y-94437200D02*
X115885000Y-91826900D01*
X115885000Y-94437200D02*
X115885000Y-97097200D01*
X114615000Y-94437200D02*
X114615000Y-89445600D01*
X114615000Y-89445600D02*
X116981400Y-87079200D01*
X116981400Y-87079200D02*
X117147600Y-87079200D01*
X117147600Y-87079200D02*
X117697700Y-86529100D01*
X117697700Y-86529100D02*
X124798000Y-86529100D01*
X124798000Y-86529100D02*
X125590200Y-87321300D01*
X114615000Y-97097200D02*
X114615000Y-94437200D01*
X113345000Y-94437200D02*
X113345000Y-90071600D01*
X113345000Y-90071600D02*
X116787700Y-86628900D01*
X116787700Y-86628900D02*
X116961000Y-86628900D01*
X116961000Y-86628900D02*
X117511100Y-86078800D01*
X117511100Y-86078800D02*
X125373600Y-86078800D01*
X125373600Y-86078800D02*
X126315500Y-87020700D01*
X126315500Y-87020700D02*
X126315500Y-88010800D01*
X126315500Y-88010800D02*
X126221400Y-88104900D01*
X133731000Y-71501000D02*
X133731000Y-72137900D01*
X133731000Y-72137900D02*
X129921000Y-75947900D01*
X129921000Y-75947900D02*
X129921000Y-77820300D01*
X129921000Y-77820300D02*
X129508600Y-78232700D01*
X113345000Y-97097200D02*
X113345000Y-94437200D01*
X112075000Y-94437200D02*
X112075000Y-90640900D01*
X112075000Y-90640900D02*
X116537300Y-86178600D01*
X116537300Y-86178600D02*
X116774400Y-86178600D01*
X116774400Y-86178600D02*
X117324500Y-85628500D01*
X117324500Y-85628500D02*
X125560200Y-85628500D01*
X125560200Y-85628500D02*
X127140200Y-87208500D01*
X127140200Y-87208500D02*
X127140200Y-87597600D01*
X136271000Y-71501000D02*
X132461000Y-75311000D01*
X132461000Y-75311000D02*
X132461000Y-77887300D01*
X132461000Y-77887300D02*
X131948200Y-78400100D01*
X112075000Y-97097200D02*
X112075000Y-94437200D01*
X138811000Y-71501000D02*
X137723600Y-72588400D01*
X137723600Y-72588400D02*
X137723600Y-77997200D01*
X137723600Y-77997200D02*
X137986300Y-78259900D01*
X146365000Y-91826900D02*
X144541400Y-90003300D01*
X144541400Y-90003300D02*
X144541400Y-89554900D01*
X146365000Y-94437200D02*
X146365000Y-91826900D01*
X146365000Y-97097200D02*
X146365000Y-94437200D01*
X147635000Y-94437200D02*
X147635000Y-97097200D01*
X146120400Y-88375100D02*
X147635000Y-89889700D01*
X147635000Y-89889700D02*
X147635000Y-94437200D01*
X146431000Y-53975000D02*
X145343600Y-55062400D01*
X145343600Y-55062400D02*
X145343600Y-70413600D01*
X145343600Y-70413600D02*
X146431000Y-71501000D01*
X148905000Y-94437200D02*
X148905000Y-91826900D01*
X148599200Y-89224700D02*
X148599200Y-91521100D01*
X148599200Y-91521100D02*
X148905000Y-91826900D01*
X148971000Y-71501000D02*
X147859700Y-70389700D01*
X147859700Y-70389700D02*
X147859700Y-55086300D01*
X147859700Y-55086300D02*
X148971000Y-53975000D01*
X148905000Y-94437200D02*
X148905000Y-97097200D01*
X150248400Y-88610700D02*
X150175000Y-88684100D01*
X150175000Y-88684100D02*
X150175000Y-94437200D01*
X151511000Y-71501000D02*
X152622200Y-70389800D01*
X152622200Y-70389800D02*
X152622200Y-55086200D01*
X152622200Y-55086200D02*
X151511000Y-53975000D01*
X150175000Y-97097200D02*
X150175000Y-94437200D01*
X152240100Y-88139500D02*
X152715000Y-88614400D01*
X152715000Y-88614400D02*
X152715000Y-94437200D01*
X152715000Y-97097200D02*
X152715000Y-94437200D01*
X156591000Y-71501000D02*
X159122900Y-74032900D01*
X159122900Y-74032900D02*
X177918400Y-74032900D01*
X177918400Y-74032900D02*
X179204900Y-75319400D01*
X179204900Y-75319400D02*
X179204900Y-81714100D01*
X179204900Y-81714100D02*
X178664500Y-82254500D01*
X178664500Y-82254500D02*
X165925300Y-82254500D01*
X165925300Y-82254500D02*
X159564900Y-88614900D01*
X159564900Y-88614900D02*
X157197000Y-88614900D01*
X157197000Y-88614900D02*
X153985000Y-91826900D01*
X153985000Y-94437200D02*
X153985000Y-91826900D01*
X153985000Y-94437200D02*
X153985000Y-97097200D01*
X155255000Y-94437200D02*
X155255000Y-97097200D01*
X159131000Y-71501000D02*
X160942800Y-73312800D01*
X160942800Y-73312800D02*
X177884600Y-73312800D01*
X177884600Y-73312800D02*
X179688200Y-75116400D01*
X179688200Y-75116400D02*
X179688200Y-81901800D01*
X179688200Y-81901800D02*
X178885100Y-82704900D01*
X178885100Y-82704900D02*
X166698100Y-82704900D01*
X166698100Y-82704900D02*
X160112600Y-89290400D01*
X160112600Y-89290400D02*
X157608700Y-89290400D01*
X157608700Y-89290400D02*
X155255000Y-91644100D01*
X155255000Y-91644100D02*
X155255000Y-94437200D01*
X156515000Y-91826900D02*
X156515000Y-91030100D01*
X156515000Y-91030100D02*
X157579300Y-89965800D01*
X157579300Y-89965800D02*
X173636200Y-89965800D01*
X173636200Y-89965800D02*
X180138500Y-83463500D01*
X180138500Y-83463500D02*
X180138500Y-74929700D01*
X180138500Y-74929700D02*
X177912200Y-72703400D01*
X177912200Y-72703400D02*
X162873400Y-72703400D01*
X162873400Y-72703400D02*
X161671000Y-71501000D01*
X156515000Y-94437200D02*
X156515000Y-91826900D01*
X156515000Y-94437200D02*
X156515000Y-97097200D01*
X123505000Y-94437200D02*
X123505000Y-91826900D01*
X119424000Y-88695300D02*
X119536700Y-88808000D01*
X123505000Y-91826900D02*
X123693900Y-91638000D01*
X123693900Y-91638000D02*
X123693900Y-89595700D01*
X123693900Y-89595700D02*
X122638800Y-88540600D01*
X122638800Y-88540600D02*
X119578700Y-88540600D01*
X119578700Y-88540600D02*
X119424000Y-88695300D01*
X119424000Y-88695300D02*
X119357200Y-88695300D01*
X119357200Y-88695300D02*
X117155000Y-90897500D01*
X117155000Y-90897500D02*
X117155000Y-94437200D01*
X110280200Y-91414700D02*
X110280200Y-89883100D01*
X110280200Y-89883100D02*
X115885700Y-84277600D01*
X115885700Y-84277600D02*
X126120000Y-84277600D01*
X126120000Y-84277600D02*
X129751100Y-87908700D01*
X129751100Y-87908700D02*
X129751100Y-91447200D01*
X129751100Y-91447200D02*
X129855000Y-91551100D01*
X136205000Y-91826900D02*
X133926300Y-89548200D01*
X133926300Y-89548200D02*
X132953200Y-89548200D01*
X87893700Y-86942800D02*
X91950900Y-86942800D01*
X91950900Y-86942800D02*
X96835000Y-91826900D01*
X87893700Y-86942800D02*
X80846900Y-86942800D01*
X143816000Y-89224300D02*
X140253600Y-85661900D01*
X140253600Y-85661900D02*
X134225400Y-85661900D01*
X134225400Y-85661900D02*
X128221300Y-79657800D01*
X128221300Y-79657800D02*
X119370200Y-79657800D01*
X129855000Y-91826900D02*
X129855000Y-91551100D01*
X110280200Y-91414700D02*
X110184900Y-91414700D01*
X110805000Y-91939500D02*
X110280200Y-91414700D01*
X143816000Y-89224300D02*
X145395500Y-87644800D01*
X145395500Y-87644800D02*
X151102500Y-87644800D01*
X151102500Y-87644800D02*
X151285900Y-87828200D01*
X145095000Y-91826900D02*
X143816000Y-90547900D01*
X143816000Y-90547900D02*
X143816000Y-89224300D01*
X88011000Y-76581000D02*
X90317200Y-78887200D01*
X90317200Y-78887200D02*
X97298800Y-78887200D01*
X97298800Y-78887200D02*
X109826300Y-91414700D01*
X109826300Y-91414700D02*
X110184900Y-91414700D01*
X88011000Y-76581000D02*
X88011000Y-76206500D01*
X88011000Y-76206500D02*
X79693900Y-67889400D01*
X79693900Y-67889400D02*
X72905900Y-67889400D01*
X72905900Y-67889400D02*
X71882000Y-66865500D01*
X167192200Y-78715000D02*
X164341900Y-81565300D01*
X164341900Y-81565300D02*
X159543900Y-81565300D01*
X164211000Y-76581000D02*
X165661000Y-76581000D01*
X165661000Y-76581000D02*
X167192200Y-78112200D01*
X167192200Y-78112200D02*
X167192200Y-78715000D01*
X167192200Y-78715000D02*
X175036700Y-78715000D01*
X175036700Y-78715000D02*
X177157200Y-80835500D01*
X178181000Y-80835500D02*
X177157200Y-80835500D01*
X159543900Y-81565300D02*
X158912400Y-80933800D01*
X158912400Y-80933800D02*
X145703800Y-80933800D01*
X145703800Y-80933800D02*
X141351000Y-76581000D01*
X156261600Y-87252800D02*
X157344900Y-86169500D01*
X157344900Y-86169500D02*
X158611400Y-86169500D01*
X158611400Y-86169500D02*
X159543900Y-85237000D01*
X159543900Y-85237000D02*
X159543900Y-81565300D01*
X117155000Y-97097200D02*
X117155000Y-94437200D01*
X151285900Y-87828200D02*
X151861300Y-87252800D01*
X151861300Y-87252800D02*
X156261600Y-87252800D01*
X123505000Y-94437200D02*
X123505000Y-97097200D01*
X84755400Y-91485700D02*
X85063800Y-91485700D01*
X85063800Y-91485700D02*
X85405000Y-91826900D01*
X85405000Y-94437200D02*
X85405000Y-91826900D01*
X85405000Y-97097200D02*
X85405000Y-94437200D01*
X71882000Y-66865500D02*
X68770500Y-66865500D01*
X68770500Y-66865500D02*
X68643500Y-66738500D01*
X136205000Y-94437200D02*
X136205000Y-91826900D01*
X110805000Y-94437200D02*
X110805000Y-91939500D01*
X136205000Y-97097200D02*
X136205000Y-94437200D01*
X129855000Y-94437200D02*
X129855000Y-91826900D01*
X96835000Y-94437200D02*
X96835000Y-91826900D01*
X180404000Y-70921700D02*
X180859400Y-70921700D01*
X180859400Y-70921700D02*
X181623300Y-70157800D01*
X181623300Y-70157800D02*
X181623300Y-63894300D01*
X181623300Y-63894300D02*
X176784000Y-59055000D01*
X145095000Y-94437200D02*
X145095000Y-91826900D01*
X151285900Y-87828200D02*
X151285900Y-91423400D01*
X151285900Y-91423400D02*
X151377700Y-91515200D01*
X145095000Y-97097200D02*
X145095000Y-94437200D01*
X151377700Y-91515200D02*
X151377700Y-91759600D01*
X151377700Y-91759600D02*
X151445000Y-91826900D01*
X151445000Y-94437200D02*
X151445000Y-91826900D01*
X176784000Y-59055000D02*
X164211000Y-59055000D01*
X178181000Y-57658000D02*
X176784000Y-59055000D01*
X180404000Y-72136000D02*
X180404000Y-70921700D01*
X129855000Y-97097200D02*
X129855000Y-94437200D01*
X96835000Y-97097200D02*
X96835000Y-94437200D01*
X151445000Y-97097200D02*
X151445000Y-94437200D01*
X110805000Y-97097200D02*
X110805000Y-94437200D01*
X115951000Y-76581000D02*
X117906800Y-78536800D01*
X117906800Y-78536800D02*
X118002900Y-78536800D01*
X122483700Y-75462700D02*
X117996600Y-75462700D01*
X117996600Y-75462700D02*
X117366700Y-76092600D01*
X117366700Y-76092600D02*
X117366700Y-77064300D01*
X117366700Y-77064300D02*
X118113900Y-77811500D01*
X118113900Y-77811500D02*
X119134100Y-77811500D01*
X119134100Y-77811500D02*
X119163700Y-77841100D01*
X122483700Y-75462700D02*
X122483700Y-77059200D01*
X122483700Y-77059200D02*
X123422400Y-77997900D01*
X123422400Y-77997900D02*
X128225500Y-77997900D01*
X128225500Y-77997900D02*
X132587100Y-82359500D01*
X132587100Y-82359500D02*
X158178000Y-82359500D01*
X122483700Y-75462700D02*
X123705000Y-75462700D01*
X123705000Y-75462700D02*
X127232100Y-71935600D01*
X127232100Y-71935600D02*
X127232100Y-67796100D01*
X127232100Y-67796100D02*
X118491000Y-59055000D01*
X128651000Y-76581000D02*
X129740400Y-75491600D01*
X129740400Y-75491600D02*
X129740400Y-60144400D01*
X129740400Y-60144400D02*
X128651000Y-59055000D01*
D21*
X142621000Y-60325000D02*
X143891000Y-59055000D01*
X143891000Y-76581000D02*
X142621000Y-75311000D01*
X142621000Y-75311000D02*
X142621000Y-60325000D01*
X142621000Y-60325000D02*
X138291900Y-60325000D01*
X138291900Y-60325000D02*
X137541000Y-59574100D01*
X137541000Y-59574100D02*
X137541000Y-58460600D01*
X137541000Y-58460600D02*
X135107300Y-56026900D01*
X135107300Y-56026900D02*
X128894900Y-56026900D01*
X128894900Y-56026900D02*
X127381000Y-54513000D01*
X127381000Y-54513000D02*
X127381000Y-53387700D01*
X127381000Y-53387700D02*
X126648500Y-52655200D01*
X126648500Y-52655200D02*
X100245600Y-52655200D01*
X100245600Y-52655200D02*
X99448700Y-53452100D01*
X99448700Y-53452100D02*
X99448700Y-54498200D01*
X99448700Y-54498200D02*
X96161900Y-57785000D01*
X96161900Y-57785000D02*
X95079700Y-57785000D01*
X95079700Y-57785000D02*
X94361000Y-58503700D01*
X94361000Y-58503700D02*
X94361000Y-59637300D01*
X94361000Y-59637300D02*
X87132800Y-66865500D01*
X87132800Y-66865500D02*
X76962000Y-66865500D01*
D20*
X146431000Y-76581000D02*
X147524700Y-75487300D01*
X147524700Y-75487300D02*
X147524700Y-70707400D01*
X147524700Y-70707400D02*
X146431000Y-69613700D01*
X146431000Y-69613700D02*
X146431000Y-59055000D01*
D21*
X154051000Y-59055000D02*
X162052000Y-67056000D01*
X162052000Y-67056000D02*
X180404000Y-67056000D01*
X93091000Y-59055000D02*
X86606300Y-65539700D01*
X86606300Y-65539700D02*
X65961100Y-65539700D01*
X65961100Y-65539700D02*
X64762300Y-66738500D01*
X159131000Y-59055000D02*
X155321000Y-55245000D01*
X155321000Y-55245000D02*
X155321000Y-53424800D01*
X155321000Y-53424800D02*
X153708900Y-51812700D01*
X153708900Y-51812700D02*
X98522400Y-51812700D01*
X98522400Y-51812700D02*
X96901000Y-53434100D01*
X96901000Y-53434100D02*
X96901000Y-54490400D01*
X96901000Y-54490400D02*
X93091000Y-58300400D01*
X93091000Y-58300400D02*
X93091000Y-59055000D01*
X63563500Y-66738500D02*
X64762300Y-66738500D01*
X159131000Y-76581000D02*
X160989900Y-78439900D01*
X160989900Y-78439900D02*
X166425500Y-78439900D01*
D20*
X86163600Y-76163400D02*
X86163600Y-76978600D01*
X86163600Y-76978600D02*
X88972800Y-79787800D01*
X88972800Y-79787800D02*
X96225900Y-79787800D01*
X96225900Y-79787800D02*
X108265000Y-91826900D01*
X108265000Y-94437200D02*
X108265000Y-91826900D01*
X108265000Y-94437200D02*
X108265000Y-97097200D01*
X85292600Y-75300000D02*
X85292600Y-76796100D01*
X85292600Y-76796100D02*
X88734600Y-80238100D01*
X88734600Y-80238100D02*
X95406200Y-80238100D01*
X95406200Y-80238100D02*
X106995000Y-91826900D01*
X106995000Y-94437200D02*
X106995000Y-91826900D01*
X106995000Y-97097200D02*
X106995000Y-94437200D01*
X70231000Y-53975000D02*
X68961000Y-55245000D01*
X68961000Y-55245000D02*
X68961000Y-59380600D01*
X68961000Y-59380600D02*
X68199300Y-60142300D01*
X68199300Y-60142300D02*
X67605900Y-60142300D01*
X67605900Y-60142300D02*
X61967000Y-65781200D01*
X61967000Y-65781200D02*
X61967000Y-67703900D01*
X61967000Y-67703900D02*
X74951500Y-80688400D01*
X74951500Y-80688400D02*
X95011500Y-80688400D01*
X95011500Y-80688400D02*
X105725000Y-91401900D01*
X105725000Y-91401900D02*
X105725000Y-91826900D01*
X105725000Y-94437200D02*
X105725000Y-91826900D01*
X105725000Y-97097200D02*
X105725000Y-94437200D01*
X104325300Y-91070200D02*
X104325300Y-91707200D01*
X104325300Y-91707200D02*
X104445000Y-91826900D01*
X104445000Y-94437200D02*
X104445000Y-91826900D01*
X104445000Y-97097200D02*
X104445000Y-94437200D01*
X103185000Y-94437200D02*
X103185000Y-91826900D01*
X65151000Y-53975000D02*
X66262200Y-55086200D01*
X66262200Y-55086200D02*
X66262200Y-60327100D01*
X66262200Y-60327100D02*
X61500000Y-65089300D01*
X61500000Y-65089300D02*
X61500000Y-67923800D01*
X61500000Y-67923800D02*
X74715000Y-81138800D01*
X74715000Y-81138800D02*
X92496900Y-81138800D01*
X92496900Y-81138800D02*
X103185000Y-91826900D01*
X103185000Y-97097200D02*
X103185000Y-94437200D01*
X62611000Y-53975000D02*
X63714800Y-55078800D01*
X63714800Y-55078800D02*
X63714800Y-62166200D01*
X63714800Y-62166200D02*
X61045600Y-64835400D01*
X61045600Y-64835400D02*
X61045600Y-68106300D01*
X61045600Y-68106300D02*
X77130300Y-84191000D01*
X77130300Y-84191000D02*
X94269100Y-84191000D01*
X94269100Y-84191000D02*
X101905000Y-91826900D01*
X101905000Y-94437200D02*
X101905000Y-91826900D01*
X101905000Y-97097200D02*
X101905000Y-94437200D01*
X60071000Y-53975000D02*
X61182200Y-55086200D01*
X61182200Y-55086200D02*
X61182200Y-64061900D01*
X61182200Y-64061900D02*
X60564000Y-64680100D01*
X60564000Y-64680100D02*
X60564000Y-68301800D01*
X60564000Y-68301800D02*
X76903500Y-84641300D01*
X76903500Y-84641300D02*
X93459400Y-84641300D01*
X93459400Y-84641300D02*
X100645000Y-91826900D01*
X100645000Y-94437200D02*
X100645000Y-91826900D01*
X100645000Y-97097200D02*
X100645000Y-94437200D01*
X57531000Y-53975000D02*
X58812900Y-55256900D01*
X58812900Y-55256900D02*
X58813000Y-55256900D01*
X58813000Y-55256900D02*
X58813000Y-67250800D01*
X58813000Y-67250800D02*
X77104100Y-85541900D01*
X77104100Y-85541900D02*
X93090000Y-85541900D01*
X93090000Y-85541900D02*
X99375000Y-91826900D01*
X99375000Y-94437200D02*
X99375000Y-91826900D01*
X99375000Y-97097200D02*
X99375000Y-94437200D01*
X54991000Y-53975000D02*
X56261000Y-55245000D01*
X56261000Y-55245000D02*
X56261000Y-65337100D01*
X56261000Y-65337100D02*
X76916100Y-85992200D01*
X76916100Y-85992200D02*
X92270300Y-85992200D01*
X92270300Y-85992200D02*
X98105000Y-91826900D01*
X98105000Y-94437200D02*
X98105000Y-91826900D01*
X98105000Y-97097200D02*
X98105000Y-94437200D01*
X52451000Y-53975000D02*
X53721000Y-55245000D01*
X53721000Y-55245000D02*
X53721000Y-63513500D01*
X53721000Y-63513500D02*
X77875600Y-87668100D01*
X77875600Y-87668100D02*
X91406200Y-87668100D01*
X91406200Y-87668100D02*
X95565000Y-91826900D01*
X95565000Y-94437200D02*
X95565000Y-91826900D01*
X95565000Y-97097200D02*
X95565000Y-94437200D01*
X93015000Y-91826900D02*
X89306500Y-88118400D01*
X89306500Y-88118400D02*
X77679100Y-88118400D01*
X77679100Y-88118400D02*
X51181000Y-61620300D01*
X51181000Y-61620300D02*
X51181000Y-57785000D01*
X51181000Y-57785000D02*
X47371000Y-53975000D01*
X93015000Y-94437200D02*
X93015000Y-91826900D01*
X93015000Y-97097200D02*
X93015000Y-94437200D01*
X91755000Y-91826900D02*
X88496800Y-88568700D01*
X88496800Y-88568700D02*
X77459600Y-88568700D01*
X77459600Y-88568700D02*
X48641000Y-59750100D01*
X48641000Y-59750100D02*
X48641000Y-57785000D01*
X48641000Y-57785000D02*
X44831000Y-53975000D01*
X91755000Y-94437200D02*
X91755000Y-91826900D01*
X91755000Y-97097200D02*
X91755000Y-94437200D01*
X90485000Y-91826900D02*
X87937900Y-89279800D01*
X87937900Y-89279800D02*
X77071500Y-89279800D01*
X77071500Y-89279800D02*
X48328100Y-60536400D01*
X48328100Y-60536400D02*
X47310900Y-60536400D01*
X47310900Y-60536400D02*
X46101000Y-59326500D01*
X46101000Y-59326500D02*
X46101000Y-57785000D01*
X46101000Y-57785000D02*
X42291000Y-53975000D01*
X90485000Y-94437200D02*
X90485000Y-91826900D01*
X90485000Y-97097200D02*
X90485000Y-94437200D01*
X89215000Y-94437200D02*
X89215000Y-91826900D01*
X39751000Y-53975000D02*
X43561000Y-57785000D01*
X43561000Y-57785000D02*
X43561000Y-59386000D01*
X43561000Y-59386000D02*
X45161800Y-60986800D01*
X45161800Y-60986800D02*
X47878000Y-60986800D01*
X47878000Y-60986800D02*
X76621400Y-89730200D01*
X76621400Y-89730200D02*
X87118300Y-89730200D01*
X87118300Y-89730200D02*
X89215000Y-91826900D01*
X89215000Y-97097200D02*
X89215000Y-94437200D01*
X37211000Y-53975000D02*
X41021000Y-57785000D01*
X41021000Y-57785000D02*
X41021000Y-59332000D01*
X41021000Y-59332000D02*
X51119700Y-69430700D01*
X51119700Y-69430700D02*
X55685000Y-69430700D01*
X55685000Y-69430700D02*
X76497700Y-90243400D01*
X76497700Y-90243400D02*
X86361500Y-90243400D01*
X86361500Y-90243400D02*
X87945000Y-91826900D01*
X87945000Y-94437200D02*
X87945000Y-91826900D01*
X87945000Y-97097200D02*
X87945000Y-94437200D01*
X86675000Y-91826900D02*
X85571700Y-90723600D01*
X85571700Y-90723600D02*
X76022600Y-90723600D01*
X76022600Y-90723600D02*
X55247400Y-69948400D01*
X55247400Y-69948400D02*
X49097700Y-69948400D01*
X49097700Y-69948400D02*
X38481000Y-59331700D01*
X38481000Y-59331700D02*
X38481000Y-57785000D01*
X38481000Y-57785000D02*
X34671000Y-53975000D01*
X86675000Y-94437200D02*
X86675000Y-91826900D01*
X86675000Y-97097200D02*
X86675000Y-94437200D01*
X72771000Y-59055000D02*
X69760000Y-62066000D01*
X69760000Y-62066000D02*
X69760000Y-62815900D01*
D21*
X150241000Y-75311000D02*
X150241000Y-60325000D01*
X150241000Y-60325000D02*
X148971000Y-59055000D01*
X148971000Y-76581000D02*
X150241000Y-75311000D01*
X150241000Y-75311000D02*
X177736500Y-75311000D01*
X177736500Y-75311000D02*
X178181000Y-75755500D01*
X148971000Y-76581000D02*
X148294000Y-76581000D01*
X148294000Y-76581000D02*
X146919800Y-77955200D01*
D20*
X77851000Y-53975000D02*
X75058400Y-56767600D01*
X75058400Y-56767600D02*
X73487200Y-56767600D01*
X73487200Y-56767600D02*
X71501000Y-58753800D01*
X71501000Y-58753800D02*
X71501000Y-59369100D01*
X71501000Y-59369100D02*
X69431900Y-61438200D01*
X69431900Y-61438200D02*
X66988500Y-61438200D01*
X66988500Y-61438200D02*
X62505200Y-65921500D01*
X62505200Y-65921500D02*
X62505200Y-67592300D01*
X62505200Y-67592300D02*
X69418100Y-74505200D01*
X69418100Y-74505200D02*
X85588700Y-74505200D01*
X85588700Y-74505200D02*
X86888900Y-75805400D01*
X86888900Y-75805400D02*
X86888900Y-77067000D01*
X86888900Y-77067000D02*
X89159400Y-79337500D01*
X89159400Y-79337500D02*
X97045600Y-79337500D01*
X97045600Y-79337500D02*
X109535000Y-91826900D01*
X109535000Y-94437200D02*
X109535000Y-91826900D01*
X109535000Y-97097200D02*
X109535000Y-94437200D01*
X118491000Y-76581000D02*
X118951400Y-76581000D01*
X118951400Y-76581000D02*
X120818700Y-78448300D01*
X120818700Y-78448300D02*
X127648700Y-78448300D01*
X127648700Y-78448300D02*
X134099900Y-84899500D01*
X134099900Y-84899500D02*
X158178000Y-84899500D01*
X94295000Y-94437200D02*
X94295000Y-97097200D01*
X84135000Y-94437200D02*
X84135000Y-97097200D01*
D22*
G36*
X96135298Y-90932000D02*
G01*
X95744902Y-90932000D01*
X91970004Y-87157103D01*
X91946201Y-87128099D01*
X91830476Y-87033126D01*
X91698447Y-86962554D01*
X91555186Y-86919097D01*
X91443533Y-86908100D01*
X91443522Y-86908100D01*
X91406200Y-86904424D01*
X91368878Y-86908100D01*
X78190402Y-86908100D01*
X78034502Y-86752200D01*
X91955499Y-86752200D01*
X96135298Y-90932000D01*
G37*
X96135298Y-90932000D02*
X95744902Y-90932000D01*
X91970004Y-87157103D01*
X91946201Y-87128099D01*
X91830476Y-87033126D01*
X91698447Y-86962554D01*
X91555186Y-86919097D01*
X91443533Y-86908100D01*
X91443522Y-86908100D01*
X91406200Y-86904424D01*
X91368878Y-86908100D01*
X78190402Y-86908100D01*
X78034502Y-86752200D01*
X91955499Y-86752200D01*
X96135298Y-90932000D01*
G36*
X157024525Y-85846132D02*
G01*
X157231368Y-86052975D01*
X157405760Y-86169500D01*
X157231368Y-86286025D01*
X157024525Y-86492868D01*
X156862010Y-86736089D01*
X156750068Y-87006342D01*
X156693000Y-87293240D01*
X156693000Y-87585760D01*
X156750068Y-87872658D01*
X156790552Y-87970396D01*
X156772723Y-87979926D01*
X156698911Y-88040503D01*
X156656999Y-88074899D01*
X156633201Y-88103897D01*
X153805099Y-90932000D01*
X153475000Y-90932000D01*
X153475000Y-88651722D01*
X153478676Y-88614399D01*
X153475000Y-88577077D01*
X153475000Y-88577067D01*
X153464003Y-88465414D01*
X153420546Y-88322153D01*
X153410348Y-88303074D01*
X153349974Y-88190123D01*
X153308428Y-88139500D01*
X153275100Y-88098890D01*
X153275100Y-88037561D01*
X153235326Y-87837602D01*
X153157305Y-87649244D01*
X153044037Y-87479726D01*
X152899874Y-87335563D01*
X152730356Y-87222295D01*
X152541998Y-87144274D01*
X152342039Y-87104500D01*
X152138161Y-87104500D01*
X151938202Y-87144274D01*
X151749844Y-87222295D01*
X151580326Y-87335563D01*
X151436163Y-87479726D01*
X151322895Y-87649244D01*
X151244874Y-87837602D01*
X151205100Y-88037561D01*
X151205100Y-88215793D01*
X151165605Y-88120444D01*
X151052337Y-87950926D01*
X150908174Y-87806763D01*
X150738656Y-87693495D01*
X150550298Y-87615474D01*
X150350339Y-87575700D01*
X150146461Y-87575700D01*
X149946502Y-87615474D01*
X149758144Y-87693495D01*
X149588626Y-87806763D01*
X149444463Y-87950926D01*
X149331195Y-88120444D01*
X149253174Y-88308802D01*
X149234197Y-88404207D01*
X149089456Y-88307495D01*
X148901098Y-88229474D01*
X148701139Y-88189700D01*
X148497261Y-88189700D01*
X148297302Y-88229474D01*
X148108944Y-88307495D01*
X147939426Y-88420763D01*
X147795263Y-88564926D01*
X147681995Y-88734444D01*
X147644666Y-88824564D01*
X147155400Y-88335299D01*
X147155400Y-88273161D01*
X147115626Y-88073202D01*
X147037605Y-87884844D01*
X146924337Y-87715326D01*
X146780174Y-87571163D01*
X146610656Y-87457895D01*
X146422298Y-87379874D01*
X146222339Y-87340100D01*
X146018461Y-87340100D01*
X145818502Y-87379874D01*
X145630144Y-87457895D01*
X145460626Y-87571163D01*
X145316463Y-87715326D01*
X145203195Y-87884844D01*
X145125174Y-88073202D01*
X145085400Y-88273161D01*
X145085400Y-88477039D01*
X145125174Y-88676998D01*
X145138452Y-88709054D01*
X145031656Y-88637695D01*
X144843298Y-88559674D01*
X144643339Y-88519900D01*
X144439461Y-88519900D01*
X144239502Y-88559674D01*
X144051144Y-88637695D01*
X143881626Y-88750963D01*
X143737463Y-88895126D01*
X143624195Y-89064644D01*
X143546174Y-89253002D01*
X143506400Y-89452961D01*
X143506400Y-89656839D01*
X143546174Y-89856798D01*
X143624195Y-90045156D01*
X143737463Y-90214674D01*
X143855971Y-90333182D01*
X143878348Y-90375046D01*
X139263804Y-85760503D01*
X139240001Y-85731499D01*
X139152270Y-85659500D01*
X156899822Y-85659500D01*
X157024525Y-85846132D01*
G37*
X157024525Y-85846132D02*
X157231368Y-86052975D01*
X157405760Y-86169500D01*
X157231368Y-86286025D01*
X157024525Y-86492868D01*
X156862010Y-86736089D01*
X156750068Y-87006342D01*
X156693000Y-87293240D01*
X156693000Y-87585760D01*
X156750068Y-87872658D01*
X156790552Y-87970396D01*
X156772723Y-87979926D01*
X156698911Y-88040503D01*
X156656999Y-88074899D01*
X156633201Y-88103897D01*
X153805099Y-90932000D01*
X153475000Y-90932000D01*
X153475000Y-88651722D01*
X153478676Y-88614399D01*
X153475000Y-88577077D01*
X153475000Y-88577067D01*
X153464003Y-88465414D01*
X153420546Y-88322153D01*
X153410348Y-88303074D01*
X153349974Y-88190123D01*
X153308428Y-88139500D01*
X153275100Y-88098890D01*
X153275100Y-88037561D01*
X153235326Y-87837602D01*
X153157305Y-87649244D01*
X153044037Y-87479726D01*
X152899874Y-87335563D01*
X152730356Y-87222295D01*
X152541998Y-87144274D01*
X152342039Y-87104500D01*
X152138161Y-87104500D01*
X151938202Y-87144274D01*
X151749844Y-87222295D01*
X151580326Y-87335563D01*
X151436163Y-87479726D01*
X151322895Y-87649244D01*
X151244874Y-87837602D01*
X151205100Y-88037561D01*
X151205100Y-88215793D01*
X151165605Y-88120444D01*
X151052337Y-87950926D01*
X150908174Y-87806763D01*
X150738656Y-87693495D01*
X150550298Y-87615474D01*
X150350339Y-87575700D01*
X150146461Y-87575700D01*
X149946502Y-87615474D01*
X149758144Y-87693495D01*
X149588626Y-87806763D01*
X149444463Y-87950926D01*
X149331195Y-88120444D01*
X149253174Y-88308802D01*
X149234197Y-88404207D01*
X149089456Y-88307495D01*
X148901098Y-88229474D01*
X148701139Y-88189700D01*
X148497261Y-88189700D01*
X148297302Y-88229474D01*
X148108944Y-88307495D01*
X147939426Y-88420763D01*
X147795263Y-88564926D01*
X147681995Y-88734444D01*
X147644666Y-88824564D01*
X147155400Y-88335299D01*
X147155400Y-88273161D01*
X147115626Y-88073202D01*
X147037605Y-87884844D01*
X146924337Y-87715326D01*
X146780174Y-87571163D01*
X146610656Y-87457895D01*
X146422298Y-87379874D01*
X146222339Y-87340100D01*
X146018461Y-87340100D01*
X145818502Y-87379874D01*
X145630144Y-87457895D01*
X145460626Y-87571163D01*
X145316463Y-87715326D01*
X145203195Y-87884844D01*
X145125174Y-88073202D01*
X145085400Y-88273161D01*
X145085400Y-88477039D01*
X145125174Y-88676998D01*
X145138452Y-88709054D01*
X145031656Y-88637695D01*
X144843298Y-88559674D01*
X144643339Y-88519900D01*
X144439461Y-88519900D01*
X144239502Y-88559674D01*
X144051144Y-88637695D01*
X143881626Y-88750963D01*
X143737463Y-88895126D01*
X143624195Y-89064644D01*
X143546174Y-89253002D01*
X143506400Y-89452961D01*
X143506400Y-89656839D01*
X143546174Y-89856798D01*
X143624195Y-90045156D01*
X143737463Y-90214674D01*
X143855971Y-90333182D01*
X143878348Y-90375046D01*
X139263804Y-85760503D01*
X139240001Y-85731499D01*
X139152270Y-85659500D01*
X156899822Y-85659500D01*
X157024525Y-85846132D01*
G36*
X135505297Y-90932000D02*
G01*
X135114902Y-90932000D01*
X134306204Y-90123303D01*
X134282401Y-90094299D01*
X134166676Y-89999326D01*
X134034647Y-89928754D01*
X133891386Y-89885297D01*
X133779733Y-89874300D01*
X133779722Y-89874300D01*
X133742400Y-89870624D01*
X133705078Y-89874300D01*
X133325302Y-89874300D01*
X132987800Y-89536799D01*
X132987800Y-88414502D01*
X135505297Y-90932000D01*
G37*
X135505297Y-90932000D02*
X135114902Y-90932000D01*
X134306204Y-90123303D01*
X134282401Y-90094299D01*
X134166676Y-89999326D01*
X134034647Y-89928754D01*
X133891386Y-89885297D01*
X133779733Y-89874300D01*
X133779722Y-89874300D01*
X133742400Y-89870624D01*
X133705078Y-89874300D01*
X133325302Y-89874300D01*
X132987800Y-89536799D01*
X132987800Y-88414502D01*
X135505297Y-90932000D01*
G36*
X118114926Y-88959037D02*
G01*
X118284444Y-89072305D01*
X118472802Y-89150326D01*
X118509479Y-89157621D01*
X118350926Y-89263563D01*
X118206763Y-89407726D01*
X118093495Y-89577244D01*
X118015474Y-89765602D01*
X117975700Y-89965561D01*
X117975700Y-90027699D01*
X117913998Y-90089401D01*
X117885000Y-90113199D01*
X117861202Y-90142197D01*
X117861201Y-90142198D01*
X117790026Y-90228924D01*
X117719454Y-90360954D01*
X117693054Y-90447986D01*
X117675998Y-90504214D01*
X117665990Y-90605824D01*
X117661324Y-90653200D01*
X117665001Y-90690532D01*
X117665001Y-90932000D01*
X116543500Y-90932000D01*
X116543500Y-90249600D01*
X116610739Y-90249600D01*
X116810698Y-90209826D01*
X116999056Y-90131805D01*
X117168574Y-90018537D01*
X117312737Y-89874374D01*
X117426005Y-89704856D01*
X117504026Y-89516498D01*
X117543800Y-89316539D01*
X117543800Y-89254401D01*
X117977045Y-88821156D01*
X118114926Y-88959037D01*
G37*
X118114926Y-88959037D02*
X118284444Y-89072305D01*
X118472802Y-89150326D01*
X118509479Y-89157621D01*
X118350926Y-89263563D01*
X118206763Y-89407726D01*
X118093495Y-89577244D01*
X118015474Y-89765602D01*
X117975700Y-89965561D01*
X117975700Y-90027699D01*
X117913998Y-90089401D01*
X117885000Y-90113199D01*
X117861202Y-90142197D01*
X117861201Y-90142198D01*
X117790026Y-90228924D01*
X117719454Y-90360954D01*
X117693054Y-90447986D01*
X117675998Y-90504214D01*
X117665990Y-90605824D01*
X117661324Y-90653200D01*
X117665001Y-90690532D01*
X117665001Y-90932000D01*
X116543500Y-90932000D01*
X116543500Y-90249600D01*
X116610739Y-90249600D01*
X116810698Y-90209826D01*
X116999056Y-90131805D01*
X117168574Y-90018537D01*
X117312737Y-89874374D01*
X117426005Y-89704856D01*
X117504026Y-89516498D01*
X117543800Y-89316539D01*
X117543800Y-89254401D01*
X117977045Y-88821156D01*
X118114926Y-88959037D01*
G36*
X112585026Y-84151063D02*
G01*
X112440863Y-84295226D01*
X112327595Y-84464744D01*
X112249574Y-84653102D01*
X112209800Y-84853061D01*
X112209800Y-85056939D01*
X112249574Y-85256898D01*
X112327595Y-85445256D01*
X112440863Y-85614774D01*
X112585026Y-85758937D01*
X112754544Y-85872205D01*
X112942902Y-85950226D01*
X113142861Y-85990000D01*
X113346739Y-85990000D01*
X113546698Y-85950226D01*
X113735056Y-85872205D01*
X113904574Y-85758937D01*
X114048737Y-85614774D01*
X114162005Y-85445256D01*
X114240026Y-85256898D01*
X114279800Y-85056939D01*
X114279800Y-84994801D01*
X114687302Y-84587300D01*
X115232298Y-84587300D01*
X114222801Y-85596798D01*
X114193799Y-85620599D01*
X114175505Y-85642890D01*
X114073926Y-85710763D01*
X113929763Y-85854926D01*
X113816495Y-86024444D01*
X113738474Y-86212802D01*
X113698700Y-86412761D01*
X113698700Y-86616639D01*
X113738474Y-86816598D01*
X113816495Y-87004956D01*
X113929763Y-87174474D01*
X114073926Y-87318637D01*
X114222912Y-87418186D01*
X111563998Y-90077101D01*
X111535000Y-90100899D01*
X111511202Y-90129897D01*
X111511201Y-90129898D01*
X111440026Y-90216624D01*
X111369454Y-90348654D01*
X111344369Y-90431353D01*
X111325998Y-90491914D01*
X111315905Y-90594390D01*
X111311324Y-90640900D01*
X111315001Y-90678232D01*
X111315001Y-90932000D01*
X109714902Y-90932000D01*
X102919901Y-84137000D01*
X112606073Y-84137000D01*
X112585026Y-84151063D01*
G37*
X112585026Y-84151063D02*
X112440863Y-84295226D01*
X112327595Y-84464744D01*
X112249574Y-84653102D01*
X112209800Y-84853061D01*
X112209800Y-85056939D01*
X112249574Y-85256898D01*
X112327595Y-85445256D01*
X112440863Y-85614774D01*
X112585026Y-85758937D01*
X112754544Y-85872205D01*
X112942902Y-85950226D01*
X113142861Y-85990000D01*
X113346739Y-85990000D01*
X113546698Y-85950226D01*
X113735056Y-85872205D01*
X113904574Y-85758937D01*
X114048737Y-85614774D01*
X114162005Y-85445256D01*
X114240026Y-85256898D01*
X114279800Y-85056939D01*
X114279800Y-84994801D01*
X114687302Y-84587300D01*
X115232298Y-84587300D01*
X114222801Y-85596798D01*
X114193799Y-85620599D01*
X114175505Y-85642890D01*
X114073926Y-85710763D01*
X113929763Y-85854926D01*
X113816495Y-86024444D01*
X113738474Y-86212802D01*
X113698700Y-86412761D01*
X113698700Y-86616639D01*
X113738474Y-86816598D01*
X113816495Y-87004956D01*
X113929763Y-87174474D01*
X114073926Y-87318637D01*
X114222912Y-87418186D01*
X111563998Y-90077101D01*
X111535000Y-90100899D01*
X111511202Y-90129897D01*
X111511201Y-90129898D01*
X111440026Y-90216624D01*
X111369454Y-90348654D01*
X111344369Y-90431353D01*
X111325998Y-90491914D01*
X111315905Y-90594390D01*
X111311324Y-90640900D01*
X111315001Y-90678232D01*
X111315001Y-90932000D01*
X109714902Y-90932000D01*
X102919901Y-84137000D01*
X112606073Y-84137000D01*
X112585026Y-84151063D01*
G36*
X121343074Y-88964002D02*
G01*
X121303300Y-89163961D01*
X121303300Y-89226098D01*
X120453998Y-90075401D01*
X120425000Y-90099199D01*
X120401202Y-90128197D01*
X120401201Y-90128198D01*
X120330026Y-90214924D01*
X120259454Y-90346954D01*
X120230793Y-90441441D01*
X120226652Y-90455091D01*
X120209637Y-90429626D01*
X120065474Y-90285463D01*
X120027649Y-90260189D01*
X120045700Y-90169439D01*
X120045700Y-89965561D01*
X120005926Y-89765602D01*
X119927905Y-89577244D01*
X119814637Y-89407726D01*
X119670474Y-89263563D01*
X119500956Y-89150295D01*
X119312598Y-89072274D01*
X119275921Y-89064979D01*
X119434474Y-88959037D01*
X119578637Y-88814874D01*
X119586905Y-88802500D01*
X121409971Y-88802500D01*
X121343074Y-88964002D01*
G37*
X121343074Y-88964002D02*
X121303300Y-89163961D01*
X121303300Y-89226098D01*
X120453998Y-90075401D01*
X120425000Y-90099199D01*
X120401202Y-90128197D01*
X120401201Y-90128198D01*
X120330026Y-90214924D01*
X120259454Y-90346954D01*
X120230793Y-90441441D01*
X120226652Y-90455091D01*
X120209637Y-90429626D01*
X120065474Y-90285463D01*
X120027649Y-90260189D01*
X120045700Y-90169439D01*
X120045700Y-89965561D01*
X120005926Y-89765602D01*
X119927905Y-89577244D01*
X119814637Y-89407726D01*
X119670474Y-89263563D01*
X119500956Y-89150295D01*
X119312598Y-89072274D01*
X119275921Y-89064979D01*
X119434474Y-88959037D01*
X119578637Y-88814874D01*
X119586905Y-88802500D01*
X121409971Y-88802500D01*
X121343074Y-88964002D01*
G36*
X179638891Y-46897308D02*
G01*
X179523085Y-47176890D01*
X179464047Y-47473692D01*
X179464047Y-47776308D01*
X179523085Y-48073110D01*
X179638891Y-48352692D01*
X179807016Y-48604308D01*
X180020999Y-48818291D01*
X180272615Y-48986416D01*
X180552197Y-49102222D01*
X180848999Y-49161260D01*
X181151615Y-49161260D01*
X181448417Y-49102222D01*
X181727999Y-48986416D01*
X181979615Y-48818291D01*
X182093000Y-48704906D01*
X182093001Y-90145000D01*
X179356688Y-90145000D01*
X179410037Y-90079994D01*
X179469002Y-89969680D01*
X179505312Y-89849982D01*
X179517572Y-89725500D01*
X179517572Y-88328500D01*
X179505312Y-88204018D01*
X179469002Y-88084320D01*
X179410037Y-87974006D01*
X179330685Y-87877315D01*
X179233994Y-87797963D01*
X179123680Y-87738998D01*
X179003982Y-87702688D01*
X178879500Y-87690428D01*
X177482500Y-87690428D01*
X177358018Y-87702688D01*
X177238320Y-87738998D01*
X177128006Y-87797963D01*
X177031315Y-87877315D01*
X176951963Y-87974006D01*
X176892998Y-88084320D01*
X176856688Y-88204018D01*
X176844428Y-88328500D01*
X176844428Y-89725500D01*
X176856688Y-89849982D01*
X176892998Y-89969680D01*
X176951963Y-90079994D01*
X177005312Y-90145000D01*
X174531801Y-90145000D01*
X180649504Y-84027298D01*
X180678501Y-84003501D01*
X180773474Y-83887776D01*
X180844046Y-83755747D01*
X180887503Y-83612486D01*
X180898500Y-83500833D01*
X180898500Y-83500823D01*
X180902176Y-83463500D01*
X180898500Y-83426177D01*
X180898500Y-74967025D01*
X180902176Y-74929700D01*
X180898500Y-74892375D01*
X180898500Y-74892367D01*
X180887503Y-74780714D01*
X180844046Y-74637453D01*
X180773474Y-74505424D01*
X180678501Y-74389699D01*
X180649503Y-74365901D01*
X179944487Y-73660885D01*
X180118250Y-73660000D01*
X180277000Y-73501250D01*
X180277000Y-72263000D01*
X180531000Y-72263000D01*
X180531000Y-73501250D01*
X180689750Y-73660000D01*
X181293000Y-73663072D01*
X181417482Y-73650812D01*
X181537180Y-73614502D01*
X181647494Y-73555537D01*
X181744185Y-73476185D01*
X181823537Y-73379494D01*
X181882502Y-73269180D01*
X181918812Y-73149482D01*
X181931072Y-73025000D01*
X181928000Y-72421750D01*
X181769250Y-72263000D01*
X180531000Y-72263000D01*
X180277000Y-72263000D01*
X179038750Y-72263000D01*
X178880000Y-72421750D01*
X178879115Y-72595514D01*
X178476004Y-72192403D01*
X178452201Y-72163399D01*
X178336476Y-72068426D01*
X178204447Y-71997854D01*
X178061186Y-71954397D01*
X177949533Y-71943400D01*
X177949522Y-71943400D01*
X177912200Y-71939724D01*
X177874878Y-71943400D01*
X165539854Y-71943400D01*
X165554314Y-71908490D01*
X165608000Y-71638592D01*
X165608000Y-71363408D01*
X165554314Y-71093510D01*
X165449005Y-70839273D01*
X165296120Y-70610465D01*
X165101535Y-70415880D01*
X164872727Y-70262995D01*
X164618490Y-70157686D01*
X164348592Y-70104000D01*
X164073408Y-70104000D01*
X163803510Y-70157686D01*
X163549273Y-70262995D01*
X163320465Y-70415880D01*
X163125880Y-70610465D01*
X162972995Y-70839273D01*
X162941000Y-70916515D01*
X162909005Y-70839273D01*
X162756120Y-70610465D01*
X162561535Y-70415880D01*
X162332727Y-70262995D01*
X162078490Y-70157686D01*
X161808592Y-70104000D01*
X161533408Y-70104000D01*
X161263510Y-70157686D01*
X161009273Y-70262995D01*
X160780465Y-70415880D01*
X160585880Y-70610465D01*
X160432995Y-70839273D01*
X160401000Y-70916515D01*
X160369005Y-70839273D01*
X160216120Y-70610465D01*
X160021535Y-70415880D01*
X159792727Y-70262995D01*
X159538490Y-70157686D01*
X159268592Y-70104000D01*
X158993408Y-70104000D01*
X158723510Y-70157686D01*
X158469273Y-70262995D01*
X158240465Y-70415880D01*
X158045880Y-70610465D01*
X157892995Y-70839273D01*
X157861000Y-70916515D01*
X157829005Y-70839273D01*
X157676120Y-70610465D01*
X157481535Y-70415880D01*
X157252727Y-70262995D01*
X156998490Y-70157686D01*
X156728592Y-70104000D01*
X156453408Y-70104000D01*
X156183510Y-70157686D01*
X155929273Y-70262995D01*
X155700465Y-70415880D01*
X155505880Y-70610465D01*
X155352995Y-70839273D01*
X155321000Y-70916515D01*
X155289005Y-70839273D01*
X155136120Y-70610465D01*
X154941535Y-70415880D01*
X154712727Y-70262995D01*
X154458490Y-70157686D01*
X154188592Y-70104000D01*
X153913408Y-70104000D01*
X153643510Y-70157686D01*
X153389273Y-70262995D01*
X153382200Y-70267721D01*
X153382200Y-60288279D01*
X153389273Y-60293005D01*
X153643510Y-60398314D01*
X153913408Y-60452000D01*
X154125711Y-60452000D01*
X161358370Y-67684659D01*
X161387656Y-67720344D01*
X161530028Y-67837186D01*
X161605496Y-67877524D01*
X161692459Y-67924007D01*
X161868708Y-67977472D01*
X162052000Y-67995524D01*
X162097935Y-67991000D01*
X179195848Y-67991000D01*
X179220232Y-68027493D01*
X179432507Y-68239768D01*
X179561562Y-68326000D01*
X179432507Y-68412232D01*
X179220232Y-68624507D01*
X179053449Y-68874115D01*
X178938566Y-69151466D01*
X178880000Y-69445899D01*
X178880000Y-69746101D01*
X178938566Y-70040534D01*
X179053449Y-70317885D01*
X179220232Y-70567493D01*
X179301063Y-70648324D01*
X179270820Y-70657498D01*
X179160506Y-70716463D01*
X179063815Y-70795815D01*
X178984463Y-70892506D01*
X178925498Y-71002820D01*
X178889188Y-71122518D01*
X178876928Y-71247000D01*
X178880000Y-71850250D01*
X179038750Y-72009000D01*
X180277000Y-72009000D01*
X180277000Y-71989000D01*
X180531000Y-71989000D01*
X180531000Y-72009000D01*
X181769250Y-72009000D01*
X181928000Y-71850250D01*
X181931072Y-71247000D01*
X181918812Y-71122518D01*
X181882502Y-71002820D01*
X181823537Y-70892506D01*
X181744185Y-70795815D01*
X181647494Y-70716463D01*
X181537180Y-70657498D01*
X181506937Y-70648324D01*
X181587768Y-70567493D01*
X181754551Y-70317885D01*
X181869434Y-70040534D01*
X181928000Y-69746101D01*
X181928000Y-69445899D01*
X181869434Y-69151466D01*
X181754551Y-68874115D01*
X181587768Y-68624507D01*
X181375493Y-68412232D01*
X181246438Y-68326000D01*
X181375493Y-68239768D01*
X181587768Y-68027493D01*
X181754551Y-67777885D01*
X181869434Y-67500534D01*
X181928000Y-67206101D01*
X181928000Y-66905899D01*
X181869434Y-66611466D01*
X181754551Y-66334115D01*
X181587768Y-66084507D01*
X181375493Y-65872232D01*
X181125885Y-65705449D01*
X180848534Y-65590566D01*
X180554101Y-65532000D01*
X180253899Y-65532000D01*
X179959466Y-65590566D01*
X179682115Y-65705449D01*
X179432507Y-65872232D01*
X179220232Y-66084507D01*
X179195848Y-66121000D01*
X162439289Y-66121000D01*
X158357789Y-62039500D01*
X176844428Y-62039500D01*
X176844428Y-63436500D01*
X176856688Y-63560982D01*
X176892998Y-63680680D01*
X176951963Y-63790994D01*
X177031315Y-63887685D01*
X177128006Y-63967037D01*
X177238320Y-64026002D01*
X177358018Y-64062312D01*
X177482500Y-64074572D01*
X178879500Y-64074572D01*
X179003982Y-64062312D01*
X179123680Y-64026002D01*
X179233994Y-63967037D01*
X179330685Y-63887685D01*
X179410037Y-63790994D01*
X179469002Y-63680680D01*
X179505312Y-63560982D01*
X179517572Y-63436500D01*
X179517572Y-62039500D01*
X179505312Y-61915018D01*
X179469002Y-61795320D01*
X179410037Y-61685006D01*
X179330685Y-61588315D01*
X179233994Y-61508963D01*
X179123680Y-61449998D01*
X179003982Y-61413688D01*
X178879500Y-61401428D01*
X177482500Y-61401428D01*
X177358018Y-61413688D01*
X177238320Y-61449998D01*
X177128006Y-61508963D01*
X177031315Y-61588315D01*
X176951963Y-61685006D01*
X176892998Y-61795320D01*
X176856688Y-61915018D01*
X176844428Y-62039500D01*
X158357789Y-62039500D01*
X156763371Y-60445082D01*
X156998490Y-60398314D01*
X157252727Y-60293005D01*
X157481535Y-60140120D01*
X157676120Y-59945535D01*
X157829005Y-59716727D01*
X157861000Y-59639485D01*
X157892995Y-59716727D01*
X158045880Y-59945535D01*
X158240465Y-60140120D01*
X158469273Y-60293005D01*
X158723510Y-60398314D01*
X158993408Y-60452000D01*
X159268592Y-60452000D01*
X159538490Y-60398314D01*
X159792727Y-60293005D01*
X160021535Y-60140120D01*
X160216120Y-59945535D01*
X160369005Y-59716727D01*
X160401000Y-59639485D01*
X160432995Y-59716727D01*
X160585880Y-59945535D01*
X160780465Y-60140120D01*
X161009273Y-60293005D01*
X161263510Y-60398314D01*
X161533408Y-60452000D01*
X161808592Y-60452000D01*
X162078490Y-60398314D01*
X162332727Y-60293005D01*
X162561535Y-60140120D01*
X162681090Y-60020565D01*
X163425040Y-60020565D01*
X163492020Y-60260656D01*
X163741048Y-60377756D01*
X164008135Y-60444023D01*
X164283017Y-60456910D01*
X164555133Y-60415922D01*
X164814023Y-60322636D01*
X164929980Y-60260656D01*
X164996960Y-60020565D01*
X164211000Y-59234605D01*
X163425040Y-60020565D01*
X162681090Y-60020565D01*
X162756120Y-59945535D01*
X162909005Y-59716727D01*
X162938692Y-59645057D01*
X162943364Y-59658023D01*
X163005344Y-59773980D01*
X163245435Y-59840960D01*
X164031395Y-59055000D01*
X164390605Y-59055000D01*
X165176565Y-59840960D01*
X165416656Y-59773980D01*
X165533756Y-59524952D01*
X165600023Y-59257865D01*
X165612910Y-58982983D01*
X165571922Y-58710867D01*
X165524117Y-58578197D01*
X177440408Y-58578197D01*
X177499686Y-58811812D01*
X177737875Y-58922559D01*
X177993093Y-58984711D01*
X178255533Y-58995876D01*
X178515107Y-58955629D01*
X178761842Y-58865514D01*
X178862314Y-58811812D01*
X178921592Y-58578197D01*
X178181000Y-57837605D01*
X177440408Y-58578197D01*
X165524117Y-58578197D01*
X165478636Y-58451977D01*
X165416656Y-58336020D01*
X165176565Y-58269040D01*
X164390605Y-59055000D01*
X164031395Y-59055000D01*
X163245435Y-58269040D01*
X163005344Y-58336020D01*
X162941515Y-58471760D01*
X162909005Y-58393273D01*
X162756120Y-58164465D01*
X162681090Y-58089435D01*
X163425040Y-58089435D01*
X164211000Y-58875395D01*
X164996960Y-58089435D01*
X164929980Y-57849344D01*
X164681567Y-57732533D01*
X176843124Y-57732533D01*
X176883371Y-57992107D01*
X176973486Y-58238842D01*
X177027188Y-58339314D01*
X177260803Y-58398592D01*
X178001395Y-57658000D01*
X178360605Y-57658000D01*
X179101197Y-58398592D01*
X179334812Y-58339314D01*
X179445559Y-58101125D01*
X179507711Y-57845907D01*
X179518876Y-57583467D01*
X179478629Y-57323893D01*
X179388514Y-57077158D01*
X179334812Y-56976686D01*
X179101197Y-56917408D01*
X178360605Y-57658000D01*
X178001395Y-57658000D01*
X177260803Y-56917408D01*
X177027188Y-56976686D01*
X176916441Y-57214875D01*
X176854289Y-57470093D01*
X176843124Y-57732533D01*
X164681567Y-57732533D01*
X164680952Y-57732244D01*
X164413865Y-57665977D01*
X164138983Y-57653090D01*
X163866867Y-57694078D01*
X163607977Y-57787364D01*
X163492020Y-57849344D01*
X163425040Y-58089435D01*
X162681090Y-58089435D01*
X162561535Y-57969880D01*
X162332727Y-57816995D01*
X162078490Y-57711686D01*
X161808592Y-57658000D01*
X161533408Y-57658000D01*
X161263510Y-57711686D01*
X161009273Y-57816995D01*
X160780465Y-57969880D01*
X160585880Y-58164465D01*
X160432995Y-58393273D01*
X160401000Y-58470515D01*
X160369005Y-58393273D01*
X160216120Y-58164465D01*
X160021535Y-57969880D01*
X159792727Y-57816995D01*
X159538490Y-57711686D01*
X159268592Y-57658000D01*
X159056289Y-57658000D01*
X157087789Y-55689500D01*
X176781428Y-55689500D01*
X176793688Y-55813982D01*
X176829998Y-55933680D01*
X176888963Y-56043994D01*
X176968315Y-56140685D01*
X177065006Y-56220037D01*
X177175320Y-56279002D01*
X177295018Y-56315312D01*
X177419500Y-56327572D01*
X177832250Y-56324500D01*
X177990998Y-56165752D01*
X177990998Y-56324500D01*
X178078244Y-56324500D01*
X177846893Y-56360371D01*
X177600158Y-56450486D01*
X177499686Y-56504188D01*
X177440408Y-56737803D01*
X178181000Y-57478395D01*
X178921592Y-56737803D01*
X178862314Y-56504188D01*
X178624125Y-56393441D01*
X178368907Y-56331289D01*
X178209327Y-56324500D01*
X178245002Y-56324500D01*
X178245002Y-56165752D01*
X178403750Y-56324500D01*
X178816500Y-56327572D01*
X178940982Y-56315312D01*
X179060680Y-56279002D01*
X179170994Y-56220037D01*
X179267685Y-56140685D01*
X179347037Y-56043994D01*
X179406002Y-55933680D01*
X179442312Y-55813982D01*
X179454572Y-55689500D01*
X179451500Y-55276750D01*
X179292750Y-55118000D01*
X178245000Y-55118000D01*
X178245000Y-55138000D01*
X177991000Y-55138000D01*
X177991000Y-55118000D01*
X176943250Y-55118000D01*
X176784500Y-55276750D01*
X176781428Y-55689500D01*
X157087789Y-55689500D01*
X156763371Y-55365082D01*
X156998490Y-55318314D01*
X157252727Y-55213005D01*
X157481535Y-55060120D01*
X157676120Y-54865535D01*
X157829005Y-54636727D01*
X157861000Y-54559485D01*
X157892995Y-54636727D01*
X158045880Y-54865535D01*
X158240465Y-55060120D01*
X158469273Y-55213005D01*
X158723510Y-55318314D01*
X158993408Y-55372000D01*
X159268592Y-55372000D01*
X159538490Y-55318314D01*
X159792727Y-55213005D01*
X160021535Y-55060120D01*
X160216120Y-54865535D01*
X160369005Y-54636727D01*
X160401000Y-54559485D01*
X160432995Y-54636727D01*
X160585880Y-54865535D01*
X160780465Y-55060120D01*
X161009273Y-55213005D01*
X161263510Y-55318314D01*
X161533408Y-55372000D01*
X161808592Y-55372000D01*
X162078490Y-55318314D01*
X162332727Y-55213005D01*
X162561535Y-55060120D01*
X162756120Y-54865535D01*
X162909005Y-54636727D01*
X162941000Y-54559485D01*
X162972995Y-54636727D01*
X163125880Y-54865535D01*
X163320465Y-55060120D01*
X163549273Y-55213005D01*
X163803510Y-55318314D01*
X164073408Y-55372000D01*
X164348592Y-55372000D01*
X164618490Y-55318314D01*
X164872727Y-55213005D01*
X165101535Y-55060120D01*
X165296120Y-54865535D01*
X165449005Y-54636727D01*
X165554314Y-54382490D01*
X165572214Y-54292500D01*
X176781428Y-54292500D01*
X176784500Y-54705250D01*
X176943250Y-54864000D01*
X177991000Y-54864000D01*
X177991000Y-53816250D01*
X178245000Y-53816250D01*
X178245000Y-54864000D01*
X179292750Y-54864000D01*
X179451500Y-54705250D01*
X179454572Y-54292500D01*
X179442312Y-54168018D01*
X179406002Y-54048320D01*
X179347037Y-53938006D01*
X179267685Y-53841315D01*
X179170994Y-53761963D01*
X179060680Y-53702998D01*
X178940982Y-53666688D01*
X178816500Y-53654428D01*
X178403750Y-53657500D01*
X178245000Y-53816250D01*
X177991000Y-53816250D01*
X177832250Y-53657500D01*
X177419500Y-53654428D01*
X177295018Y-53666688D01*
X177175320Y-53702998D01*
X177065006Y-53761963D01*
X176968315Y-53841315D01*
X176888963Y-53938006D01*
X176829998Y-54048320D01*
X176793688Y-54168018D01*
X176781428Y-54292500D01*
X165572214Y-54292500D01*
X165608000Y-54112592D01*
X165608000Y-53837408D01*
X165554314Y-53567510D01*
X165449005Y-53313273D01*
X165296120Y-53084465D01*
X165101535Y-52889880D01*
X164872727Y-52736995D01*
X164618490Y-52631686D01*
X164348592Y-52578000D01*
X164073408Y-52578000D01*
X163803510Y-52631686D01*
X163549273Y-52736995D01*
X163320465Y-52889880D01*
X163125880Y-53084465D01*
X162972995Y-53313273D01*
X162941000Y-53390515D01*
X162909005Y-53313273D01*
X162756120Y-53084465D01*
X162561535Y-52889880D01*
X162332727Y-52736995D01*
X162078490Y-52631686D01*
X161808592Y-52578000D01*
X161533408Y-52578000D01*
X161263510Y-52631686D01*
X161009273Y-52736995D01*
X160780465Y-52889880D01*
X160585880Y-53084465D01*
X160432995Y-53313273D01*
X160401000Y-53390515D01*
X160369005Y-53313273D01*
X160216120Y-53084465D01*
X160021535Y-52889880D01*
X159792727Y-52736995D01*
X159538490Y-52631686D01*
X159268592Y-52578000D01*
X158993408Y-52578000D01*
X158723510Y-52631686D01*
X158469273Y-52736995D01*
X158240465Y-52889880D01*
X158045880Y-53084465D01*
X157892995Y-53313273D01*
X157861000Y-53390515D01*
X157829005Y-53313273D01*
X157676120Y-53084465D01*
X157481535Y-52889880D01*
X157252727Y-52736995D01*
X156998490Y-52631686D01*
X156728592Y-52578000D01*
X156453408Y-52578000D01*
X156183510Y-52631686D01*
X155947807Y-52729318D01*
X154402530Y-51184041D01*
X154373244Y-51148356D01*
X154230872Y-51031514D01*
X154068440Y-50944693D01*
X153892192Y-50891229D01*
X153754832Y-50877700D01*
X153708900Y-50873176D01*
X153662968Y-50877700D01*
X98568332Y-50877700D01*
X98522400Y-50873176D01*
X98476468Y-50877700D01*
X98339108Y-50891229D01*
X98162860Y-50944693D01*
X98000428Y-51031514D01*
X97858056Y-51148356D01*
X97828770Y-51184041D01*
X96280769Y-52732042D01*
X96038490Y-52631686D01*
X95768592Y-52578000D01*
X95493408Y-52578000D01*
X95223510Y-52631686D01*
X94969273Y-52736995D01*
X94740465Y-52889880D01*
X94545880Y-53084465D01*
X94392995Y-53313273D01*
X94361000Y-53390515D01*
X94329005Y-53313273D01*
X94176120Y-53084465D01*
X93981535Y-52889880D01*
X93752727Y-52736995D01*
X93498490Y-52631686D01*
X93228592Y-52578000D01*
X92953408Y-52578000D01*
X92683510Y-52631686D01*
X92429273Y-52736995D01*
X92200465Y-52889880D01*
X92005880Y-53084465D01*
X91852995Y-53313273D01*
X91821000Y-53390515D01*
X91789005Y-53313273D01*
X91636120Y-53084465D01*
X91441535Y-52889880D01*
X91212727Y-52736995D01*
X90958490Y-52631686D01*
X90688592Y-52578000D01*
X90413408Y-52578000D01*
X90143510Y-52631686D01*
X89889273Y-52736995D01*
X89660465Y-52889880D01*
X89465880Y-53084465D01*
X89312995Y-53313273D01*
X89281000Y-53390515D01*
X89249005Y-53313273D01*
X89096120Y-53084465D01*
X88901535Y-52889880D01*
X88672727Y-52736995D01*
X88418490Y-52631686D01*
X88148592Y-52578000D01*
X87873408Y-52578000D01*
X87603510Y-52631686D01*
X87349273Y-52736995D01*
X87120465Y-52889880D01*
X86925880Y-53084465D01*
X86772995Y-53313273D01*
X86667686Y-53567510D01*
X86614000Y-53837408D01*
X86614000Y-54112592D01*
X86667686Y-54382490D01*
X86772995Y-54636727D01*
X86925880Y-54865535D01*
X87120465Y-55060120D01*
X87349273Y-55213005D01*
X87603510Y-55318314D01*
X87873408Y-55372000D01*
X88148592Y-55372000D01*
X88418490Y-55318314D01*
X88672727Y-55213005D01*
X88901535Y-55060120D01*
X89096120Y-54865535D01*
X89249005Y-54636727D01*
X89281000Y-54559485D01*
X89312995Y-54636727D01*
X89465880Y-54865535D01*
X89660465Y-55060120D01*
X89889273Y-55213005D01*
X90143510Y-55318314D01*
X90413408Y-55372000D01*
X90688592Y-55372000D01*
X90958490Y-55318314D01*
X91212727Y-55213005D01*
X91441535Y-55060120D01*
X91636120Y-54865535D01*
X91789005Y-54636727D01*
X91821000Y-54559485D01*
X91852995Y-54636727D01*
X92005880Y-54865535D01*
X92200465Y-55060120D01*
X92429273Y-55213005D01*
X92683510Y-55318314D01*
X92953408Y-55372000D01*
X93228592Y-55372000D01*
X93498490Y-55318314D01*
X93752727Y-55213005D01*
X93981535Y-55060120D01*
X94176120Y-54865535D01*
X94329005Y-54636727D01*
X94361000Y-54559485D01*
X94392995Y-54636727D01*
X94545880Y-54865535D01*
X94740465Y-55060120D01*
X94901434Y-55167677D01*
X92462341Y-57606770D01*
X92426656Y-57636056D01*
X92309814Y-57778429D01*
X92222993Y-57940861D01*
X92217679Y-57958378D01*
X92200465Y-57969880D01*
X92005880Y-58164465D01*
X91852995Y-58393273D01*
X91821000Y-58470515D01*
X91789005Y-58393273D01*
X91636120Y-58164465D01*
X91441535Y-57969880D01*
X91212727Y-57816995D01*
X90958490Y-57711686D01*
X90688592Y-57658000D01*
X90413408Y-57658000D01*
X90143510Y-57711686D01*
X89889273Y-57816995D01*
X89660465Y-57969880D01*
X89465880Y-58164465D01*
X89312995Y-58393273D01*
X89283308Y-58464943D01*
X89278636Y-58451977D01*
X89216656Y-58336020D01*
X88976565Y-58269040D01*
X88190605Y-59055000D01*
X88976565Y-59840960D01*
X89216656Y-59773980D01*
X89280485Y-59638240D01*
X89312995Y-59716727D01*
X89465880Y-59945535D01*
X89660465Y-60140120D01*
X89889273Y-60293005D01*
X90143510Y-60398314D01*
X90378629Y-60445082D01*
X86219011Y-64604700D01*
X66007031Y-64604700D01*
X65961099Y-64600176D01*
X65777807Y-64618229D01*
X65733881Y-64631554D01*
X65601560Y-64671693D01*
X65439128Y-64758514D01*
X65296756Y-64875356D01*
X65267476Y-64911034D01*
X64645359Y-65533152D01*
X64616494Y-65509463D01*
X64506180Y-65450498D01*
X64386482Y-65414188D01*
X64262000Y-65401928D01*
X64099573Y-65401928D01*
X67303302Y-62198200D01*
X68927950Y-62198200D01*
X68842795Y-62325644D01*
X68764774Y-62514002D01*
X68725000Y-62713961D01*
X68725000Y-62917839D01*
X68764774Y-63117798D01*
X68842795Y-63306156D01*
X68956063Y-63475674D01*
X69100226Y-63619837D01*
X69269744Y-63733105D01*
X69458102Y-63811126D01*
X69658061Y-63850900D01*
X69861939Y-63850900D01*
X70061898Y-63811126D01*
X70250256Y-63733105D01*
X70419774Y-63619837D01*
X70563937Y-63475674D01*
X70677205Y-63306156D01*
X70755226Y-63117798D01*
X70795000Y-62917839D01*
X70795000Y-62713961D01*
X70755226Y-62514002D01*
X70677205Y-62325644D01*
X70636330Y-62264471D01*
X72479430Y-60421372D01*
X72633408Y-60452000D01*
X72908592Y-60452000D01*
X73178490Y-60398314D01*
X73432727Y-60293005D01*
X73661535Y-60140120D01*
X73856120Y-59945535D01*
X74009005Y-59716727D01*
X74041000Y-59639485D01*
X74072995Y-59716727D01*
X74225880Y-59945535D01*
X74420465Y-60140120D01*
X74649273Y-60293005D01*
X74903510Y-60398314D01*
X75173408Y-60452000D01*
X75448592Y-60452000D01*
X75718490Y-60398314D01*
X75972727Y-60293005D01*
X76201535Y-60140120D01*
X76396120Y-59945535D01*
X76549005Y-59716727D01*
X76581000Y-59639485D01*
X76612995Y-59716727D01*
X76765880Y-59945535D01*
X76960465Y-60140120D01*
X77189273Y-60293005D01*
X77443510Y-60398314D01*
X77713408Y-60452000D01*
X77988592Y-60452000D01*
X78258490Y-60398314D01*
X78512727Y-60293005D01*
X78741535Y-60140120D01*
X78861090Y-60020565D01*
X87225040Y-60020565D01*
X87292020Y-60260656D01*
X87541048Y-60377756D01*
X87808135Y-60444023D01*
X88083017Y-60456910D01*
X88355133Y-60415922D01*
X88614023Y-60322636D01*
X88729980Y-60260656D01*
X88796960Y-60020565D01*
X88011000Y-59234605D01*
X87225040Y-60020565D01*
X78861090Y-60020565D01*
X78936120Y-59945535D01*
X79089005Y-59716727D01*
X79194314Y-59462490D01*
X79248000Y-59192592D01*
X79248000Y-59127017D01*
X86609090Y-59127017D01*
X86650078Y-59399133D01*
X86743364Y-59658023D01*
X86805344Y-59773980D01*
X87045435Y-59840960D01*
X87831395Y-59055000D01*
X87045435Y-58269040D01*
X86805344Y-58336020D01*
X86688244Y-58585048D01*
X86621977Y-58852135D01*
X86609090Y-59127017D01*
X79248000Y-59127017D01*
X79248000Y-58917408D01*
X79194314Y-58647510D01*
X79089005Y-58393273D01*
X78936120Y-58164465D01*
X78861090Y-58089435D01*
X87225040Y-58089435D01*
X88011000Y-58875395D01*
X88796960Y-58089435D01*
X88729980Y-57849344D01*
X88480952Y-57732244D01*
X88213865Y-57665977D01*
X87938983Y-57653090D01*
X87666867Y-57694078D01*
X87407977Y-57787364D01*
X87292020Y-57849344D01*
X87225040Y-58089435D01*
X78861090Y-58089435D01*
X78741535Y-57969880D01*
X78512727Y-57816995D01*
X78258490Y-57711686D01*
X77988592Y-57658000D01*
X77713408Y-57658000D01*
X77443510Y-57711686D01*
X77189273Y-57816995D01*
X76960465Y-57969880D01*
X76765880Y-58164465D01*
X76612995Y-58393273D01*
X76581000Y-58470515D01*
X76549005Y-58393273D01*
X76396120Y-58164465D01*
X76201535Y-57969880D01*
X75972727Y-57816995D01*
X75718490Y-57711686D01*
X75448592Y-57658000D01*
X75173408Y-57658000D01*
X74903510Y-57711686D01*
X74649273Y-57816995D01*
X74420465Y-57969880D01*
X74225880Y-58164465D01*
X74072995Y-58393273D01*
X74041000Y-58470515D01*
X74009005Y-58393273D01*
X73856120Y-58164465D01*
X73661535Y-57969880D01*
X73480611Y-57848990D01*
X73802002Y-57527600D01*
X75021078Y-57527600D01*
X75058400Y-57531276D01*
X75095722Y-57527600D01*
X75095733Y-57527600D01*
X75207386Y-57516603D01*
X75350647Y-57473146D01*
X75482676Y-57402574D01*
X75598401Y-57307601D01*
X75622204Y-57278597D01*
X77559430Y-55341372D01*
X77713408Y-55372000D01*
X77988592Y-55372000D01*
X78258490Y-55318314D01*
X78512727Y-55213005D01*
X78741535Y-55060120D01*
X78936120Y-54865535D01*
X79089005Y-54636727D01*
X79194314Y-54382490D01*
X79248000Y-54112592D01*
X79248000Y-53837408D01*
X79194314Y-53567510D01*
X79089005Y-53313273D01*
X78936120Y-53084465D01*
X78741535Y-52889880D01*
X78512727Y-52736995D01*
X78258490Y-52631686D01*
X77988592Y-52578000D01*
X77713408Y-52578000D01*
X77443510Y-52631686D01*
X77189273Y-52736995D01*
X76960465Y-52889880D01*
X76765880Y-53084465D01*
X76612995Y-53313273D01*
X76581000Y-53390515D01*
X76549005Y-53313273D01*
X76396120Y-53084465D01*
X76201535Y-52889880D01*
X75972727Y-52736995D01*
X75718490Y-52631686D01*
X75448592Y-52578000D01*
X75173408Y-52578000D01*
X74903510Y-52631686D01*
X74649273Y-52736995D01*
X74420465Y-52889880D01*
X74225880Y-53084465D01*
X74072995Y-53313273D01*
X74041000Y-53390515D01*
X74009005Y-53313273D01*
X73856120Y-53084465D01*
X73661535Y-52889880D01*
X73432727Y-52736995D01*
X73178490Y-52631686D01*
X72908592Y-52578000D01*
X72633408Y-52578000D01*
X72363510Y-52631686D01*
X72109273Y-52736995D01*
X71880465Y-52889880D01*
X71685880Y-53084465D01*
X71532995Y-53313273D01*
X71501000Y-53390515D01*
X71469005Y-53313273D01*
X71316120Y-53084465D01*
X71121535Y-52889880D01*
X70892727Y-52736995D01*
X70638490Y-52631686D01*
X70368592Y-52578000D01*
X70093408Y-52578000D01*
X69823510Y-52631686D01*
X69569273Y-52736995D01*
X69340465Y-52889880D01*
X69145880Y-53084465D01*
X68992995Y-53313273D01*
X68961000Y-53390515D01*
X68929005Y-53313273D01*
X68776120Y-53084465D01*
X68581535Y-52889880D01*
X68352727Y-52736995D01*
X68098490Y-52631686D01*
X67828592Y-52578000D01*
X67553408Y-52578000D01*
X67283510Y-52631686D01*
X67029273Y-52736995D01*
X66800465Y-52889880D01*
X66605880Y-53084465D01*
X66452995Y-53313273D01*
X66421000Y-53390515D01*
X66389005Y-53313273D01*
X66236120Y-53084465D01*
X66041535Y-52889880D01*
X65812727Y-52736995D01*
X65558490Y-52631686D01*
X65288592Y-52578000D01*
X65013408Y-52578000D01*
X64743510Y-52631686D01*
X64489273Y-52736995D01*
X64260465Y-52889880D01*
X64065880Y-53084465D01*
X63912995Y-53313273D01*
X63881000Y-53390515D01*
X63849005Y-53313273D01*
X63696120Y-53084465D01*
X63501535Y-52889880D01*
X63272727Y-52736995D01*
X63018490Y-52631686D01*
X62748592Y-52578000D01*
X62473408Y-52578000D01*
X62203510Y-52631686D01*
X61949273Y-52736995D01*
X61720465Y-52889880D01*
X61525880Y-53084465D01*
X61372995Y-53313273D01*
X61341000Y-53390515D01*
X61309005Y-53313273D01*
X61156120Y-53084465D01*
X60961535Y-52889880D01*
X60732727Y-52736995D01*
X60478490Y-52631686D01*
X60208592Y-52578000D01*
X59933408Y-52578000D01*
X59663510Y-52631686D01*
X59409273Y-52736995D01*
X59180465Y-52889880D01*
X58985880Y-53084465D01*
X58832995Y-53313273D01*
X58801000Y-53390515D01*
X58769005Y-53313273D01*
X58616120Y-53084465D01*
X58421535Y-52889880D01*
X58192727Y-52736995D01*
X57938490Y-52631686D01*
X57668592Y-52578000D01*
X57393408Y-52578000D01*
X57123510Y-52631686D01*
X56869273Y-52736995D01*
X56640465Y-52889880D01*
X56445880Y-53084465D01*
X56292995Y-53313273D01*
X56261000Y-53390515D01*
X56229005Y-53313273D01*
X56076120Y-53084465D01*
X55881535Y-52889880D01*
X55652727Y-52736995D01*
X55398490Y-52631686D01*
X55128592Y-52578000D01*
X54853408Y-52578000D01*
X54583510Y-52631686D01*
X54329273Y-52736995D01*
X54100465Y-52889880D01*
X53905880Y-53084465D01*
X53752995Y-53313273D01*
X53721000Y-53390515D01*
X53689005Y-53313273D01*
X53536120Y-53084465D01*
X53341535Y-52889880D01*
X53112727Y-52736995D01*
X52858490Y-52631686D01*
X52588592Y-52578000D01*
X52313408Y-52578000D01*
X52043510Y-52631686D01*
X51789273Y-52736995D01*
X51560465Y-52889880D01*
X51365880Y-53084465D01*
X51212995Y-53313273D01*
X51181000Y-53390515D01*
X51149005Y-53313273D01*
X50996120Y-53084465D01*
X50801535Y-52889880D01*
X50572727Y-52736995D01*
X50318490Y-52631686D01*
X50048592Y-52578000D01*
X49773408Y-52578000D01*
X49503510Y-52631686D01*
X49249273Y-52736995D01*
X49020465Y-52889880D01*
X48825880Y-53084465D01*
X48672995Y-53313273D01*
X48641000Y-53390515D01*
X48609005Y-53313273D01*
X48456120Y-53084465D01*
X48261535Y-52889880D01*
X48032727Y-52736995D01*
X47778490Y-52631686D01*
X47508592Y-52578000D01*
X47233408Y-52578000D01*
X46963510Y-52631686D01*
X46709273Y-52736995D01*
X46480465Y-52889880D01*
X46285880Y-53084465D01*
X46132995Y-53313273D01*
X46101000Y-53390515D01*
X46069005Y-53313273D01*
X45916120Y-53084465D01*
X45721535Y-52889880D01*
X45492727Y-52736995D01*
X45238490Y-52631686D01*
X44968592Y-52578000D01*
X44693408Y-52578000D01*
X44423510Y-52631686D01*
X44169273Y-52736995D01*
X43940465Y-52889880D01*
X43745880Y-53084465D01*
X43592995Y-53313273D01*
X43561000Y-53390515D01*
X43529005Y-53313273D01*
X43376120Y-53084465D01*
X43181535Y-52889880D01*
X42952727Y-52736995D01*
X42698490Y-52631686D01*
X42428592Y-52578000D01*
X42153408Y-52578000D01*
X41883510Y-52631686D01*
X41629273Y-52736995D01*
X41400465Y-52889880D01*
X41205880Y-53084465D01*
X41052995Y-53313273D01*
X41021000Y-53390515D01*
X40989005Y-53313273D01*
X40836120Y-53084465D01*
X40641535Y-52889880D01*
X40412727Y-52736995D01*
X40158490Y-52631686D01*
X39888592Y-52578000D01*
X39613408Y-52578000D01*
X39343510Y-52631686D01*
X39089273Y-52736995D01*
X38860465Y-52889880D01*
X38665880Y-53084465D01*
X38512995Y-53313273D01*
X38481000Y-53390515D01*
X38449005Y-53313273D01*
X38296120Y-53084465D01*
X38101535Y-52889880D01*
X37872727Y-52736995D01*
X37618490Y-52631686D01*
X37348592Y-52578000D01*
X37073408Y-52578000D01*
X36803510Y-52631686D01*
X36549273Y-52736995D01*
X36320465Y-52889880D01*
X36125880Y-53084465D01*
X35972995Y-53313273D01*
X35941000Y-53390515D01*
X35909005Y-53313273D01*
X35756120Y-53084465D01*
X35561535Y-52889880D01*
X35332727Y-52736995D01*
X35078490Y-52631686D01*
X34808592Y-52578000D01*
X34533408Y-52578000D01*
X34263510Y-52631686D01*
X34009273Y-52736995D01*
X33780465Y-52889880D01*
X33585880Y-53084465D01*
X33432995Y-53313273D01*
X33327686Y-53567510D01*
X33274000Y-53837408D01*
X33274000Y-54112592D01*
X33327686Y-54382490D01*
X33432995Y-54636727D01*
X33585880Y-54865535D01*
X33780465Y-55060120D01*
X34009273Y-55213005D01*
X34263510Y-55318314D01*
X34533408Y-55372000D01*
X34808592Y-55372000D01*
X34962571Y-55341372D01*
X37279198Y-57658000D01*
X37073408Y-57658000D01*
X36803510Y-57711686D01*
X36549273Y-57816995D01*
X36320465Y-57969880D01*
X36125880Y-58164465D01*
X35972995Y-58393273D01*
X35943308Y-58464943D01*
X35938636Y-58451977D01*
X35876656Y-58336020D01*
X35636565Y-58269040D01*
X34850605Y-59055000D01*
X35636565Y-59840960D01*
X35876656Y-59773980D01*
X35940485Y-59638240D01*
X35972995Y-59716727D01*
X36125880Y-59945535D01*
X36320465Y-60140120D01*
X36549273Y-60293005D01*
X36803510Y-60398314D01*
X37073408Y-60452000D01*
X37348592Y-60452000D01*
X37618490Y-60398314D01*
X37872727Y-60293005D01*
X38101535Y-60140120D01*
X38158077Y-60083578D01*
X48533900Y-70459402D01*
X48534391Y-70460000D01*
X23101613Y-70460000D01*
X23179001Y-70408291D01*
X23392984Y-70194308D01*
X23561109Y-69942692D01*
X23676915Y-69663110D01*
X23735953Y-69366308D01*
X23735953Y-69063692D01*
X23676915Y-68766890D01*
X23561109Y-68487308D01*
X23392984Y-68235692D01*
X23179001Y-68021709D01*
X22927385Y-67853584D01*
X22647803Y-67737778D01*
X22351001Y-67678740D01*
X22048385Y-67678740D01*
X21751583Y-67737778D01*
X21472001Y-67853584D01*
X21220385Y-68021709D01*
X21006402Y-68235692D01*
X20838277Y-68487308D01*
X20722471Y-68766890D01*
X20663433Y-69063692D01*
X20663433Y-69366308D01*
X20722471Y-69663110D01*
X20838277Y-69942692D01*
X21006402Y-70194308D01*
X21220385Y-70408291D01*
X21297773Y-70460000D01*
X20599000Y-70460000D01*
X20599000Y-60020565D01*
X33885040Y-60020565D01*
X33952020Y-60260656D01*
X34201048Y-60377756D01*
X34468135Y-60444023D01*
X34743017Y-60456910D01*
X35015133Y-60415922D01*
X35274023Y-60322636D01*
X35389980Y-60260656D01*
X35456960Y-60020565D01*
X34671000Y-59234605D01*
X33885040Y-60020565D01*
X20599000Y-60020565D01*
X20599000Y-59127017D01*
X33269090Y-59127017D01*
X33310078Y-59399133D01*
X33403364Y-59658023D01*
X33465344Y-59773980D01*
X33705435Y-59840960D01*
X34491395Y-59055000D01*
X33705435Y-58269040D01*
X33465344Y-58336020D01*
X33348244Y-58585048D01*
X33281977Y-58852135D01*
X33269090Y-59127017D01*
X20599000Y-59127017D01*
X20599000Y-58089435D01*
X33885040Y-58089435D01*
X34671000Y-58875395D01*
X35456960Y-58089435D01*
X35389980Y-57849344D01*
X35140952Y-57732244D01*
X34873865Y-57665977D01*
X34598983Y-57653090D01*
X34326867Y-57694078D01*
X34067977Y-57787364D01*
X33952020Y-57849344D01*
X33885040Y-58089435D01*
X20599000Y-58089435D01*
X20599000Y-49779662D01*
X176784500Y-49779662D01*
X176784500Y-50042338D01*
X176835746Y-50299968D01*
X176936268Y-50542649D01*
X177082203Y-50761057D01*
X177267943Y-50946797D01*
X177486351Y-51092732D01*
X177729032Y-51193254D01*
X177986662Y-51244500D01*
X178249338Y-51244500D01*
X178506968Y-51193254D01*
X178749649Y-51092732D01*
X178968057Y-50946797D01*
X179153797Y-50761057D01*
X179299732Y-50542649D01*
X179400254Y-50299968D01*
X179451500Y-50042338D01*
X179451500Y-49779662D01*
X179400254Y-49522032D01*
X179299732Y-49279351D01*
X179153797Y-49060943D01*
X178968057Y-48875203D01*
X178749649Y-48729268D01*
X178506968Y-48628746D01*
X178249338Y-48577500D01*
X177986662Y-48577500D01*
X177729032Y-48628746D01*
X177486351Y-48729268D01*
X177267943Y-48875203D01*
X177082203Y-49060943D01*
X176936268Y-49279351D01*
X176835746Y-49522032D01*
X176784500Y-49779662D01*
X20599000Y-49779662D01*
X20599000Y-46887985D01*
X20869831Y-46887959D01*
X20863584Y-46897308D01*
X20747778Y-47176890D01*
X20688740Y-47473692D01*
X20688740Y-47776308D01*
X20747778Y-48073110D01*
X20863584Y-48352692D01*
X21031709Y-48604308D01*
X21245692Y-48818291D01*
X21497308Y-48986416D01*
X21776890Y-49102222D01*
X22073692Y-49161260D01*
X22376308Y-49161260D01*
X22673110Y-49102222D01*
X22952692Y-48986416D01*
X23204308Y-48818291D01*
X23418291Y-48604308D01*
X23586416Y-48352692D01*
X23702222Y-48073110D01*
X23761260Y-47776308D01*
X23761260Y-47473692D01*
X23702222Y-47176890D01*
X23586416Y-46897308D01*
X23579994Y-46887697D01*
X179655390Y-46872615D01*
X179638891Y-46897308D01*
G37*
X179638891Y-46897308D02*
X179523085Y-47176890D01*
X179464047Y-47473692D01*
X179464047Y-47776308D01*
X179523085Y-48073110D01*
X179638891Y-48352692D01*
X179807016Y-48604308D01*
X180020999Y-48818291D01*
X180272615Y-48986416D01*
X180552197Y-49102222D01*
X180848999Y-49161260D01*
X181151615Y-49161260D01*
X181448417Y-49102222D01*
X181727999Y-48986416D01*
X181979615Y-48818291D01*
X182093000Y-48704906D01*
X182093001Y-90145000D01*
X179356688Y-90145000D01*
X179410037Y-90079994D01*
X179469002Y-89969680D01*
X179505312Y-89849982D01*
X179517572Y-89725500D01*
X179517572Y-88328500D01*
X179505312Y-88204018D01*
X179469002Y-88084320D01*
X179410037Y-87974006D01*
X179330685Y-87877315D01*
X179233994Y-87797963D01*
X179123680Y-87738998D01*
X179003982Y-87702688D01*
X178879500Y-87690428D01*
X177482500Y-87690428D01*
X177358018Y-87702688D01*
X177238320Y-87738998D01*
X177128006Y-87797963D01*
X177031315Y-87877315D01*
X176951963Y-87974006D01*
X176892998Y-88084320D01*
X176856688Y-88204018D01*
X176844428Y-88328500D01*
X176844428Y-89725500D01*
X176856688Y-89849982D01*
X176892998Y-89969680D01*
X176951963Y-90079994D01*
X177005312Y-90145000D01*
X174531801Y-90145000D01*
X180649504Y-84027298D01*
X180678501Y-84003501D01*
X180773474Y-83887776D01*
X180844046Y-83755747D01*
X180887503Y-83612486D01*
X180898500Y-83500833D01*
X180898500Y-83500823D01*
X180902176Y-83463500D01*
X180898500Y-83426177D01*
X180898500Y-74967025D01*
X180902176Y-74929700D01*
X180898500Y-74892375D01*
X180898500Y-74892367D01*
X180887503Y-74780714D01*
X180844046Y-74637453D01*
X180773474Y-74505424D01*
X180678501Y-74389699D01*
X180649503Y-74365901D01*
X179944487Y-73660885D01*
X180118250Y-73660000D01*
X180277000Y-73501250D01*
X180277000Y-72263000D01*
X180531000Y-72263000D01*
X180531000Y-73501250D01*
X180689750Y-73660000D01*
X181293000Y-73663072D01*
X181417482Y-73650812D01*
X181537180Y-73614502D01*
X181647494Y-73555537D01*
X181744185Y-73476185D01*
X181823537Y-73379494D01*
X181882502Y-73269180D01*
X181918812Y-73149482D01*
X181931072Y-73025000D01*
X181928000Y-72421750D01*
X181769250Y-72263000D01*
X180531000Y-72263000D01*
X180277000Y-72263000D01*
X179038750Y-72263000D01*
X178880000Y-72421750D01*
X178879115Y-72595514D01*
X178476004Y-72192403D01*
X178452201Y-72163399D01*
X178336476Y-72068426D01*
X178204447Y-71997854D01*
X178061186Y-71954397D01*
X177949533Y-71943400D01*
X177949522Y-71943400D01*
X177912200Y-71939724D01*
X177874878Y-71943400D01*
X165539854Y-71943400D01*
X165554314Y-71908490D01*
X165608000Y-71638592D01*
X165608000Y-71363408D01*
X165554314Y-71093510D01*
X165449005Y-70839273D01*
X165296120Y-70610465D01*
X165101535Y-70415880D01*
X164872727Y-70262995D01*
X164618490Y-70157686D01*
X164348592Y-70104000D01*
X164073408Y-70104000D01*
X163803510Y-70157686D01*
X163549273Y-70262995D01*
X163320465Y-70415880D01*
X163125880Y-70610465D01*
X162972995Y-70839273D01*
X162941000Y-70916515D01*
X162909005Y-70839273D01*
X162756120Y-70610465D01*
X162561535Y-70415880D01*
X162332727Y-70262995D01*
X162078490Y-70157686D01*
X161808592Y-70104000D01*
X161533408Y-70104000D01*
X161263510Y-70157686D01*
X161009273Y-70262995D01*
X160780465Y-70415880D01*
X160585880Y-70610465D01*
X160432995Y-70839273D01*
X160401000Y-70916515D01*
X160369005Y-70839273D01*
X160216120Y-70610465D01*
X160021535Y-70415880D01*
X159792727Y-70262995D01*
X159538490Y-70157686D01*
X159268592Y-70104000D01*
X158993408Y-70104000D01*
X158723510Y-70157686D01*
X158469273Y-70262995D01*
X158240465Y-70415880D01*
X158045880Y-70610465D01*
X157892995Y-70839273D01*
X157861000Y-70916515D01*
X157829005Y-70839273D01*
X157676120Y-70610465D01*
X157481535Y-70415880D01*
X157252727Y-70262995D01*
X156998490Y-70157686D01*
X156728592Y-70104000D01*
X156453408Y-70104000D01*
X156183510Y-70157686D01*
X155929273Y-70262995D01*
X155700465Y-70415880D01*
X155505880Y-70610465D01*
X155352995Y-70839273D01*
X155321000Y-70916515D01*
X155289005Y-70839273D01*
X155136120Y-70610465D01*
X154941535Y-70415880D01*
X154712727Y-70262995D01*
X154458490Y-70157686D01*
X154188592Y-70104000D01*
X153913408Y-70104000D01*
X153643510Y-70157686D01*
X153389273Y-70262995D01*
X153382200Y-70267721D01*
X153382200Y-60288279D01*
X153389273Y-60293005D01*
X153643510Y-60398314D01*
X153913408Y-60452000D01*
X154125711Y-60452000D01*
X161358370Y-67684659D01*
X161387656Y-67720344D01*
X161530028Y-67837186D01*
X161605496Y-67877524D01*
X161692459Y-67924007D01*
X161868708Y-67977472D01*
X162052000Y-67995524D01*
X162097935Y-67991000D01*
X179195848Y-67991000D01*
X179220232Y-68027493D01*
X179432507Y-68239768D01*
X179561562Y-68326000D01*
X179432507Y-68412232D01*
X179220232Y-68624507D01*
X179053449Y-68874115D01*
X178938566Y-69151466D01*
X178880000Y-69445899D01*
X178880000Y-69746101D01*
X178938566Y-70040534D01*
X179053449Y-70317885D01*
X179220232Y-70567493D01*
X179301063Y-70648324D01*
X179270820Y-70657498D01*
X179160506Y-70716463D01*
X179063815Y-70795815D01*
X178984463Y-70892506D01*
X178925498Y-71002820D01*
X178889188Y-71122518D01*
X178876928Y-71247000D01*
X178880000Y-71850250D01*
X179038750Y-72009000D01*
X180277000Y-72009000D01*
X180277000Y-71989000D01*
X180531000Y-71989000D01*
X180531000Y-72009000D01*
X181769250Y-72009000D01*
X181928000Y-71850250D01*
X181931072Y-71247000D01*
X181918812Y-71122518D01*
X181882502Y-71002820D01*
X181823537Y-70892506D01*
X181744185Y-70795815D01*
X181647494Y-70716463D01*
X181537180Y-70657498D01*
X181506937Y-70648324D01*
X181587768Y-70567493D01*
X181754551Y-70317885D01*
X181869434Y-70040534D01*
X181928000Y-69746101D01*
X181928000Y-69445899D01*
X181869434Y-69151466D01*
X181754551Y-68874115D01*
X181587768Y-68624507D01*
X181375493Y-68412232D01*
X181246438Y-68326000D01*
X181375493Y-68239768D01*
X181587768Y-68027493D01*
X181754551Y-67777885D01*
X181869434Y-67500534D01*
X181928000Y-67206101D01*
X181928000Y-66905899D01*
X181869434Y-66611466D01*
X181754551Y-66334115D01*
X181587768Y-66084507D01*
X181375493Y-65872232D01*
X181125885Y-65705449D01*
X180848534Y-65590566D01*
X180554101Y-65532000D01*
X180253899Y-65532000D01*
X179959466Y-65590566D01*
X179682115Y-65705449D01*
X179432507Y-65872232D01*
X179220232Y-66084507D01*
X179195848Y-66121000D01*
X162439289Y-66121000D01*
X158357789Y-62039500D01*
X176844428Y-62039500D01*
X176844428Y-63436500D01*
X176856688Y-63560982D01*
X176892998Y-63680680D01*
X176951963Y-63790994D01*
X177031315Y-63887685D01*
X177128006Y-63967037D01*
X177238320Y-64026002D01*
X177358018Y-64062312D01*
X177482500Y-64074572D01*
X178879500Y-64074572D01*
X179003982Y-64062312D01*
X179123680Y-64026002D01*
X179233994Y-63967037D01*
X179330685Y-63887685D01*
X179410037Y-63790994D01*
X179469002Y-63680680D01*
X179505312Y-63560982D01*
X179517572Y-63436500D01*
X179517572Y-62039500D01*
X179505312Y-61915018D01*
X179469002Y-61795320D01*
X179410037Y-61685006D01*
X179330685Y-61588315D01*
X179233994Y-61508963D01*
X179123680Y-61449998D01*
X179003982Y-61413688D01*
X178879500Y-61401428D01*
X177482500Y-61401428D01*
X177358018Y-61413688D01*
X177238320Y-61449998D01*
X177128006Y-61508963D01*
X177031315Y-61588315D01*
X176951963Y-61685006D01*
X176892998Y-61795320D01*
X176856688Y-61915018D01*
X176844428Y-62039500D01*
X158357789Y-62039500D01*
X156763371Y-60445082D01*
X156998490Y-60398314D01*
X157252727Y-60293005D01*
X157481535Y-60140120D01*
X157676120Y-59945535D01*
X157829005Y-59716727D01*
X157861000Y-59639485D01*
X157892995Y-59716727D01*
X158045880Y-59945535D01*
X158240465Y-60140120D01*
X158469273Y-60293005D01*
X158723510Y-60398314D01*
X158993408Y-60452000D01*
X159268592Y-60452000D01*
X159538490Y-60398314D01*
X159792727Y-60293005D01*
X160021535Y-60140120D01*
X160216120Y-59945535D01*
X160369005Y-59716727D01*
X160401000Y-59639485D01*
X160432995Y-59716727D01*
X160585880Y-59945535D01*
X160780465Y-60140120D01*
X161009273Y-60293005D01*
X161263510Y-60398314D01*
X161533408Y-60452000D01*
X161808592Y-60452000D01*
X162078490Y-60398314D01*
X162332727Y-60293005D01*
X162561535Y-60140120D01*
X162681090Y-60020565D01*
X163425040Y-60020565D01*
X163492020Y-60260656D01*
X163741048Y-60377756D01*
X164008135Y-60444023D01*
X164283017Y-60456910D01*
X164555133Y-60415922D01*
X164814023Y-60322636D01*
X164929980Y-60260656D01*
X164996960Y-60020565D01*
X164211000Y-59234605D01*
X163425040Y-60020565D01*
X162681090Y-60020565D01*
X162756120Y-59945535D01*
X162909005Y-59716727D01*
X162938692Y-59645057D01*
X162943364Y-59658023D01*
X163005344Y-59773980D01*
X163245435Y-59840960D01*
X164031395Y-59055000D01*
X164390605Y-59055000D01*
X165176565Y-59840960D01*
X165416656Y-59773980D01*
X165533756Y-59524952D01*
X165600023Y-59257865D01*
X165612910Y-58982983D01*
X165571922Y-58710867D01*
X165524117Y-58578197D01*
X177440408Y-58578197D01*
X177499686Y-58811812D01*
X177737875Y-58922559D01*
X177993093Y-58984711D01*
X178255533Y-58995876D01*
X178515107Y-58955629D01*
X178761842Y-58865514D01*
X178862314Y-58811812D01*
X178921592Y-58578197D01*
X178181000Y-57837605D01*
X177440408Y-58578197D01*
X165524117Y-58578197D01*
X165478636Y-58451977D01*
X165416656Y-58336020D01*
X165176565Y-58269040D01*
X164390605Y-59055000D01*
X164031395Y-59055000D01*
X163245435Y-58269040D01*
X163005344Y-58336020D01*
X162941515Y-58471760D01*
X162909005Y-58393273D01*
X162756120Y-58164465D01*
X162681090Y-58089435D01*
X163425040Y-58089435D01*
X164211000Y-58875395D01*
X164996960Y-58089435D01*
X164929980Y-57849344D01*
X164681567Y-57732533D01*
X176843124Y-57732533D01*
X176883371Y-57992107D01*
X176973486Y-58238842D01*
X177027188Y-58339314D01*
X177260803Y-58398592D01*
X178001395Y-57658000D01*
X178360605Y-57658000D01*
X179101197Y-58398592D01*
X179334812Y-58339314D01*
X179445559Y-58101125D01*
X179507711Y-57845907D01*
X179518876Y-57583467D01*
X179478629Y-57323893D01*
X179388514Y-57077158D01*
X179334812Y-56976686D01*
X179101197Y-56917408D01*
X178360605Y-57658000D01*
X178001395Y-57658000D01*
X177260803Y-56917408D01*
X177027188Y-56976686D01*
X176916441Y-57214875D01*
X176854289Y-57470093D01*
X176843124Y-57732533D01*
X164681567Y-57732533D01*
X164680952Y-57732244D01*
X164413865Y-57665977D01*
X164138983Y-57653090D01*
X163866867Y-57694078D01*
X163607977Y-57787364D01*
X163492020Y-57849344D01*
X163425040Y-58089435D01*
X162681090Y-58089435D01*
X162561535Y-57969880D01*
X162332727Y-57816995D01*
X162078490Y-57711686D01*
X161808592Y-57658000D01*
X161533408Y-57658000D01*
X161263510Y-57711686D01*
X161009273Y-57816995D01*
X160780465Y-57969880D01*
X160585880Y-58164465D01*
X160432995Y-58393273D01*
X160401000Y-58470515D01*
X160369005Y-58393273D01*
X160216120Y-58164465D01*
X160021535Y-57969880D01*
X159792727Y-57816995D01*
X159538490Y-57711686D01*
X159268592Y-57658000D01*
X159056289Y-57658000D01*
X157087789Y-55689500D01*
X176781428Y-55689500D01*
X176793688Y-55813982D01*
X176829998Y-55933680D01*
X176888963Y-56043994D01*
X176968315Y-56140685D01*
X177065006Y-56220037D01*
X177175320Y-56279002D01*
X177295018Y-56315312D01*
X177419500Y-56327572D01*
X177832250Y-56324500D01*
X177990998Y-56165752D01*
X177990998Y-56324500D01*
X178078244Y-56324500D01*
X177846893Y-56360371D01*
X177600158Y-56450486D01*
X177499686Y-56504188D01*
X177440408Y-56737803D01*
X178181000Y-57478395D01*
X178921592Y-56737803D01*
X178862314Y-56504188D01*
X178624125Y-56393441D01*
X178368907Y-56331289D01*
X178209327Y-56324500D01*
X178245002Y-56324500D01*
X178245002Y-56165752D01*
X178403750Y-56324500D01*
X178816500Y-56327572D01*
X178940982Y-56315312D01*
X179060680Y-56279002D01*
X179170994Y-56220037D01*
X179267685Y-56140685D01*
X179347037Y-56043994D01*
X179406002Y-55933680D01*
X179442312Y-55813982D01*
X179454572Y-55689500D01*
X179451500Y-55276750D01*
X179292750Y-55118000D01*
X178245000Y-55118000D01*
X178245000Y-55138000D01*
X177991000Y-55138000D01*
X177991000Y-55118000D01*
X176943250Y-55118000D01*
X176784500Y-55276750D01*
X176781428Y-55689500D01*
X157087789Y-55689500D01*
X156763371Y-55365082D01*
X156998490Y-55318314D01*
X157252727Y-55213005D01*
X157481535Y-55060120D01*
X157676120Y-54865535D01*
X157829005Y-54636727D01*
X157861000Y-54559485D01*
X157892995Y-54636727D01*
X158045880Y-54865535D01*
X158240465Y-55060120D01*
X158469273Y-55213005D01*
X158723510Y-55318314D01*
X158993408Y-55372000D01*
X159268592Y-55372000D01*
X159538490Y-55318314D01*
X159792727Y-55213005D01*
X160021535Y-55060120D01*
X160216120Y-54865535D01*
X160369005Y-54636727D01*
X160401000Y-54559485D01*
X160432995Y-54636727D01*
X160585880Y-54865535D01*
X160780465Y-55060120D01*
X161009273Y-55213005D01*
X161263510Y-55318314D01*
X161533408Y-55372000D01*
X161808592Y-55372000D01*
X162078490Y-55318314D01*
X162332727Y-55213005D01*
X162561535Y-55060120D01*
X162756120Y-54865535D01*
X162909005Y-54636727D01*
X162941000Y-54559485D01*
X162972995Y-54636727D01*
X163125880Y-54865535D01*
X163320465Y-55060120D01*
X163549273Y-55213005D01*
X163803510Y-55318314D01*
X164073408Y-55372000D01*
X164348592Y-55372000D01*
X164618490Y-55318314D01*
X164872727Y-55213005D01*
X165101535Y-55060120D01*
X165296120Y-54865535D01*
X165449005Y-54636727D01*
X165554314Y-54382490D01*
X165572214Y-54292500D01*
X176781428Y-54292500D01*
X176784500Y-54705250D01*
X176943250Y-54864000D01*
X177991000Y-54864000D01*
X177991000Y-53816250D01*
X178245000Y-53816250D01*
X178245000Y-54864000D01*
X179292750Y-54864000D01*
X179451500Y-54705250D01*
X179454572Y-54292500D01*
X179442312Y-54168018D01*
X179406002Y-54048320D01*
X179347037Y-53938006D01*
X179267685Y-53841315D01*
X179170994Y-53761963D01*
X179060680Y-53702998D01*
X178940982Y-53666688D01*
X178816500Y-53654428D01*
X178403750Y-53657500D01*
X178245000Y-53816250D01*
X177991000Y-53816250D01*
X177832250Y-53657500D01*
X177419500Y-53654428D01*
X177295018Y-53666688D01*
X177175320Y-53702998D01*
X177065006Y-53761963D01*
X176968315Y-53841315D01*
X176888963Y-53938006D01*
X176829998Y-54048320D01*
X176793688Y-54168018D01*
X176781428Y-54292500D01*
X165572214Y-54292500D01*
X165608000Y-54112592D01*
X165608000Y-53837408D01*
X165554314Y-53567510D01*
X165449005Y-53313273D01*
X165296120Y-53084465D01*
X165101535Y-52889880D01*
X164872727Y-52736995D01*
X164618490Y-52631686D01*
X164348592Y-52578000D01*
X164073408Y-52578000D01*
X163803510Y-52631686D01*
X163549273Y-52736995D01*
X163320465Y-52889880D01*
X163125880Y-53084465D01*
X162972995Y-53313273D01*
X162941000Y-53390515D01*
X162909005Y-53313273D01*
X162756120Y-53084465D01*
X162561535Y-52889880D01*
X162332727Y-52736995D01*
X162078490Y-52631686D01*
X161808592Y-52578000D01*
X161533408Y-52578000D01*
X161263510Y-52631686D01*
X161009273Y-52736995D01*
X160780465Y-52889880D01*
X160585880Y-53084465D01*
X160432995Y-53313273D01*
X160401000Y-53390515D01*
X160369005Y-53313273D01*
X160216120Y-53084465D01*
X160021535Y-52889880D01*
X159792727Y-52736995D01*
X159538490Y-52631686D01*
X159268592Y-52578000D01*
X158993408Y-52578000D01*
X158723510Y-52631686D01*
X158469273Y-52736995D01*
X158240465Y-52889880D01*
X158045880Y-53084465D01*
X157892995Y-53313273D01*
X157861000Y-53390515D01*
X157829005Y-53313273D01*
X157676120Y-53084465D01*
X157481535Y-52889880D01*
X157252727Y-52736995D01*
X156998490Y-52631686D01*
X156728592Y-52578000D01*
X156453408Y-52578000D01*
X156183510Y-52631686D01*
X155947807Y-52729318D01*
X154402530Y-51184041D01*
X154373244Y-51148356D01*
X154230872Y-51031514D01*
X154068440Y-50944693D01*
X153892192Y-50891229D01*
X153754832Y-50877700D01*
X153708900Y-50873176D01*
X153662968Y-50877700D01*
X98568332Y-50877700D01*
X98522400Y-50873176D01*
X98476468Y-50877700D01*
X98339108Y-50891229D01*
X98162860Y-50944693D01*
X98000428Y-51031514D01*
X97858056Y-51148356D01*
X97828770Y-51184041D01*
X96280769Y-52732042D01*
X96038490Y-52631686D01*
X95768592Y-52578000D01*
X95493408Y-52578000D01*
X95223510Y-52631686D01*
X94969273Y-52736995D01*
X94740465Y-52889880D01*
X94545880Y-53084465D01*
X94392995Y-53313273D01*
X94361000Y-53390515D01*
X94329005Y-53313273D01*
X94176120Y-53084465D01*
X93981535Y-52889880D01*
X93752727Y-52736995D01*
X93498490Y-52631686D01*
X93228592Y-52578000D01*
X92953408Y-52578000D01*
X92683510Y-52631686D01*
X92429273Y-52736995D01*
X92200465Y-52889880D01*
X92005880Y-53084465D01*
X91852995Y-53313273D01*
X91821000Y-53390515D01*
X91789005Y-53313273D01*
X91636120Y-53084465D01*
X91441535Y-52889880D01*
X91212727Y-52736995D01*
X90958490Y-52631686D01*
X90688592Y-52578000D01*
X90413408Y-52578000D01*
X90143510Y-52631686D01*
X89889273Y-52736995D01*
X89660465Y-52889880D01*
X89465880Y-53084465D01*
X89312995Y-53313273D01*
X89281000Y-53390515D01*
X89249005Y-53313273D01*
X89096120Y-53084465D01*
X88901535Y-52889880D01*
X88672727Y-52736995D01*
X88418490Y-52631686D01*
X88148592Y-52578000D01*
X87873408Y-52578000D01*
X87603510Y-52631686D01*
X87349273Y-52736995D01*
X87120465Y-52889880D01*
X86925880Y-53084465D01*
X86772995Y-53313273D01*
X86667686Y-53567510D01*
X86614000Y-53837408D01*
X86614000Y-54112592D01*
X86667686Y-54382490D01*
X86772995Y-54636727D01*
X86925880Y-54865535D01*
X87120465Y-55060120D01*
X87349273Y-55213005D01*
X87603510Y-55318314D01*
X87873408Y-55372000D01*
X88148592Y-55372000D01*
X88418490Y-55318314D01*
X88672727Y-55213005D01*
X88901535Y-55060120D01*
X89096120Y-54865535D01*
X89249005Y-54636727D01*
X89281000Y-54559485D01*
X89312995Y-54636727D01*
X89465880Y-54865535D01*
X89660465Y-55060120D01*
X89889273Y-55213005D01*
X90143510Y-55318314D01*
X90413408Y-55372000D01*
X90688592Y-55372000D01*
X90958490Y-55318314D01*
X91212727Y-55213005D01*
X91441535Y-55060120D01*
X91636120Y-54865535D01*
X91789005Y-54636727D01*
X91821000Y-54559485D01*
X91852995Y-54636727D01*
X92005880Y-54865535D01*
X92200465Y-55060120D01*
X92429273Y-55213005D01*
X92683510Y-55318314D01*
X92953408Y-55372000D01*
X93228592Y-55372000D01*
X93498490Y-55318314D01*
X93752727Y-55213005D01*
X93981535Y-55060120D01*
X94176120Y-54865535D01*
X94329005Y-54636727D01*
X94361000Y-54559485D01*
X94392995Y-54636727D01*
X94545880Y-54865535D01*
X94740465Y-55060120D01*
X94901434Y-55167677D01*
X92462341Y-57606770D01*
X92426656Y-57636056D01*
X92309814Y-57778429D01*
X92222993Y-57940861D01*
X92217679Y-57958378D01*
X92200465Y-57969880D01*
X92005880Y-58164465D01*
X91852995Y-58393273D01*
X91821000Y-58470515D01*
X91789005Y-58393273D01*
X91636120Y-58164465D01*
X91441535Y-57969880D01*
X91212727Y-57816995D01*
X90958490Y-57711686D01*
X90688592Y-57658000D01*
X90413408Y-57658000D01*
X90143510Y-57711686D01*
X89889273Y-57816995D01*
X89660465Y-57969880D01*
X89465880Y-58164465D01*
X89312995Y-58393273D01*
X89283308Y-58464943D01*
X89278636Y-58451977D01*
X89216656Y-58336020D01*
X88976565Y-58269040D01*
X88190605Y-59055000D01*
X88976565Y-59840960D01*
X89216656Y-59773980D01*
X89280485Y-59638240D01*
X89312995Y-59716727D01*
X89465880Y-59945535D01*
X89660465Y-60140120D01*
X89889273Y-60293005D01*
X90143510Y-60398314D01*
X90378629Y-60445082D01*
X86219011Y-64604700D01*
X66007031Y-64604700D01*
X65961099Y-64600176D01*
X65777807Y-64618229D01*
X65733881Y-64631554D01*
X65601560Y-64671693D01*
X65439128Y-64758514D01*
X65296756Y-64875356D01*
X65267476Y-64911034D01*
X64645359Y-65533152D01*
X64616494Y-65509463D01*
X64506180Y-65450498D01*
X64386482Y-65414188D01*
X64262000Y-65401928D01*
X64099573Y-65401928D01*
X67303302Y-62198200D01*
X68927950Y-62198200D01*
X68842795Y-62325644D01*
X68764774Y-62514002D01*
X68725000Y-62713961D01*
X68725000Y-62917839D01*
X68764774Y-63117798D01*
X68842795Y-63306156D01*
X68956063Y-63475674D01*
X69100226Y-63619837D01*
X69269744Y-63733105D01*
X69458102Y-63811126D01*
X69658061Y-63850900D01*
X69861939Y-63850900D01*
X70061898Y-63811126D01*
X70250256Y-63733105D01*
X70419774Y-63619837D01*
X70563937Y-63475674D01*
X70677205Y-63306156D01*
X70755226Y-63117798D01*
X70795000Y-62917839D01*
X70795000Y-62713961D01*
X70755226Y-62514002D01*
X70677205Y-62325644D01*
X70636330Y-62264471D01*
X72479430Y-60421372D01*
X72633408Y-60452000D01*
X72908592Y-60452000D01*
X73178490Y-60398314D01*
X73432727Y-60293005D01*
X73661535Y-60140120D01*
X73856120Y-59945535D01*
X74009005Y-59716727D01*
X74041000Y-59639485D01*
X74072995Y-59716727D01*
X74225880Y-59945535D01*
X74420465Y-60140120D01*
X74649273Y-60293005D01*
X74903510Y-60398314D01*
X75173408Y-60452000D01*
X75448592Y-60452000D01*
X75718490Y-60398314D01*
X75972727Y-60293005D01*
X76201535Y-60140120D01*
X76396120Y-59945535D01*
X76549005Y-59716727D01*
X76581000Y-59639485D01*
X76612995Y-59716727D01*
X76765880Y-59945535D01*
X76960465Y-60140120D01*
X77189273Y-60293005D01*
X77443510Y-60398314D01*
X77713408Y-60452000D01*
X77988592Y-60452000D01*
X78258490Y-60398314D01*
X78512727Y-60293005D01*
X78741535Y-60140120D01*
X78861090Y-60020565D01*
X87225040Y-60020565D01*
X87292020Y-60260656D01*
X87541048Y-60377756D01*
X87808135Y-60444023D01*
X88083017Y-60456910D01*
X88355133Y-60415922D01*
X88614023Y-60322636D01*
X88729980Y-60260656D01*
X88796960Y-60020565D01*
X88011000Y-59234605D01*
X87225040Y-60020565D01*
X78861090Y-60020565D01*
X78936120Y-59945535D01*
X79089005Y-59716727D01*
X79194314Y-59462490D01*
X79248000Y-59192592D01*
X79248000Y-59127017D01*
X86609090Y-59127017D01*
X86650078Y-59399133D01*
X86743364Y-59658023D01*
X86805344Y-59773980D01*
X87045435Y-59840960D01*
X87831395Y-59055000D01*
X87045435Y-58269040D01*
X86805344Y-58336020D01*
X86688244Y-58585048D01*
X86621977Y-58852135D01*
X86609090Y-59127017D01*
X79248000Y-59127017D01*
X79248000Y-58917408D01*
X79194314Y-58647510D01*
X79089005Y-58393273D01*
X78936120Y-58164465D01*
X78861090Y-58089435D01*
X87225040Y-58089435D01*
X88011000Y-58875395D01*
X88796960Y-58089435D01*
X88729980Y-57849344D01*
X88480952Y-57732244D01*
X88213865Y-57665977D01*
X87938983Y-57653090D01*
X87666867Y-57694078D01*
X87407977Y-57787364D01*
X87292020Y-57849344D01*
X87225040Y-58089435D01*
X78861090Y-58089435D01*
X78741535Y-57969880D01*
X78512727Y-57816995D01*
X78258490Y-57711686D01*
X77988592Y-57658000D01*
X77713408Y-57658000D01*
X77443510Y-57711686D01*
X77189273Y-57816995D01*
X76960465Y-57969880D01*
X76765880Y-58164465D01*
X76612995Y-58393273D01*
X76581000Y-58470515D01*
X76549005Y-58393273D01*
X76396120Y-58164465D01*
X76201535Y-57969880D01*
X75972727Y-57816995D01*
X75718490Y-57711686D01*
X75448592Y-57658000D01*
X75173408Y-57658000D01*
X74903510Y-57711686D01*
X74649273Y-57816995D01*
X74420465Y-57969880D01*
X74225880Y-58164465D01*
X74072995Y-58393273D01*
X74041000Y-58470515D01*
X74009005Y-58393273D01*
X73856120Y-58164465D01*
X73661535Y-57969880D01*
X73480611Y-57848990D01*
X73802002Y-57527600D01*
X75021078Y-57527600D01*
X75058400Y-57531276D01*
X75095722Y-57527600D01*
X75095733Y-57527600D01*
X75207386Y-57516603D01*
X75350647Y-57473146D01*
X75482676Y-57402574D01*
X75598401Y-57307601D01*
X75622204Y-57278597D01*
X77559430Y-55341372D01*
X77713408Y-55372000D01*
X77988592Y-55372000D01*
X78258490Y-55318314D01*
X78512727Y-55213005D01*
X78741535Y-55060120D01*
X78936120Y-54865535D01*
X79089005Y-54636727D01*
X79194314Y-54382490D01*
X79248000Y-54112592D01*
X79248000Y-53837408D01*
X79194314Y-53567510D01*
X79089005Y-53313273D01*
X78936120Y-53084465D01*
X78741535Y-52889880D01*
X78512727Y-52736995D01*
X78258490Y-52631686D01*
X77988592Y-52578000D01*
X77713408Y-52578000D01*
X77443510Y-52631686D01*
X77189273Y-52736995D01*
X76960465Y-52889880D01*
X76765880Y-53084465D01*
X76612995Y-53313273D01*
X76581000Y-53390515D01*
X76549005Y-53313273D01*
X76396120Y-53084465D01*
X76201535Y-52889880D01*
X75972727Y-52736995D01*
X75718490Y-52631686D01*
X75448592Y-52578000D01*
X75173408Y-52578000D01*
X74903510Y-52631686D01*
X74649273Y-52736995D01*
X74420465Y-52889880D01*
X74225880Y-53084465D01*
X74072995Y-53313273D01*
X74041000Y-53390515D01*
X74009005Y-53313273D01*
X73856120Y-53084465D01*
X73661535Y-52889880D01*
X73432727Y-52736995D01*
X73178490Y-52631686D01*
X72908592Y-52578000D01*
X72633408Y-52578000D01*
X72363510Y-52631686D01*
X72109273Y-52736995D01*
X71880465Y-52889880D01*
X71685880Y-53084465D01*
X71532995Y-53313273D01*
X71501000Y-53390515D01*
X71469005Y-53313273D01*
X71316120Y-53084465D01*
X71121535Y-52889880D01*
X70892727Y-52736995D01*
X70638490Y-52631686D01*
X70368592Y-52578000D01*
X70093408Y-52578000D01*
X69823510Y-52631686D01*
X69569273Y-52736995D01*
X69340465Y-52889880D01*
X69145880Y-53084465D01*
X68992995Y-53313273D01*
X68961000Y-53390515D01*
X68929005Y-53313273D01*
X68776120Y-53084465D01*
X68581535Y-52889880D01*
X68352727Y-52736995D01*
X68098490Y-52631686D01*
X67828592Y-52578000D01*
X67553408Y-52578000D01*
X67283510Y-52631686D01*
X67029273Y-52736995D01*
X66800465Y-52889880D01*
X66605880Y-53084465D01*
X66452995Y-53313273D01*
X66421000Y-53390515D01*
X66389005Y-53313273D01*
X66236120Y-53084465D01*
X66041535Y-52889880D01*
X65812727Y-52736995D01*
X65558490Y-52631686D01*
X65288592Y-52578000D01*
X65013408Y-52578000D01*
X64743510Y-52631686D01*
X64489273Y-52736995D01*
X64260465Y-52889880D01*
X64065880Y-53084465D01*
X63912995Y-53313273D01*
X63881000Y-53390515D01*
X63849005Y-53313273D01*
X63696120Y-53084465D01*
X63501535Y-52889880D01*
X63272727Y-52736995D01*
X63018490Y-52631686D01*
X62748592Y-52578000D01*
X62473408Y-52578000D01*
X62203510Y-52631686D01*
X61949273Y-52736995D01*
X61720465Y-52889880D01*
X61525880Y-53084465D01*
X61372995Y-53313273D01*
X61341000Y-53390515D01*
X61309005Y-53313273D01*
X61156120Y-53084465D01*
X60961535Y-52889880D01*
X60732727Y-52736995D01*
X60478490Y-52631686D01*
X60208592Y-52578000D01*
X59933408Y-52578000D01*
X59663510Y-52631686D01*
X59409273Y-52736995D01*
X59180465Y-52889880D01*
X58985880Y-53084465D01*
X58832995Y-53313273D01*
X58801000Y-53390515D01*
X58769005Y-53313273D01*
X58616120Y-53084465D01*
X58421535Y-52889880D01*
X58192727Y-52736995D01*
X57938490Y-52631686D01*
X57668592Y-52578000D01*
X57393408Y-52578000D01*
X57123510Y-52631686D01*
X56869273Y-52736995D01*
X56640465Y-52889880D01*
X56445880Y-53084465D01*
X56292995Y-53313273D01*
X56261000Y-53390515D01*
X56229005Y-53313273D01*
X56076120Y-53084465D01*
X55881535Y-52889880D01*
X55652727Y-52736995D01*
X55398490Y-52631686D01*
X55128592Y-52578000D01*
X54853408Y-52578000D01*
X54583510Y-52631686D01*
X54329273Y-52736995D01*
X54100465Y-52889880D01*
X53905880Y-53084465D01*
X53752995Y-53313273D01*
X53721000Y-53390515D01*
X53689005Y-53313273D01*
X53536120Y-53084465D01*
X53341535Y-52889880D01*
X53112727Y-52736995D01*
X52858490Y-52631686D01*
X52588592Y-52578000D01*
X52313408Y-52578000D01*
X52043510Y-52631686D01*
X51789273Y-52736995D01*
X51560465Y-52889880D01*
X51365880Y-53084465D01*
X51212995Y-53313273D01*
X51181000Y-53390515D01*
X51149005Y-53313273D01*
X50996120Y-53084465D01*
X50801535Y-52889880D01*
X50572727Y-52736995D01*
X50318490Y-52631686D01*
X50048592Y-52578000D01*
X49773408Y-52578000D01*
X49503510Y-52631686D01*
X49249273Y-52736995D01*
X49020465Y-52889880D01*
X48825880Y-53084465D01*
X48672995Y-53313273D01*
X48641000Y-53390515D01*
X48609005Y-53313273D01*
X48456120Y-53084465D01*
X48261535Y-52889880D01*
X48032727Y-52736995D01*
X47778490Y-52631686D01*
X47508592Y-52578000D01*
X47233408Y-52578000D01*
X46963510Y-52631686D01*
X46709273Y-52736995D01*
X46480465Y-52889880D01*
X46285880Y-53084465D01*
X46132995Y-53313273D01*
X46101000Y-53390515D01*
X46069005Y-53313273D01*
X45916120Y-53084465D01*
X45721535Y-52889880D01*
X45492727Y-52736995D01*
X45238490Y-52631686D01*
X44968592Y-52578000D01*
X44693408Y-52578000D01*
X44423510Y-52631686D01*
X44169273Y-52736995D01*
X43940465Y-52889880D01*
X43745880Y-53084465D01*
X43592995Y-53313273D01*
X43561000Y-53390515D01*
X43529005Y-53313273D01*
X43376120Y-53084465D01*
X43181535Y-52889880D01*
X42952727Y-52736995D01*
X42698490Y-52631686D01*
X42428592Y-52578000D01*
X42153408Y-52578000D01*
X41883510Y-52631686D01*
X41629273Y-52736995D01*
X41400465Y-52889880D01*
X41205880Y-53084465D01*
X41052995Y-53313273D01*
X41021000Y-53390515D01*
X40989005Y-53313273D01*
X40836120Y-53084465D01*
X40641535Y-52889880D01*
X40412727Y-52736995D01*
X40158490Y-52631686D01*
X39888592Y-52578000D01*
X39613408Y-52578000D01*
X39343510Y-52631686D01*
X39089273Y-52736995D01*
X38860465Y-52889880D01*
X38665880Y-53084465D01*
X38512995Y-53313273D01*
X38481000Y-53390515D01*
X38449005Y-53313273D01*
X38296120Y-53084465D01*
X38101535Y-52889880D01*
X37872727Y-52736995D01*
X37618490Y-52631686D01*
X37348592Y-52578000D01*
X37073408Y-52578000D01*
X36803510Y-52631686D01*
X36549273Y-52736995D01*
X36320465Y-52889880D01*
X36125880Y-53084465D01*
X35972995Y-53313273D01*
X35941000Y-53390515D01*
X35909005Y-53313273D01*
X35756120Y-53084465D01*
X35561535Y-52889880D01*
X35332727Y-52736995D01*
X35078490Y-52631686D01*
X34808592Y-52578000D01*
X34533408Y-52578000D01*
X34263510Y-52631686D01*
X34009273Y-52736995D01*
X33780465Y-52889880D01*
X33585880Y-53084465D01*
X33432995Y-53313273D01*
X33327686Y-53567510D01*
X33274000Y-53837408D01*
X33274000Y-54112592D01*
X33327686Y-54382490D01*
X33432995Y-54636727D01*
X33585880Y-54865535D01*
X33780465Y-55060120D01*
X34009273Y-55213005D01*
X34263510Y-55318314D01*
X34533408Y-55372000D01*
X34808592Y-55372000D01*
X34962571Y-55341372D01*
X37279198Y-57658000D01*
X37073408Y-57658000D01*
X36803510Y-57711686D01*
X36549273Y-57816995D01*
X36320465Y-57969880D01*
X36125880Y-58164465D01*
X35972995Y-58393273D01*
X35943308Y-58464943D01*
X35938636Y-58451977D01*
X35876656Y-58336020D01*
X35636565Y-58269040D01*
X34850605Y-59055000D01*
X35636565Y-59840960D01*
X35876656Y-59773980D01*
X35940485Y-59638240D01*
X35972995Y-59716727D01*
X36125880Y-59945535D01*
X36320465Y-60140120D01*
X36549273Y-60293005D01*
X36803510Y-60398314D01*
X37073408Y-60452000D01*
X37348592Y-60452000D01*
X37618490Y-60398314D01*
X37872727Y-60293005D01*
X38101535Y-60140120D01*
X38158077Y-60083578D01*
X48533900Y-70459402D01*
X48534391Y-70460000D01*
X23101613Y-70460000D01*
X23179001Y-70408291D01*
X23392984Y-70194308D01*
X23561109Y-69942692D01*
X23676915Y-69663110D01*
X23735953Y-69366308D01*
X23735953Y-69063692D01*
X23676915Y-68766890D01*
X23561109Y-68487308D01*
X23392984Y-68235692D01*
X23179001Y-68021709D01*
X22927385Y-67853584D01*
X22647803Y-67737778D01*
X22351001Y-67678740D01*
X22048385Y-67678740D01*
X21751583Y-67737778D01*
X21472001Y-67853584D01*
X21220385Y-68021709D01*
X21006402Y-68235692D01*
X20838277Y-68487308D01*
X20722471Y-68766890D01*
X20663433Y-69063692D01*
X20663433Y-69366308D01*
X20722471Y-69663110D01*
X20838277Y-69942692D01*
X21006402Y-70194308D01*
X21220385Y-70408291D01*
X21297773Y-70460000D01*
X20599000Y-70460000D01*
X20599000Y-60020565D01*
X33885040Y-60020565D01*
X33952020Y-60260656D01*
X34201048Y-60377756D01*
X34468135Y-60444023D01*
X34743017Y-60456910D01*
X35015133Y-60415922D01*
X35274023Y-60322636D01*
X35389980Y-60260656D01*
X35456960Y-60020565D01*
X34671000Y-59234605D01*
X33885040Y-60020565D01*
X20599000Y-60020565D01*
X20599000Y-59127017D01*
X33269090Y-59127017D01*
X33310078Y-59399133D01*
X33403364Y-59658023D01*
X33465344Y-59773980D01*
X33705435Y-59840960D01*
X34491395Y-59055000D01*
X33705435Y-58269040D01*
X33465344Y-58336020D01*
X33348244Y-58585048D01*
X33281977Y-58852135D01*
X33269090Y-59127017D01*
X20599000Y-59127017D01*
X20599000Y-58089435D01*
X33885040Y-58089435D01*
X34671000Y-58875395D01*
X35456960Y-58089435D01*
X35389980Y-57849344D01*
X35140952Y-57732244D01*
X34873865Y-57665977D01*
X34598983Y-57653090D01*
X34326867Y-57694078D01*
X34067977Y-57787364D01*
X33952020Y-57849344D01*
X33885040Y-58089435D01*
X20599000Y-58089435D01*
X20599000Y-49779662D01*
X176784500Y-49779662D01*
X176784500Y-50042338D01*
X176835746Y-50299968D01*
X176936268Y-50542649D01*
X177082203Y-50761057D01*
X177267943Y-50946797D01*
X177486351Y-51092732D01*
X177729032Y-51193254D01*
X177986662Y-51244500D01*
X178249338Y-51244500D01*
X178506968Y-51193254D01*
X178749649Y-51092732D01*
X178968057Y-50946797D01*
X179153797Y-50761057D01*
X179299732Y-50542649D01*
X179400254Y-50299968D01*
X179451500Y-50042338D01*
X179451500Y-49779662D01*
X179400254Y-49522032D01*
X179299732Y-49279351D01*
X179153797Y-49060943D01*
X178968057Y-48875203D01*
X178749649Y-48729268D01*
X178506968Y-48628746D01*
X178249338Y-48577500D01*
X177986662Y-48577500D01*
X177729032Y-48628746D01*
X177486351Y-48729268D01*
X177267943Y-48875203D01*
X177082203Y-49060943D01*
X176936268Y-49279351D01*
X176835746Y-49522032D01*
X176784500Y-49779662D01*
X20599000Y-49779662D01*
X20599000Y-46887985D01*
X20869831Y-46887959D01*
X20863584Y-46897308D01*
X20747778Y-47176890D01*
X20688740Y-47473692D01*
X20688740Y-47776308D01*
X20747778Y-48073110D01*
X20863584Y-48352692D01*
X21031709Y-48604308D01*
X21245692Y-48818291D01*
X21497308Y-48986416D01*
X21776890Y-49102222D01*
X22073692Y-49161260D01*
X22376308Y-49161260D01*
X22673110Y-49102222D01*
X22952692Y-48986416D01*
X23204308Y-48818291D01*
X23418291Y-48604308D01*
X23586416Y-48352692D01*
X23702222Y-48073110D01*
X23761260Y-47776308D01*
X23761260Y-47473692D01*
X23702222Y-47176890D01*
X23586416Y-46897308D01*
X23579994Y-46887697D01*
X179655390Y-46872615D01*
X179638891Y-46897308D01*
G36*
X176916441Y-83503875D02*
G01*
X176854289Y-83759093D01*
X176843124Y-84021533D01*
X176883371Y-84281107D01*
X176973486Y-84527842D01*
X177027188Y-84628314D01*
X177260803Y-84687592D01*
X178001395Y-83947000D01*
X177987253Y-83932858D01*
X178166858Y-83753253D01*
X178181000Y-83767395D01*
X178195143Y-83753253D01*
X178374748Y-83932858D01*
X178360605Y-83947000D01*
X178374748Y-83961143D01*
X178195143Y-84140748D01*
X178181000Y-84126605D01*
X177440408Y-84867197D01*
X177484851Y-85042347D01*
X173321399Y-89205800D01*
X161272001Y-89205800D01*
X167012903Y-83464900D01*
X176934563Y-83464900D01*
X176916441Y-83503875D01*
G37*
X176916441Y-83503875D02*
X176854289Y-83759093D01*
X176843124Y-84021533D01*
X176883371Y-84281107D01*
X176973486Y-84527842D01*
X177027188Y-84628314D01*
X177260803Y-84687592D01*
X178001395Y-83947000D01*
X177987253Y-83932858D01*
X178166858Y-83753253D01*
X178181000Y-83767395D01*
X178195143Y-83753253D01*
X178374748Y-83932858D01*
X178360605Y-83947000D01*
X178374748Y-83961143D01*
X178195143Y-84140748D01*
X178181000Y-84126605D01*
X177440408Y-84867197D01*
X177484851Y-85042347D01*
X173321399Y-89205800D01*
X161272001Y-89205800D01*
X167012903Y-83464900D01*
X176934563Y-83464900D01*
X176916441Y-83503875D01*
G36*
X140112995Y-72162727D02*
G01*
X140265880Y-72391535D01*
X140460465Y-72586120D01*
X140689273Y-72739005D01*
X140943510Y-72844314D01*
X141213408Y-72898000D01*
X141488592Y-72898000D01*
X141686000Y-72858733D01*
X141686000Y-75224761D01*
X141553865Y-75191977D01*
X141278983Y-75179090D01*
X141006867Y-75220078D01*
X140747977Y-75313364D01*
X140632020Y-75375344D01*
X140565040Y-75615435D01*
X141351000Y-76401395D01*
X141365143Y-76387253D01*
X141544748Y-76566858D01*
X141530605Y-76581000D01*
X142316565Y-77366960D01*
X142556656Y-77299980D01*
X142620485Y-77164240D01*
X142652995Y-77242727D01*
X142805880Y-77471535D01*
X143000465Y-77666120D01*
X143229273Y-77819005D01*
X143483510Y-77924314D01*
X143753408Y-77978000D01*
X144028592Y-77978000D01*
X144298490Y-77924314D01*
X144552727Y-77819005D01*
X144781535Y-77666120D01*
X144976120Y-77471535D01*
X145129005Y-77242727D01*
X145161000Y-77165485D01*
X145192995Y-77242727D01*
X145345880Y-77471535D01*
X145540465Y-77666120D01*
X145769273Y-77819005D01*
X145884800Y-77866858D01*
X145884800Y-78057139D01*
X145924574Y-78257098D01*
X146002595Y-78445456D01*
X146115863Y-78614974D01*
X146260026Y-78759137D01*
X146429544Y-78872405D01*
X146617902Y-78950426D01*
X146817861Y-78990200D01*
X147021739Y-78990200D01*
X147221698Y-78950426D01*
X147410056Y-78872405D01*
X147579574Y-78759137D01*
X147723737Y-78614974D01*
X147837005Y-78445456D01*
X147897231Y-78300058D01*
X148358071Y-77839218D01*
X148563510Y-77924314D01*
X148833408Y-77978000D01*
X149108592Y-77978000D01*
X149378490Y-77924314D01*
X149632727Y-77819005D01*
X149861535Y-77666120D01*
X150056120Y-77471535D01*
X150209005Y-77242727D01*
X150241000Y-77165485D01*
X150272995Y-77242727D01*
X150425880Y-77471535D01*
X150620465Y-77666120D01*
X150849273Y-77819005D01*
X151103510Y-77924314D01*
X151373408Y-77978000D01*
X151648592Y-77978000D01*
X151918490Y-77924314D01*
X152172727Y-77819005D01*
X152401535Y-77666120D01*
X152596120Y-77471535D01*
X152749005Y-77242727D01*
X152781000Y-77165485D01*
X152812995Y-77242727D01*
X152965880Y-77471535D01*
X153160465Y-77666120D01*
X153389273Y-77819005D01*
X153643510Y-77924314D01*
X153913408Y-77978000D01*
X154188592Y-77978000D01*
X154458490Y-77924314D01*
X154712727Y-77819005D01*
X154941535Y-77666120D01*
X155136120Y-77471535D01*
X155289005Y-77242727D01*
X155321000Y-77165485D01*
X155352995Y-77242727D01*
X155505880Y-77471535D01*
X155700465Y-77666120D01*
X155929273Y-77819005D01*
X156183510Y-77924314D01*
X156453408Y-77978000D01*
X156728592Y-77978000D01*
X156998490Y-77924314D01*
X157252727Y-77819005D01*
X157481535Y-77666120D01*
X157676120Y-77471535D01*
X157829005Y-77242727D01*
X157861000Y-77165485D01*
X157892995Y-77242727D01*
X158045880Y-77471535D01*
X158240465Y-77666120D01*
X158469273Y-77819005D01*
X158723510Y-77924314D01*
X158993408Y-77978000D01*
X159205711Y-77978000D01*
X160296270Y-79068559D01*
X160325556Y-79104244D01*
X160467928Y-79221086D01*
X160572157Y-79276797D01*
X160630359Y-79307907D01*
X160806608Y-79361372D01*
X160989900Y-79379424D01*
X161035835Y-79374900D01*
X165978205Y-79374900D01*
X166123602Y-79435126D01*
X166323561Y-79474900D01*
X166527439Y-79474900D01*
X166727398Y-79435126D01*
X166915756Y-79357105D01*
X167085274Y-79243837D01*
X167229437Y-79099674D01*
X167342705Y-78930156D01*
X167420726Y-78741798D01*
X167460500Y-78541839D01*
X167460500Y-78337961D01*
X167420726Y-78138002D01*
X167342705Y-77949644D01*
X167229437Y-77780126D01*
X167085274Y-77635963D01*
X166915756Y-77522695D01*
X166727398Y-77444674D01*
X166527439Y-77404900D01*
X166323561Y-77404900D01*
X166123602Y-77444674D01*
X165978205Y-77504900D01*
X165271446Y-77504900D01*
X165292977Y-77483369D01*
X165176567Y-77366959D01*
X165416656Y-77299980D01*
X165533756Y-77050952D01*
X165600023Y-76783865D01*
X165612910Y-76508983D01*
X165573298Y-76246000D01*
X176940802Y-76246000D01*
X176999268Y-76387149D01*
X177145203Y-76605557D01*
X177330943Y-76791297D01*
X177549351Y-76937232D01*
X177792032Y-77037754D01*
X178049662Y-77089000D01*
X178312338Y-77089000D01*
X178444900Y-77062632D01*
X178444901Y-79523849D01*
X178308000Y-79660750D01*
X178308000Y-80708500D01*
X178328000Y-80708500D01*
X178328000Y-80962500D01*
X178308000Y-80962500D01*
X178308000Y-80982500D01*
X178054000Y-80982500D01*
X178054000Y-80962500D01*
X177006250Y-80962500D01*
X176847500Y-81121250D01*
X176844722Y-81494500D01*
X165962623Y-81494500D01*
X165925300Y-81490824D01*
X165887977Y-81494500D01*
X165887967Y-81494500D01*
X165776314Y-81505497D01*
X165643932Y-81545654D01*
X165633053Y-81548954D01*
X165501023Y-81619526D01*
X165459073Y-81653954D01*
X165385299Y-81714499D01*
X165361501Y-81743497D01*
X159663000Y-87441999D01*
X159663000Y-87293240D01*
X159605932Y-87006342D01*
X159493990Y-86736089D01*
X159331475Y-86492868D01*
X159124632Y-86286025D01*
X158950240Y-86169500D01*
X159124632Y-86052975D01*
X159331475Y-85846132D01*
X159493990Y-85602911D01*
X159605932Y-85332658D01*
X159663000Y-85045760D01*
X159663000Y-84753240D01*
X159605932Y-84466342D01*
X159493990Y-84196089D01*
X159331475Y-83952868D01*
X159199620Y-83821013D01*
X159272180Y-83799002D01*
X159382494Y-83740037D01*
X159479185Y-83660685D01*
X159558537Y-83563994D01*
X159617502Y-83453680D01*
X159653812Y-83333982D01*
X159666072Y-83209500D01*
X159666072Y-81509500D01*
X159653812Y-81385018D01*
X159617502Y-81265320D01*
X159558537Y-81155006D01*
X159479185Y-81058315D01*
X159382494Y-80978963D01*
X159272180Y-80919998D01*
X159152482Y-80883688D01*
X159028000Y-80871428D01*
X157328000Y-80871428D01*
X157203518Y-80883688D01*
X157083820Y-80919998D01*
X156973506Y-80978963D01*
X156876815Y-81058315D01*
X156797463Y-81155006D01*
X156738498Y-81265320D01*
X156702188Y-81385018D01*
X156689928Y-81509500D01*
X156689928Y-81599500D01*
X132901902Y-81599500D01*
X131439402Y-80137000D01*
X176844428Y-80137000D01*
X176847500Y-80549750D01*
X177006250Y-80708500D01*
X178054000Y-80708500D01*
X178054000Y-79660750D01*
X177895250Y-79502000D01*
X177482500Y-79498928D01*
X177358018Y-79511188D01*
X177238320Y-79547498D01*
X177128006Y-79606463D01*
X177031315Y-79685815D01*
X176951963Y-79782506D01*
X176892998Y-79892820D01*
X176856688Y-80012518D01*
X176844428Y-80137000D01*
X131439402Y-80137000D01*
X130253706Y-78951305D01*
X130312537Y-78892474D01*
X130425805Y-78722956D01*
X130503826Y-78534598D01*
X130543600Y-78334639D01*
X130543600Y-78259654D01*
X130555974Y-78244576D01*
X130626546Y-78112547D01*
X130670003Y-77969286D01*
X130678708Y-77880903D01*
X130783510Y-77924314D01*
X131006619Y-77968693D01*
X130952974Y-78098202D01*
X130913200Y-78298161D01*
X130913200Y-78502039D01*
X130952974Y-78701998D01*
X131030995Y-78890356D01*
X131144263Y-79059874D01*
X131288426Y-79204037D01*
X131457944Y-79317305D01*
X131646302Y-79395326D01*
X131846261Y-79435100D01*
X132050139Y-79435100D01*
X132250098Y-79395326D01*
X132438456Y-79317305D01*
X132607974Y-79204037D01*
X132752137Y-79059874D01*
X132865405Y-78890356D01*
X132943426Y-78701998D01*
X132983200Y-78502039D01*
X132983200Y-78441910D01*
X133001001Y-78427301D01*
X133095974Y-78311576D01*
X133166546Y-78179547D01*
X133210003Y-78036286D01*
X133221000Y-77924633D01*
X133221000Y-77924625D01*
X133224676Y-77887300D01*
X133224273Y-77883208D01*
X133323510Y-77924314D01*
X133593408Y-77978000D01*
X133868592Y-77978000D01*
X134138490Y-77924314D01*
X134392727Y-77819005D01*
X134621535Y-77666120D01*
X134816120Y-77471535D01*
X134969005Y-77242727D01*
X135001000Y-77165485D01*
X135032995Y-77242727D01*
X135185880Y-77471535D01*
X135380465Y-77666120D01*
X135609273Y-77819005D01*
X135863510Y-77924314D01*
X136133408Y-77978000D01*
X136408592Y-77978000D01*
X136678490Y-77924314D01*
X136932727Y-77819005D01*
X136963601Y-77798376D01*
X136963601Y-77959868D01*
X136959924Y-77997200D01*
X136963601Y-78034533D01*
X136967658Y-78075723D01*
X136951300Y-78157961D01*
X136951300Y-78361839D01*
X136991074Y-78561798D01*
X137069095Y-78750156D01*
X137182363Y-78919674D01*
X137326526Y-79063837D01*
X137496044Y-79177105D01*
X137684402Y-79255126D01*
X137884361Y-79294900D01*
X138088239Y-79294900D01*
X138288198Y-79255126D01*
X138476556Y-79177105D01*
X138646074Y-79063837D01*
X138790237Y-78919674D01*
X138903505Y-78750156D01*
X138981526Y-78561798D01*
X139021300Y-78361839D01*
X139021300Y-78157961D01*
X138984099Y-77970937D01*
X139218490Y-77924314D01*
X139472727Y-77819005D01*
X139701535Y-77666120D01*
X139821090Y-77546565D01*
X140565040Y-77546565D01*
X140632020Y-77786656D01*
X140881048Y-77903756D01*
X141148135Y-77970023D01*
X141423017Y-77982910D01*
X141695133Y-77941922D01*
X141954023Y-77848636D01*
X142069980Y-77786656D01*
X142136960Y-77546565D01*
X141351000Y-76760605D01*
X140565040Y-77546565D01*
X139821090Y-77546565D01*
X139896120Y-77471535D01*
X140049005Y-77242727D01*
X140078692Y-77171057D01*
X140083364Y-77184023D01*
X140145344Y-77299980D01*
X140385435Y-77366960D01*
X141171395Y-76581000D01*
X140385435Y-75795040D01*
X140145344Y-75862020D01*
X140081515Y-75997760D01*
X140049005Y-75919273D01*
X139896120Y-75690465D01*
X139701535Y-75495880D01*
X139472727Y-75342995D01*
X139218490Y-75237686D01*
X138948592Y-75184000D01*
X138673408Y-75184000D01*
X138483600Y-75221755D01*
X138483600Y-72903201D01*
X138519429Y-72867372D01*
X138673408Y-72898000D01*
X138948592Y-72898000D01*
X139218490Y-72844314D01*
X139472727Y-72739005D01*
X139701535Y-72586120D01*
X139896120Y-72391535D01*
X140049005Y-72162727D01*
X140081000Y-72085485D01*
X140112995Y-72162727D01*
G37*
X140112995Y-72162727D02*
X140265880Y-72391535D01*
X140460465Y-72586120D01*
X140689273Y-72739005D01*
X140943510Y-72844314D01*
X141213408Y-72898000D01*
X141488592Y-72898000D01*
X141686000Y-72858733D01*
X141686000Y-75224761D01*
X141553865Y-75191977D01*
X141278983Y-75179090D01*
X141006867Y-75220078D01*
X140747977Y-75313364D01*
X140632020Y-75375344D01*
X140565040Y-75615435D01*
X141351000Y-76401395D01*
X141365143Y-76387253D01*
X141544748Y-76566858D01*
X141530605Y-76581000D01*
X142316565Y-77366960D01*
X142556656Y-77299980D01*
X142620485Y-77164240D01*
X142652995Y-77242727D01*
X142805880Y-77471535D01*
X143000465Y-77666120D01*
X143229273Y-77819005D01*
X143483510Y-77924314D01*
X143753408Y-77978000D01*
X144028592Y-77978000D01*
X144298490Y-77924314D01*
X144552727Y-77819005D01*
X144781535Y-77666120D01*
X144976120Y-77471535D01*
X145129005Y-77242727D01*
X145161000Y-77165485D01*
X145192995Y-77242727D01*
X145345880Y-77471535D01*
X145540465Y-77666120D01*
X145769273Y-77819005D01*
X145884800Y-77866858D01*
X145884800Y-78057139D01*
X145924574Y-78257098D01*
X146002595Y-78445456D01*
X146115863Y-78614974D01*
X146260026Y-78759137D01*
X146429544Y-78872405D01*
X146617902Y-78950426D01*
X146817861Y-78990200D01*
X147021739Y-78990200D01*
X147221698Y-78950426D01*
X147410056Y-78872405D01*
X147579574Y-78759137D01*
X147723737Y-78614974D01*
X147837005Y-78445456D01*
X147897231Y-78300058D01*
X148358071Y-77839218D01*
X148563510Y-77924314D01*
X148833408Y-77978000D01*
X149108592Y-77978000D01*
X149378490Y-77924314D01*
X149632727Y-77819005D01*
X149861535Y-77666120D01*
X150056120Y-77471535D01*
X150209005Y-77242727D01*
X150241000Y-77165485D01*
X150272995Y-77242727D01*
X150425880Y-77471535D01*
X150620465Y-77666120D01*
X150849273Y-77819005D01*
X151103510Y-77924314D01*
X151373408Y-77978000D01*
X151648592Y-77978000D01*
X151918490Y-77924314D01*
X152172727Y-77819005D01*
X152401535Y-77666120D01*
X152596120Y-77471535D01*
X152749005Y-77242727D01*
X152781000Y-77165485D01*
X152812995Y-77242727D01*
X152965880Y-77471535D01*
X153160465Y-77666120D01*
X153389273Y-77819005D01*
X153643510Y-77924314D01*
X153913408Y-77978000D01*
X154188592Y-77978000D01*
X154458490Y-77924314D01*
X154712727Y-77819005D01*
X154941535Y-77666120D01*
X155136120Y-77471535D01*
X155289005Y-77242727D01*
X155321000Y-77165485D01*
X155352995Y-77242727D01*
X155505880Y-77471535D01*
X155700465Y-77666120D01*
X155929273Y-77819005D01*
X156183510Y-77924314D01*
X156453408Y-77978000D01*
X156728592Y-77978000D01*
X156998490Y-77924314D01*
X157252727Y-77819005D01*
X157481535Y-77666120D01*
X157676120Y-77471535D01*
X157829005Y-77242727D01*
X157861000Y-77165485D01*
X157892995Y-77242727D01*
X158045880Y-77471535D01*
X158240465Y-77666120D01*
X158469273Y-77819005D01*
X158723510Y-77924314D01*
X158993408Y-77978000D01*
X159205711Y-77978000D01*
X160296270Y-79068559D01*
X160325556Y-79104244D01*
X160467928Y-79221086D01*
X160572157Y-79276797D01*
X160630359Y-79307907D01*
X160806608Y-79361372D01*
X160989900Y-79379424D01*
X161035835Y-79374900D01*
X165978205Y-79374900D01*
X166123602Y-79435126D01*
X166323561Y-79474900D01*
X166527439Y-79474900D01*
X166727398Y-79435126D01*
X166915756Y-79357105D01*
X167085274Y-79243837D01*
X167229437Y-79099674D01*
X167342705Y-78930156D01*
X167420726Y-78741798D01*
X167460500Y-78541839D01*
X167460500Y-78337961D01*
X167420726Y-78138002D01*
X167342705Y-77949644D01*
X167229437Y-77780126D01*
X167085274Y-77635963D01*
X166915756Y-77522695D01*
X166727398Y-77444674D01*
X166527439Y-77404900D01*
X166323561Y-77404900D01*
X166123602Y-77444674D01*
X165978205Y-77504900D01*
X165271446Y-77504900D01*
X165292977Y-77483369D01*
X165176567Y-77366959D01*
X165416656Y-77299980D01*
X165533756Y-77050952D01*
X165600023Y-76783865D01*
X165612910Y-76508983D01*
X165573298Y-76246000D01*
X176940802Y-76246000D01*
X176999268Y-76387149D01*
X177145203Y-76605557D01*
X177330943Y-76791297D01*
X177549351Y-76937232D01*
X177792032Y-77037754D01*
X178049662Y-77089000D01*
X178312338Y-77089000D01*
X178444900Y-77062632D01*
X178444901Y-79523849D01*
X178308000Y-79660750D01*
X178308000Y-80708500D01*
X178328000Y-80708500D01*
X178328000Y-80962500D01*
X178308000Y-80962500D01*
X178308000Y-80982500D01*
X178054000Y-80982500D01*
X178054000Y-80962500D01*
X177006250Y-80962500D01*
X176847500Y-81121250D01*
X176844722Y-81494500D01*
X165962623Y-81494500D01*
X165925300Y-81490824D01*
X165887977Y-81494500D01*
X165887967Y-81494500D01*
X165776314Y-81505497D01*
X165643932Y-81545654D01*
X165633053Y-81548954D01*
X165501023Y-81619526D01*
X165459073Y-81653954D01*
X165385299Y-81714499D01*
X165361501Y-81743497D01*
X159663000Y-87441999D01*
X159663000Y-87293240D01*
X159605932Y-87006342D01*
X159493990Y-86736089D01*
X159331475Y-86492868D01*
X159124632Y-86286025D01*
X158950240Y-86169500D01*
X159124632Y-86052975D01*
X159331475Y-85846132D01*
X159493990Y-85602911D01*
X159605932Y-85332658D01*
X159663000Y-85045760D01*
X159663000Y-84753240D01*
X159605932Y-84466342D01*
X159493990Y-84196089D01*
X159331475Y-83952868D01*
X159199620Y-83821013D01*
X159272180Y-83799002D01*
X159382494Y-83740037D01*
X159479185Y-83660685D01*
X159558537Y-83563994D01*
X159617502Y-83453680D01*
X159653812Y-83333982D01*
X159666072Y-83209500D01*
X159666072Y-81509500D01*
X159653812Y-81385018D01*
X159617502Y-81265320D01*
X159558537Y-81155006D01*
X159479185Y-81058315D01*
X159382494Y-80978963D01*
X159272180Y-80919998D01*
X159152482Y-80883688D01*
X159028000Y-80871428D01*
X157328000Y-80871428D01*
X157203518Y-80883688D01*
X157083820Y-80919998D01*
X156973506Y-80978963D01*
X156876815Y-81058315D01*
X156797463Y-81155006D01*
X156738498Y-81265320D01*
X156702188Y-81385018D01*
X156689928Y-81509500D01*
X156689928Y-81599500D01*
X132901902Y-81599500D01*
X131439402Y-80137000D01*
X176844428Y-80137000D01*
X176847500Y-80549750D01*
X177006250Y-80708500D01*
X178054000Y-80708500D01*
X178054000Y-79660750D01*
X177895250Y-79502000D01*
X177482500Y-79498928D01*
X177358018Y-79511188D01*
X177238320Y-79547498D01*
X177128006Y-79606463D01*
X177031315Y-79685815D01*
X176951963Y-79782506D01*
X176892998Y-79892820D01*
X176856688Y-80012518D01*
X176844428Y-80137000D01*
X131439402Y-80137000D01*
X130253706Y-78951305D01*
X130312537Y-78892474D01*
X130425805Y-78722956D01*
X130503826Y-78534598D01*
X130543600Y-78334639D01*
X130543600Y-78259654D01*
X130555974Y-78244576D01*
X130626546Y-78112547D01*
X130670003Y-77969286D01*
X130678708Y-77880903D01*
X130783510Y-77924314D01*
X131006619Y-77968693D01*
X130952974Y-78098202D01*
X130913200Y-78298161D01*
X130913200Y-78502039D01*
X130952974Y-78701998D01*
X131030995Y-78890356D01*
X131144263Y-79059874D01*
X131288426Y-79204037D01*
X131457944Y-79317305D01*
X131646302Y-79395326D01*
X131846261Y-79435100D01*
X132050139Y-79435100D01*
X132250098Y-79395326D01*
X132438456Y-79317305D01*
X132607974Y-79204037D01*
X132752137Y-79059874D01*
X132865405Y-78890356D01*
X132943426Y-78701998D01*
X132983200Y-78502039D01*
X132983200Y-78441910D01*
X133001001Y-78427301D01*
X133095974Y-78311576D01*
X133166546Y-78179547D01*
X133210003Y-78036286D01*
X133221000Y-77924633D01*
X133221000Y-77924625D01*
X133224676Y-77887300D01*
X133224273Y-77883208D01*
X133323510Y-77924314D01*
X133593408Y-77978000D01*
X133868592Y-77978000D01*
X134138490Y-77924314D01*
X134392727Y-77819005D01*
X134621535Y-77666120D01*
X134816120Y-77471535D01*
X134969005Y-77242727D01*
X135001000Y-77165485D01*
X135032995Y-77242727D01*
X135185880Y-77471535D01*
X135380465Y-77666120D01*
X135609273Y-77819005D01*
X135863510Y-77924314D01*
X136133408Y-77978000D01*
X136408592Y-77978000D01*
X136678490Y-77924314D01*
X136932727Y-77819005D01*
X136963601Y-77798376D01*
X136963601Y-77959868D01*
X136959924Y-77997200D01*
X136963601Y-78034533D01*
X136967658Y-78075723D01*
X136951300Y-78157961D01*
X136951300Y-78361839D01*
X136991074Y-78561798D01*
X137069095Y-78750156D01*
X137182363Y-78919674D01*
X137326526Y-79063837D01*
X137496044Y-79177105D01*
X137684402Y-79255126D01*
X137884361Y-79294900D01*
X138088239Y-79294900D01*
X138288198Y-79255126D01*
X138476556Y-79177105D01*
X138646074Y-79063837D01*
X138790237Y-78919674D01*
X138903505Y-78750156D01*
X138981526Y-78561798D01*
X139021300Y-78361839D01*
X139021300Y-78157961D01*
X138984099Y-77970937D01*
X139218490Y-77924314D01*
X139472727Y-77819005D01*
X139701535Y-77666120D01*
X139821090Y-77546565D01*
X140565040Y-77546565D01*
X140632020Y-77786656D01*
X140881048Y-77903756D01*
X141148135Y-77970023D01*
X141423017Y-77982910D01*
X141695133Y-77941922D01*
X141954023Y-77848636D01*
X142069980Y-77786656D01*
X142136960Y-77546565D01*
X141351000Y-76760605D01*
X140565040Y-77546565D01*
X139821090Y-77546565D01*
X139896120Y-77471535D01*
X140049005Y-77242727D01*
X140078692Y-77171057D01*
X140083364Y-77184023D01*
X140145344Y-77299980D01*
X140385435Y-77366960D01*
X141171395Y-76581000D01*
X140385435Y-75795040D01*
X140145344Y-75862020D01*
X140081515Y-75997760D01*
X140049005Y-75919273D01*
X139896120Y-75690465D01*
X139701535Y-75495880D01*
X139472727Y-75342995D01*
X139218490Y-75237686D01*
X138948592Y-75184000D01*
X138673408Y-75184000D01*
X138483600Y-75221755D01*
X138483600Y-72903201D01*
X138519429Y-72867372D01*
X138673408Y-72898000D01*
X138948592Y-72898000D01*
X139218490Y-72844314D01*
X139472727Y-72739005D01*
X139701535Y-72586120D01*
X139896120Y-72391535D01*
X140049005Y-72162727D01*
X140081000Y-72085485D01*
X140112995Y-72162727D01*
G36*
X99472995Y-59716727D02*
G01*
X99625880Y-59945535D01*
X99820465Y-60140120D01*
X100049273Y-60293005D01*
X100303510Y-60398314D01*
X100573408Y-60452000D01*
X100848592Y-60452000D01*
X101118490Y-60398314D01*
X101372727Y-60293005D01*
X101385301Y-60284604D01*
X101385300Y-67389500D01*
X89845922Y-67389500D01*
X89808599Y-67385824D01*
X89771276Y-67389500D01*
X89771267Y-67389500D01*
X89659614Y-67400497D01*
X89539278Y-67437000D01*
X89516353Y-67443954D01*
X89384323Y-67514526D01*
X89321238Y-67566299D01*
X89268599Y-67609499D01*
X89244801Y-67638497D01*
X86394803Y-70488496D01*
X86365799Y-70512299D01*
X86315827Y-70573191D01*
X86270826Y-70628024D01*
X86205226Y-70750753D01*
X86200254Y-70760054D01*
X86156797Y-70903315D01*
X86145800Y-71014968D01*
X86145800Y-71014978D01*
X86142124Y-71052300D01*
X86145800Y-71089623D01*
X86145801Y-71942668D01*
X86142124Y-71980000D01*
X86145801Y-72017333D01*
X86156798Y-72128986D01*
X86163987Y-72152685D01*
X86200254Y-72272246D01*
X86270826Y-72404276D01*
X86326650Y-72472297D01*
X86365800Y-72520001D01*
X86394798Y-72543799D01*
X88974700Y-75123702D01*
X88998499Y-75152701D01*
X89027497Y-75176499D01*
X89114223Y-75247674D01*
X89237774Y-75313714D01*
X89246253Y-75318246D01*
X89389514Y-75361703D01*
X89501167Y-75372700D01*
X89501176Y-75372700D01*
X89538499Y-75376376D01*
X89575822Y-75372700D01*
X89844816Y-75372700D01*
X89660465Y-75495880D01*
X89465880Y-75690465D01*
X89312995Y-75919273D01*
X89283308Y-75990943D01*
X89278636Y-75977977D01*
X89216656Y-75862020D01*
X88976565Y-75795040D01*
X88190605Y-76581000D01*
X88976565Y-77366960D01*
X89216656Y-77299980D01*
X89280485Y-77164240D01*
X89312995Y-77242727D01*
X89465880Y-77471535D01*
X89660465Y-77666120D01*
X89889273Y-77819005D01*
X90143510Y-77924314D01*
X90413408Y-77978000D01*
X90688592Y-77978000D01*
X90958490Y-77924314D01*
X91212727Y-77819005D01*
X91441535Y-77666120D01*
X91636120Y-77471535D01*
X91789005Y-77242727D01*
X91821000Y-77165485D01*
X91852995Y-77242727D01*
X92005880Y-77471535D01*
X92200465Y-77666120D01*
X92429273Y-77819005D01*
X92683510Y-77924314D01*
X92953408Y-77978000D01*
X93228592Y-77978000D01*
X93498490Y-77924314D01*
X93752727Y-77819005D01*
X93981535Y-77666120D01*
X94039127Y-77608528D01*
X94928100Y-78497502D01*
X94951899Y-78526501D01*
X94980897Y-78550299D01*
X95014041Y-78577500D01*
X89474202Y-78577500D01*
X88699597Y-77802896D01*
X88729980Y-77786656D01*
X88796960Y-77546565D01*
X88011000Y-76760605D01*
X87996858Y-76774748D01*
X87817253Y-76595143D01*
X87831395Y-76581000D01*
X87817253Y-76566858D01*
X87996858Y-76387253D01*
X88011000Y-76401395D01*
X88796960Y-75615435D01*
X88729980Y-75375344D01*
X88480952Y-75258244D01*
X88213865Y-75191977D01*
X87938983Y-75179090D01*
X87666867Y-75220078D01*
X87454506Y-75296598D01*
X87452699Y-75294396D01*
X87452695Y-75294392D01*
X87428901Y-75265399D01*
X87399909Y-75241606D01*
X86152503Y-73994202D01*
X86128701Y-73965199D01*
X86012976Y-73870226D01*
X85880947Y-73799654D01*
X85737686Y-73756197D01*
X85626033Y-73745200D01*
X85626022Y-73745200D01*
X85588700Y-73741524D01*
X85551378Y-73745200D01*
X69732902Y-73745200D01*
X64062773Y-68075072D01*
X64262000Y-68075072D01*
X64386482Y-68062812D01*
X64506180Y-68026502D01*
X64616494Y-67967537D01*
X64713185Y-67888185D01*
X64792537Y-67791494D01*
X64851502Y-67681180D01*
X64855236Y-67668870D01*
X64945592Y-67659971D01*
X64949791Y-67658697D01*
X67902908Y-67658697D01*
X67962186Y-67892312D01*
X68200375Y-68003059D01*
X68455593Y-68065211D01*
X68718033Y-68076376D01*
X68977607Y-68036129D01*
X69224342Y-67946014D01*
X69324814Y-67892312D01*
X69351866Y-67785697D01*
X71141408Y-67785697D01*
X71200686Y-68019312D01*
X71438875Y-68130059D01*
X71694093Y-68192211D01*
X71956533Y-68203376D01*
X72216107Y-68163129D01*
X72462842Y-68073014D01*
X72563314Y-68019312D01*
X72622592Y-67785697D01*
X71882000Y-67045105D01*
X71141408Y-67785697D01*
X69351866Y-67785697D01*
X69384092Y-67658697D01*
X68643500Y-66918105D01*
X67902908Y-67658697D01*
X64949791Y-67658697D01*
X65121840Y-67606507D01*
X65284272Y-67519686D01*
X65426644Y-67402844D01*
X65455930Y-67367159D01*
X66348390Y-66474700D01*
X67335271Y-66474700D01*
X67316789Y-66550593D01*
X67305624Y-66813033D01*
X67345871Y-67072607D01*
X67435986Y-67319342D01*
X67489688Y-67419814D01*
X67723303Y-67479092D01*
X68463895Y-66738500D01*
X68449753Y-66724358D01*
X68629358Y-66544753D01*
X68643500Y-66558895D01*
X68657643Y-66544753D01*
X68837248Y-66724358D01*
X68823105Y-66738500D01*
X69563697Y-67479092D01*
X69797312Y-67419814D01*
X69908059Y-67181625D01*
X69970211Y-66926407D01*
X69981376Y-66663967D01*
X69952030Y-66474700D01*
X70604699Y-66474700D01*
X70555289Y-66677593D01*
X70544124Y-66940033D01*
X70584371Y-67199607D01*
X70674486Y-67446342D01*
X70728188Y-67546814D01*
X70961803Y-67606092D01*
X71702395Y-66865500D01*
X71688253Y-66851358D01*
X71867858Y-66671753D01*
X71882000Y-66685895D01*
X71896143Y-66671753D01*
X72075748Y-66851358D01*
X72061605Y-66865500D01*
X72802197Y-67606092D01*
X73035812Y-67546814D01*
X73146559Y-67308625D01*
X73208711Y-67053407D01*
X73219876Y-66790967D01*
X73179629Y-66531393D01*
X73158923Y-66474700D01*
X75625428Y-66474700D01*
X75625428Y-67564000D01*
X75637688Y-67688482D01*
X75673998Y-67808180D01*
X75732963Y-67918494D01*
X75812315Y-68015185D01*
X75909006Y-68094537D01*
X76019320Y-68153502D01*
X76139018Y-68189812D01*
X76263500Y-68202072D01*
X77660500Y-68202072D01*
X77784982Y-68189812D01*
X77904680Y-68153502D01*
X78014994Y-68094537D01*
X78111685Y-68015185D01*
X78191037Y-67918494D01*
X78250002Y-67808180D01*
X78252332Y-67800500D01*
X87086868Y-67800500D01*
X87132800Y-67805024D01*
X87178732Y-67800500D01*
X87316092Y-67786971D01*
X87492340Y-67733507D01*
X87654772Y-67646686D01*
X87797144Y-67529844D01*
X87826430Y-67494159D01*
X94989665Y-60330925D01*
X95013532Y-60311338D01*
X95223510Y-60398314D01*
X95493408Y-60452000D01*
X95768592Y-60452000D01*
X96038490Y-60398314D01*
X96292727Y-60293005D01*
X96521535Y-60140120D01*
X96716120Y-59945535D01*
X96869005Y-59716727D01*
X96901000Y-59639485D01*
X96932995Y-59716727D01*
X97085880Y-59945535D01*
X97280465Y-60140120D01*
X97509273Y-60293005D01*
X97763510Y-60398314D01*
X98033408Y-60452000D01*
X98308592Y-60452000D01*
X98578490Y-60398314D01*
X98832727Y-60293005D01*
X99061535Y-60140120D01*
X99256120Y-59945535D01*
X99409005Y-59716727D01*
X99441000Y-59639485D01*
X99472995Y-59716727D01*
G37*
X99472995Y-59716727D02*
X99625880Y-59945535D01*
X99820465Y-60140120D01*
X100049273Y-60293005D01*
X100303510Y-60398314D01*
X100573408Y-60452000D01*
X100848592Y-60452000D01*
X101118490Y-60398314D01*
X101372727Y-60293005D01*
X101385301Y-60284604D01*
X101385300Y-67389500D01*
X89845922Y-67389500D01*
X89808599Y-67385824D01*
X89771276Y-67389500D01*
X89771267Y-67389500D01*
X89659614Y-67400497D01*
X89539278Y-67437000D01*
X89516353Y-67443954D01*
X89384323Y-67514526D01*
X89321238Y-67566299D01*
X89268599Y-67609499D01*
X89244801Y-67638497D01*
X86394803Y-70488496D01*
X86365799Y-70512299D01*
X86315827Y-70573191D01*
X86270826Y-70628024D01*
X86205226Y-70750753D01*
X86200254Y-70760054D01*
X86156797Y-70903315D01*
X86145800Y-71014968D01*
X86145800Y-71014978D01*
X86142124Y-71052300D01*
X86145800Y-71089623D01*
X86145801Y-71942668D01*
X86142124Y-71980000D01*
X86145801Y-72017333D01*
X86156798Y-72128986D01*
X86163987Y-72152685D01*
X86200254Y-72272246D01*
X86270826Y-72404276D01*
X86326650Y-72472297D01*
X86365800Y-72520001D01*
X86394798Y-72543799D01*
X88974700Y-75123702D01*
X88998499Y-75152701D01*
X89027497Y-75176499D01*
X89114223Y-75247674D01*
X89237774Y-75313714D01*
X89246253Y-75318246D01*
X89389514Y-75361703D01*
X89501167Y-75372700D01*
X89501176Y-75372700D01*
X89538499Y-75376376D01*
X89575822Y-75372700D01*
X89844816Y-75372700D01*
X89660465Y-75495880D01*
X89465880Y-75690465D01*
X89312995Y-75919273D01*
X89283308Y-75990943D01*
X89278636Y-75977977D01*
X89216656Y-75862020D01*
X88976565Y-75795040D01*
X88190605Y-76581000D01*
X88976565Y-77366960D01*
X89216656Y-77299980D01*
X89280485Y-77164240D01*
X89312995Y-77242727D01*
X89465880Y-77471535D01*
X89660465Y-77666120D01*
X89889273Y-77819005D01*
X90143510Y-77924314D01*
X90413408Y-77978000D01*
X90688592Y-77978000D01*
X90958490Y-77924314D01*
X91212727Y-77819005D01*
X91441535Y-77666120D01*
X91636120Y-77471535D01*
X91789005Y-77242727D01*
X91821000Y-77165485D01*
X91852995Y-77242727D01*
X92005880Y-77471535D01*
X92200465Y-77666120D01*
X92429273Y-77819005D01*
X92683510Y-77924314D01*
X92953408Y-77978000D01*
X93228592Y-77978000D01*
X93498490Y-77924314D01*
X93752727Y-77819005D01*
X93981535Y-77666120D01*
X94039127Y-77608528D01*
X94928100Y-78497502D01*
X94951899Y-78526501D01*
X94980897Y-78550299D01*
X95014041Y-78577500D01*
X89474202Y-78577500D01*
X88699597Y-77802896D01*
X88729980Y-77786656D01*
X88796960Y-77546565D01*
X88011000Y-76760605D01*
X87996858Y-76774748D01*
X87817253Y-76595143D01*
X87831395Y-76581000D01*
X87817253Y-76566858D01*
X87996858Y-76387253D01*
X88011000Y-76401395D01*
X88796960Y-75615435D01*
X88729980Y-75375344D01*
X88480952Y-75258244D01*
X88213865Y-75191977D01*
X87938983Y-75179090D01*
X87666867Y-75220078D01*
X87454506Y-75296598D01*
X87452699Y-75294396D01*
X87452695Y-75294392D01*
X87428901Y-75265399D01*
X87399909Y-75241606D01*
X86152503Y-73994202D01*
X86128701Y-73965199D01*
X86012976Y-73870226D01*
X85880947Y-73799654D01*
X85737686Y-73756197D01*
X85626033Y-73745200D01*
X85626022Y-73745200D01*
X85588700Y-73741524D01*
X85551378Y-73745200D01*
X69732902Y-73745200D01*
X64062773Y-68075072D01*
X64262000Y-68075072D01*
X64386482Y-68062812D01*
X64506180Y-68026502D01*
X64616494Y-67967537D01*
X64713185Y-67888185D01*
X64792537Y-67791494D01*
X64851502Y-67681180D01*
X64855236Y-67668870D01*
X64945592Y-67659971D01*
X64949791Y-67658697D01*
X67902908Y-67658697D01*
X67962186Y-67892312D01*
X68200375Y-68003059D01*
X68455593Y-68065211D01*
X68718033Y-68076376D01*
X68977607Y-68036129D01*
X69224342Y-67946014D01*
X69324814Y-67892312D01*
X69351866Y-67785697D01*
X71141408Y-67785697D01*
X71200686Y-68019312D01*
X71438875Y-68130059D01*
X71694093Y-68192211D01*
X71956533Y-68203376D01*
X72216107Y-68163129D01*
X72462842Y-68073014D01*
X72563314Y-68019312D01*
X72622592Y-67785697D01*
X71882000Y-67045105D01*
X71141408Y-67785697D01*
X69351866Y-67785697D01*
X69384092Y-67658697D01*
X68643500Y-66918105D01*
X67902908Y-67658697D01*
X64949791Y-67658697D01*
X65121840Y-67606507D01*
X65284272Y-67519686D01*
X65426644Y-67402844D01*
X65455930Y-67367159D01*
X66348390Y-66474700D01*
X67335271Y-66474700D01*
X67316789Y-66550593D01*
X67305624Y-66813033D01*
X67345871Y-67072607D01*
X67435986Y-67319342D01*
X67489688Y-67419814D01*
X67723303Y-67479092D01*
X68463895Y-66738500D01*
X68449753Y-66724358D01*
X68629358Y-66544753D01*
X68643500Y-66558895D01*
X68657643Y-66544753D01*
X68837248Y-66724358D01*
X68823105Y-66738500D01*
X69563697Y-67479092D01*
X69797312Y-67419814D01*
X69908059Y-67181625D01*
X69970211Y-66926407D01*
X69981376Y-66663967D01*
X69952030Y-66474700D01*
X70604699Y-66474700D01*
X70555289Y-66677593D01*
X70544124Y-66940033D01*
X70584371Y-67199607D01*
X70674486Y-67446342D01*
X70728188Y-67546814D01*
X70961803Y-67606092D01*
X71702395Y-66865500D01*
X71688253Y-66851358D01*
X71867858Y-66671753D01*
X71882000Y-66685895D01*
X71896143Y-66671753D01*
X72075748Y-66851358D01*
X72061605Y-66865500D01*
X72802197Y-67606092D01*
X73035812Y-67546814D01*
X73146559Y-67308625D01*
X73208711Y-67053407D01*
X73219876Y-66790967D01*
X73179629Y-66531393D01*
X73158923Y-66474700D01*
X75625428Y-66474700D01*
X75625428Y-67564000D01*
X75637688Y-67688482D01*
X75673998Y-67808180D01*
X75732963Y-67918494D01*
X75812315Y-68015185D01*
X75909006Y-68094537D01*
X76019320Y-68153502D01*
X76139018Y-68189812D01*
X76263500Y-68202072D01*
X77660500Y-68202072D01*
X77784982Y-68189812D01*
X77904680Y-68153502D01*
X78014994Y-68094537D01*
X78111685Y-68015185D01*
X78191037Y-67918494D01*
X78250002Y-67808180D01*
X78252332Y-67800500D01*
X87086868Y-67800500D01*
X87132800Y-67805024D01*
X87178732Y-67800500D01*
X87316092Y-67786971D01*
X87492340Y-67733507D01*
X87654772Y-67646686D01*
X87797144Y-67529844D01*
X87826430Y-67494159D01*
X94989665Y-60330925D01*
X95013532Y-60311338D01*
X95223510Y-60398314D01*
X95493408Y-60452000D01*
X95768592Y-60452000D01*
X96038490Y-60398314D01*
X96292727Y-60293005D01*
X96521535Y-60140120D01*
X96716120Y-59945535D01*
X96869005Y-59716727D01*
X96901000Y-59639485D01*
X96932995Y-59716727D01*
X97085880Y-59945535D01*
X97280465Y-60140120D01*
X97509273Y-60293005D01*
X97763510Y-60398314D01*
X98033408Y-60452000D01*
X98308592Y-60452000D01*
X98578490Y-60398314D01*
X98832727Y-60293005D01*
X99061535Y-60140120D01*
X99256120Y-59945535D01*
X99409005Y-59716727D01*
X99441000Y-59639485D01*
X99472995Y-59716727D01*
G36*
X164404748Y-76566858D02*
G01*
X164390605Y-76581000D01*
X164404748Y-76595143D01*
X164225143Y-76774748D01*
X164211000Y-76760605D01*
X164196858Y-76774748D01*
X164017253Y-76595143D01*
X164031395Y-76581000D01*
X164017253Y-76566858D01*
X164196858Y-76387253D01*
X164211000Y-76401395D01*
X164225143Y-76387253D01*
X164404748Y-76566858D01*
G37*
X164404748Y-76566858D02*
X164390605Y-76581000D01*
X164404748Y-76595143D01*
X164225143Y-76774748D01*
X164211000Y-76760605D01*
X164196858Y-76774748D01*
X164017253Y-76595143D01*
X164031395Y-76581000D01*
X164017253Y-76566858D01*
X164196858Y-76387253D01*
X164211000Y-76401395D01*
X164225143Y-76387253D01*
X164404748Y-76566858D01*
G36*
X142652995Y-54636727D02*
G01*
X142805880Y-54865535D01*
X143000465Y-55060120D01*
X143229273Y-55213005D01*
X143483510Y-55318314D01*
X143753408Y-55372000D01*
X144028592Y-55372000D01*
X144298490Y-55318314D01*
X144552727Y-55213005D01*
X144583600Y-55192376D01*
X144583600Y-57837624D01*
X144552727Y-57816995D01*
X144298490Y-57711686D01*
X144028592Y-57658000D01*
X143753408Y-57658000D01*
X143483510Y-57711686D01*
X143229273Y-57816995D01*
X143000465Y-57969880D01*
X142805880Y-58164465D01*
X142652995Y-58393273D01*
X142623308Y-58464943D01*
X142618636Y-58451977D01*
X142556656Y-58336020D01*
X142316565Y-58269040D01*
X141530605Y-59055000D01*
X141544748Y-59069143D01*
X141365143Y-59248748D01*
X141351000Y-59234605D01*
X141336858Y-59248748D01*
X141157253Y-59069143D01*
X141171395Y-59055000D01*
X140385435Y-58269040D01*
X140145344Y-58336020D01*
X140081515Y-58471760D01*
X140049005Y-58393273D01*
X139896120Y-58164465D01*
X139821090Y-58089435D01*
X140565040Y-58089435D01*
X141351000Y-58875395D01*
X142136960Y-58089435D01*
X142069980Y-57849344D01*
X141820952Y-57732244D01*
X141553865Y-57665977D01*
X141278983Y-57653090D01*
X141006867Y-57694078D01*
X140747977Y-57787364D01*
X140632020Y-57849344D01*
X140565040Y-58089435D01*
X139821090Y-58089435D01*
X139701535Y-57969880D01*
X139472727Y-57816995D01*
X139218490Y-57711686D01*
X138948592Y-57658000D01*
X138673408Y-57658000D01*
X138403510Y-57711686D01*
X138203330Y-57794604D01*
X138169659Y-57766970D01*
X135800930Y-55398241D01*
X135771644Y-55362556D01*
X135629272Y-55245714D01*
X135466840Y-55158893D01*
X135290592Y-55105429D01*
X135153232Y-55091900D01*
X135107300Y-55087376D01*
X135061368Y-55091900D01*
X134573973Y-55091900D01*
X134621535Y-55060120D01*
X134816120Y-54865535D01*
X134969005Y-54636727D01*
X135001000Y-54559485D01*
X135032995Y-54636727D01*
X135185880Y-54865535D01*
X135380465Y-55060120D01*
X135609273Y-55213005D01*
X135863510Y-55318314D01*
X136133408Y-55372000D01*
X136408592Y-55372000D01*
X136678490Y-55318314D01*
X136932727Y-55213005D01*
X137161535Y-55060120D01*
X137356120Y-54865535D01*
X137509005Y-54636727D01*
X137541000Y-54559485D01*
X137572995Y-54636727D01*
X137725880Y-54865535D01*
X137920465Y-55060120D01*
X138149273Y-55213005D01*
X138403510Y-55318314D01*
X138673408Y-55372000D01*
X138948592Y-55372000D01*
X139218490Y-55318314D01*
X139472727Y-55213005D01*
X139701535Y-55060120D01*
X139896120Y-54865535D01*
X140049005Y-54636727D01*
X140081000Y-54559485D01*
X140112995Y-54636727D01*
X140265880Y-54865535D01*
X140460465Y-55060120D01*
X140689273Y-55213005D01*
X140943510Y-55318314D01*
X141213408Y-55372000D01*
X141488592Y-55372000D01*
X141758490Y-55318314D01*
X142012727Y-55213005D01*
X142241535Y-55060120D01*
X142436120Y-54865535D01*
X142589005Y-54636727D01*
X142621000Y-54559485D01*
X142652995Y-54636727D01*
G37*
X142652995Y-54636727D02*
X142805880Y-54865535D01*
X143000465Y-55060120D01*
X143229273Y-55213005D01*
X143483510Y-55318314D01*
X143753408Y-55372000D01*
X144028592Y-55372000D01*
X144298490Y-55318314D01*
X144552727Y-55213005D01*
X144583600Y-55192376D01*
X144583600Y-57837624D01*
X144552727Y-57816995D01*
X144298490Y-57711686D01*
X144028592Y-57658000D01*
X143753408Y-57658000D01*
X143483510Y-57711686D01*
X143229273Y-57816995D01*
X143000465Y-57969880D01*
X142805880Y-58164465D01*
X142652995Y-58393273D01*
X142623308Y-58464943D01*
X142618636Y-58451977D01*
X142556656Y-58336020D01*
X142316565Y-58269040D01*
X141530605Y-59055000D01*
X141544748Y-59069143D01*
X141365143Y-59248748D01*
X141351000Y-59234605D01*
X141336858Y-59248748D01*
X141157253Y-59069143D01*
X141171395Y-59055000D01*
X140385435Y-58269040D01*
X140145344Y-58336020D01*
X140081515Y-58471760D01*
X140049005Y-58393273D01*
X139896120Y-58164465D01*
X139821090Y-58089435D01*
X140565040Y-58089435D01*
X141351000Y-58875395D01*
X142136960Y-58089435D01*
X142069980Y-57849344D01*
X141820952Y-57732244D01*
X141553865Y-57665977D01*
X141278983Y-57653090D01*
X141006867Y-57694078D01*
X140747977Y-57787364D01*
X140632020Y-57849344D01*
X140565040Y-58089435D01*
X139821090Y-58089435D01*
X139701535Y-57969880D01*
X139472727Y-57816995D01*
X139218490Y-57711686D01*
X138948592Y-57658000D01*
X138673408Y-57658000D01*
X138403510Y-57711686D01*
X138203330Y-57794604D01*
X138169659Y-57766970D01*
X135800930Y-55398241D01*
X135771644Y-55362556D01*
X135629272Y-55245714D01*
X135466840Y-55158893D01*
X135290592Y-55105429D01*
X135153232Y-55091900D01*
X135107300Y-55087376D01*
X135061368Y-55091900D01*
X134573973Y-55091900D01*
X134621535Y-55060120D01*
X134816120Y-54865535D01*
X134969005Y-54636727D01*
X135001000Y-54559485D01*
X135032995Y-54636727D01*
X135185880Y-54865535D01*
X135380465Y-55060120D01*
X135609273Y-55213005D01*
X135863510Y-55318314D01*
X136133408Y-55372000D01*
X136408592Y-55372000D01*
X136678490Y-55318314D01*
X136932727Y-55213005D01*
X137161535Y-55060120D01*
X137356120Y-54865535D01*
X137509005Y-54636727D01*
X137541000Y-54559485D01*
X137572995Y-54636727D01*
X137725880Y-54865535D01*
X137920465Y-55060120D01*
X138149273Y-55213005D01*
X138403510Y-55318314D01*
X138673408Y-55372000D01*
X138948592Y-55372000D01*
X139218490Y-55318314D01*
X139472727Y-55213005D01*
X139701535Y-55060120D01*
X139896120Y-54865535D01*
X140049005Y-54636727D01*
X140081000Y-54559485D01*
X140112995Y-54636727D01*
X140265880Y-54865535D01*
X140460465Y-55060120D01*
X140689273Y-55213005D01*
X140943510Y-55318314D01*
X141213408Y-55372000D01*
X141488592Y-55372000D01*
X141758490Y-55318314D01*
X142012727Y-55213005D01*
X142241535Y-55060120D01*
X142436120Y-54865535D01*
X142589005Y-54636727D01*
X142621000Y-54559485D01*
X142652995Y-54636727D01*
M02*
